<svg width="73" height="73" viewBox="0 0 73 73" fill="none" xmlns="http://www.w3.org/2000/svg">
<rect width="69.0002" height="69.0002" fill="black" fill-opacity="0" transform="translate(2 2)"/>
<rect width="69.0002" height="69.0002" fill="black" fill-opacity="0" transform="translate(2 2)"/>
<path d="M36.5001 71.0002C55.554 71.0002 71.0002 55.554 71.0002 36.5001C71.0002 17.4462 55.554 2 36.5001 2C17.4462 2 2 17.4462 2 36.5001C2 55.554 17.4462 71.0002 36.5001 71.0002Z" fill="#404040" stroke="white" stroke-width="3"/>
<rect width="51" height="45" fill="black" fill-opacity="0" transform="translate(12 14)"/>
<rect width="51" height="45" fill="black" fill-opacity="0" transform="translate(12 14)"/>
<path d="M37.9197 40.3158C38.9474 40.3158 39.9521 40.009 40.8066 39.4342C41.6611 38.8593 42.3272 38.0423 42.7205 37.0863C43.1138 36.1304 43.2167 35.0785 43.0162 34.0636C42.8157 33.0488 42.3208 32.1166 41.594 31.385C40.8673 30.6533 39.9414 30.1551 38.9335 29.9532C37.9255 29.7514 36.8807 29.855 35.9312 30.2509C34.9817 30.6469 34.1701 31.3174 33.5991 32.1778C33.0281 33.0381 32.7234 34.0496 32.7234 35.0843C32.7234 36.4718 33.2709 37.8024 34.2454 38.7836C35.2199 39.7647 36.5416 40.3158 37.9197 40.3158ZM37.9197 32.3439C38.458 32.3439 38.9843 32.5046 39.4319 32.8058C39.8795 33.1069 40.2284 33.5349 40.4344 34.0356C40.6404 34.5363 40.6943 35.0873 40.5893 35.6189C40.4843 36.1505 40.225 36.6387 39.8444 37.022C39.4637 37.4052 38.9787 37.6662 38.4507 37.772C37.9227 37.8777 37.3754 37.8234 36.8781 37.616C36.3807 37.4086 35.9556 37.0574 35.6565 36.6067C35.3575 36.1561 35.1978 35.6263 35.1978 35.0843C35.1978 34.3575 35.4846 33.6605 35.995 33.1466C36.5055 32.6326 37.1978 32.3439 37.9197 32.3439V32.3439Z" fill="white"/>
<path d="M61.8598 19.8255C61.4342 19.2729 60.9029 18.8118 60.2973 18.4695C59.6916 18.1272 59.024 17.9106 58.3338 17.8325L25.1764 14.0334C24.4899 13.9554 23.7948 14.0144 23.131 14.207C22.4672 14.3996 21.8475 14.722 21.3075 15.1558C20.7675 15.5896 20.3177 16.1262 19.9837 16.7351C19.6498 17.344 19.4384 18.0132 19.3614 18.7044L18.8047 23.6246H18.1861C16.5454 23.6246 14.972 24.2808 13.8119 25.4487C12.6517 26.6167 12 28.2009 12 29.8527V52.7719C12 54.4237 12.6517 56.0079 13.8119 57.1758C14.972 58.3438 16.5454 59 18.1861 59H49.6733C51.2823 59.0007 52.8282 58.3703 53.9832 57.2424C55.1381 56.1145 55.8111 54.578 55.8593 52.9588C56.9787 52.7645 58.0055 52.2106 58.7861 51.3798C59.5667 50.549 60.0591 49.486 60.1896 48.35L62.9733 23.6246C63.1111 22.2602 62.7113 20.896 61.8598 19.8255V19.8255ZM18.1861 26.1158H49.6733C50.6576 26.1158 51.6017 26.5095 52.2978 27.2103C52.9939 27.9111 53.3849 28.8616 53.3849 29.8527V39.0702L38.1053 48.1009L27.0322 38.3228C26.8199 38.1369 26.5509 38.0295 26.2698 38.0181C25.9886 38.0068 25.7121 38.0923 25.4857 38.2605L14.4744 46.357V29.8527C14.4744 28.8616 14.8655 27.9111 15.5616 27.2103C16.2576 26.5095 17.2017 26.1158 18.1861 26.1158V26.1158ZM49.6733 56.5088H18.1861C17.2017 56.5088 16.2576 56.1151 15.5616 55.4143C14.8655 54.7135 14.4744 53.763 14.4744 52.7719V49.4711L26.1661 40.8763L37.1774 50.5298C37.3997 50.7273 37.6851 50.8378 37.9816 50.8412L38.6002 50.6544L53.3849 41.9351V52.7719C53.3849 53.763 52.9939 54.7135 52.2978 55.4143C51.6017 56.1151 50.6576 56.5088 49.6733 56.5088V56.5088ZM60.4989 23.4377L57.7152 48.1009C57.651 48.6213 57.443 49.1132 57.1149 49.5206C56.7869 49.9279 56.3518 50.2345 55.8593 50.4053V29.8527C55.8593 28.2009 55.2076 26.6167 54.0475 25.4487C52.8874 24.2808 51.3139 23.6246 49.6733 23.6246H21.341L21.8359 19.0158C21.9289 18.2939 22.2972 17.6367 22.8629 17.1834C23.4287 16.7301 24.1474 16.5161 24.8671 16.5869L58.0863 20.3237C58.8153 20.4171 59.478 20.7969 59.93 21.3802C60.3819 21.9636 60.5864 22.7032 60.4989 23.4377V23.4377Z" fill="white"/>
</svg>
