<svg width="90" height="90" viewBox="0 0 90 90" fill="none" xmlns="http://www.w3.org/2000/svg">
<path d="M88.5 45C88.5 69.0244 69.0244 88.5 45 88.5C20.9756 88.5 1.5 69.0244 1.5 45C1.5 20.9756 20.9756 1.5 45 1.5C69.0244 1.5 88.5 20.9756 88.5 45Z" fill="#2F80ED" stroke="white" stroke-width="3"/>
<path fill-rule="evenodd" clip-rule="evenodd" d="M24.0352 16.2517L24.0362 16.2536L29.7039 12.0451L24.0352 16.2517ZM33.2408 9.42045L33.3011 9.37578C32.06 1.60484 24.3347 -1.25267 19.4698 0.495649C16.7573 1.47041 14.5183 4.04674 14.868 7.7953C15.6821 8.10795 16.5948 8.56465 17.536 9.16258C16.8441 8.73008 16.1155 8.34044 15.352 7.99818C15.3281 7.98729 15.3024 7.97584 15.2753 7.96409L15.2316 7.94517L15.1892 7.92717C15.0808 7.88136 14.9644 7.83424 14.8737 7.79756L16.0569 19.2312L16.0547 19.2311L14.8688 7.80232C7.55981 4.99833 1.0708 10.1695 0.143126 15.283C-0.374147 18.134 0.798705 21.4164 4.19989 22.986C4.29376 22.9102 4.39099 22.8341 4.49145 22.7579C4.39184 22.8342 4.284 22.92 4.20044 22.9868L14.6263 27.6703L4.20117 22.9903C-1.8667 27.9573 -0.632447 36.2375 3.30481 39.6027C5.49817 41.4773 8.87268 41.9886 11.9222 39.8159C11.9226 39.8182 11.9229 39.8205 11.9233 39.8228C13.1672 47.5898 20.8544 50.7252 25.7183 48.9773C28.4307 48.0025 30.636 45.3177 30.2863 41.5692L30.2842 41.5684L29.1584 30.1621C29.9004 30.1975 30.6449 30.1873 31.3873 30.131C30.6648 30.1875 29.9228 30.2008 29.1659 30.1629L30.2872 41.5648C37.5962 44.3688 44.1041 39.1928 45.0319 34.0793C45.5486 31.2308 44.3566 28.0236 40.9621 26.4526L40.9681 26.4478L40.9768 26.4518C47.0447 21.4848 45.8285 13.2045 41.8912 9.8394C39.6967 7.9637 36.3506 7.2043 33.2998 9.38105L33.2996 9.37947L33.2408 9.42045ZM11.8336 39.0404C11.7841 38.4644 11.762 37.8917 11.7664 37.3237C11.7582 37.9294 11.7823 38.5047 11.8336 39.0404ZM13.5902 29.5318C13.8549 28.9848 14.1464 28.451 14.4634 27.9321C14.1392 28.4578 13.8491 28.9924 13.5902 29.5318ZM22.9946 35.9856C22.3098 35.117 21.691 34.1657 21.1791 33.1383L21.1803 33.1375C21.6982 34.1405 22.3046 35.0942 22.9946 35.9856ZM29.8655 41.3963L29.8961 41.4097L29.9335 41.426C29.4347 41.2141 28.9065 40.9503 28.3627 40.6368C28.8473 40.9107 29.3484 41.1643 29.8655 41.3963ZM40.5527 26.7652C39.4503 27.5638 38.2872 28.2194 37.0853 28.7352C38.4524 28.1575 39.6294 27.4643 40.5527 26.7652ZM33.2643 14.5439L33.2563 14.5952L33.2476 14.6505C33.3387 14.0502 33.4002 13.4419 33.4306 12.8275C33.4058 13.3863 33.3538 13.9605 33.2643 14.5439ZM33.327 9.67726C33.3475 9.88878 33.3664 10.1061 33.383 10.3291C33.3741 10.2272 33.3643 10.1252 33.3537 10.0231C33.3511 9.99919 33.3485 9.97062 33.3459 9.93886L33.3433 9.90513L33.3386 9.8408L33.3318 9.74559L33.327 9.67726ZM23.8401 15.8842C23.3004 14.8945 22.6726 13.955 21.9626 13.08C22.6559 13.925 23.2943 14.8602 23.8401 15.8842ZM15.604 19.2154C14.4546 19.1897 13.3005 19.2735 12.1589 19.469C13.2774 19.2655 14.4367 19.1677 15.604 19.2154ZM5.24286 22.2272C5.18664 22.2647 5.13061 22.3025 5.07471 22.3407C5.03424 22.3684 4.99383 22.3963 4.95349 22.4243C4.88074 22.4749 4.80829 22.5261 4.73602 22.578C4.69299 22.6088 4.65002 22.6399 4.60718 22.6712L4.60419 22.6734C4.80511 22.5245 5.01837 22.3754 5.24286 22.2272Z" transform="translate(21.9045 19.8255)" fill="url(#paint0_radial)"/>
<path opacity="0.65" fill-rule="evenodd" clip-rule="evenodd" d="M16.0295 12.229L14.8425 0.790123C7.53357 -2.01386 1.04458 3.15736 0.116862 8.2708C-0.400378 11.1218 0.772477 14.4042 4.17365 15.9738C6.59782 14.0154 11.2827 11.8803 16.0295 12.229Z" transform="translate(21.9307 26.8173)" fill="url(#paint1_radial)"/>
<path opacity="0.65" fill-rule="evenodd" clip-rule="evenodd" d="M16.1176 12.1553L14.9278 0.782117C7.58484 -2.00893 1.04493 3.18264 0.112904 8.27249C-0.406741 11.1103 0.84878 14.2947 4.26577 15.857C6.697 13.8998 11.129 11.9068 16.1176 12.1553Z" transform="matrix(0.497686 -0.867357 0.864683 0.502317 18 55.3502)" fill="url(#paint2_radial)"/>
<path opacity="0.65" fill-rule="evenodd" clip-rule="evenodd" d="M16.0926 12.1431L14.9659 0.790397C7.62292 -2.00065 1.04732 3.10738 0.115298 8.19723C-0.404347 11.035 0.809439 14.2841 4.22643 15.8464C6.63823 13.9 11.2588 11.8587 16.0926 12.1431Z" transform="matrix(-0.497686 -0.867357 0.864683 -0.502317 40.5922 73)" fill="url(#paint3_radial)"/>
<path opacity="0.65" fill-rule="evenodd" clip-rule="evenodd" d="M15.9815 12.1915L14.8602 0.789647C7.5512 -2.01434 1.04328 3.16169 0.115562 8.27513C-0.401678 11.1261 0.792924 14.3363 4.1941 15.9059C6.54445 13.9641 10.9322 11.9386 15.9815 12.1915Z" transform="translate(67.0519 62.1595) rotate(180)" fill="url(#paint4_radial)"/>
<path opacity="0.65" fill-rule="evenodd" clip-rule="evenodd" d="M16.0794 12.148L14.9513 0.783652C7.60839 -2.0074 1.05938 3.16856 0.127349 8.25841C-0.392295 11.0962 0.632515 14.3774 4.0495 15.9397C5.24452 15.0732 6.74795 14.0894 8.52884 13.3998C10.7325 12.5465 13.2716 12.0251 16.0794 12.148Z" transform="matrix(-0.497686 0.867357 -0.864683 -0.502317 71 33.6823)" fill="url(#paint5_radial)"/>
<path opacity="0.65" fill-rule="evenodd" clip-rule="evenodd" d="M16.0401 12.2374L14.7485 0.773668C7.40559 -2.01738 1.05413 3.26113 0.122106 8.35098C-0.397539 11.1888 0.705495 14.4131 4.12248 15.9754C6.50059 14.048 11.0115 11.9513 16.0401 12.2374Z" transform="matrix(0.497686 0.867357 -0.864683 0.502317 48.5344 16)" fill="url(#paint6_radial)"/>
<defs>
<radialGradient id="paint0_radial" cx="0.5" cy="0.5" r="0.5" gradientUnits="userSpaceOnUse" gradientTransform="translate(11.4524 -69.2011) scale(94.3261 103.221) rotate(50.7566)">
<stop stop-color="#808DFF"/>
<stop offset="0.412807" stop-color="#EDEDED"/>
<stop offset="1" stop-color="#6575FF"/>
</radialGradient>
<radialGradient id="paint1_radial" cx="0.5" cy="0.5" r="0.5" gradientUnits="userSpaceOnUse" gradientTransform="translate(-1.78495 30.4596) scale(21.7507 21.6751) rotate(-102.974)">
<stop stop-color="white"/>
<stop offset="1" stop-color="white" stop-opacity="0.01"/>
</radialGradient>
<radialGradient id="paint2_radial" cx="0.5" cy="0.5" r="0.5" gradientUnits="userSpaceOnUse" gradientTransform="translate(-1.79475 30.2369) scale(21.8702 21.5166) rotate(-102.974)">
<stop stop-color="white"/>
<stop offset="1" stop-color="white" stop-opacity="0.01"/>
</radialGradient>
<radialGradient id="paint3_radial" cx="0.5" cy="0.5" r="0.5" gradientUnits="userSpaceOnUse" gradientTransform="translate(-1.79197 30.2166) scale(21.8362 21.5022) rotate(-102.974)">
<stop stop-color="white"/>
<stop offset="1" stop-color="white" stop-opacity="0.01"/>
</radialGradient>
<radialGradient id="paint4_radial" cx="0.5" cy="0.5" r="0.5" gradientUnits="userSpaceOnUse" gradientTransform="translate(-1.7796 30.3301) scale(21.6855 21.5829) rotate(-102.974)">
<stop stop-color="white"/>
<stop offset="1" stop-color="white" stop-opacity="0.01"/>
</radialGradient>
<radialGradient id="paint5_radial" cx="0.5" cy="0.5" r="0.5" gradientUnits="userSpaceOnUse" gradientTransform="translate(-1.7905 30.3946) scale(21.8183 21.6288) rotate(-102.974)">
<stop stop-color="white"/>
<stop offset="1" stop-color="white" stop-opacity="0.01"/>
</radialGradient>
<radialGradient id="paint6_radial" cx="0.5" cy="0.5" r="0.5" gradientUnits="userSpaceOnUse" gradientTransform="translate(-1.78613 30.4626) scale(21.765 21.6772) rotate(-102.974)">
<stop stop-color="white"/>
<stop offset="1" stop-color="white" stop-opacity="0.01"/>
</radialGradient>
</defs>
</svg>
