<svg width="70" height="70" viewBox="0 0 70 70" fill="none" xmlns="http://www.w3.org/2000/svg">
<path fill-rule="evenodd" clip-rule="evenodd" d="M36.9396 28.0771L36.9407 28.0791L42.6084 23.8706L36.9396 28.0771ZM46.1453 21.2459L46.2056 21.2012C44.9645 13.4303 37.2392 10.5728 32.3743 12.3211C29.6618 13.2959 27.4228 15.8722 27.7725 19.6208C28.5866 19.9334 29.4993 20.3901 30.4405 20.988C29.7485 20.5556 29.02 20.1659 28.2565 19.8237C28.2326 19.8128 28.2068 19.8013 28.1798 19.7896L28.136 19.7706L28.0937 19.7526C27.9853 19.7068 27.8689 19.6597 27.7781 19.623L28.9614 31.0567L28.9592 31.0566L27.7733 19.6278C20.4643 16.8238 13.9753 21.995 13.0476 27.1085C12.5303 29.9594 13.7032 33.2419 17.1044 34.8115C17.1982 34.7357 17.2955 34.6596 17.3959 34.5834C17.2963 34.6596 17.1885 34.7455 17.1049 34.8122L27.5308 39.4958L17.1057 34.8158C11.0378 39.7828 12.272 48.063 16.2093 51.4281C18.4026 53.3028 21.7772 53.8141 24.8267 51.6413C24.8271 51.6437 24.8274 51.646 24.8278 51.6483C26.0717 59.4153 33.7589 62.5507 38.6227 60.8028C41.3351 59.828 43.5405 57.1432 43.1908 53.3947L43.1887 53.3938L42.0629 41.9876C42.8049 42.023 43.5494 42.0128 44.2918 41.9565C43.5693 42.013 42.8273 42.0263 42.0704 41.9884L43.1917 53.3903C50.5007 56.1943 57.0086 51.0182 57.9363 45.9048C58.4531 43.0563 57.261 39.8491 53.8666 38.2781L53.8726 38.2733L53.8813 38.2772C59.9492 33.3103 58.733 25.03 54.7957 21.6649C52.6011 19.7892 49.2551 19.0298 46.2043 21.2065L46.204 21.2049L46.1453 21.2459ZM24.7381 50.8659C24.6885 50.2898 24.6664 49.7171 24.6708 49.1492C24.6627 49.7549 24.6868 50.3301 24.7381 50.8659ZM26.4947 41.3573C26.7594 40.8103 27.0509 40.2765 27.3679 39.7576C27.0437 40.2833 26.7535 40.8179 26.4947 41.3573ZM35.899 47.811C35.2143 46.9425 34.5955 45.9912 34.0836 44.9638L34.0848 44.9629C34.6027 45.966 35.2091 46.9197 35.899 47.811ZM42.77 53.2217L42.8006 53.2352L42.838 53.2515C42.3392 53.0395 41.811 52.7758 41.2672 52.4623C41.7518 52.7362 42.2529 52.9898 42.77 53.2217ZM53.4572 38.5906C52.3548 39.3893 51.1917 40.0449 49.9897 40.5607C51.3569 39.983 52.5339 39.2898 53.4572 38.5906ZM46.1688 26.3694L46.1608 26.4207L46.1521 26.476C46.2432 25.8756 46.3047 25.2674 46.3351 24.6529C46.3103 25.2118 46.2582 25.786 46.1688 26.3694ZM46.2315 21.5027C46.252 21.7142 46.2709 21.9316 46.2875 22.1546C46.2786 22.0527 46.2688 21.9506 46.2582 21.8485C46.2556 21.8247 46.253 21.7961 46.2504 21.7643L46.2478 21.7306L46.243 21.6663L46.2363 21.5711L46.2315 21.5027ZM36.7446 27.7097C36.2049 26.7199 35.5771 25.7805 34.8671 24.9054C35.5604 25.7504 36.1988 26.6857 36.7446 27.7097ZM28.5085 31.0408C27.3591 31.0152 26.205 31.0989 25.0634 31.2945C26.1819 31.0909 27.3412 30.9931 28.5085 31.0408ZM18.1473 34.0527C18.0911 34.0902 18.0351 34.128 17.9792 34.1662C17.9387 34.1939 17.8983 34.2218 17.858 34.2498C17.7852 34.3004 17.7128 34.3516 17.6405 34.4034C17.5975 34.4343 17.5545 34.4654 17.5117 34.4967L17.5087 34.4989C17.7096 34.35 17.9229 34.2008 18.1473 34.0527Z" fill="url(#paint0_radial)"/>
<path opacity="0.65" fill-rule="evenodd" clip-rule="evenodd" d="M28.9603 31.0463L27.7733 19.6074C20.4643 16.8034 13.9753 21.9747 13.0476 27.0881C12.5303 29.939 13.7032 33.2215 17.1044 34.7911C19.5285 32.8327 24.2134 30.6976 28.9603 31.0463Z" fill="url(#paint1_radial)"/>
<path opacity="0.65" fill-rule="evenodd" clip-rule="evenodd" d="M27.532 39.4763L17.1056 34.7954C11.0378 39.7623 12.272 48.0426 16.2093 51.4077C18.4045 53.2839 21.7828 53.7945 24.8343 51.6155C24.3519 48.5236 24.8343 43.6784 27.532 39.4763Z" fill="url(#paint2_radial)"/>
<path opacity="0.65" fill-rule="evenodd" clip-rule="evenodd" d="M34.0831 44.9423L24.8273 51.6222C26.0684 59.3932 33.7578 62.5307 38.6228 60.7824C41.3352 59.8076 43.5405 57.1228 43.1909 53.3743C40.3075 52.2601 36.2428 49.2778 34.0831 44.9423Z" fill="url(#paint3_radial)"/>
<path opacity="0.65" fill-rule="evenodd" clip-rule="evenodd" d="M42.0704 41.968L43.1917 53.3699C50.5007 56.1739 57.0086 50.9978 57.9363 45.8844C58.4536 43.0334 57.259 39.8232 53.8578 38.2536C51.5074 40.1955 47.1197 42.221 42.0704 41.968Z" fill="url(#paint4_radial)"/>
<path opacity="0.65" fill-rule="evenodd" clip-rule="evenodd" d="M43.4933 33.5267L53.8813 38.2568C59.9492 33.2899 58.733 25.0096 54.7957 21.6445C52.6005 19.7683 49.2533 19.0089 46.2018 21.1879C46.3564 22.6597 46.4588 24.4579 46.1687 26.349C45.8099 28.6889 44.997 31.1531 43.4933 33.5267Z" fill="url(#paint5_radial)"/>
<path opacity="0.65" fill-rule="evenodd" clip-rule="evenodd" d="M36.9358 28.0596L46.2056 21.1809C44.9645 13.4099 37.2392 10.5524 32.3742 12.3008C29.6618 13.2755 27.4228 15.8519 27.7725 19.6004C30.6226 20.6949 34.6806 23.5543 36.9358 28.0596Z" fill="url(#paint6_radial)"/>
<defs>
<radialGradient id="paint0_radial" cx="0" cy="0" r="1" gradientUnits="userSpaceOnUse" gradientTransform="translate(17.6669 15.2447) rotate(53.2605) scale(49.8783 48.801)">
<stop stop-color="#F5F5F5"/>
<stop offset="0.412807" stop-color="#ff3464"/>
<stop offset="1" stop-color="#DBDBDB"/>
</radialGradient>
<radialGradient id="paint1_radial" cx="0" cy="0" r="1" gradientUnits="userSpaceOnUse" gradientTransform="translate(19.3019 36.2829) rotate(-103.017) scale(10.8394 10.8734)">
<stop stop-color="$ff3464"/>
<stop offset="1" stop-color="#ff3464" stop-opacity="0.01"/>
</radialGradient>
<radialGradient id="paint2_radial" cx="0" cy="0" r="1" gradientUnits="userSpaceOnUse" gradientTransform="translate(27.1801 50.5029) rotate(-163.042) scale(10.7545 10.9388)">
<stop stop-color="#ff3464"/>
<stop offset="1" stop-color="#ff3464" stop-opacity="0.01"/>
</radialGradient>
<radialGradient id="paint3_radial" cx="0" cy="0" r="1" gradientUnits="userSpaceOnUse" gradientTransform="translate(43.3906 50.7488) rotate(136.694) scale(10.7723 10.8964)">
<stop stop-color="#ff3464"/>
<stop offset="1" stop-color="#ff3464" stop-opacity="0.01"/>
</radialGradient>
<radialGradient id="paint4_radial" cx="0" cy="0" r="1" gradientUnits="userSpaceOnUse" gradientTransform="translate(51.6998 36.7682) rotate(76.9667) scale(10.7941 10.8401)">
<stop stop-color="#ff3464"/>
<stop offset="1" stop-color="#ff3464" stop-opacity="0.01"/>
</radialGradient>
<radialGradient id="paint5_radial" cx="0" cy="0" r="1" gradientUnits="userSpaceOnUse" gradientTransform="translate(43.7493 22.4711) rotate(17.0544) scale(10.8065 10.917)">
<stop stop-color="#ff3464"/>
<stop offset="1" stop-color="#ff3464" stop-opacity="0.01"/>
</radialGradient>
<radialGradient id="paint6_radial" cx="0" cy="0" r="1" gradientUnits="userSpaceOnUse" gradientTransform="translate(27.6037 22.3039) rotate(-43.1622) scale(10.8536 10.8674)">
<stop stop-color="#ff3464"/>
<stop offset="1" stop-color="#ff3464" stop-opacity="0.01"/>
</radialGradient>
</defs>
</svg>
