<svg width="94" height="94" viewBox="0 0 94 94" version="1.1" xmlns="http://www.w3.org/2000/svg" xmlns:xlink="http://www.w3.org/1999/xlink">
<title>desktop_screen_entry</title>
<desc>Created using Figma</desc>
<g id="Canvas" transform="translate(-659 -277)">
<g id="desktop_screen_entry">
<g id="Oval Copy">
<use xlink:href="#path0_fill" transform="translate(661 279)" fill="#D8D8D8" fill-opacity="0.01"/>
<use xlink:href="#path1_stroke" transform="translate(661 279)" fill="#FFFFFF"/>
</g>
<g id="Rectangle 3">
<use xlink:href="#path2_fill" transform="translate(696 341)" fill="#FFFFFF"/>
</g>
<g id="desktop">
<use xlink:href="#path3_fill" transform="translate(685 307)" fill="#FFFFFF"/>
</g>
</g>
</g>
<defs>
<path id="path0_fill" fill-rule="evenodd" d="M 45 90C 69.8528 90 90 69.8528 90 45C 90 20.1472 69.8528 0 45 0C 20.1472 0 0 20.1472 0 45C 0 69.8528 20.1472 90 45 90Z"/>
<path id="path1_stroke" d="M 45 91.5C 70.6812 91.5 91.5 70.6812 91.5 45L 88.5 45C 88.5 69.0244 69.0244 88.5 45 88.5L 45 91.5ZM 91.5 45C 91.5 19.3188 70.6812 -1.5 45 -1.5L 45 1.5C 69.0244 1.5 88.5 20.9756 88.5 45L 91.5 45ZM 45 -1.5C 19.3188 -1.5 -1.5 19.3188 -1.5 45L 1.5 45C 1.5 20.9756 20.9756 1.5 45 1.5L 45 -1.5ZM -1.5 45C -1.5 70.6812 19.3188 91.5 45 91.5L 45 88.5C 20.9756 88.5 1.5 69.0244 1.5 45L -1.5 45Z"/>
<path id="path2_fill" d="M 0 0L 20 0L 20 3L 0 3L 0 0Z"/>
<path id="path3_fill" fill-rule="evenodd" d="M 3 0C 1.34314 0 0 1.34314 0 3L 0 31C 0 32.6569 1.34314 34 3 34L 38 34C 39.6569 34 41 32.6569 41 31L 41 3C 41 1.34314 39.6569 0 38 0L 3 0ZM 36 6L 5 6L 5 28L 36 28L 36 6Z"/>
</defs>
</svg>
