<svg width="90" height="90" viewBox="0 0 90 90" fill="none" xmlns="http://www.w3.org/2000/svg">
<path d="M88.5 45C88.5 69.0244 69.0244 88.5 45 88.5C20.9756 88.5 1.5 69.0244 1.5 45C1.5 20.9756 20.9756 1.5 45 1.5C69.0244 1.5 88.5 20.9756 88.5 45Z" fill="#2F80ED" stroke="white" stroke-width="3"/>
<rect width="20" height="3" transform="translate(35 62)" fill="white"/>
<path fill-rule="evenodd" clip-rule="evenodd" d="M3 0C1.34314 0 0 1.34314 0 3V31C0 32.6569 1.34314 34 3 34H38C39.6569 34 41 32.6569 41 31V3C41 1.34314 39.6569 0 38 0H3ZM36 6H5V28H36V6Z" transform="translate(24 28)" fill="white"/>
</svg>
