<svg width="90" height="90" viewBox="0 0 90 90" fill="none" xmlns="http://www.w3.org/2000/svg">
<path d="M88.5 45C88.5 69.0244 69.0244 88.5 45 88.5C20.9756 88.5 1.5 69.0244 1.5 45C1.5 20.9756 20.9756 1.5 45 1.5C69.0244 1.5 88.5 20.9756 88.5 45Z" fill="#2F80ED" stroke="white" stroke-width="3"/>
<path d="M6.43085 10.78C4.63879 11.0707 0.989932 11.8268 0 12.3286C0.407286 0.547339 6.88406 -1.40044 10.4308 0.779999C6.20865 1.90137 6.32903 8.23614 6.43085 10.78Z" transform="translate(63.9308 26.22) scale(-1 1)" fill="#C4C4C4"/>
<path d="M6.43085 10.78C4.63879 11.0707 0.989932 11.8268 0 12.3286C0.407286 0.547339 6.88406 -1.40044 10.4308 0.779999C6.20865 1.90137 6.32903 8.23614 6.43085 10.78Z" transform="translate(63.9308 26.22) scale(-1 1)" fill="#EFEFEF"/>
<path fill-rule="evenodd" clip-rule="evenodd" d="M24.5605 5.80482C25.9101 5.97699 27.2066 5.21939 27.7191 3.95909C28.2562 2.6386 28.7836 1.47353 29.2965 0.449768C30.5023 0.486954 31.5953 0.526215 32.5396 0.576248C37.6468 0.846878 41.0005 2.3575 43.082 4.39674C41.652 5.02917 39.9324 5.87749 38.2806 6.7238C36.5808 7.59465 34.9323 8.47398 33.7101 9.1348C33.0986 9.46544 32.5928 9.74187 32.2397 9.93584C32.063 10.0328 31.9245 10.1093 31.8299 10.1615L31.6837 10.2425C31.1482 10.5401 30.8475 11.1333 30.924 11.741L30.9331 20.2067C30.9927 20.6802 31.274 21.097 31.6908 21.3294C32.1127 21.5701 32.6088 21.5076 33.0902 21.3629L33.2202 21.3031C33.3336 21.2509 33.4994 21.1743 33.71 21.0762C33.9433 20.9677 34.2318 20.8327 34.5654 20.6754C34.8342 20.5487 35.1323 20.4074 35.4543 20.2536L35.6971 20.1377C37.2061 19.4175 39.9301 18.1175 41.7683 17.163C42.9724 16.5377 44.1934 15.8805 45.311 15.2375C44.9258 16.2405 44.4028 17.0819 43.8096 17.6619L26.5396 27.0762C25.1221 26.0333 25.607 25.4727 26.4716 24.473C28.0096 22.6948 30.7492 19.5272 26.1215 9.78375C20.5023 5.35844 7.8877 5.27588 2.50793 5.24068C0.768799 5.22929 -0.214233 5.22285 0.0396118 5.07625C1.75507 4.08553 12.9818 0.917801 16.6978 0C16.611 0.1875 16.5275 0.367569 16.4472 0.539215C16.4064 0.626404 16.3665 0.711426 16.3274 0.794144C15.9169 1.6626 15.947 2.67513 16.4086 3.51761C16.8701 4.36008 17.7072 4.93059 18.66 5.05214L24.5605 5.80482Z" transform="translate(22.9604 35.9238)" fill="white" stroke="white"/>
<path d="M22.1005 13L16.2 13.7527C8.38013 -5.47592 0.509107 1.80677 0 14.3013C0.0509108 6.10544 2.69312 -0.0498744 10.3976 0.000304595C16.5612 0.0404478 19.9736 8.50061 22.1005 13Z" transform="translate(64.1005 25) scale(-1 1)" fill="white"/>
<path d="M3.07742 20.6423C2.4711 19.613 2.00635 17.7557 2.00006 14.4631C2.43733 8.15539 3.498 6.26762 5.0883 5.3118C6.01698 4.75364 7.34242 4.37637 9.41959 4.05502C10.6769 3.86051 12.0676 3.70364 13.6888 3.52076C14.7747 3.39827 15.9639 3.26412 17.2858 3.09918C18.6038 2.93472 19.7807 2.77388 20.8505 2.62767C22.3081 2.42847 23.567 2.25642 24.7135 2.13937C26.7031 1.93625 27.9151 1.95812 28.7146 2.18707C29.3326 2.36405 29.7427 2.66797 30.1138 3.44848C30.5489 4.36362 30.8831 5.86199 31.0919 8.33907C31.0808 14.4601 29.8232 16.4976 28.3144 17.5182C27.4432 18.1075 26.2773 18.5099 24.6232 18.8794C23.8055 19.062 22.9194 19.2267 21.9273 19.4105L21.8974 19.4161C20.9396 19.5935 19.8961 19.7869 18.7925 20.0223C16.8122 20.3393 14.9038 20.7345 13.1884 21.0899C12.3664 21.2601 11.5886 21.4212 10.8685 21.5601C8.517 22.0137 6.76926 22.233 5.45062 22.0716C4.27945 21.9284 3.58934 21.5113 3.07742 20.6423Z" transform="translate(53.092 39.8761) scale(-1 1)" stroke="white" stroke-width="4"/>
<path d="M0 10.3292L0.685179 4.47255C4.92876 3.04264 9.69318 1.20359 12.5676 0.221048C14.5183 -0.445764 15.9365 0.435362 16.0866 2.33438C16.1919 3.66552 15.1923 4.93186 13.973 5.41957C12.7537 5.90728 0 10.3292 0 10.3292Z" transform="translate(55.4919 43.7408) rotate(-6.67284)" fill="white"/>
</svg>
