<svg xmlns="http://www.w3.org/2000/svg" width="94" height="94">
  <g fill="none">
    <path fill="#D8D8D8" fill-opacity=".01" fill-rule="evenodd" d="M47 92c24.853 0 45-20.147 45-45S71.853 2 47 2 2 22.147 2 47s20.147 45 45 45z" clip-rule="evenodd"/>
    <path stroke="#fff" stroke-width="3" d="M47 92c24.853 0 45-20.147 45-45S71.853 2 47 2 2 22.147 2 47s20.147 45 45 45z"/>
    <path fill="#C4C4C4" d="M59.5 39c1.792.29 5.44 1.047 6.43 1.549C65.525 28.767 59.048 26.819 55.5 29c4.222 1.121 4.102 7.456 4 10z"/>
    <path fill="#C4C4C4" d="M59.5 39c1.792.29 5.44 1.047 6.43 1.549C65.525 28.767 59.048 26.819 55.5 29c4.222 1.121 4.102 7.456 4 10z"/>
    <path fill="#fff" fill-rule="evenodd" stroke="#fff" d="M49.52 43.729a3 3 0 0 0 3.16-1.846 49.424 49.424 0 0 1 1.577-3.51c1.206.038 2.299.077 3.243.127 5.107.27 8.46 1.781 10.542 3.82-1.43.633-3.15 1.481-4.801 2.328a238.752 238.752 0 0 0-6.04 3.212l-.41.225-.147.081a1.5 1.5 0 0 0-.76 1.499l.01 8.465c.06.474.34.89.757 1.123.422.24.918.178 1.4.034l.13-.06a120.01 120.01 0 0 0 1.345-.628c.269-.127.567-.268.889-.422l.242-.116c1.51-.72 4.234-2.02 6.072-2.974a95.31 95.31 0 0 0 3.542-1.926c-.385 1.003-.908 1.845-1.501 2.425L51.5 65c-1.417-1.043-.933-1.604-.068-2.603 1.538-1.778 4.278-4.946-.35-14.69-5.62-4.425-18.234-4.507-23.614-4.543-1.739-.01-2.722-.017-2.468-.164 1.715-.99 12.942-4.158 16.658-5.076a149.626 149.626 0 0 1-.37.794 3 3 0 0 0 2.332 4.258l5.9.753z" clip-rule="evenodd"/>
    <path fill="#fff" d="M44 40l5.9.753c7.82-19.229 15.691-11.946 16.2.548-.05-8.196-2.693-14.35-10.397-14.3C49.539 27.04 46.127 35.5 44 40z"/>
    <mask id="a" fill="#fff">
      <path d="M17.038 1.115C4.277 2.707.865 1.717 0 14.395c0 13.783 7.5 9.45 19.16 7.594 8.824-1.89 13.932-1.037 13.932-13.732C32.243-2.03 29.087-.39 17.038 1.115z"/>
    </mask>
    <g mask="url(#a)" transform="matrix(-1 0 0 1 55.092 41.876)">
      <path fill="#fff" d="M0 14.395l-3.99-.272-.01.136v.136h4zm17.038-13.28l-.495-3.97.495 3.97zm16.054 7.142h4v-.165l-.014-.164-3.986.329zM19.159 21.989l.63 3.95.104-.016.104-.023-.838-3.911zM3.991 14.668c.436-6.386 1.492-7.26 2.128-7.642.579-.348 1.58-.681 3.606-.994 2.071-.32 4.408-.524 7.808-.948l-.99-7.939c-2.98.372-5.856.643-8.04.98-2.23.345-4.529.856-6.506 2.044C-2.479 2.86-3.56 7.83-3.99 14.123l7.982.545zm13.542-9.584c3.216-.401 5.411-.754 7.384-.955 1.975-.202 2.849-.133 3.247-.02.035.01.005-.093.144.198.276.582.593 1.798.797 4.279l7.973-.658c-.22-2.663-.615-5.099-1.546-7.056-1.068-2.247-2.8-3.776-5.166-4.453-2.003-.574-4.23-.456-6.262-.249-2.034.208-4.752.625-7.561.975l.99 7.939zm11.559 3.173c0 6.022-1.247 7.164-1.898 7.605-.552.373-1.418.71-3.007 1.065-.775.174-1.624.332-2.624.517-.978.181-2.076.384-3.241.634l1.675 7.822c1.04-.223 2.033-.406 3.023-.59.969-.18 1.967-.364 2.911-.575 1.852-.413 3.917-1.01 5.745-2.247 4.109-2.78 5.416-7.559 5.416-14.231h-8zM18.53 18.039c-2.982.475-5.911 1.147-8.04 1.557-2.36.456-3.825.61-4.797.49-.676-.082-.754-.224-.892-.459C4.465 19.057 4 17.62 4 14.395h-8c0 3.667.473 6.856 1.908 9.293 1.632 2.77 4.158 4.014 6.814 4.34 2.362.288 4.958-.128 7.283-.576 2.556-.494 4.937-1.06 7.783-1.513l-1.258-7.9z"/>
    </g>
    <path fill="#fff" d="M58.692 56v-5.897C62.741 48.19 67.26 45.81 70 44.5c1.86-.889 3.371-.179 3.74 1.69.26 1.31-.586 2.684-1.74 3.31-1.154.626-13.308 6.5-13.308 6.5z"/>
  </g>
</svg>
