<svg width="70" height="70" viewBox="0 0 70 70" fill="none" xmlns="http://www.w3.org/2000/svg">
<path d="M48.5 26C50.2921 26.2907 53.9409 27.0468 54.9308 27.5486C54.5236 15.7673 48.0468 13.8196 44.5 16C48.7222 17.1214 48.6018 23.4561 48.5 26Z" fill="#C4C4C4"/>
<path d="M48.5 26C50.2921 26.2907 53.9409 27.0468 54.9308 27.5486C54.5236 15.7673 48.0468 13.8196 44.5 16C48.7222 17.1214 48.6018 23.4561 48.5 26Z" fill="#EFEFEF"/>
<path fill-rule="evenodd" clip-rule="evenodd" d="M38.5209 30.7286C39.8705 30.9007 41.167 30.1431 41.6795 28.8828C42.2166 27.5623 42.744 26.3973 43.2569 25.3735C44.4626 25.4107 45.5557 25.45 46.5 25.5C51.6072 25.7706 54.9609 27.2812 57.0424 29.3205C55.6124 29.9529 53.8928 30.8012 52.241 31.6476C50.5412 32.5184 48.8927 33.3977 47.6705 34.0585C47.059 34.3892 46.5532 34.6656 46.2001 34.8596C46.0234 34.9566 45.8849 35.033 45.7903 35.0853L45.644 35.1663C45.1086 35.4638 44.8079 36.057 44.8844 36.6648L44.8935 45.1305C44.9531 45.6039 45.2344 46.0208 45.6512 46.2532C46.0731 46.4938 46.5692 46.4314 47.0506 46.2866L47.1806 46.2269C47.294 46.1746 47.4598 46.098 47.6704 46C47.9037 45.8914 48.1922 45.7565 48.5258 45.5992C48.7946 45.4724 49.0927 45.3311 49.4147 45.1773L49.6575 45.0614C51.1664 44.3413 53.8905 43.0412 55.7287 42.0867C56.9328 41.4615 58.1537 40.8042 59.2714 40.1612C58.8862 41.1642 58.3632 42.0057 57.77 42.5856L40.5 52C39.0825 50.957 39.5674 50.3965 40.432 49.3968C41.97 47.6185 44.7096 44.4509 40.0818 34.7075C34.4626 30.2822 21.8481 30.1996 16.4683 30.1644C14.7292 30.153 13.7462 30.1466 14 30C15.7155 29.0093 26.9421 25.8416 30.6582 24.9238C30.5714 25.1113 30.4879 25.2913 30.4076 25.463C30.3668 25.5502 30.3269 25.6352 30.2878 25.7179C29.8773 26.5863 29.9074 27.5989 30.369 28.4414C30.8304 29.2838 31.6675 29.8543 32.6204 29.9759L38.5209 30.7286Z" fill="#ff3464"/>
<path d="M41.6795 28.8828L41.2163 28.6945L41.2163 28.6945L41.6795 28.8828ZM38.5209 30.7286L38.5842 30.2326L38.5842 30.2326L38.5209 30.7286ZM43.2569 25.3735L43.2723 24.8738L42.953 24.8639L42.8099 25.1496L43.2569 25.3735ZM46.5 25.5L46.5265 25.0007L46.5265 25.0007L46.5 25.5ZM57.0424 29.3205L57.2447 29.7778L57.9192 29.4795L57.3923 28.9633L57.0424 29.3205ZM52.241 31.6476L52.469 32.0925L52.469 32.0925L52.241 31.6476ZM47.6705 34.0585L47.4327 33.6187L47.4327 33.6187L47.6705 34.0585ZM46.2001 34.8596L46.4407 35.2979L46.4408 35.2978L46.2001 34.8596ZM45.7903 35.0853L45.5485 34.6477L45.548 34.6479L45.7903 35.0853ZM45.644 35.1663L45.4018 34.7289L45.4012 34.7292L45.644 35.1663ZM44.8844 36.6648L45.3844 36.6643L45.3844 36.6332L45.3805 36.6023L44.8844 36.6648ZM44.8935 45.1305L44.3935 45.131L44.3935 45.1621L44.3974 45.193L44.8935 45.1305ZM45.6512 46.2532L45.8989 45.8188L45.8947 45.8165L45.6512 46.2532ZM47.0506 46.2866L47.1945 46.7655L47.2278 46.7555L47.2594 46.7409L47.0506 46.2866ZM47.1806 46.2269L47.3894 46.6812L47.3898 46.681L47.1806 46.2269ZM47.6704 46L47.8814 46.4533L47.8814 46.4533L47.6704 46ZM48.5258 45.5992L48.7391 46.0514L48.7391 46.0514L48.5258 45.5992ZM49.4147 45.1773L49.1994 44.7261L49.1993 44.7261L49.4147 45.1773ZM49.6575 45.0614L49.4422 44.6102L49.4422 44.6102L49.6575 45.0614ZM55.7287 42.0867L55.4983 41.643L55.4983 41.643L55.7287 42.0867ZM59.2714 40.1612L59.7381 40.3405L60.2432 39.0252L59.022 39.7278L59.2714 40.1612ZM57.77 42.5856L58.0093 43.0246L58.0701 42.9915L58.1196 42.9431L57.77 42.5856ZM40.5 52L40.2037 52.4027L40.46 52.5913L40.7393 52.439L40.5 52ZM40.432 49.3968L40.8102 49.7238V49.7238L40.432 49.3968ZM40.0818 34.7075L40.5335 34.493L40.4832 34.3872L40.3912 34.3147L40.0818 34.7075ZM16.4683 30.1644L16.4651 30.6644H16.4651L16.4683 30.1644ZM14 30L13.7499 29.567L13.7499 29.567L14 30ZM30.6582 24.9238L31.1119 25.1338L31.5495 24.1886L30.5383 24.4383L30.6582 24.9238ZM30.4076 25.463L30.8605 25.6748L30.8605 25.6748L30.4076 25.463ZM30.2878 25.7179L29.8358 25.5041L29.8357 25.5042L30.2878 25.7179ZM30.369 28.4414L30.8075 28.2011L30.8075 28.2011L30.369 28.4414ZM32.6204 29.9759L32.6837 29.4799L32.6204 29.9759ZM41.2163 28.6945C40.7892 29.7447 39.7088 30.3761 38.5842 30.2326L38.4577 31.2246C40.0321 31.4254 41.5447 30.5416 42.1427 29.0712L41.2163 28.6945ZM42.8099 25.1496C42.2905 26.1863 41.7577 27.3633 41.2163 28.6945L42.1427 29.0712C42.6754 27.7614 43.1975 26.6083 43.7039 25.5975L42.8099 25.1496ZM46.5265 25.0007C45.5764 24.9504 44.4789 24.911 43.2723 24.8738L43.2415 25.8733C44.4464 25.9104 45.5349 25.9496 46.4735 25.9993L46.5265 25.0007ZM57.3923 28.9633C55.2011 26.8166 51.7191 25.2759 46.5265 25.0007L46.4735 25.9993C51.4953 26.2654 54.7206 27.7459 56.6925 29.6777L57.3923 28.9633ZM52.469 32.0925C54.1179 31.2477 55.8276 30.4045 57.2447 29.7778L56.8402 28.8632C55.3972 29.5014 53.6677 30.3548 52.013 31.2026L52.469 32.0925ZM47.9083 34.4984C49.1286 33.8386 50.7736 32.9611 52.469 32.0925L52.013 31.2026C50.3088 32.0757 48.6568 32.9569 47.4327 33.6187L47.9083 34.4984ZM46.4408 35.2978C46.7931 35.1043 47.2979 34.8284 47.9083 34.4984L47.4327 33.6187C46.8201 33.95 46.3134 34.2269 45.9594 34.4213L46.4408 35.2978ZM46.0321 35.5229C46.1264 35.4708 46.2645 35.3946 46.4407 35.2979L45.9594 34.4213C45.7823 34.5186 45.6434 34.5952 45.5485 34.6477L46.0321 35.5229ZM45.8863 35.6037L46.0325 35.5227L45.548 34.6479L45.4018 34.7289L45.8863 35.6037ZM45.3805 36.6023C45.3295 36.1972 45.5299 35.8017 45.8869 35.6033L45.4012 34.7292C44.6872 35.1259 44.2863 35.9169 44.3883 36.7273L45.3805 36.6023ZM45.3935 45.1299L45.3844 36.6643L44.3844 36.6653L44.3935 45.131L45.3935 45.1299ZM45.8947 45.8165C45.6169 45.6615 45.4293 45.3836 45.3896 45.068L44.3974 45.193C44.4769 45.8242 44.852 46.38 45.4077 46.6898L45.8947 45.8165ZM46.9067 45.8078C46.454 45.9439 46.1332 45.9525 45.8989 45.8188L45.4034 46.6875C46.0129 47.0351 46.6843 46.9188 47.1945 46.7655L46.9067 45.8078ZM46.9718 45.7726L46.8418 45.8323L47.2594 46.7409L47.3894 46.6812L46.9718 45.7726ZM47.4594 45.5467C47.2495 45.6444 47.0843 45.7207 46.9714 45.7728L47.3898 46.681C47.5037 46.6285 47.6701 46.5516 47.8814 46.4533L47.4594 45.5467ZM48.3125 45.1469C47.9798 45.3039 47.692 45.4384 47.4594 45.5467L47.8814 46.4533C48.1153 46.3444 48.4046 46.2091 48.7391 46.0514L48.3125 45.1469ZM49.1993 44.7261C48.878 44.8795 48.5806 45.0205 48.3125 45.1469L48.7391 46.0514C49.0085 45.9243 49.3073 45.7827 49.6302 45.6285L49.1993 44.7261ZM49.4422 44.6102L49.1994 44.7261L49.6301 45.6286L49.8729 45.5127L49.4422 44.6102ZM55.4983 41.643C53.6691 42.5928 50.9535 43.8889 49.4422 44.6102L49.8729 45.5127C51.3793 44.7937 54.1119 43.4897 55.9591 42.5305L55.4983 41.643ZM59.022 39.7278C57.9126 40.3661 56.6984 41.0198 55.4983 41.643L55.9591 42.5305C57.1672 41.9031 58.3949 41.2423 59.5207 40.5946L59.022 39.7278ZM58.1196 42.9431C58.7765 42.3009 59.3341 41.3925 59.7381 40.3405L58.8046 39.982C58.4382 40.9359 57.95 41.7104 57.4205 42.2281L58.1196 42.9431ZM40.7393 52.439L58.0093 43.0246L57.5307 42.1466L40.2607 51.561L40.7393 52.439ZM40.0538 49.0697C39.843 49.3134 39.6308 49.5579 39.4674 49.7941C39.3039 50.0304 39.1557 50.3043 39.1145 50.6168C39.0235 51.3074 39.4737 51.8656 40.2037 52.4027L40.7963 51.5973C40.1089 51.0914 40.0927 50.8479 40.1059 50.7475C40.1169 50.6645 40.1634 50.5457 40.2897 50.3631C40.4161 50.1804 40.5887 49.9799 40.8102 49.7238L40.0538 49.0697ZM39.6302 34.922C41.9222 39.7476 42.3544 42.8735 42.0735 44.9728C41.7952 47.0523 40.8106 48.1947 40.0538 49.0697L40.8102 49.7238C41.5914 48.8206 42.7455 47.4901 43.0647 45.1054C43.3811 42.7404 42.8693 39.4108 40.5335 34.493L39.6302 34.922ZM16.4651 30.6644C19.1564 30.682 23.627 30.7117 28.122 31.2857C32.6411 31.8627 37.0783 32.9786 39.7725 35.1003L40.3912 34.3147C37.4662 32.0111 32.7865 30.8731 28.2486 30.2937C23.6865 29.7112 19.1601 29.682 16.4716 29.6644L16.4651 30.6644ZM13.7499 29.567C13.7145 29.5875 13.6378 29.6347 13.5725 29.7184C13.4953 29.8174 13.4056 30.0157 13.5009 30.2425C13.5736 30.4154 13.7129 30.4913 13.7561 30.5134C13.8154 30.5439 13.8724 30.5607 13.9101 30.5703C14.05 30.6061 14.2529 30.622 14.4621 30.6323C14.907 30.6543 15.6013 30.6588 16.4651 30.6644L16.4716 29.6644C15.5962 29.6587 14.9294 29.6542 14.5115 29.6335C14.4083 29.6284 14.3255 29.6226 14.2617 29.616C14.2299 29.6128 14.2051 29.6096 14.1863 29.6067C14.177 29.6053 14.17 29.604 14.1649 29.603C14.1598 29.602 14.1576 29.6015 14.158 29.6015C14.1581 29.6016 14.1627 29.6028 14.1707 29.6055C14.1781 29.6081 14.1933 29.6138 14.2129 29.6239C14.2319 29.6336 14.356 29.6962 14.4228 29.8549C14.5121 30.0675 14.4256 30.2506 14.3611 30.3334C14.3084 30.4009 14.2538 30.4308 14.2501 30.433L13.7499 29.567ZM30.5383 24.4383C28.6705 24.8997 24.9271 25.9233 21.4371 26.955C19.6917 27.4711 18.0053 27.9904 16.6459 28.4436C15.3085 28.8894 14.2317 29.2888 13.7499 29.567L14.2501 30.433C14.626 30.2159 15.5959 29.8477 16.9621 29.3923C18.3062 28.9442 19.9804 28.4285 21.7206 27.914C25.2019 26.8848 28.9298 25.8657 30.7781 25.4092L30.5383 24.4383ZM30.8605 25.6748C30.9412 25.5022 31.0251 25.3215 31.1119 25.1338L30.2045 24.7137C30.1178 24.901 30.0345 25.0804 29.9547 25.2512L30.8605 25.6748ZM30.7398 25.9317C30.7793 25.8481 30.8195 25.7624 30.8605 25.6748L29.9547 25.2512C29.9141 25.3379 29.8745 25.4223 29.8358 25.5041L30.7398 25.9317ZM30.8075 28.2011C30.4228 27.4991 30.3977 26.6553 30.7398 25.9316L29.8357 25.5042C29.3568 26.5174 29.392 27.6987 29.9305 28.6816L30.8075 28.2011ZM32.6837 29.4799C31.8896 29.3786 31.192 28.9032 30.8075 28.2011L29.9304 28.6816C30.4689 29.6645 31.4455 30.3301 32.5572 30.4719L32.6837 29.4799ZM38.5842 30.2326L32.6837 29.4799L32.5572 30.4719L38.4577 31.2246L38.5842 30.2326Z" fill="#ff3464"/>
<path d="M33 27L38.9005 27.7527C46.7204 8.52408 54.5914 15.8068 55.1005 28.3013C55.0496 20.1054 52.4074 13.9501 44.7029 14.0003C38.5393 14.0404 35.1269 22.5006 33 27Z" fill="#ff3464"/>
<path d="M41.0146 49.5184C41.6209 48.4891 42.0856 46.6318 42.0919 43.3392C41.6547 37.0315 40.594 35.1437 39.0037 34.1879C38.075 33.6298 36.7496 33.2525 34.6724 32.9311C33.4151 32.7366 32.0244 32.5798 30.4032 32.3969C29.3173 32.2744 28.1281 32.1402 26.8062 31.9753C25.4882 31.8108 24.3113 31.65 23.2415 31.5038C21.7839 31.3046 20.525 31.1325 19.3785 31.0155C17.3889 30.8124 16.1769 30.8342 15.3774 31.0632C14.7593 31.2402 14.3493 31.5441 13.9782 32.3246C13.5431 33.2397 13.2089 34.7381 13.0001 37.2152C13.0112 43.3363 14.2688 45.3737 15.7776 46.3943C16.6488 46.9836 17.8147 47.386 19.4688 47.7555C20.2865 47.9381 21.1726 48.1028 22.1646 48.2866L22.1946 48.2922C23.1523 48.4696 24.1959 48.663 25.2995 48.8984C27.2798 49.2154 29.1882 49.6107 30.9036 49.966C31.7256 50.1363 32.5034 50.2974 33.2235 50.4363C35.575 50.8898 37.3227 51.1091 38.6414 50.9478C39.8125 50.8045 40.5026 50.3874 41.0146 49.5184Z" stroke="#ff3464" stroke-width="4"/>
<path d="M47.6921 43L47.6921 37.1034C51.7408 35.1901 56.2593 32.8099 59 31.5C60.86 30.611 62.371 31.3214 62.7408 33.1901C63 34.5 62.1543 35.8739 61 36.5C59.8457 37.1261 47.6921 43 47.6921 43Z" fill="#ff3464"/>
</svg>
