<svg width="32" height="34" viewBox="0 0 32 34" version="1.1" xmlns="http://www.w3.org/2000/svg" xmlns:xlink="http://www.w3.org/1999/xlink">
<title>dice_icon</title>
<desc>Created using Figma</desc>
<g id="Canvas" transform="translate(448 -293)">
<g id="dice_icon">
<g id="Group">
<g id="Group">
<g id="Vector">
<use xlink:href="#path0_fill" transform="translate(-448 310.389)" fill="#FFFFFF"/>
</g>
<g id="Vector">
<use xlink:href="#path1_fill" transform="translate(-436.032 293)" fill="#FFFFFF"/>
</g>
</g>
</g>
</g>
</g>
<defs>
<path id="path0_fill" d="M 12.7277 0L 3.47119 0C 1.55509 0 0 1.59463 0 3.55943L 0 13.0513C 0 15.0161 1.55509 16.6107 3.47119 16.6107L 12.7277 16.6107C 14.6449 16.6107 16.1989 15.0161 16.1989 13.0513L 16.1989 3.55943C 16.1989 1.59463 14.6449 0 12.7277 0ZM 4.04972 14.2377C 3.09167 14.2377 2.31412 13.4404 2.31412 12.458C 2.31412 11.4756 3.09167 10.6783 4.04972 10.6783C 5.00777 10.6783 5.78531 11.4756 5.78531 12.458C 5.78531 13.4404 5.00777 14.2377 4.04972 14.2377ZM 4.04972 5.93239C 3.09167 5.93239 2.31412 5.13508 2.31412 4.15267C 2.31412 3.17027 3.09167 2.37296 4.04972 2.37296C 5.00777 2.37296 5.78531 3.17027 5.78531 4.15267C 5.78531 5.13508 5.00777 5.93239 4.04972 5.93239ZM 8.09943 10.0851C 7.14139 10.0851 6.36384 9.28775 6.36384 8.30534C 6.36384 7.32294 7.14139 6.52563 8.09943 6.52563C 9.05748 6.52563 9.83503 7.32294 9.83503 8.30534C 9.83503 9.28775 9.05748 10.0851 8.09943 10.0851ZM 12.1492 14.2377C 11.1911 14.2377 10.4136 13.4404 10.4136 12.458C 10.4136 11.4756 11.1911 10.6783 12.1492 10.6783C 13.1072 10.6783 13.8847 11.4756 13.8847 12.458C 13.8847 13.4404 13.1072 14.2377 12.1492 14.2377ZM 12.1492 5.93239C 11.1911 5.93239 10.4136 5.13508 10.4136 4.15267C 10.4136 3.17027 11.1911 2.37296 12.1492 2.37296C 13.1072 2.37296 13.8847 3.17027 13.8847 4.15267C 13.8847 5.13508 13.1072 5.93239 12.1492 5.93239Z"/>
<path id="path1_fill" d="M 19.0155 7.75393L 12.47 1.04201C 11.115 -0.347359 8.91661 -0.347359 7.56169 1.04201L 1.01617 7.75393C -0.338747 9.14329 -0.338747 11.3976 1.01617 12.787L 7.56169 19.4989C 8.91661 20.8883 11.115 20.8883 12.47 19.4989L 19.0155 12.787C 20.3704 11.3976 20.3704 9.14329 19.0155 7.75393ZM 11.2423 17.4023C 10.5643 18.0964 9.46621 18.0964 8.78817 17.4023C 8.11013 16.7071 8.11013 15.5799 8.78817 14.8847C 9.46621 14.1906 10.5643 14.1906 11.2423 14.8847C 11.9203 15.5799 11.9203 16.7071 11.2423 17.4023ZM 11.2423 11.5281C 10.5643 12.2234 9.46621 12.2234 8.78817 11.5281C 8.11013 10.8328 8.11013 9.70687 8.78817 9.01159C 9.46621 8.31631 10.5643 8.31631 11.2423 9.01159C 11.9203 9.70687 11.9203 10.834 11.2423 11.5281ZM 11.2423 5.65623C 10.5643 6.35032 9.46621 6.35032 8.78817 5.65623C 8.11013 4.96095 8.11013 3.83382 8.78817 3.13855C 9.46621 2.44446 10.5643 2.44446 11.2423 3.13855C 11.9203 3.83382 11.9203 4.96095 11.2423 5.65623Z"/>
</defs>
</svg>
