<svg width="94" height="94" viewBox="0 0 94 94" version="1.1" xmlns="http://www.w3.org/2000/svg" xmlns:xlink="http://www.w3.org/1999/xlink">
<title>gearvr_entry</title>
<desc>Created using Figma</desc>
<g id="Canvas" transform="translate(-659 -395)">
<g id="gearvr_entry">
<g id="Oval Copy">
<use xlink:href="#path0_fill" transform="translate(661 397)" fill="#D8D8D8" fill-opacity="0.01"/>
<use xlink:href="#path1_stroke" transform="translate(661 397)" fill="#FFFFFF"/>
</g>
<g id="Rectangle 3" opacity="0.995697">
<use xlink:href="#path2_fill" transform="translate(683 429)" fill="#D8D8D8" fill-opacity="0.01"/>
<mask id="mask0_outline_ins">
<use xlink:href="#path2_fill" fill="white" transform="translate(683 429)"/>
</mask>
<g mask="url(#mask0_outline_ins)">
<use xlink:href="#path3_stroke_2x" transform="translate(683 429)" fill="#FFFFFF"/>
</g>
</g>
</g>
</g>
<defs>
<path id="path0_fill" fill-rule="evenodd" d="M 45 90C 69.8528 90 90 69.8528 90 45C 90 20.1472 69.8528 0 45 0C 20.1472 0 0 20.1472 0 45C 0 69.8528 20.1472 90 45 90Z"/>
<path id="path1_stroke" d="M 45 91.5C 70.6812 91.5 91.5 70.6812 91.5 45L 88.5 45C 88.5 69.0244 69.0244 88.5 45 88.5L 45 91.5ZM 91.5 45C 91.5 19.3188 70.6812 -1.5 45 -1.5L 45 1.5C 69.0244 1.5 88.5 20.9756 88.5 45L 91.5 45ZM 45 -1.5C 19.3188 -1.5 -1.5 19.3188 -1.5 45L 1.5 45C 1.5 20.9756 20.9756 1.5 45 1.5L 45 -1.5ZM -1.5 45C -1.5 70.6812 19.3188 91.5 45 91.5L 45 88.5C 20.9756 88.5 1.5 69.0244 1.5 45L -1.5 45Z"/>
<path id="path2_fill" fill-rule="evenodd" d="M 0 14C 0 6.26801 6.26801 0 14 0L 31 0C 38.732 0 45 6.26801 45 14C 45 21.732 38.732 28 31 28L 14 28C 6.26801 28 0 21.732 0 14Z"/>
<path id="path3_stroke_2x" d="M 14 9L 31 9L 31 -9L 14 -9L 14 9ZM 31 19L 14 19L 14 37L 31 37L 31 19ZM 14 19C 11.2386 19 9 16.7614 9 14L -9 14C -9 26.7025 1.29745 37 14 37L 14 19ZM 36 14C 36 16.7614 33.7614 19 31 19L 31 37C 43.7025 37 54 26.7025 54 14L 36 14ZM 31 9C 33.7614 9 36 11.2386 36 14L 54 14C 54 1.29745 43.7025 -9 31 -9L 31 9ZM 14 -9C 1.29745 -9 -9 1.29745 -9 14L 9 14C 9 11.2386 11.2386 9 14 9L 14 -9Z"/>
</defs>
</svg>
