<svg width="70" height="70" viewBox="0 0 70 70" fill="none" xmlns="http://www.w3.org/2000/svg">
<path fill-rule="evenodd" clip-rule="evenodd" d="M56.1704 22H16.7123C15.2406 22 14 23.226 14 24.7381V47.2622C14 48.7742 15.2406 50 16.7711 50H27.5496C28.7053 50 29.6958 49.3015 30.112 48.3081L33.2462 40.8289C33.7747 39.5677 35.0324 38.6805 36.5 38.6805C37.9676 38.6805 39.2253 39.5677 39.7538 40.8289L42.888 48.3081C43.3042 49.3015 44.2947 50 45.3916 50H56.1704C57.7594 50 59 48.7742 59 47.2622V24.7381C59 23.226 57.7594 22 56.1704 22ZM26.294 40.9274C23.5369 40.9274 21.3046 38.7226 21.3046 36C21.3046 33.2774 23.5369 31.0729 26.294 31.0729C29.0507 31.0729 31.2785 33.2774 31.2785 36C31.2785 38.7226 29.0459 40.9274 26.294 40.9274ZM46.7086 40.9251C43.9531 40.9251 41.7215 38.7214 41.7215 36C41.7215 33.2789 43.9531 31.0751 46.7086 31.0751C49.4641 31.0751 51.6957 33.2789 51.6957 36C51.6957 38.7214 49.4641 40.9251 46.7086 40.9251Z" fill="white"/>
</svg>
