<svg width="94" height="94" viewBox="0 0 94 94" version="1.1" xmlns="http://www.w3.org/2000/svg" xmlns:xlink="http://www.w3.org/1999/xlink">
<title>generic_vr_entry</title>
<desc>Created using Figma</desc>
<g id="Canvas" transform="translate(-659 -395)">
<g id="generic_vr_entry">
<g id="Oval Copy">
<use xlink:href="#path0_fill" transform="translate(661 397)" fill="#D8D8D8" fill-opacity="0.01"/>
<use xlink:href="#path1_stroke" transform="translate(661 397)" fill="#FFFFFF"/>
</g>
<g id="Imported Layers">
<use xlink:href="#path2_fill" transform="translate(683 429)" fill="#FFFFFF"/>
</g>
</g>
</g>
<defs>
<path id="path0_fill" fill-rule="evenodd" d="M 45 90C 69.8528 90 90 69.8528 90 45C 90 20.1472 69.8528 0 45 0C 20.1472 0 0 20.1472 0 45C 0 69.8528 20.1472 90 45 90Z"/>
<path id="path1_stroke" d="M 45 91.5C 70.6812 91.5 91.5 70.6812 91.5 45L 88.5 45C 88.5 69.0244 69.0244 88.5 45 88.5L 45 91.5ZM 91.5 45C 91.5 19.3188 70.6812 -1.5 45 -1.5L 45 1.5C 69.0244 1.5 88.5 20.9756 88.5 45L 91.5 45ZM 45 -1.5C 19.3188 -1.5 -1.5 19.3188 -1.5 45L 1.5 45C 1.5 20.9756 20.9756 1.5 45 1.5L 45 -1.5ZM -1.5 45C -1.5 70.6812 19.3188 91.5 45 91.5L 45 88.5C 20.9756 88.5 1.5 69.0244 1.5 45L -1.5 45Z"/>
<path id="path2_fill" fill-rule="evenodd" d="M 42.1704 1.9159e-15L 2.71227 1.9159e-15C 1.24057 1.9159e-15 0 1.22604 0 2.73805L 0 25.2622C 0 26.7742 1.24057 28 2.77108 28L 13.5496 28C 14.7053 28 15.6958 27.3015 16.112 26.3081L 19.2462 18.8289C 19.7747 17.5677 21.0324 16.6805 22.5 16.6805C 23.9676 16.6805 25.2253 17.5677 25.7538 18.8289L 28.888 26.3081C 29.3042 27.3015 30.2947 28 31.3916 28L 42.1704 28C 43.7594 28 45 26.7742 45 25.2622L 45 2.73805C 45 1.22604 43.7594 1.9159e-15 42.1704 1.9159e-15ZM 12.2939 18.9274C 9.53693 18.9274 7.30457 16.7226 7.30457 14C 7.30457 11.2774 9.53693 9.07287 12.2939 9.07287C 15.0507 9.07287 17.2785 11.2774 17.2785 14C 17.2785 16.7226 15.0459 18.9274 12.2939 18.9274ZM 32.7086 18.9251C 29.9531 18.9251 27.7215 16.7214 27.7215 14C 27.7215 11.2789 29.9531 9.07514 32.7086 9.07514C 35.4641 9.07514 37.6957 11.2789 37.6957 14C 37.6957 16.7214 35.4641 18.9251 32.7086 18.9251Z"/>
</defs>
</svg>
