<svg width="90" height="90" viewBox="0 0 90 90" fill="none" xmlns="http://www.w3.org/2000/svg">
<path d="M88.5 45C88.5 69.0244 69.0244 88.5 45 88.5C20.9756 88.5 1.5 69.0244 1.5 45C1.5 20.9756 20.9756 1.5 45 1.5C69.0244 1.5 88.5 20.9756 88.5 45Z" fill="#2F80ED" stroke="white" stroke-width="3"/>
<path fill-rule="evenodd" clip-rule="evenodd" d="M42.1704 0H2.71227C1.24057 0 0 1.22604 0 2.73805V25.2622C0 26.7742 1.24057 28 2.77108 28H13.5496C14.7053 28 15.6958 27.3015 16.112 26.3081L19.2462 18.8289C19.7747 17.5677 21.0324 16.6805 22.5 16.6805C23.9676 16.6805 25.2253 17.5677 25.7538 18.8289L28.888 26.3081C29.3042 27.3015 30.2947 28 31.3916 28H42.1704C43.7594 28 45 26.7742 45 25.2622V2.73805C45 1.22604 43.7594 0 42.1704 0ZM12.294 18.9274C9.53693 18.9274 7.30457 16.7226 7.30457 14C7.30457 11.2774 9.53693 9.07287 12.294 9.07287C15.0507 9.07287 17.2785 11.2774 17.2785 14C17.2785 16.7226 15.0459 18.9274 12.294 18.9274ZM32.7086 18.9251C29.9531 18.9251 27.7215 16.7214 27.7215 14C27.7215 11.2789 29.9531 9.07514 32.7086 9.07514C35.4641 9.07514 37.6957 11.2789 37.6957 14C37.6957 16.7214 35.4641 18.9251 32.7086 18.9251Z" transform="translate(22 32)" fill="white"/>
</svg>
