<svg width="55" height="55" viewBox="0 0 55 55" version="1.1" xmlns="http://www.w3.org/2000/svg" xmlns:xlink="http://www.w3.org/1999/xlink">
<title>hub_create_button_enabled</title>
<desc>Created using Figma</desc>
<g id="Canvas" transform="translate(-92 -236)">
<g id="hub_create_button_enabled">
<g id="Oval Copy">
<use xlink:href="#path0_fill" transform="translate(94 238)" fill="#2F80ED"/>
<use xlink:href="#path1_stroke" transform="translate(94 238)" fill="#FFFFFF"/>
</g>
<g id="Union">
<use xlink:href="#path2_fill" transform="translate(112.7 255.567)" fill="#FFFFFF"/>
</g>
</g>
</g>
<defs>
<path id="path0_fill" fill-rule="evenodd" d="M 25.5 51C 39.5833 51 51 39.5833 51 25.5C 51 11.4167 39.5833 0 25.5 0C 11.4167 0 0 11.4167 0 25.5C 0 39.5833 11.4167 51 25.5 51Z"/>
<path id="path1_stroke" d="M 25.5 52.5C 40.4117 52.5 52.5 40.4117 52.5 25.5L 49.5 25.5C 49.5 38.7548 38.7548 49.5 25.5 49.5L 25.5 52.5ZM 52.5 25.5C 52.5 10.5883 40.4117 -1.5 25.5 -1.5L 25.5 1.5C 38.7548 1.5 49.5 12.2452 49.5 25.5L 52.5 25.5ZM 25.5 -1.5C 10.5883 -1.5 -1.5 10.5883 -1.5 25.5L 1.5 25.5C 1.5 12.2452 12.2452 1.5 25.5 1.5L 25.5 -1.5ZM -1.5 25.5C -1.5 40.4117 10.5883 52.5 25.5 52.5L 25.5 49.5C 12.2452 49.5 1.5 38.7548 1.5 25.5L -1.5 25.5Z"/>
<path id="path2_fill" fill-rule="evenodd" d="M 6.8 0L 15.3 7.64999L 6.8 15.3L 6.8 10.2L 0 10.2L 0 5.10001L 6.8 5.10001L 6.8 0Z"/>
</defs>
</svg>
