<svg width="509" height="102" viewBox="0 0 509 102" version="1.1" xmlns="http://www.w3.org/2000/svg" xmlns:xlink="http://www.w3.org/1999/xlink">
<g data-name="Canvas" fill="none">
<g data-name="logo">
<g data-name="ducky">
<g data-name="Group 2">
<g data-name="noun_12039_cc">
<g data-name="Subtract">
<path fill-rule="evenodd" clip-rule="evenodd" d="M 54.7397 21.2729C 55.4336 20.1276 55.8378 19.4605 56.5217 19.9826C 63.2177 25.0903 65.401 37.5392 60.5405 47.3625C 59.2541 49.9626 57.5664 52.1641 55.5724 54.014C 54.2682 53.9409 53.0217 53.6718 51.8827 53.2424L 51.8827 48.3815C 51.3302 49.6896 50.4211 50.8636 49.2547 51.8315C 47.9809 50.8988 46.9925 49.7175 46.421 48.3815L 46.421 53.554C 44.8222 54.2442 43.006 54.6346 41.0974 54.6346C 36.167 54.6346 31.8529 52.0292 30.3121 48.3815C 28.7714 52.0292 24.4572 54.6346 19.5268 54.6346C 14.5964 54.6346 10.2823 52.0292 8.74155 48.3815C 7.93555 50.2896 6.3707 51.9125 4.35568 53.0265C 2.31998 50.0722 1.13104 46.5208 1.13104 42.5395C 1.13104 34.5675 5.86884 27.7127 12.6621 24.6597C 6.13651 22.1679 0 18.0372 0 13.89C 0 9.51408 4.02563 10.3671 9.05475 11.4327L 9.35098 11.4954C 10.7103 4.93181 16.4876 0 23.4137 0C 31.3488 0 37.7803 6.47464 37.7803 14.4608C 37.7803 19.5135 35.2023 23.9551 31.3005 26.541C 34.8666 27.7466 39.0843 28.6553 44.058 28.0698C 51.1259 27.2376 53.4406 23.4172 54.7397 21.2729Z" transform="translate(429.829 9)" fill="url(#paint0_linear)"/>
</g>
</g>
<g data-name="Ellipse">
<ellipse cx="3.8521" cy="3.90797" rx="3.8521" ry="3.90797" transform="matrix(0.998707 0.0508408 -0.0486501 0.998816 443.772 18.0556)" fill="black"/>
</g>
<g data-name="Mask Group">
<mask id="mask0" mask-type="alpha" maskUnits="userSpaceOnUse" x="421" y="15" width="22" height="49">
<g data-name="Vector">
<path d="M 5.75571 16.8472C 4.85408 18.6165 4.23851 20.4278 3.85141 22.2439L 9.14736 47.4861C 9.60188 48.354 9.73351 48.626 9.28354 48.1352L 9.14736 47.4861C 7.487 44.3155 1.51792 33.1918 3.85141 22.2439L 0 3.88688L 13.8892 0C 21.1574 5.65856 21.2129 8.30265 20.5637 18.0342C 12.1392 20.2348 8.76311 10.9455 5.75571 16.8472Z" transform="translate(421.915 15.6221)" fill="#C4C4C4"/>
</g>
</mask>
<g mask="url(#mask0)">
<g data-name="Vector">
<path d="M 56.5217 19.9826C 54.5572 18.4832 54.9011 26.7932 44.058 28.0698C 39.0843 28.6553 34.8666 27.7466 31.3005 26.541C 35.2023 23.9551 37.7803 19.5135 37.7803 14.4608C 37.7803 6.47464 31.3488 2.07491e-08 23.4137 2.07491e-08C 16.4876 2.07491e-08 10.7103 4.93181 9.35099 11.4954C 4.18468 10.4024 -4.54742e-09 9.42848 -4.54742e-09 13.8899C -4.54742e-09 18.0372 6.13651 22.1679 12.6621 24.6597C 5.86885 27.7127 1.13105 34.5675 1.13105 42.5395C 1.13105 53.3508 9.8984 60.992 20.5813 62.1157C 35.7503 63.7117 53.7453 61.097 60.5405 47.3625C 65.401 37.5392 63.2177 25.0903 56.5217 19.9826Z" transform="translate(429.829 9)" fill="#FF8A00"/>
</g>
</g>
</g>
<g data-name="Ellipse">
<ellipse cx="1.09218" cy="1.10621" rx="1.09218" ry="1.10621" transform="translate(447.581 20.0621)" fill="white"/>
</g>
</g>
</g>
<g data-name="duck border">
<path d="M 0 0L 75.5 0" stroke-width="2" transform="translate(428 51)" stroke="black"/>
</g>
<g data-name="Text">
<g data-name="moz logo">
<g data-name="Rectangle 2.1">
<rect width="172" height="49" transform="translate(337 52)" fill="white"/>
</g>
<g data-name="moz://a">
<path d="M 41.472 45L 32.4 45L 32.4 32.808C 32.4 30.952 32.08 29.624 31.44 28.824C 30.832 28.024 29.92 27.624 28.704 27.624C 27.232 27.624 26.16 28.104 25.488 29.064C 24.848 30.024 24.528 31.256 24.528 32.76L 24.528 40.344L 27.408 40.344L 27.408 45L 18.336 45L 18.336 32.808C 18.336 30.952 18.016 29.624 17.376 28.824C 16.768 28.024 15.856 27.624 14.64 27.624C 13.136 27.624 12.064 28.104 11.424 29.064C 10.784 30.024 10.464 31.256 10.464 32.76L 10.464 40.344L 14.592 40.344L 14.592 45L 1.392 45L 1.392 40.344L 4.272 40.344L 4.272 28.056L 1.44 28.056L 1.44 23.352L 10.464 23.352L 10.464 26.616C 11.84 24.152 14.032 22.92 17.04 22.92C 18.608 22.92 20.048 23.304 21.36 24.072C 22.672 24.84 23.584 26.008 24.096 27.576C 25.376 24.472 27.728 22.92 31.152 22.92C 33.104 22.92 34.832 23.528 36.336 24.744C 37.84 25.96 38.592 27.848 38.592 30.408L 38.592 40.344L 41.472 40.344L 41.472 45ZM 66.1909 34.2C 66.1909 37.624 65.0709 40.36 62.8309 42.408C 60.5909 44.456 57.7429 45.48 54.2869 45.48C 50.9589 45.48 48.2389 44.52 46.1269 42.6C 44.0469 40.648 43.0069 37.928 43.0069 34.44C 43.0069 31.272 43.9669 28.552 45.8869 26.28C 47.8069 24.008 50.7189 22.872 54.6229 22.872C 58.5269 22.872 61.4229 24.008 63.3109 26.28C 65.2309 28.52 66.1909 31.16 66.1909 34.2ZM 59.8069 34.008C 59.8069 31.8 59.2949 30.184 58.2709 29.16C 57.2469 28.136 55.9989 27.624 54.5269 27.624C 52.9269 27.624 51.6629 28.2 50.7349 29.352C 49.8389 30.472 49.3909 32.056 49.3909 34.104C 49.3909 35.96 49.8069 37.528 50.6389 38.808C 51.5029 40.088 52.7829 40.728 54.4789 40.728C 56.0789 40.728 57.3589 40.136 58.3189 38.952C 59.3109 37.736 59.8069 36.088 59.8069 34.008ZM 87.8119 45L 68.8999 45L 68.2759 41.736L 79.8919 28.008L 73.4119 28.008L 72.4519 31.32L 67.9879 30.936L 68.7559 23.352L 87.7639 23.352L 88.2439 26.616L 76.2919 40.344L 83.2519 40.344L 84.2599 36.936L 89.1559 37.416L 87.8119 45ZM 92.8789 31.128L 92.8789 23.352L 99.3109 23.352L 99.3109 31.128L 92.8789 31.128ZM 92.8789 45L 92.8789 37.224L 99.3109 37.224L 99.3109 45L 92.8789 45ZM 119.281 11.976L 109.921 45L 103.825 45L 113.185 11.976L 119.281 11.976ZM 131.562 11.976L 122.202 45L 116.106 45L 125.466 11.976L 131.562 11.976ZM 133.858 24.888C 135.746 24.12 137.314 23.608 138.562 23.352C 139.842 23.064 141.362 22.92 143.122 22.92C 145.458 22.92 147.474 23.528 149.17 24.744C 150.866 25.96 151.714 27.8 151.714 30.264L 151.714 39.672C 151.714 40.792 152.21 41.352 153.202 41.352C 153.49 41.352 153.794 41.304 154.114 41.208L 154.162 44.472C 152.914 45.144 151.618 45.48 150.274 45.48C 147.426 45.48 145.842 44.056 145.522 41.208L 145.522 41.16C 144.914 42.248 144.034 43.24 142.882 44.136C 141.762 45.032 140.322 45.48 138.562 45.48C 136.994 45.48 135.49 45.016 134.05 44.088C 132.61 43.16 131.89 41.56 131.89 39.288C 131.89 36.632 132.946 34.872 135.058 34.008C 137.202 33.144 139.506 32.712 141.97 32.712C 143.346 32.712 144.53 32.776 145.522 32.904L 145.522 32.184C 145.522 31.064 145.362 29.976 145.042 28.92C 144.754 27.864 143.73 27.336 141.97 27.336C 141.33 27.336 140.738 27.384 140.194 27.48C 139.682 27.544 139.17 27.704 138.658 27.96L 137.842 31.032L 132.898 30.504L 133.858 24.888ZM 145.522 36.168L 145.522 35.88C 145.01 35.816 144.482 35.752 143.938 35.688C 143.426 35.624 142.914 35.592 142.402 35.592C 141.314 35.592 140.354 35.8 139.522 36.216C 138.69 36.6 138.274 37.384 138.274 38.568C 138.274 39.272 138.466 39.864 138.85 40.344C 139.234 40.824 139.89 41.064 140.818 41.064C 141.906 41.064 142.914 40.68 143.842 39.912C 144.802 39.112 145.362 37.864 145.522 36.168Z" transform="translate(347 46)" fill="black"/>
</g>
</g>
<g data-name="by">
<path d="M 14.61 21.01C 14.61 22.15 14.42 23.28 14.04 24.4C 13.66 25.52 13.03 26.45 12.15 27.19C 11.29 27.93 10.15 28.3 8.73 28.3C 7.69 28.3 6.74 28.08 5.88 27.64C 5.04 27.2 4.4 26.56 3.96 25.72L 3.69 28L 2.04 28C 2.12 27.44 2.2 26.83 2.28 26.17C 2.38 25.49 2.43 24.83 2.43 24.19L 2.43 8.74L 0 8.74L 0 7.36L 4.08 7.36L 4.08 17.5C 4.5 16.68 5.08 15.96 5.82 15.34C 6.58 14.72 7.61 14.41 8.91 14.41C 10.57 14.41 11.93 14.98 12.99 16.12C 14.07 17.26 14.61 18.89 14.61 21.01ZM 12.87 21.16C 12.87 19.4 12.45 18.08 11.61 17.2C 10.77 16.32 9.76 15.88 8.58 15.88C 7.24 15.88 6.16 16.37 5.34 17.35C 4.54 18.33 4.12 19.32 4.08 20.32L 4.08 22.78C 4.08 23.9 4.51 24.86 5.37 25.66C 6.23 26.44 7.25 26.83 8.43 26.83C 10.05 26.83 11.19 26.23 11.85 25.03C 12.53 23.83 12.87 22.54 12.87 21.16ZM 30.3495 16.09L 28.6695 16.09L 23.8695 28L 21.9195 33.01L 24.3495 33.01L 24.3495 34.39L 17.7495 34.39L 17.7495 33.01L 20.3295 33.01L 22.2495 27.91L 17.3595 16.09L 15.7095 16.09L 15.7095 14.68L 21.7095 14.68L 21.7095 16.09L 19.0995 16.09L 23.1195 25.78L 23.2995 25.78L 26.9595 16.09L 24.5295 16.09L 24.5295 14.68L 30.3495 14.68L 30.3495 16.09Z" transform="translate(337 12)" fill="white"/>
</g>
<g data-name="Hubs">
<path d="M 102.24 136L 69.552 136L 69.552 128.656L 81.792 128.656L 81.792 91.792L 26.64 91.792L 26.64 128.656L 38.88 128.656L 38.88 136L 6.192 136L 6.192 128.656L 18.432 128.656L 18.432 49.744L 6.192 49.744L 6.192 42.4L 38.88 42.4L 38.88 49.744L 26.64 49.744L 26.64 84.736L 81.792 84.736L 81.792 49.744L 69.552 49.744L 69.552 42.4L 102.24 42.4L 102.24 49.744L 90.144 49.744L 90.144 128.656L 102.24 128.656L 102.24 136ZM 183.085 136L 163.213 136L 163.213 123.328C 161.197 127.552 158.221 130.96 154.285 133.552C 150.349 136.144 145.789 137.44 140.605 137.44C 134.269 137.44 128.989 135.472 124.765 131.536C 120.541 127.6 118.429 121.264 118.429 112.528L 118.429 78.832L 106.621 78.832L 106.621 72.064L 126.349 72.064L 126.349 110.656C 126.349 117.952 127.885 123.088 130.957 126.064C 134.125 128.944 138.109 130.384 142.909 130.384C 148.669 130.384 153.421 128.128 157.165 123.616C 161.005 119.104 163.021 114.544 163.213 109.936L 163.213 78.832L 149.101 78.832L 149.101 72.064L 171.133 72.064L 171.133 129.376L 183.085 129.376L 183.085 136ZM 255.472 102.448C 255.472 107.92 254.56 113.344 252.736 118.72C 250.912 124.096 247.888 128.56 243.664 132.112C 239.536 135.664 234.064 137.44 227.248 137.44C 222.256 137.44 217.696 136.384 213.568 134.272C 209.536 132.16 206.464 129.088 204.352 125.056L 203.056 136L 195.136 136C 195.52 133.312 195.904 130.384 196.288 127.216C 196.768 123.952 197.008 120.784 197.008 117.712L 197.008 43.552L 185.344 43.552L 185.344 36.928L 204.928 36.928L 204.928 85.6C 206.944 81.664 209.728 78.208 213.28 75.232C 216.928 72.256 221.872 70.768 228.112 70.768C 236.08 70.768 242.608 73.504 247.696 78.976C 252.88 84.448 255.472 92.272 255.472 102.448ZM 247.12 103.168C 247.12 94.72 245.104 88.384 241.072 84.16C 237.04 79.936 232.192 77.824 226.528 77.824C 220.096 77.824 214.912 80.176 210.976 84.88C 207.136 89.584 205.12 94.336 204.928 99.136L 204.928 110.944C 204.928 116.32 206.992 120.928 211.12 124.768C 215.248 128.512 220.144 130.384 225.808 130.384C 233.584 130.384 239.056 127.504 242.224 121.744C 245.488 115.984 247.12 109.792 247.12 103.168ZM 317.578 117.856C 317.578 123.808 315.034 128.56 309.946 132.112C 304.955 135.664 298.763 137.44 291.371 137.44C 286.858 137.44 282.394 136.816 277.979 135.568C 273.658 134.224 270.346 132.736 268.043 131.104L 269.771 117.568L 276.25 118.144L 275.674 126.784C 280.186 129.184 285.322 130.384 291.082 130.384C 295.787 130.384 300.011 129.472 303.755 127.648C 307.595 125.728 309.515 122.752 309.515 118.72C 309.515 114.88 308.122 112.144 305.338 110.512C 302.65 108.88 299.29 107.728 295.258 107.056C 291.227 106.288 287.195 105.472 283.163 104.608C 279.227 103.744 275.866 102.16 273.082 99.856C 270.395 97.552 269.051 93.952 269.051 89.056C 269.051 82.528 271.403 77.872 276.107 75.088C 280.811 72.208 285.947 70.768 291.515 70.768C 295.931 70.768 300.059 71.392 303.898 72.64C 307.835 73.888 311.003 75.232 313.403 76.672L 314.843 91.36L 308.219 92.224L 306.491 81.424C 304.475 80.368 302.363 79.504 300.155 78.832C 297.947 78.16 295.403 77.824 292.523 77.824C 288.01 77.824 284.362 78.64 281.578 80.272C 278.794 81.904 277.402 84.544 277.402 88.192C 277.402 91.84 278.746 94.432 281.434 95.968C 284.122 97.408 287.482 98.464 291.515 99.136C 295.547 99.808 299.531 100.624 303.467 101.584C 307.499 102.544 310.859 104.224 313.547 106.624C 316.234 109.024 317.578 112.768 317.578 117.856Z" transform="translate(-6 -36)" fill="white"/>
</g>
</g>
</g>
</g>
<defs>

<linearGradient id="paint0_linear" x2="1" gradientUnits="userSpaceOnUse" gradientTransform="matrix(0 62.5308 -63.171 0 63.171 0)">
<stop stop-color="#FFC000"/>
<stop offset="1" stop-color="#FFD600"/>
</linearGradient>

</defs>
</svg>

