<svg width="1101" height="150" viewBox="0 0 1101 150" version="1.1" xmlns="http://www.w3.org/2000/svg" xmlns:xlink="http://www.w3.org/1999/xlink">
<title>logo</title>
<desc>Created using Figma</desc>
<g id="Canvas" transform="matrix(3 0 0 3 1473 588)">
<g id="logo">
<g id="Rectangle 2.1">
<use xlink:href="#path0_fill" transform="translate(-491 -196)" fill="#FFFFFF"/>
</g>
<g id="moz://a">
<use xlink:href="#path1_fill" transform="translate(-481 -202)"/>
</g>
<g id="Group 5.1">
<g id="duck">
<use xlink:href="#path2_fill" transform="translate(-311 -199)" fill="#FFFFFF"/>
</g>
<g id="Group 4">
<g id="Group 2">
<g id="noun_12039_cc">
<g id="Subtract">
<use xlink:href="#path3_fill" transform="translate(-191.254 -196)" fill="url(#paint3_linear)"/>
</g>
</g>
<g id="Ellipse">
<use xlink:href="#path4_fill" transform="matrix(0.998739 0.0501978 -0.0492734 0.998785 -178.487 -187.814)"/>
</g>
<g id="Mask Group">
<mask id="mask0_alpha" mask-type="alpha">
<g id="Vector">
<use xlink:href="#path5_fill" transform="translate(-198.5 -190.014)" fill="#C4C4C4"/>
</g>
</mask>
<g id="Vector" mask="url(#mask0_alpha)">
<use xlink:href="#path6_fill" transform="translate(-191.254 -196)" fill="#FF8A00"/>
</g>
</g>
<g id="Ellipse">
<use xlink:href="#path7_fill" transform="translate(-175 -186)" fill="#FFFFFF"/>
</g>
</g>
<g id="Group 4.1">
<g id="Group 3">
<g id="Subtract">
<use xlink:href="#path8_fill" transform="translate(-203 -157.13)" fill="url(#paint8_radial)"/>
</g>
</g>
</g>
</g>
</g>
</g>
</g>
<defs>
<linearGradient id="paint3_linear" x1="0" y1="0" x2="1" y2="0" gradientUnits="userSpaceOnUse" gradientTransform="matrix(3.54163e-15 56.5272 -57.8393 3.46129e-15 57.8393 1.67757e-22)">
<stop offset="0" stop-color="#FFC000"/>
<stop offset="1" stop-color="#FFD600"/>
</linearGradient>
<radialGradient id="paint8_radial" cx="0.5" cy="0.5" r="0.5" gradientUnits="userSpaceOnUse" gradientTransform="matrix(-5 -160 111.805 -3.49389 -13.4023 140.377)">
<stop offset="0" stop-color="#2F80ED" stop-opacity="0"/>
<stop offset="0.154696" stop-color="#2F80ED"/>
<stop offset="0.508287" stop-color="#2F80ED"/>
<stop offset="0.883978" stop-color="#2F80ED"/>
<stop offset="0.983425" stop-color="#2F80ED" stop-opacity="0.51"/>
</radialGradient>
<path id="path0_fill" d="M 0 0L 172 0L 172 49L 0 49L 0 0Z"/>
<path id="path1_fill" d="M 41.472 45L 32.4 45L 32.4 32.808C 32.4 30.952 32.08 29.624 31.44 28.824C 30.832 28.024 29.92 27.624 28.704 27.624C 27.232 27.624 26.16 28.104 25.488 29.064C 24.848 30.024 24.528 31.256 24.528 32.76L 24.528 40.344L 27.408 40.344L 27.408 45L 18.336 45L 18.336 32.808C 18.336 30.952 18.016 29.624 17.376 28.824C 16.768 28.024 15.856 27.624 14.64 27.624C 13.136 27.624 12.064 28.104 11.424 29.064C 10.784 30.024 10.464 31.256 10.464 32.76L 10.464 40.344L 14.592 40.344L 14.592 45L 1.392 45L 1.392 40.344L 4.272 40.344L 4.272 28.056L 1.44 28.056L 1.44 23.352L 10.464 23.352L 10.464 26.616C 11.84 24.152 14.032 22.92 17.04 22.92C 18.608 22.92 20.048 23.304 21.36 24.072C 22.672 24.84 23.584 26.008 24.096 27.576C 25.376 24.472 27.728 22.92 31.152 22.92C 33.104 22.92 34.832 23.528 36.336 24.744C 37.84 25.96 38.592 27.848 38.592 30.408L 38.592 40.344L 41.472 40.344L 41.472 45ZM 66.1909 34.2C 66.1909 37.624 65.0709 40.36 62.8309 42.408C 60.5909 44.456 57.7429 45.48 54.2869 45.48C 50.9589 45.48 48.2389 44.52 46.1269 42.6C 44.0469 40.648 43.0069 37.928 43.0069 34.44C 43.0069 31.272 43.9669 28.552 45.8869 26.28C 47.8069 24.008 50.7189 22.872 54.6229 22.872C 58.5269 22.872 61.4229 24.008 63.3109 26.28C 65.2309 28.52 66.1909 31.16 66.1909 34.2ZM 59.8069 34.008C 59.8069 31.8 59.2949 30.184 58.2709 29.16C 57.2469 28.136 55.9989 27.624 54.5269 27.624C 52.9269 27.624 51.6629 28.2 50.7349 29.352C 49.8389 30.472 49.3909 32.056 49.3909 34.104C 49.3909 35.96 49.8069 37.528 50.6389 38.808C 51.5029 40.088 52.7829 40.728 54.4789 40.728C 56.0789 40.728 57.3589 40.136 58.3189 38.952C 59.3109 37.736 59.8069 36.088 59.8069 34.008ZM 87.8119 45L 68.8999 45L 68.2759 41.736L 79.8919 28.008L 73.4119 28.008L 72.4519 31.32L 67.9879 30.936L 68.7559 23.352L 87.7639 23.352L 88.2439 26.616L 76.2919 40.344L 83.2519 40.344L 84.2599 36.936L 89.1559 37.416L 87.8119 45ZM 92.8789 31.128L 92.8789 23.352L 99.3109 23.352L 99.3109 31.128L 92.8789 31.128ZM 92.8789 45L 92.8789 37.224L 99.3109 37.224L 99.3109 45L 92.8789 45ZM 119.281 11.976L 109.921 45L 103.825 45L 113.185 11.976L 119.281 11.976ZM 131.562 11.976L 122.202 45L 116.106 45L 125.466 11.976L 131.562 11.976ZM 133.858 24.888C 135.746 24.12 137.314 23.608 138.562 23.352C 139.842 23.064 141.362 22.92 143.122 22.92C 145.458 22.92 147.474 23.528 149.17 24.744C 150.866 25.96 151.714 27.8 151.714 30.264L 151.714 39.672C 151.714 40.792 152.21 41.352 153.202 41.352C 153.49 41.352 153.794 41.304 154.114 41.208L 154.162 44.472C 152.914 45.144 151.618 45.48 150.274 45.48C 147.426 45.48 145.842 44.056 145.522 41.208L 145.522 41.16C 144.914 42.248 144.034 43.24 142.882 44.136C 141.762 45.032 140.322 45.48 138.562 45.48C 136.994 45.48 135.49 45.016 134.05 44.088C 132.61 43.16 131.89 41.56 131.89 39.288C 131.89 36.632 132.946 34.872 135.058 34.008C 137.202 33.144 139.506 32.712 141.97 32.712C 143.346 32.712 144.53 32.776 145.522 32.904L 145.522 32.184C 145.522 31.064 145.362 29.976 145.042 28.92C 144.754 27.864 143.73 27.336 141.97 27.336C 141.33 27.336 140.738 27.384 140.194 27.48C 139.682 27.544 139.17 27.704 138.658 27.96L 137.842 31.032L 132.898 30.504L 133.858 24.888ZM 145.522 36.168L 145.522 35.88C 145.01 35.816 144.482 35.752 143.938 35.688C 143.426 35.624 142.914 35.592 142.402 35.592C 141.314 35.592 140.354 35.8 139.522 36.216C 138.69 36.6 138.274 37.384 138.274 38.568C 138.274 39.272 138.466 39.864 138.85 40.344C 139.234 40.824 139.89 41.064 140.818 41.064C 141.906 41.064 142.914 40.68 143.842 39.912C 144.802 39.112 145.362 37.864 145.522 36.168Z"/>
<path id="path2_fill" d="M 23.32 42L 17.292 42L 17.292 37.952C 16.6467 39.1253 15.752 40.1667 14.608 41.076C 13.4933 41.9853 12.0413 42.44 10.252 42.44C 7.75867 42.44 5.73467 41.5893 4.18 39.888C 2.62533 38.1867 1.848 35.8253 1.848 32.804C 1.848 31.1027 2.12667 29.4307 2.684 27.788C 3.27067 26.1453 4.20933 24.7813 5.5 23.696C 6.79067 22.6107 8.52133 22.068 10.692 22.068C 12.0707 22.068 13.3467 22.376 14.52 22.992C 15.6933 23.608 16.6173 24.5027 17.292 25.676L 17.292 13.752L 12.364 13.752L 12.364 11.728L 19.712 11.728L 19.712 39.976L 23.32 39.976L 23.32 42ZM 17.292 33.684L 17.292 29.856C 17.2333 28.2427 16.588 26.908 15.356 25.852C 14.1533 24.7667 12.7307 24.224 11.088 24.224C 8.68267 24.224 6.96667 25.104 5.94 26.864C 4.91333 28.624 4.4 30.5453 4.4 32.628C 4.4 35.1213 5.00133 37.028 6.204 38.348C 7.40667 39.6387 8.91733 40.284 10.736 40.284C 12.5547 40.284 14.08 39.5507 15.312 38.084C 16.5733 36.6173 17.2333 35.1507 17.292 33.684ZM 47.6496 42L 41.5776 42L 41.5776 38.128C 40.9616 39.4187 40.0523 40.46 38.8496 41.252C 37.6469 42.044 36.2536 42.44 34.6696 42.44C 32.7336 42.44 31.1203 41.8387 29.8296 40.636C 28.5389 39.4333 27.8936 37.4973 27.8936 34.828L 27.8936 24.532L 24.2856 24.532L 24.2856 22.464L 30.3136 22.464L 30.3136 34.256C 30.3136 36.4853 30.7829 38.0547 31.7216 38.964C 32.6896 39.844 33.9069 40.284 35.3736 40.284C 37.1336 40.284 38.5856 39.5947 39.7296 38.216C 40.9029 36.8373 41.5189 35.444 41.5776 34.036L 41.5776 24.532L 37.2656 24.532L 37.2656 22.464L 43.9976 22.464L 43.9976 39.976L 47.6496 39.976L 47.6496 42ZM 66.8638 35.62C 66.5705 37.3213 65.7932 38.8907 64.5318 40.328C 63.2998 41.736 61.4078 42.44 58.8558 42.44C 56.1865 42.44 54.0745 41.56 52.5198 39.8C 50.9652 38.04 50.1878 35.62 50.1878 32.54C 50.1878 30.868 50.4958 29.2253 51.1118 27.612C 51.7278 25.9987 52.6812 24.6787 53.9718 23.652C 55.2918 22.596 56.9785 22.068 59.0318 22.068C 61.7012 22.068 63.8865 22.772 65.5878 24.18L 66.2918 28.536L 64.2678 28.8L 63.5198 25.5C 62.3172 24.6493 60.8212 24.224 59.0318 24.224C 56.7145 24.224 55.0865 25.06 54.1478 26.732C 53.2385 28.3747 52.7838 30.252 52.7838 32.364C 52.7838 34.8573 53.3265 36.808 54.4118 38.216C 55.4972 39.5947 57.0665 40.284 59.1198 40.284C 62.2292 40.284 64.1212 38.568 64.7958 35.136L 66.8638 35.62ZM 90.5792 42L 81.5592 42L 81.5592 39.976L 84.8152 39.976L 78.9632 32.584L 75.3112 32.584L 75.3112 39.976L 78.4352 39.976L 78.4352 42L 69.2832 42L 69.2832 39.976L 72.8912 39.976L 72.8912 13.752L 69.2392 13.752L 69.2392 11.728L 75.3112 11.728L 75.3112 30.648L 78.9192 30.648L 83.8032 24.532L 80.5912 24.532L 80.5912 22.464L 89.5232 22.464L 89.5232 24.532L 86.3552 24.532L 80.8112 31.396L 87.5432 39.976L 90.5792 39.976L 90.5792 42Z"/>
<path id="path3_fill" fill-rule="evenodd" d="M 50.1196 19.2305C 50.7549 18.1952 51.125 17.5921 51.7513 18.064C 57.8821 22.6814 59.8811 33.9351 55.4308 42.8152C 54.4341 44.8042 53.1743 46.5352 51.704 48.0339C 49.7701 47.0253 48.2661 45.5184 47.5038 43.7364C 46.093 47.0338 42.143 49.3891 37.6288 49.3891C 33.1145 49.3891 29.1645 47.0338 27.7538 43.7364C 26.343 47.0338 22.393 49.3891 17.8788 49.3891C 13.3645 49.3891 9.41447 47.0338 8.00375 43.7364C 7.26579 45.4613 5.83299 46.9284 3.98805 47.9354C 2.12418 45.2647 1.03558 42.0543 1.03558 38.4553C 1.03558 31.2486 5.3735 25.052 11.5934 22.2921C 5.61858 20.0395 0 16.3055 0 12.5564C 0 8.60062 3.68587 9.3717 8.2905 10.335C 8.38057 10.3539 8.47099 10.3728 8.56175 10.3917C 9.80632 4.4583 15.096 0 21.4376 0C 28.703 0 34.5916 5.85301 34.5916 13.0724C 34.5916 17.64 32.2312 21.6552 28.6587 23.9928C 31.9238 25.0827 35.7856 25.9041 40.3394 25.3748C 46.8108 24.6225 48.9302 21.1689 50.1196 19.2305Z"/>
<path id="path4_fill" d="M 7.05374 3.53287C 7.05374 5.48402 5.4747 7.06574 3.52687 7.06574C 1.57903 7.06574 0 5.48402 0 3.53287C 0 1.58172 1.57903 0 3.52687 0C 5.4747 0 7.05374 1.58172 7.05374 3.53287Z"/>
<path id="path5_fill" d="M 5.26992 15.2297C 4.44439 16.8291 3.88077 18.4665 3.52634 20.1083L 8.37531 42.9269C 8.79147 43.7115 8.912 43.9574 8.5 43.5137L 8.37531 42.9269C 6.85509 40.0607 1.3898 30.005 3.52634 20.1083L 0 3.5137L 12.7169 0C 19.3717 5.11528 19.4225 7.50551 18.8281 16.3028C 11.1147 18.292 8.0235 9.89461 5.26992 15.2297Z"/>
<path id="path6_fill" d="M 51.7513 18.064C 49.9525 16.7087 50.2674 24.2207 40.3395 25.3748C 35.7856 25.9041 31.9238 25.0827 28.6587 23.9928C 32.2312 21.6552 34.5916 17.64 34.5916 13.0724C 34.5916 5.85301 28.703 1.8757e-08 21.4376 1.8757e-08C 15.096 1.8757e-08 9.80632 4.4583 8.56176 10.3917C 3.83149 9.40368 -4.16361e-09 8.52324 -4.16361e-09 12.5564C -4.16361e-09 16.3055 5.61858 20.0395 11.5934 22.2921C 5.37351 25.052 1.03558 31.2486 1.03558 38.4553C 1.03558 48.2286 9.06296 55.1362 18.8443 56.152C 32.7329 57.5947 49.2091 55.231 55.4308 42.8152C 59.8811 33.9351 57.8821 22.6814 51.7513 18.064Z"/>
<path id="path7_fill" d="M 2 1C 2 1.55228 1.55228 2 1 2C 0.447715 2 0 1.55228 0 1C 0 0.447715 0.447715 0 1 0C 1.55228 0 2 0.447715 2 1Z"/>
<path id="path8_fill" fill-rule="evenodd" d="M 0 1.52588e-05L 0 4.86665C 1.41072 8.16408 5.36072 10.5194 9.875 10.5194C 14.3893 10.5194 18.3393 8.16408 19.75 4.86665C 21.1607 8.16408 25.1107 10.5194 29.625 10.5194C 34.1393 10.5194 38.0893 8.16408 39.5 4.86665C 40.9107 8.16408 44.8607 10.5194 49.375 10.5194C 53.8893 10.5194 57.8393 8.16408 59.25 4.86665C 60.6607 8.16408 64.6107 10.5194 69.125 10.5194C 73.6393 10.5194 77.5893 8.16408 79 4.86665L 79 0C 77.5893 3.29741 73.6393 5.65273 69.125 5.65273C 64.6107 5.65273 60.6607 3.29741 59.25 0C 57.8393 3.29741 53.8893 5.65273 49.375 5.65273C 44.8607 5.65273 40.9107 3.29741 39.5 0C 38.0893 3.29741 34.1393 5.65273 29.625 5.65273C 25.1107 5.65273 21.1607 3.29741 19.75 0C 18.3393 3.29742 14.3893 5.65273 9.875 5.65273C 5.36072 5.65273 1.41072 3.29742 0 1.52588e-05Z"/>
</defs>
</svg>
