<svg width="513" height="102" viewBox="0 0 513 102" version="1.1" xmlns="http://www.w3.org/2000/svg" xmlns:xlink="http://www.w3.org/1999/xlink">
<g data-name="Canvas" fill="none">
<g data-name="logo">
<g data-name="ducky">
<g data-name="Group 2">
<g data-name="noun_12039_cc">
<g data-name="Subtract">
<path fill-rule="evenodd" clip-rule="evenodd" d="M 54.7397 21.2729C 55.4336 20.1276 55.8378 19.4605 56.5217 19.9826C 63.2177 25.0903 65.401 37.5392 60.5405 47.3625C 59.2541 49.9626 57.5664 52.1641 55.5724 54.014C 54.2682 53.9409 53.0217 53.6718 51.8827 53.2424L 51.8827 48.3815C 51.3302 49.6896 50.4211 50.8636 49.2547 51.8315C 47.9809 50.8988 46.9925 49.7175 46.421 48.3815L 46.421 53.554C 44.8222 54.2442 43.006 54.6346 41.0974 54.6346C 36.167 54.6346 31.8529 52.0292 30.3121 48.3815C 28.7714 52.0292 24.4572 54.6346 19.5268 54.6346C 14.5964 54.6346 10.2823 52.0292 8.74155 48.3815C 7.93555 50.2896 6.3707 51.9125 4.35568 53.0265C 2.31998 50.0722 1.13104 46.5208 1.13104 42.5395C 1.13104 34.5675 5.86884 27.7127 12.6621 24.6597C 6.13651 22.1679 0 18.0372 0 13.89C 0 9.51408 4.02563 10.3671 9.05475 11.4327L 9.35098 11.4954C 10.7103 4.93181 16.4876 0 23.4137 0C 31.3488 0 37.7803 6.47464 37.7803 14.4608C 37.7803 19.5135 35.2023 23.9551 31.3005 26.541C 34.8666 27.7466 39.0843 28.6553 44.058 28.0698C 51.1259 27.2376 53.4406 23.4172 54.7397 21.2729Z" transform="translate(433.829 9)" fill="url(#paint0_linear)"/>
</g>
</g>
<g data-name="Ellipse">
<ellipse cx="3.8521" cy="3.90797" rx="3.8521" ry="3.90797" transform="matrix(0.998707 0.0508408 -0.0486501 0.998816 447.772 18.0556)" fill="black"/>
</g>
<g data-name="Mask Group">
<mask id="mask0" mask-type="alpha" maskUnits="userSpaceOnUse" x="425" y="15" width="22" height="49">
<g data-name="Vector">
<path d="M 5.75571 16.8472C 4.85408 18.6165 4.23851 20.4278 3.85141 22.2439L 9.14736 47.4861C 9.60188 48.354 9.73351 48.626 9.28354 48.1352L 9.14736 47.4861C 7.487 44.3155 1.51792 33.1918 3.85141 22.2439L 0 3.88688L 13.8892 0C 21.1574 5.65856 21.2129 8.30265 20.5637 18.0342C 12.1392 20.2348 8.76311 10.9455 5.75571 16.8472Z" transform="translate(425.915 15.6221)" fill="#C4C4C4"/>
</g>
</mask>
<g mask="url(#mask0)">
<g data-name="Vector">
<path d="M 56.5217 19.9826C 54.5572 18.4832 54.9011 26.7932 44.058 28.0698C 39.0843 28.6553 34.8666 27.7466 31.3005 26.541C 35.2023 23.9551 37.7803 19.5135 37.7803 14.4608C 37.7803 6.47464 31.3488 2.07491e-08 23.4137 2.07491e-08C 16.4876 2.07491e-08 10.7103 4.93181 9.35099 11.4954C 4.18468 10.4024 -4.54742e-09 9.42848 -4.54742e-09 13.8899C -4.54742e-09 18.0372 6.13651 22.1679 12.6621 24.6597C 5.86885 27.7127 1.13105 34.5675 1.13105 42.5395C 1.13105 53.3508 9.8984 60.992 20.5813 62.1157C 35.7503 63.7117 53.7453 61.097 60.5405 47.3625C 65.401 37.5392 63.2177 25.0903 56.5217 19.9826Z" transform="translate(433.829 9)" fill="#FF8A00"/>
</g>
</g>
</g>
<g data-name="Ellipse">
<ellipse cx="1.09218" cy="1.10621" rx="1.09218" ry="1.10621" transform="translate(451.581 20.0621)" fill="white"/>
</g>
</g>
</g>
<g data-name="duck border">
<path d="M 0 0L 75.5 0" stroke-width="2" transform="translate(432 51)" stroke="black"/>
</g>
<g data-name="Text">
<g data-name="moz logo">
<g data-name="Rectangle 2.1">
<rect width="172" height="49" transform="translate(341 52)" fill="white"/>
</g>
<g data-name="moz://a">
<path d="M 41.472 45L 32.4 45L 32.4 32.808C 32.4 30.952 32.08 29.624 31.44 28.824C 30.832 28.024 29.92 27.624 28.704 27.624C 27.232 27.624 26.16 28.104 25.488 29.064C 24.848 30.024 24.528 31.256 24.528 32.76L 24.528 40.344L 27.408 40.344L 27.408 45L 18.336 45L 18.336 32.808C 18.336 30.952 18.016 29.624 17.376 28.824C 16.768 28.024 15.856 27.624 14.64 27.624C 13.136 27.624 12.064 28.104 11.424 29.064C 10.784 30.024 10.464 31.256 10.464 32.76L 10.464 40.344L 14.592 40.344L 14.592 45L 1.392 45L 1.392 40.344L 4.272 40.344L 4.272 28.056L 1.44 28.056L 1.44 23.352L 10.464 23.352L 10.464 26.616C 11.84 24.152 14.032 22.92 17.04 22.92C 18.608 22.92 20.048 23.304 21.36 24.072C 22.672 24.84 23.584 26.008 24.096 27.576C 25.376 24.472 27.728 22.92 31.152 22.92C 33.104 22.92 34.832 23.528 36.336 24.744C 37.84 25.96 38.592 27.848 38.592 30.408L 38.592 40.344L 41.472 40.344L 41.472 45ZM 66.1909 34.2C 66.1909 37.624 65.0709 40.36 62.8309 42.408C 60.5909 44.456 57.7429 45.48 54.2869 45.48C 50.9589 45.48 48.2389 44.52 46.1269 42.6C 44.0469 40.648 43.0069 37.928 43.0069 34.44C 43.0069 31.272 43.9669 28.552 45.8869 26.28C 47.8069 24.008 50.7189 22.872 54.6229 22.872C 58.5269 22.872 61.4229 24.008 63.3109 26.28C 65.2309 28.52 66.1909 31.16 66.1909 34.2ZM 59.8069 34.008C 59.8069 31.8 59.2949 30.184 58.2709 29.16C 57.2469 28.136 55.9989 27.624 54.5269 27.624C 52.9269 27.624 51.6629 28.2 50.7349 29.352C 49.8389 30.472 49.3909 32.056 49.3909 34.104C 49.3909 35.96 49.8069 37.528 50.6389 38.808C 51.5029 40.088 52.7829 40.728 54.4789 40.728C 56.0789 40.728 57.3589 40.136 58.3189 38.952C 59.3109 37.736 59.8069 36.088 59.8069 34.008ZM 87.8119 45L 68.8999 45L 68.2759 41.736L 79.8919 28.008L 73.4119 28.008L 72.4519 31.32L 67.9879 30.936L 68.7559 23.352L 87.7639 23.352L 88.2439 26.616L 76.2919 40.344L 83.2519 40.344L 84.2599 36.936L 89.1559 37.416L 87.8119 45ZM 92.8789 31.128L 92.8789 23.352L 99.3109 23.352L 99.3109 31.128L 92.8789 31.128ZM 92.8789 45L 92.8789 37.224L 99.3109 37.224L 99.3109 45L 92.8789 45ZM 119.281 11.976L 109.921 45L 103.825 45L 113.185 11.976L 119.281 11.976ZM 131.562 11.976L 122.202 45L 116.106 45L 125.466 11.976L 131.562 11.976ZM 133.858 24.888C 135.746 24.12 137.314 23.608 138.562 23.352C 139.842 23.064 141.362 22.92 143.122 22.92C 145.458 22.92 147.474 23.528 149.17 24.744C 150.866 25.96 151.714 27.8 151.714 30.264L 151.714 39.672C 151.714 40.792 152.21 41.352 153.202 41.352C 153.49 41.352 153.794 41.304 154.114 41.208L 154.162 44.472C 152.914 45.144 151.618 45.48 150.274 45.48C 147.426 45.48 145.842 44.056 145.522 41.208L 145.522 41.16C 144.914 42.248 144.034 43.24 142.882 44.136C 141.762 45.032 140.322 45.48 138.562 45.48C 136.994 45.48 135.49 45.016 134.05 44.088C 132.61 43.16 131.89 41.56 131.89 39.288C 131.89 36.632 132.946 34.872 135.058 34.008C 137.202 33.144 139.506 32.712 141.97 32.712C 143.346 32.712 144.53 32.776 145.522 32.904L 145.522 32.184C 145.522 31.064 145.362 29.976 145.042 28.92C 144.754 27.864 143.73 27.336 141.97 27.336C 141.33 27.336 140.738 27.384 140.194 27.48C 139.682 27.544 139.17 27.704 138.658 27.96L 137.842 31.032L 132.898 30.504L 133.858 24.888ZM 145.522 36.168L 145.522 35.88C 145.01 35.816 144.482 35.752 143.938 35.688C 143.426 35.624 142.914 35.592 142.402 35.592C 141.314 35.592 140.354 35.8 139.522 36.216C 138.69 36.6 138.274 37.384 138.274 38.568C 138.274 39.272 138.466 39.864 138.85 40.344C 139.234 40.824 139.89 41.064 140.818 41.064C 141.906 41.064 142.914 40.68 143.842 39.912C 144.802 39.112 145.362 37.864 145.522 36.168Z" transform="translate(351 46)" fill="black"/>
</g>
</g>
<g data-name="by">
<path fill-rule="evenodd" clip-rule="evenodd" d="M 9.695 23.7163C 9.98222 23.4322 10.2904 23.1623 10.6191 22.9066L 10.6295 22.8985L 10.6296 22.8986C 12.0103 21.8537 13.7783 21.38 15.839 21.38C 18.7631 21.38 21.2153 22.408 23.1097 24.4778C 23.5819 24.9938 23.9919 25.5569 24.3414 26.1649L 24.3414 22.803L 24.3414 21.803L 25.3414 21.803L 36.1514 21.803L 37.1514 21.803L 37.1514 22.803L 37.1514 27.362L 37.1514 28.362L 36.1514 28.362L 35.5722 28.362L 38.3824 34.7154L 40.4594 28.362L 40.0054 28.362L 39.0054 28.362L 39.0054 27.362L 39.0054 22.803L 39.0054 21.803L 40.0054 21.803L 49.6874 21.803L 50.6874 21.803L 50.6874 22.803L 50.6874 27.362L 50.6874 28.362L 49.6874 28.362L 48.2905 28.362L 41.7346 44.3674L 40.2339 48.311L 41.5564 48.311L 42.5564 48.311L 42.5564 49.311L 42.5564 54.011L 42.5564 55.011L 41.5564 55.011L 29.8534 55.011L 28.8534 55.011L 28.8534 54.011L 28.8534 49.311L 28.8534 48.311L 29.8534 48.311L 32.521 48.311L 33.8578 44.3747L 26.8495 28.362L 25.3414 28.362L 25.2877 28.362C 25.7072 29.7234 25.91 31.2437 25.91 32.908C 25.91 36.2267 25.0272 39.1471 23.2308 41.6229C 21.3859 44.2105 18.6473 45.47 15.181 45.47C 12.6425 45.47 10.5571 44.7613 9.0203 43.3076C 8.97823 43.5964 8.93172 43.8851 8.88078 44.1738L 8.73498 45L 7.896 45L 1.833 45L 0.613196 45L 0.852419 43.8039C 1.06816 42.7252 1.25303 41.6468 1.40705 40.5686C 1.55729 39.5169 1.632 38.4832 1.632 37.467L 1.632 17.27L -0.188 17.27L -1.188 17.27L -1.188 16.27L -1.188 11.664L -1.188 10.664L -0.188 10.664L 8.695 10.664L 9.695 10.664L 9.695 11.664L 9.695 23.7163ZM 16.4255 37.5351L 16.4262 37.5343C 17.1512 36.7625 17.612 35.4623 17.612 33.425C 17.612 31.5135 17.198 30.226 16.5241 29.4077C 15.8462 28.5846 14.9758 28.174 13.818 28.174C 12.4721 28.174 11.5117 28.6457 10.811 29.5601C 10.0714 30.5668 9.695 31.7324 9.695 33.096L 9.695 33.613C 9.695 35.1606 10.0707 36.4018 10.7704 37.3924C 11.4374 38.267 12.3624 38.723 13.677 38.723C 14.7802 38.723 15.6752 38.3354 16.4255 37.5351Z" transform="translate(341 3)" fill="#C0C0C0"/>
<path fill-rule="evenodd" clip-rule="evenodd" d="M 9.695 23.7163C 9.98222 23.4322 10.2904 23.1623 10.6191 22.9066L 10.6295 22.8985L 10.6296 22.8986C 12.0103 21.8537 13.7783 21.38 15.839 21.38C 18.7631 21.38 21.2153 22.408 23.1097 24.4778C 23.5819 24.9938 23.9919 25.5569 24.3414 26.1649L 24.3414 22.803L 24.3414 21.803L 25.3414 21.803L 36.1514 21.803L 37.1514 21.803L 37.1514 22.803L 37.1514 27.362L 37.1514 28.362L 36.1514 28.362L 35.5722 28.362L 38.3824 34.7154L 40.4594 28.362L 40.0054 28.362L 39.0054 28.362L 39.0054 27.362L 39.0054 22.803L 39.0054 21.803L 40.0054 21.803L 49.6874 21.803L 50.6874 21.803L 50.6874 22.803L 50.6874 27.362L 50.6874 28.362L 49.6874 28.362L 48.2905 28.362L 41.7346 44.3674L 40.2339 48.311L 41.5564 48.311L 42.5564 48.311L 42.5564 49.311L 42.5564 54.011L 42.5564 55.011L 41.5564 55.011L 29.8534 55.011L 28.8534 55.011L 28.8534 54.011L 28.8534 49.311L 28.8534 48.311L 29.8534 48.311L 32.521 48.311L 33.8578 44.3747L 26.8495 28.362L 25.3414 28.362L 25.2877 28.362C 25.7072 29.7234 25.91 31.2437 25.91 32.908C 25.91 36.2267 25.0272 39.1471 23.2308 41.6229C 21.3859 44.2105 18.6473 45.47 15.181 45.47C 12.6425 45.47 10.5571 44.7613 9.0203 43.3076C 8.97823 43.5964 8.93172 43.8851 8.88078 44.1738L 8.73498 45L 7.896 45L 1.833 45L 0.613196 45L 0.852419 43.8039C 1.06816 42.7252 1.25303 41.6468 1.40705 40.5686C 1.55729 39.5169 1.632 38.4832 1.632 37.467L 1.632 17.27L -0.188 17.27L -1.188 17.27L -1.188 16.27L -1.188 11.664L -1.188 10.664L -0.188 10.664L 8.695 10.664L 9.695 10.664L 9.695 11.664L 9.695 23.7163ZM 16.4255 37.5351L 16.4262 37.5343C 17.1512 36.7625 17.612 35.4623 17.612 33.425C 17.612 31.5135 17.198 30.226 16.5241 29.4077C 15.8462 28.5846 14.9758 28.174 13.818 28.174C 12.4721 28.174 11.5117 28.6457 10.811 29.5601C 10.0714 30.5668 9.695 31.7324 9.695 33.096L 9.695 33.613C 9.695 35.1606 10.0707 36.4018 10.7704 37.3924C 11.4374 38.267 12.3624 38.723 13.677 38.723C 14.7802 38.723 15.6752 38.3354 16.4255 37.5351Z" stroke-width="2" stroke-miterlimit="8" transform="translate(341 3)" stroke="black"/>
</g>
<g data-name="hubs">
<path d="M 81.792 136L 45.936 136L 45.936 122.032L 54.576 122.032L 54.576 99.424C 54.576 93.856 53.568 89.872 51.552 87.472C 49.632 85.072 46.848 83.872 43.2 83.872C 38.976 83.872 35.664 85.168 33.264 87.76C 30.96 90.352 29.712 93.76 29.52 97.984L 29.52 122.032L 38.16 122.032L 38.16 136L 2.304 136L 2.304 122.032L 10.944 122.032L 10.944 51.04L 2.304 51.04L 2.304 36.928L 29.52 36.928L 29.52 80.992C 33.84 73.504 40.8 69.76 50.4 69.76C 56.544 69.76 61.872 71.584 66.384 75.232C 70.896 78.88 73.152 84.544 73.152 92.224L 73.152 122.032L 81.792 122.032L 81.792 136ZM 165.896 136L 137.96 136L 137.96 126.064C 133.64 133.552 126.68 137.296 117.08 137.296C 110.936 137.296 105.608 135.472 101.096 131.824C 96.5839 128.176 94.3279 122.512 94.3279 114.832L 94.3279 85.024L 85.6879 85.024L 85.6879 71.056L 112.904 71.056L 112.904 107.632C 112.904 113.296 113.816 117.328 115.64 119.728C 117.56 122.032 120.344 123.184 123.992 123.184C 128.408 123.184 131.816 121.744 134.216 118.864C 136.712 115.984 137.96 112.288 137.96 107.776L 137.96 85.024L 127.448 85.024L 127.448 71.056L 156.536 71.056L 156.536 122.032L 165.896 122.032L 165.896 136ZM 244.226 102.016C 244.226 111.616 241.682 119.92 236.594 126.928C 231.602 133.936 224.21 137.44 214.418 137.44C 204.53 137.44 197.57 133.696 193.538 126.208C 193.346 127.84 193.106 129.472 192.818 131.104C 192.626 132.736 192.386 134.368 192.098 136L 173.522 136C 174.194 132.64 174.77 129.28 175.25 125.92C 175.73 122.56 175.97 119.248 175.97 115.984L 175.97 51.04L 167.33 51.04L 167.33 36.928L 194.546 36.928L 194.546 83.44C 196.274 79.696 198.866 76.48 202.322 73.792C 205.874 71.104 210.578 69.76 216.434 69.76C 224.594 69.76 231.266 72.592 236.45 78.256C 241.634 83.92 244.226 91.84 244.226 102.016ZM 224.93 103.6C 224.93 97.36 223.586 92.608 220.898 89.344C 218.21 86.08 214.658 84.448 210.242 84.448C 205.25 84.448 201.362 86.272 198.578 89.92C 195.89 93.568 194.546 97.792 194.546 102.592L 194.546 104.176C 194.546 109.456 195.842 113.92 198.434 117.568C 201.122 121.12 204.914 122.896 209.81 122.896C 214.034 122.896 217.586 121.36 220.466 118.288C 223.442 115.12 224.93 110.224 224.93 103.6ZM 309.859 116.128C 309.859 123.328 306.979 128.704 301.219 132.256C 295.555 135.712 288.163 137.44 279.043 137.44C 274.339 137.44 269.587 136.96 264.787 136C 260.083 134.944 255.571 133.312 251.251 131.104L 253.843 112.96L 268.243 114.544L 268.243 122.608C 269.971 123.184 271.795 123.568 273.715 123.76C 275.635 123.856 277.075 123.904 278.035 123.904C 281.587 123.904 284.659 123.328 287.251 122.176C 289.843 121.024 291.139 119.296 291.139 116.992C 291.139 114.208 289.171 112.384 285.235 111.52C 281.299 110.656 276.739 109.792 271.555 108.928C 266.371 108.064 261.811 106.288 257.875 103.6C 253.939 100.912 251.971 96.352 251.971 89.92C 251.971 81.952 255.043 76.624 261.187 73.936C 267.427 71.152 273.859 69.76 280.483 69.76C 289.123 69.76 297.235 71.728 304.819 75.664L 306.403 92.224L 292.003 93.808L 290.851 84.736C 287.683 83.68 284.275 83.152 280.627 83.152C 278.227 83.152 276.163 83.68 274.435 84.736C 272.803 85.696 271.987 87.232 271.987 89.344C 271.987 92.128 273.859 94 277.603 94.96C 281.443 95.824 285.859 96.688 290.851 97.552C 295.939 98.416 300.355 100.192 304.099 102.88C 307.939 105.472 309.859 109.888 309.859 116.128Z" transform="translate(-2 -36)" fill="white"/>
</g>
</g>
</g>
</g>
<defs>

<linearGradient id="paint0_linear" x2="1" gradientUnits="userSpaceOnUse" gradientTransform="matrix(0 62.5308 -63.171 0 63.171 0)">
<stop stop-color="#FFC000"/>
<stop offset="1" stop-color="#FFD600"/>
</linearGradient>

</defs>
</svg>

