<svg width="329" height="190" viewBox="0 0 329 190" version="1.1" xmlns="http://www.w3.org/2000/svg" xmlns:xlink="http://www.w3.org/1999/xlink">
<g data-name="Canvas" fill="none">
<g data-name="logo-narrow">
<g data-name="Text">
<g data-name="Hubs">
<path d="M 105.225 140L 71.6285 140L 71.6285 132.452L 84.2085 132.452L 84.2085 94.564L 27.5245 94.564L 27.5245 132.452L 40.1045 132.452L 40.1045 140L 6.50853 140L 6.50853 132.452L 19.0885 132.452L 19.0885 51.348L 6.50853 51.348L 6.50853 43.8L 40.1045 43.8L 40.1045 51.348L 27.5245 51.348L 27.5245 87.312L 84.2085 87.312L 84.2085 51.348L 71.6285 51.348L 71.6285 43.8L 105.225 43.8L 105.225 51.348L 92.7925 51.348L 92.7925 132.452L 105.225 132.452L 105.225 140ZM 188.315 140L 167.891 140L 167.891 126.976C 165.819 131.317 162.76 134.82 158.715 137.484C 154.67 140.148 149.983 141.48 144.655 141.48C 138.143 141.48 132.716 139.457 128.375 135.412C 124.034 131.367 121.863 124.855 121.863 115.876L 121.863 81.244L 109.727 81.244L 109.727 74.288L 130.003 74.288L 130.003 113.952C 130.003 121.451 131.582 126.729 134.739 129.788C 137.995 132.748 142.09 134.228 147.023 134.228C 152.943 134.228 157.827 131.909 161.675 127.272C 165.622 122.635 167.694 117.948 167.891 113.212L 167.891 81.244L 153.387 81.244L 153.387 74.288L 176.031 74.288L 176.031 133.192L 188.315 133.192L 188.315 140ZM 262.713 105.516C 262.713 111.14 261.775 116.715 259.901 122.24C 258.026 127.765 254.918 132.353 250.577 136.004C 246.334 139.655 240.71 141.48 233.705 141.48C 228.574 141.48 223.887 140.395 219.645 138.224C 215.501 136.053 212.343 132.896 210.173 128.752L 208.841 140L 200.701 140C 201.095 137.237 201.49 134.228 201.885 130.972C 202.378 127.617 202.625 124.361 202.625 121.204L 202.625 44.984L 190.637 44.984L 190.637 38.176L 210.765 38.176L 210.765 88.2C 212.837 84.1547 215.698 80.6027 219.349 77.544C 223.098 74.4853 228.179 72.956 234.593 72.956C 242.782 72.956 249.491 75.768 254.721 81.392C 260.049 87.016 262.713 95.0573 262.713 105.516ZM 254.129 106.256C 254.129 97.5733 252.057 91.0613 247.913 86.72C 243.769 82.3787 238.786 80.208 232.965 80.208C 226.354 80.208 221.026 82.6253 216.981 87.46C 213.034 92.2947 210.962 97.1787 210.765 102.112L 210.765 114.248C 210.765 119.773 212.886 124.509 217.129 128.456C 221.371 132.304 226.403 134.228 232.225 134.228C 240.217 134.228 245.841 131.268 249.097 125.348C 252.451 119.428 254.129 113.064 254.129 106.256ZM 326.545 121.352C 326.545 127.469 323.93 132.353 318.701 136.004C 313.57 139.655 307.206 141.48 299.609 141.48C 294.971 141.48 290.383 140.839 285.845 139.556C 281.405 138.175 278.001 136.645 275.633 134.968L 277.409 121.056L 284.069 121.648L 283.477 130.528C 288.114 132.995 293.393 134.228 299.313 134.228C 304.147 134.228 308.489 133.291 312.337 131.416C 316.283 129.443 318.257 126.384 318.257 122.24C 318.257 118.293 316.826 115.481 313.965 113.804C 311.202 112.127 307.749 110.943 303.605 110.252C 299.461 109.463 295.317 108.624 291.173 107.736C 287.127 106.848 283.674 105.22 280.813 102.852C 278.05 100.484 276.669 96.784 276.669 91.752C 276.669 85.0427 279.086 80.2573 283.921 77.396C 288.755 74.436 294.034 72.956 299.757 72.956C 304.295 72.956 308.538 73.5973 312.485 74.88C 316.53 76.1627 319.786 77.544 322.253 79.024L 323.733 94.12L 316.925 95.008L 315.149 83.908C 313.077 82.8227 310.906 81.9347 308.637 81.244C 306.367 80.5533 303.753 80.208 300.793 80.208C 296.155 80.208 292.406 81.0467 289.545 82.724C 286.683 84.4013 285.253 87.1147 285.253 90.864C 285.253 94.6133 286.634 97.2773 289.397 98.856C 292.159 100.336 295.613 101.421 299.757 102.112C 303.901 102.803 307.995 103.641 312.041 104.628C 316.185 105.615 319.638 107.341 322.401 109.808C 325.163 112.275 326.545 116.123 326.545 121.352Z" transform="translate(1 -38)" fill="white"/>
</g>
</g>
<g data-name="duck">
<g data-name="Group 2">
<g data-name="noun_12039_cc">
<g data-name="Subtract">
<path fill-rule="evenodd" clip-rule="evenodd" d="M 65.9802 25.5275C 66.8167 24.1531 67.3038 23.3527 68.1282 23.9791C 76.1992 30.1084 78.8308 45.0471 72.9722 56.835C 71.6601 59.4753 70.0015 61.7731 68.066 63.7626C 65.5201 62.4236 63.5402 60.4234 62.5366 58.0578C 60.6794 62.435 55.4794 65.5615 49.5366 65.5615C 43.5937 65.5615 38.3937 62.435 36.5366 58.0578C 34.6794 62.435 29.4794 65.5615 23.5366 65.5615C 17.5937 65.5615 12.3937 62.435 10.5366 58.0578C 9.56506 60.3476 7.67883 62.295 5.25006 63.6318C 2.79633 60.0866 1.36328 55.825 1.36328 51.0474C 1.36328 41.481 7.07397 33.2552 15.2622 29.5916C 7.39661 26.6014 0 21.6447 0 16.6679C 0 11.4169 4.85236 12.4405 10.9141 13.7192L 11.2712 13.7945C 12.9096 5.91818 19.8732 0 28.2216 0C 37.7862 0 45.5384 7.76956 45.5384 17.3529C 45.5384 23.4162 42.4309 28.7462 37.728 31.8492C 42.0263 33.296 47.1101 34.3864 53.1051 33.6837C 61.6244 32.6852 64.4144 28.1006 65.9802 25.5275Z" transform="translate(15.4634 124)" fill="url(#paint0_linear)"/>
</g>
</g>
<g data-name="Ellipse">
<ellipse cx="4.64306" cy="4.68961" rx="4.64306" ry="4.68961" transform="matrix(0.998718 0.0506159 -0.0488663 0.998805 32.2697 134.867)" fill="black"/>
</g>
<g data-name="Mask Group">
<mask id="mask0" mask-type="alpha" maskUnits="userSpaceOnUse" x="5" y="131" width="27" height="59">
<g data-name="Vector">
<path d="M 6.93762 20.2166C 5.85085 22.3398 5.10886 24.5133 4.64228 26.6927L 11.0257 56.9833C 11.5736 58.0248 11.7322 58.3512 11.1899 57.7622L 11.0257 56.9833C 9.02442 53.1786 1.82962 39.8301 4.64228 26.6927L 0 4.66426L 16.7412 0C 25.5019 6.79027 25.5689 9.96318 24.7864 21.6411C 14.632 24.2817 10.5626 13.1346 6.93762 20.2166Z" transform="translate(5.92407 131.947)" fill="#C4C4C4"/>
</g>
</mask>
<g mask="url(#mask0)">
<g data-name="Vector">
<path d="M 68.1282 23.9791C 65.7603 22.1799 66.1749 32.1518 53.1051 33.6837C 47.1101 34.3864 42.0263 33.296 37.7279 31.8492C 42.4309 28.7462 45.5384 23.4162 45.5384 17.3529C 45.5384 7.76957 37.7862 2.4899e-08 28.2216 2.4899e-08C 19.8732 2.4899e-08 12.9096 5.91817 11.2712 13.7945C 5.04398 12.4829 -5.48121e-09 11.3142 -5.48121e-09 16.6679C -5.48121e-09 21.6447 7.39661 26.6014 15.2622 29.5916C 7.07399 33.2553 1.3633 41.4809 1.3633 51.0474C 1.3633 64.021 11.931 73.1904 24.8076 74.5389C 43.0915 76.454 64.7817 73.3164 72.9722 56.835C 78.8308 45.0471 76.1992 30.1084 68.1282 23.9791Z" transform="translate(15.4634 124)" fill="#FF8A00"/>
</g>
</g>
</g>
<g data-name="Ellipse">
<ellipse cx="1.31646" cy="1.32745" rx="1.31646" ry="1.32745" transform="translate(36.8608 137.274)" fill="white"/>
</g>
</g>
<g data-name="Group 4.1">
<g data-name="Group 3">
<g data-name="Subtract">
<path fill-rule="evenodd" clip-rule="evenodd" d="M 0 0L 0 6.46024C 1.85712 10.8374 7.05713 13.9639 13 13.9639C 18.9429 13.9639 24.1429 10.8374 26 6.46024C 27.8571 10.8374 33.0571 13.9639 39 13.9639C 44.9429 13.9639 50.1429 10.8374 52 6.46024C 53.8571 10.8374 59.0571 13.9639 65 13.9639C 70.9429 13.9639 76.1429 10.8374 78 6.46024C 79.8571 10.8374 85.0571 13.9639 91 13.9639C 96.9429 13.9639 102.143 10.8374 104 6.46024L 104 0C 102.143 4.37717 96.9429 7.50369 91 7.50369C 85.0571 7.50369 79.8571 4.37717 78 0C 76.1429 4.37717 70.9429 7.50369 65 7.50369C 59.0571 7.50369 53.8571 4.37717 52 0C 50.1429 4.37717 44.9429 7.50369 39 7.50369C 33.0571 7.50369 27.8571 4.37717 26 0C 24.1429 4.37717 18.9429 7.50369 13 7.50369C 7.05713 7.50369 1.85712 4.37717 0 0Z" transform="translate(0 175.598)" fill="url(#paint1_radial)"/>
</g>
</g>
</g>
</g>
<g data-name="bottom">
<g data-name="Group">
<g data-name="moz logo">
<g data-name="Rectangle 2.1">
<rect width="172" height="49" transform="translate(157 140)" fill="white"/>
</g>
<g data-name="moz://a">
<path d="M 41.472 45L 32.4 45L 32.4 32.808C 32.4 30.952 32.08 29.624 31.44 28.824C 30.832 28.024 29.92 27.624 28.704 27.624C 27.232 27.624 26.16 28.104 25.488 29.064C 24.848 30.024 24.528 31.256 24.528 32.76L 24.528 40.344L 27.408 40.344L 27.408 45L 18.336 45L 18.336 32.808C 18.336 30.952 18.016 29.624 17.376 28.824C 16.768 28.024 15.856 27.624 14.64 27.624C 13.136 27.624 12.064 28.104 11.424 29.064C 10.784 30.024 10.464 31.256 10.464 32.76L 10.464 40.344L 14.592 40.344L 14.592 45L 1.392 45L 1.392 40.344L 4.272 40.344L 4.272 28.056L 1.44 28.056L 1.44 23.352L 10.464 23.352L 10.464 26.616C 11.84 24.152 14.032 22.92 17.04 22.92C 18.608 22.92 20.048 23.304 21.36 24.072C 22.672 24.84 23.584 26.008 24.096 27.576C 25.376 24.472 27.728 22.92 31.152 22.92C 33.104 22.92 34.832 23.528 36.336 24.744C 37.84 25.96 38.592 27.848 38.592 30.408L 38.592 40.344L 41.472 40.344L 41.472 45ZM 66.1909 34.2C 66.1909 37.624 65.0709 40.36 62.8309 42.408C 60.5909 44.456 57.7429 45.48 54.2869 45.48C 50.9589 45.48 48.2389 44.52 46.1269 42.6C 44.0469 40.648 43.0069 37.928 43.0069 34.44C 43.0069 31.272 43.9669 28.552 45.8869 26.28C 47.8069 24.008 50.7189 22.872 54.6229 22.872C 58.5269 22.872 61.4229 24.008 63.3109 26.28C 65.2309 28.52 66.1909 31.16 66.1909 34.2ZM 59.8069 34.008C 59.8069 31.8 59.2949 30.184 58.2709 29.16C 57.2469 28.136 55.9989 27.624 54.5269 27.624C 52.9269 27.624 51.6629 28.2 50.7349 29.352C 49.8389 30.472 49.3909 32.056 49.3909 34.104C 49.3909 35.96 49.8069 37.528 50.6389 38.808C 51.5029 40.088 52.7829 40.728 54.4789 40.728C 56.0789 40.728 57.3589 40.136 58.3189 38.952C 59.3109 37.736 59.8069 36.088 59.8069 34.008ZM 87.8119 45L 68.8999 45L 68.2759 41.736L 79.8919 28.008L 73.4119 28.008L 72.4519 31.32L 67.9879 30.936L 68.7559 23.352L 87.7639 23.352L 88.2439 26.616L 76.2919 40.344L 83.2519 40.344L 84.2599 36.936L 89.1559 37.416L 87.8119 45ZM 92.8789 31.128L 92.8789 23.352L 99.3109 23.352L 99.3109 31.128L 92.8789 31.128ZM 92.8789 45L 92.8789 37.224L 99.3109 37.224L 99.3109 45L 92.8789 45ZM 119.281 11.976L 109.921 45L 103.825 45L 113.185 11.976L 119.281 11.976ZM 131.562 11.976L 122.202 45L 116.106 45L 125.466 11.976L 131.562 11.976ZM 133.858 24.888C 135.746 24.12 137.314 23.608 138.562 23.352C 139.842 23.064 141.362 22.92 143.122 22.92C 145.458 22.92 147.474 23.528 149.17 24.744C 150.866 25.96 151.714 27.8 151.714 30.264L 151.714 39.672C 151.714 40.792 152.21 41.352 153.202 41.352C 153.49 41.352 153.794 41.304 154.114 41.208L 154.162 44.472C 152.914 45.144 151.618 45.48 150.274 45.48C 147.426 45.48 145.842 44.056 145.522 41.208L 145.522 41.16C 144.914 42.248 144.034 43.24 142.882 44.136C 141.762 45.032 140.322 45.48 138.562 45.48C 136.994 45.48 135.49 45.016 134.05 44.088C 132.61 43.16 131.89 41.56 131.89 39.288C 131.89 36.632 132.946 34.872 135.058 34.008C 137.202 33.144 139.506 32.712 141.97 32.712C 143.346 32.712 144.53 32.776 145.522 32.904L 145.522 32.184C 145.522 31.064 145.362 29.976 145.042 28.92C 144.754 27.864 143.73 27.336 141.97 27.336C 141.33 27.336 140.738 27.384 140.194 27.48C 139.682 27.544 139.17 27.704 138.658 27.96L 137.842 31.032L 132.898 30.504L 133.858 24.888ZM 145.522 36.168L 145.522 35.88C 145.01 35.816 144.482 35.752 143.938 35.688C 143.426 35.624 142.914 35.592 142.402 35.592C 141.314 35.592 140.354 35.8 139.522 36.216C 138.69 36.6 138.274 37.384 138.274 38.568C 138.274 39.272 138.466 39.864 138.85 40.344C 139.234 40.824 139.89 41.064 140.818 41.064C 141.906 41.064 142.914 40.68 143.842 39.912C 144.802 39.112 145.362 37.864 145.522 36.168Z" transform="translate(167 134)" fill="black"/>
</g>
</g>
<g data-name="by">
<path d="M 14.61 21.01C 14.61 22.15 14.42 23.28 14.04 24.4C 13.66 25.52 13.03 26.45 12.15 27.19C 11.29 27.93 10.15 28.3 8.73 28.3C 7.69 28.3 6.74 28.08 5.88 27.64C 5.04 27.2 4.4 26.56 3.96 25.72L 3.69 28L 2.04 28C 2.12 27.44 2.2 26.83 2.28 26.17C 2.38 25.49 2.43 24.83 2.43 24.19L 2.43 8.74L 0 8.74L 0 7.36L 4.08 7.36L 4.08 17.5C 4.5 16.68 5.08 15.96 5.82 15.34C 6.58 14.72 7.61 14.41 8.91 14.41C 10.57 14.41 11.93 14.98 12.99 16.12C 14.07 17.26 14.61 18.89 14.61 21.01ZM 12.87 21.16C 12.87 19.4 12.45 18.08 11.61 17.2C 10.77 16.32 9.76 15.88 8.58 15.88C 7.24 15.88 6.16 16.37 5.34 17.35C 4.54 18.33 4.12 19.32 4.08 20.32L 4.08 22.78C 4.08 23.9 4.51 24.86 5.37 25.66C 6.23 26.44 7.25 26.83 8.43 26.83C 10.05 26.83 11.19 26.23 11.85 25.03C 12.53 23.83 12.87 22.54 12.87 21.16ZM 30.3495 16.09L 28.6695 16.09L 23.8695 28L 21.9195 33.01L 24.3495 33.01L 24.3495 34.39L 17.7495 34.39L 17.7495 33.01L 20.3295 33.01L 22.2495 27.91L 17.3595 16.09L 15.7095 16.09L 15.7095 14.68L 21.7095 14.68L 21.7095 16.09L 19.0995 16.09L 23.1195 25.78L 23.2995 25.78L 26.9595 16.09L 24.5295 16.09L 24.5295 14.68L 30.3495 14.68L 30.3495 16.09Z" transform="translate(113 134)" fill="white"/>
</g>
</g>
</g>
</g>
</g>
<defs>

<linearGradient id="paint0_linear" x2="1" gradientUnits="userSpaceOnUse" gradientTransform="matrix(0 75.037 -76.1429 0 76.1429 0)">
<stop stop-color="#FFC000"/>
<stop offset="1" stop-color="#FFD600"/>
</linearGradient>
<radialGradient id="paint1_radial" cx="0.5" cy="0.5" r="0.5" gradientUnits="userSpaceOnUse" gradientTransform="matrix(-6.58228 -212.392 147.186 -4.63796 -17.6435 186.344)">
<stop stop-color="#2F80ED" stop-opacity="0"/>
<stop offset="0.154696" stop-color="#2F80ED"/>
<stop offset="0.508287" stop-color="#2F80ED"/>
<stop offset="0.883978" stop-color="#2F80ED"/>
<stop offset="0.983425" stop-color="#2F80ED" stop-opacity="0.51"/>
</radialGradient>

</defs>
</svg>

