<svg width="94" height="94" viewBox="0 0 94 94" version="1.1" xmlns="http://www.w3.org/2000/svg" xmlns:xlink="http://www.w3.org/1999/xlink">
<title>mobile_screen_entry</title>
<desc>Created using Figma</desc>
<g id="Canvas" transform="translate(-659 -277)">
<g id="mobile_screen_entry">
<g id="Oval Copy">
<use xlink:href="#path0_fill" transform="translate(661 279)" fill="#D8D8D8" fill-opacity="0.01"/>
<use xlink:href="#path1_stroke" transform="translate(661 279)" fill="#FFFFFF"/>
</g>
<g id="Phone Copy">
<use xlink:href="#path2_fill" transform="translate(693 305)" fill="#FFFFFF"/>
</g>
</g>
</g>
<defs>
<path id="path0_fill" fill-rule="evenodd" d="M 45 90C 69.8528 90 90 69.8528 90 45C 90 20.1472 69.8528 0 45 0C 20.1472 0 0 20.1472 0 45C 0 69.8528 20.1472 90 45 90Z"/>
<path id="path1_stroke" d="M 45 91.5C 70.6812 91.5 91.5 70.6812 91.5 45L 88.5 45C 88.5 69.0244 69.0244 88.5 45 88.5L 45 91.5ZM 91.5 45C 91.5 19.3188 70.6812 -1.5 45 -1.5L 45 1.5C 69.0244 1.5 88.5 20.9756 88.5 45L 91.5 45ZM 45 -1.5C 19.3188 -1.5 -1.5 19.3188 -1.5 45L 1.5 45C 1.5 20.9756 20.9756 1.5 45 1.5L 45 -1.5ZM -1.5 45C -1.5 70.6812 19.3188 91.5 45 91.5L 45 88.5C 20.9756 88.5 1.5 69.0244 1.5 45L -1.5 45Z"/>
<path id="path2_fill" fill-rule="evenodd" d="M 5 0C 2.23859 0 0 2.23859 0 5L 0 33C 0 35.7614 2.23859 38 5 38L 20 38C 22.7614 38 25 35.7614 25 33L 25 5C 25 2.23859 22.7614 0 20 0L 5 0ZM 22 4L 3 4L 3 29L 22 29L 22 4Z"/>
</defs>
</svg>
