<svg width="90" height="90" viewBox="0 0 90 90" fill="none" xmlns="http://www.w3.org/2000/svg">
<path d="M88.5 45C88.5 69.0244 69.0244 88.5 45 88.5C20.9756 88.5 1.5 69.0244 1.5 45C1.5 20.9756 20.9756 1.5 45 1.5C69.0244 1.5 88.5 20.9756 88.5 45Z" fill="#2F80ED" stroke="white" stroke-width="3"/>
<mask id="path-2-inside-1" fill="white">
<path fill-rule="evenodd" clip-rule="evenodd" d="M5 0C2.23859 0 0 2.23859 0 5V33C0 35.7614 2.23859 38 5 38H20C22.7614 38 25 35.7614 25 33V5C25 2.23859 22.7614 0 20 0H5ZM22 4H3V29H22V4Z"/>
</mask>
<path fill-rule="evenodd" clip-rule="evenodd" d="M5 0C2.23859 0 0 2.23859 0 5V33C0 35.7614 2.23859 38 5 38H20C22.7614 38 25 35.7614 25 33V5C25 2.23859 22.7614 0 20 0H5ZM22 4H3V29H22V4Z" transform="translate(32 26)" fill="#2F80ED"/>
<path d="M3 4V1H0V4H3ZM22 4H25V1H22V4ZM3 29H0V32H3V29ZM22 29V32H25V29H22ZM3 5C3 3.89544 3.89544 3 5 3V-3C0.581732 -3 -3 0.581732 -3 5H3ZM3 33V5H-3V33H3ZM5 35C3.89544 35 3 34.1046 3 33H-3C-3 37.4183 0.581732 41 5 41V35ZM20 35H5V41H20V35ZM22 33C22 34.1046 21.1046 35 20 35V41C24.4183 41 28 37.4183 28 33H22ZM22 5V33H28V5H22ZM20 3C21.1046 3 22 3.89544 22 5H28C28 0.581732 24.4183 -3 20 -3V3ZM5 3H20V-3H5V3ZM3 7H22V1H3V7ZM6 29V4H0V29H6ZM22 26H3V32H22V26ZM19 4V29H25V4H19Z" transform="translate(32 26)" fill="white" mask="url(#path-2-inside-1)"/>
</svg>
