<svg fill="none" height="155" viewBox="0 0 472 155" width="472" xmlns="http://www.w3.org/2000/svg"><g fill="#fff"><path d="m18.1285 91.7861c13.4816-1.9131 20.7115-11.0217 20.7115-23.9461 0-12.544-3.968-20.096-20.096-27.648-13.056-6.272-16.768-8.96-16.768-16.64 0-6.528 4.224-11.136 11.136-11.136 2.2002 0 4.0747.3992 5.6296 1.1314-3.6641 1.7507-5.7656 5.4001-5.7656 10.0046 0 7.68 3.712 10.368 16.768 16.64 16.128 7.552 20.096 15.104 20.096 27.648 0 14.592-9.216 24.32-26.24 24.32-1.9294 0-3.7536-.1271-5.4715-.3739z"/><path d="m38.328 26.496h11v-2.432c0-14.464-8.576-24.064-25.216-24.064-1.9347 0-3.7673.131503-5.4954.386062 13.0234 1.925068 19.7114 10.904938 19.7114 23.677938z"/><path d="m.695999 64.384v3.84c0 6.656 4.096001 11.52 11.776001 11.52 2.0699 0 3.9132-.3606 5.4918-1.0379-4.1134-1.7703-6.2678-5.6549-6.2678-10.4821v-3.84z"/><path d="m78.464 1.28v37.76h11v-37.76z"/><path d="m78.464 51.84v39.04h11v-39.04z"/><path d="m117.248 1.28v89.6h11v-89.6z"/><path d="m200.337 90.88h11l-20.096-89.6h-11z"/><path d="m154.513 90.88h11l3.584-17.408h-11z"/><path d="m160.785 60.8 9.088-44.288 5.538 26.6154-3.626 17.6726z"/><path d="m250.215 1.28c17.152 0 26.112 8.448 26.112 24.96v39.68c0 16.512-8.96 24.96-26.112 24.96h11c17.152 0 26.112-8.448 26.112-24.96v-39.68c0-16.512-8.96-24.96-26.112-24.96z"/><path d="m238.439 14.08v64h11v-64z"/><path d="m333.485 91.8073c13.551-1.8291 20.996-10.7076 20.996-25.1193v-41.216c0-14.4116-7.445-23.29015-20.996-25.119283 1.734-.234085 3.569-.352717 5.5-.352717 17.024 0 26.496 9.216 26.496 25.472v41.216c0 16.256-9.472 25.472-26.496 25.472-1.931 0-3.766-.1186-5.5-.3527z"/><path d="m327.985 79.36c-7.68 0-11.904-4.224-11.904-12.032v-42.496c0-7.808 4.224-12.032 11.904-12.032 2.096 0 3.934.3146 5.5.9308-4.171 1.6417-6.404 5.4241-6.404 11.1012v42.496c0 5.6771 2.233 9.4595 6.404 11.1012-1.566.6162-3.404.9308-5.5.9308z"/><path d="m390.303 1.28 10.24 71.296 5.731-36.6886-4.971-34.6074z"/><path d="m411.535 72.5184.008.0576.837-5.3612 6.595-41.3588 5.5 34.4938-4.868 30.5302h-11z"/><path d="m447.263 90.88h11l13.312-89.6h-11z"/><path d="m442.901 36.1058-5.502-34.8258h-11l11.264 71.296z"/><path d="m270.348 140.527v8.995h7.964v4.184h-12.575v-29.288h12.575v4.184h-7.964v7.74"/><path d="m274.581 140.527c1.158 0 2.096-.937 2.096-2.093 0-1.155-.938-2.092-2.096-2.092-1.157 0-2.096.937-2.096 2.092 0 1.156.939 2.093 2.096 2.093z"/><path d="m282.398 152.241c-1.159-1.255-1.739-3.026-1.739-5.313v-15.732c0-2.286.58-4.058 1.739-5.313 1.16-1.255 2.844-1.883 5.051-1.883 2.208 0 3.891.628 5.051 1.883 1.159 1.255 1.74 3.027 1.74 5.313v3.096h-4.359v-3.388c0-1.813-.769-2.72-2.306-2.72s-2.305.907-2.305 2.72v16.359c0 1.785.768 2.677 2.305 2.677s2.306-.892 2.306-2.677v-4.477h4.359v4.142c0 2.287-.581 4.058-1.74 5.313-1.16 1.256-2.843 1.883-5.051 1.883-2.207 0-3.891-.627-5.051-1.883z"/><path d="m297.006 124.418h4.611v25.104h7.587v4.184h-12.198z"/><path d="m311.425 124.418h4.611v29.288h-4.611z"/><path d="m319.472 124.418h6.791c2.291 0 4.009.614 5.155 1.841 1.146 1.228 1.719 3.027 1.719 5.398v2.886c0 2.372-.573 4.171-1.719 5.398s-2.864 1.841-5.155 1.841h-2.18v11.924h-4.611zm6.791 13.18c.754 0 1.32-.209 1.697-.628.378-.418.566-1.129.566-2.134v-3.472c0-1.004-.188-1.716-.566-2.134-.377-.419-.943-.628-1.697-.628h-2.18v8.996z"/><path d="m336.741 152.221c-1.146-1.269-1.718-3.089-1.718-5.461v-1.673h4.359v2.008c0 1.897.796 2.845 2.389 2.845.782 0 1.376-.23 1.781-.69s.608-1.206.608-2.238c0-1.227-.279-2.308-.838-3.243-.559-.934-1.593-2.057-3.102-3.368-1.901-1.674-3.228-3.186-3.982-4.54-.755-1.352-1.132-2.879-1.132-4.581 0-2.315.587-4.107 1.761-5.376 1.173-1.269 2.878-1.904 5.114-1.904 2.207 0 3.877.635 5.009 1.904 1.131 1.269 1.697 3.089 1.697 5.46v1.213h-4.359v-1.506c0-1.004-.196-1.737-.587-2.197-.392-.46-.964-.69-1.718-.69-1.538 0-2.306.935-2.306 2.803 0 1.061.286 2.05.859 2.971.573.92 1.614 2.036 3.123 3.347 1.928 1.673 3.255 3.194 3.982 4.56.727 1.367 1.09 2.971 1.09 4.812 0 2.399-.594 4.24-1.781 5.523-1.188 1.283-2.914 1.924-5.177 1.924-2.236 0-3.927-.634-5.072-1.903z"/><path d="m356.022 140.527v8.995h7.964v4.184h-12.575v-29.288h12.575v4.184h-7.964v7.74"/><path d="m360.256 140.527c1.157 0 2.096-.937 2.096-2.093 0-1.155-.939-2.092-2.096-2.092-1.158 0-2.096.937-2.096 2.092 0 1.156.938 2.093 2.096 2.093z"/><path d="m373.041 124.418h6.832c2.375 0 4.108.551 5.198 1.653s1.634 2.796 1.634 5.083v1.799c0 3.041-1.006 4.965-3.018 5.774v.084c1.118.334 1.908 1.018 2.369 2.05s.691 2.413.691 4.142v5.146c0 .837.028 1.514.084 2.029.056.517.195 1.025.419 1.527h-4.694c-.168-.474-.28-.92-.336-1.338-.056-.419-.083-1.172-.083-2.26v-5.355c0-1.339-.217-2.273-.65-2.803-.434-.53-1.181-.795-2.243-.795h-1.592v12.551h-4.611zm6.287 12.552c.922 0 1.614-.237 2.075-.711.461-.475.692-1.269.692-2.385v-2.26c0-1.059-.189-1.826-.566-2.301-.377-.474-.971-.711-1.782-.711h-2.095v8.368z"/><path d="m389.43 124.418h12.575v4.184h-7.964v7.74h6.329v4.184h-6.329v8.996h7.964v4.183h-12.575z"/><path d="m407.705 124.418h6.246l4.778 29.287h-4.611l-.838-5.815v.083h-5.24l-.838 5.732h-4.275zm5.03 19.581-2.054-14.477h-.084l-2.012 14.477z"/><path d="m420.447 124.418h4.611v25.104h7.587v4.183h-12.198z"/><path d="m434.363 124.418h4.611v29.287h-4.611z"/><path d="m445.512 128.602h-4.82v-4.184h14.251v4.184h-4.82v25.103h-4.611z"/><path d="m461.104 141.237-5.574-16.819h4.904l3.143 10.753h.084l3.144-10.753h4.485l-5.575 16.819v12.468h-4.611z"/><path d="m229 154.124h6.754c4.633 0 6.668-2.237 6.668-6.885v-2.539c0-3.572-1.212-5.681-4.113-6.412v-.086c2.468-.775 3.637-2.755 3.637-6.111v-1.291c0-4.734-1.905-6.8-6.625-6.8h-6.321zm1.992-16.611v-11.706h4.286c3.377 0 4.676 1.507 4.676 5.165v1.463c0 3.615-1.602 5.078-5.109 5.078zm0 14.804v-12.997h3.94c3.983 0 5.498 1.507 5.498 5.337v2.539c0 3.572-1.342 5.121-4.676 5.121z"/><path d="m250.682 154.124h1.991v-13.599l6.451-16.525h-1.991l-5.412 13.9-5.369-13.9h-2.122l6.452 16.525z"/></g></svg>