<svg width="20" height="20" viewBox="0 0 20 20" fill="none" xmlns="http://www.w3.org/2000/svg">
<path d="M8.44043 7.50056V13.1197C8.44692 13.5306 8.6147 13.9225 8.90757 14.2107C9.20044 14.499 9.59491 14.6606 10.0059 14.6606C10.4168 14.6606 10.8113 14.499 11.1041 14.2107C11.397 13.9225 11.5648 13.5306 11.5713 13.1197L11.5764 5.75446C11.5806 5.40326 11.5151 5.05471 11.3837 4.72901C11.2522 4.40331 11.0574 4.10694 10.8106 3.85709C10.5638 3.60723 10.2698 3.40886 9.94569 3.27347C9.62161 3.13808 9.27388 3.06836 8.92266 3.06836C8.57143 3.06836 8.2237 3.13808 7.89962 3.27347C7.57554 3.40886 7.28155 3.60723 7.03471 3.85709C6.78787 4.10694 6.59308 4.40331 6.46163 4.72901C6.33018 5.05471 6.26468 5.40326 6.26895 5.75446V13.1693C6.26179 13.6637 6.35299 14.1547 6.53726 14.6135C6.72152 15.0724 6.99516 15.4901 7.34228 15.8423C7.68939 16.1944 8.10306 16.4741 8.55922 16.665C9.01537 16.8559 9.50493 16.9542 9.99941 16.9542C10.4939 16.9542 10.9835 16.8559 11.4396 16.665C11.8958 16.4741 12.3094 16.1944 12.6565 15.8423C13.0037 15.4901 13.2773 15.0724 13.4616 14.6135C13.6458 14.1547 13.737 13.6637 13.7299 13.1693V6.2404" stroke="#000" stroke-width="1.5" stroke-miterlimit="10" stroke-linecap="round"/>
</svg>
