<svg width="20" height="20" viewBox="0 0 20 20" fill="none" xmlns="http://www.w3.org/2000/svg">
<path d="M7.5 8.51574V8.28136C7.5 7.70168 7.89062 7.22668 8.44687 7.08644L15.2668 5.263C15.3824 5.23208 15.5035 5.22811 15.6209 5.2514C15.7382 5.2747 15.8487 5.32464 15.9437 5.39737C16.0387 5.47011 16.1157 5.56369 16.1688 5.6709C16.2219 5.77811 16.2497 5.89609 16.25 6.01574V6.87511" stroke="black" stroke-width="1.5" stroke-linecap="round" stroke-linejoin="round"/>
<path d="M16.25 11.5585V14.6835C16.25 15.2268 15.9012 15.6831 15.3906 15.8554L14.5312 16.1679C13.5195 16.5085 12.5 15.7608 12.5 14.6835C12.4977 14.4067 12.5835 14.1364 12.745 13.9117C12.9065 13.687 13.1354 13.5195 13.3984 13.4335L15.3906 12.7245C15.9012 12.5526 16.25 12.1018 16.25 11.5585ZM16.25 11.5585V2.26395C16.2497 2.20414 16.2357 2.1452 16.2091 2.09166C16.1824 2.03812 16.1438 1.99142 16.0963 1.95515C16.0487 1.91888 15.9935 1.89402 15.9348 1.88247C15.8761 1.87092 15.8156 1.87301 15.7578 1.88856L7.96875 3.9827C7.8329 4.02107 7.71343 4.10303 7.62873 4.21596C7.54403 4.32889 7.4988 4.46654 7.5 4.6077V13.4358C7.5 13.9792 7.15117 14.4358 6.64062 14.6077L4.60937 15.3108C4.06719 15.4936 3.75 15.9835 3.75 16.5608C3.75 17.6382 4.78594 18.3792 5.78125 18.0452L6.64062 17.7327C7.15117 17.5608 7.5 17.1046 7.5 16.5608V13.4358" stroke="black" stroke-width="1.5" stroke-linecap="round" stroke-linejoin="round"/>
</svg>
