<svg width="20" height="20" viewBox="0 0 20 20" fill="none" xmlns="http://www.w3.org/2000/svg">
<g clip-path="url(#clip0)">
<path d="M9.6875 3.74939C10.5504 3.74939 11.25 3.04983 11.25 2.18689C11.25 1.32394 10.5504 0.62439 9.6875 0.62439C8.82455 0.62439 8.125 1.32394 8.125 2.18689C8.125 3.04983 8.82455 3.74939 9.6875 3.74939Z" stroke="black" stroke-width="1.5" stroke-miterlimit="10"/>
<path d="M7.78516 11.5474L6.59766 18.2739C6.57631 18.3953 6.57908 18.5196 6.60581 18.6398C6.63255 18.7601 6.68272 18.8739 6.75346 18.9748C6.8242 19.0756 6.91413 19.1615 7.01809 19.2276C7.12206 19.2937 7.23803 19.3386 7.35937 19.3599C7.48025 19.3814 7.6042 19.3787 7.72403 19.3519C7.84386 19.3252 7.9572 19.2749 8.05747 19.2041C8.15775 19.1333 8.24297 19.0432 8.3082 18.9392C8.37344 18.8352 8.41738 18.7193 8.4375 18.5981L9.25781 13.9146V13.9224C9.25781 13.9224 9.46094 12.6528 9.94141 12.6528H10.0625C10.5508 12.6528 10.7461 13.9224 10.7461 13.9224V13.9185L11.5664 18.6021C11.6099 18.846 11.7486 19.0627 11.9519 19.2045C12.1551 19.3462 12.4064 19.4014 12.6504 19.3579C12.8944 19.3144 13.1111 19.1757 13.2528 18.9725C13.3946 18.7692 13.4498 18.5179 13.4062 18.2739L12.2187 11.5474L12.0273 10.3872C11.9141 9.68018 11.8633 8.52783 12.0469 8.05518C12.2031 7.64893 12.5988 7.50049 12.9531 7.50049H16.5625C16.8111 7.50049 17.0496 7.40172 17.2254 7.2259C17.4012 7.05009 17.5 6.81163 17.5 6.56299C17.5 6.31435 17.4012 6.07589 17.2254 5.90008C17.0496 5.72426 16.8111 5.62549 16.5625 5.62549H3.4375C3.18886 5.62549 2.9504 5.72426 2.77459 5.90008C2.59877 6.07589 2.5 6.31435 2.5 6.56299C2.5 6.81163 2.59877 7.05009 2.77459 7.2259C2.9504 7.40172 3.18886 7.50049 3.4375 7.50049H7.05078C7.41133 7.50049 7.80078 7.64893 7.95703 8.05518C8.14062 8.52783 8.08984 9.68018 7.97656 10.3872L7.78516 11.5474Z" stroke="black" stroke-width="1.5" stroke-miterlimit="10"/>
</g>
<defs>
<clipPath id="clip0">
<rect width="20" height="20" fill="white"/>
</clipPath>
</defs>
</svg>
