<svg width="24" height="25" viewBox="0 0 24 25" fill="none" xmlns="http://www.w3.org/2000/svg">
<g clip-path="url(#clip0)">
<path d="M5.33141 3.65447C5.43601 3.76833 5.51899 3.90353 5.5756 4.05236C5.63222 4.20118 5.66136 4.36071 5.66136 4.52181C5.66136 4.68292 5.63222 4.84244 5.5756 4.99127C5.51899 5.14009 5.43601 5.2753 5.33141 5.38915C3.64328 7.22904 2.69492 9.72428 2.69492 12.3261C2.69492 14.9278 3.64328 17.4231 5.33141 19.263C5.43586 19.3769 5.5187 19.5121 5.5752 19.6608C5.6317 19.8096 5.66075 19.9691 5.6607 20.1301C5.66065 20.2911 5.63149 20.4506 5.5749 20.5993C5.5183 20.7481 5.43537 20.8832 5.33085 20.997C5.22632 21.1108 5.10225 21.2011 4.96571 21.2627C4.82917 21.3243 4.68284 21.3559 4.53508 21.3559C4.38731 21.3558 4.241 21.324 4.1045 21.2624C3.968 21.2007 3.84399 21.1103 3.73954 20.9964C-0.654715 16.2079 -0.654715 8.44294 3.73954 3.65447C3.84402 3.54049 3.96809 3.45006 4.10466 3.38837C4.24124 3.32668 4.38763 3.29492 4.53547 3.29492C4.68331 3.29492 4.82971 3.32668 4.96628 3.38837C5.10285 3.45006 5.22693 3.54049 5.33141 3.65447ZM19.6538 3.65447C24.048 8.44416 24.048 16.2079 19.6538 20.9964C19.4416 21.2197 19.1574 21.3433 18.8625 21.3405C18.5675 21.3377 18.2853 21.2088 18.0767 20.9815C17.8682 20.7542 17.7498 20.4467 17.7473 20.1253C17.7447 19.8038 17.8581 19.4942 18.063 19.263C19.7512 17.4231 20.6995 14.9278 20.6995 12.3261C20.6995 9.72428 19.7512 7.22904 18.063 5.38915C17.8519 5.15928 17.7333 4.84745 17.7332 4.52225C17.7331 4.19704 17.8515 3.88512 18.0625 3.65508C18.2734 3.42505 18.5596 3.29575 18.858 3.29564C19.1564 3.29552 19.4427 3.4246 19.6538 3.65447ZM8.66929 7.17778C8.88019 7.40767 8.99867 7.71944 8.99867 8.04451C8.99867 8.36958 8.88019 8.68134 8.66929 8.91124C8.25973 9.35749 7.93485 9.88728 7.7132 10.4704C7.49155 11.0534 7.37747 11.6784 7.37747 12.3095C7.37747 12.9406 7.49155 13.5656 7.7132 14.1487C7.93485 14.7317 8.25973 15.2615 8.66929 15.7078C8.77673 15.8209 8.86244 15.9561 8.9214 16.1057C8.98036 16.2553 9.01139 16.4161 9.01269 16.5789C9.01399 16.7417 8.98553 16.9031 8.92896 17.0538C8.87239 17.2044 8.78886 17.3413 8.68323 17.4564C8.5776 17.5715 8.45199 17.6626 8.31373 17.7242C8.17547 17.7858 8.02734 17.8169 7.87796 17.8154C7.72858 17.814 7.58096 17.7802 7.44371 17.716C7.30645 17.6517 7.18231 17.5583 7.07854 17.4412C5.82959 16.0802 5.12795 14.2343 5.12795 12.3095C5.12795 10.3847 5.82959 8.53881 7.07854 7.17778C7.2895 6.94795 7.5756 6.81885 7.87391 6.81885C8.17222 6.81885 8.45832 6.94795 8.66929 7.17778ZM16.4982 7.17778C17.7471 8.53881 18.4487 10.3847 18.4487 12.3095C18.4487 14.2343 17.7471 16.0802 16.4982 17.4412C16.3937 17.5551 16.2697 17.6455 16.1332 17.7072C15.9967 17.7688 15.8504 17.8006 15.7026 17.8007C15.5549 17.8007 15.4085 17.7691 15.272 17.7075C15.1354 17.6459 15.0114 17.5557 14.9068 17.4418C14.8023 17.328 14.7194 17.1929 14.6628 17.0441C14.6062 16.8954 14.577 16.736 14.577 16.5749C14.5769 16.4139 14.606 16.2545 14.6625 16.1057C14.719 15.9569 14.8018 15.8217 14.9063 15.7078C15.3158 15.2615 15.6407 14.7317 15.8624 14.1487C16.084 13.5656 16.1981 12.9406 16.1981 12.3095C16.1981 11.6784 16.084 11.0534 15.8624 10.4704C15.6407 9.88728 15.3158 9.35749 14.9063 8.91124C14.6953 8.68121 14.5769 8.36928 14.577 8.04408C14.5771 7.71887 14.6958 7.40704 14.9068 7.17717C15.1179 6.9473 15.4042 6.81822 15.7026 6.81834C16.001 6.81845 16.2872 6.94775 16.4982 7.17778ZM11.7878 10.5736C12.0094 10.5736 12.2288 10.6212 12.4336 10.7136C12.6383 10.806 12.8243 10.9414 12.981 11.1122C13.1377 11.2829 13.262 11.4857 13.3468 11.7088C13.4316 11.9319 13.4753 12.171 13.4753 12.4125C13.4753 12.654 13.4316 12.8931 13.3468 13.1162C13.262 13.3393 13.1377 13.542 12.981 13.7128C12.8243 13.8835 12.6383 14.019 12.4336 14.1114C12.2288 14.2038 12.0094 14.2514 11.7878 14.2514C11.3402 14.2514 10.911 14.0576 10.5945 13.7128C10.2781 13.3679 10.1003 12.9002 10.1003 12.4125C10.1003 11.9248 10.2781 11.4571 10.5945 11.1122C10.911 10.7673 11.3402 10.5736 11.7878 10.5736Z" fill="white"/>
</g>
<defs>
<clipPath id="clip0">
<rect width="23" height="24" fill="white" transform="translate(0.196289 0.325195)"/>
</clipPath>
</defs>
</svg>
