<svg width="20" height="20" viewBox="0 0 20 20" fill="none" xmlns="http://www.w3.org/2000/svg">
<path d="M13.693 5.80745L12.6531 4.16448C12.434 3.90901 12.1336 3.74963 11.7969 3.74963H8.20312C7.86641 3.74963 7.56602 3.90901 7.34687 4.16448L6.30703 5.80745C6.08789 6.0633 5.80547 6.24963 5.46875 6.24963H3.125C2.79348 6.24963 2.47554 6.38133 2.24112 6.61575C2.0067 6.85017 1.875 7.16811 1.875 7.49963V14.9996C1.875 15.3312 2.0067 15.6491 2.24112 15.8835C2.47554 16.1179 2.79348 16.2496 3.125 16.2496H16.875C17.2065 16.2496 17.5245 16.1179 17.7589 15.8835C17.9933 15.6491 18.125 15.3312 18.125 14.9996V7.49963C18.125 7.16811 17.9933 6.85017 17.7589 6.61575C17.5245 6.38133 17.2065 6.24963 16.875 6.24963H14.5703C14.2324 6.24963 13.9121 6.0633 13.693 5.80745Z" stroke="black" stroke-width="1.5" stroke-linecap="round" stroke-linejoin="round"/>
<path d="M10 13.7491C11.7259 13.7491 13.125 12.35 13.125 10.6241C13.125 8.89825 11.7259 7.49915 10 7.49915C8.27411 7.49915 6.875 8.89825 6.875 10.6241C6.875 12.35 8.27411 13.7491 10 13.7491Z" stroke="black" stroke-width="1.5" stroke-miterlimit="10"/>
<path d="M4.84439 6.17148V5.31152H3.90625V6.17148" stroke="black" stroke-width="1.5" stroke-linecap="round" stroke-linejoin="round"/>
</svg>
