<svg width="24" height="15" viewBox="0 0 24 15" fill="none" xmlns="http://www.w3.org/2000/svg">
<path fill-rule="evenodd" clip-rule="evenodd" d="M0.685059 3.18799C0.685059 2.42549 0.98796 1.69422 1.52713 1.15506C2.06629 0.615889 2.79756 0.312988 3.56006 0.312988H14.3413C15.0386 0.312906 15.7122 0.566265 16.2366 1.02588C16.761 1.4855 17.1005 2.12005 17.1919 2.81136L21.6625 0.824738C21.8813 0.727235 22.121 0.685967 22.3599 0.704686C22.5987 0.723405 22.8291 0.801517 23.03 0.931922C23.231 1.06233 23.3962 1.24089 23.5106 1.45138C23.625 1.66187 23.685 1.89761 23.6851 2.13718V12.8638C23.6848 13.1032 23.6249 13.3387 23.5105 13.549C23.3962 13.7594 23.2312 13.9378 23.0304 14.0682C22.8297 14.1985 22.5995 14.2767 22.3609 14.2956C22.1223 14.3144 21.8827 14.2734 21.6639 14.1762L17.1919 12.1896C17.1005 12.8809 16.761 13.5155 16.2366 13.9751C15.7122 14.4347 15.0386 14.6881 14.3413 14.688H3.56006C2.79756 14.688 2.06629 14.3851 1.52713 13.8459C0.98796 13.3068 0.685059 12.5755 0.685059 11.813V3.18799ZM17.2163 10.6271L22.2476 12.8638V2.13718L17.2163 4.37393V10.6271ZM3.56006 1.75049C3.17881 1.75049 2.81318 1.90194 2.54359 2.17152C2.27401 2.44111 2.12256 2.80674 2.12256 3.18799V11.813C2.12256 12.1942 2.27401 12.5599 2.54359 12.8295C2.81318 13.099 3.17881 13.2505 3.56006 13.2505H14.3413C14.7226 13.2505 15.0882 13.099 15.3578 12.8295C15.6274 12.5599 15.7788 12.1942 15.7788 11.813V3.18799C15.7788 2.80674 15.6274 2.44111 15.3578 2.17152C15.0882 1.90194 14.7226 1.75049 14.3413 1.75049H3.56006Z" fill="white"/>
</svg>
