<svg width="20" height="20" viewBox="0 0 20 20" fill="none" xmlns="http://www.w3.org/2000/svg">
<path d="M3.41762 14.844C3.4641 14.6729 3.36137 14.435 3.26332 14.2635C3.23279 14.2124 3.19967 14.1628 3.1641 14.1151C2.32319 12.8398 1.87498 11.3458 1.87504 9.81821C1.86137 5.43345 5.4973 1.87524 9.99339 1.87524C13.9145 1.87524 17.1875 4.59165 17.9524 8.19751C18.067 8.73212 18.1248 9.27732 18.125 9.82407C18.125 14.2151 14.6293 17.8291 10.1332 17.8291C9.41839 17.8291 8.45355 17.6495 7.92738 17.5022C7.40121 17.3549 6.87582 17.1596 6.74027 17.1073C6.60164 17.054 6.45441 17.0266 6.3059 17.0264C6.14367 17.0258 5.98301 17.0581 5.83363 17.1213L3.18402 18.0776C3.12597 18.1026 3.06447 18.1187 3.0016 18.1252C2.95199 18.1251 2.9029 18.1151 2.85718 18.0958C2.81146 18.0766 2.77001 18.0485 2.73524 18.0131C2.70047 17.9777 2.67307 17.9357 2.65462 17.8897C2.63618 17.8436 2.62705 17.7944 2.62777 17.7448C2.63103 17.7012 2.63889 17.6581 2.65121 17.6163L3.41762 14.844Z" stroke="black" stroke-width="1.5" stroke-miterlimit="10" stroke-linecap="round"/>
</svg>
