<svg width="24" height="24" viewBox="0 0 24 24" fill="none" xmlns="http://www.w3.org/2000/svg">
<g clip-path="url(#clip0_311_4129)">
<path d="M5.41762 16.844C5.4641 16.6729 5.36137 16.435 5.26332 16.2635C5.23279 16.2124 5.19967 16.1629 5.1641 16.1151C4.32319 14.8398 3.87498 13.3458 3.87504 11.8182C3.86137 7.43346 7.4973 3.87526 11.9934 3.87526C15.9145 3.87526 19.1875 6.59167 19.9524 10.1975C20.067 10.7321 20.1248 11.2773 20.125 11.8241C20.125 16.2151 16.6293 19.8292 12.1332 19.8292C11.4184 19.8292 10.4536 19.6495 9.92738 19.5022C9.40121 19.3549 8.87582 19.1596 8.74027 19.1073C8.60164 19.054 8.45441 19.0266 8.3059 19.0264C8.14367 19.0258 7.98301 19.0581 7.83363 19.1213L5.18402 20.0776C5.12597 20.1026 5.06447 20.1187 5.0016 20.1253C4.95199 20.1251 4.9029 20.1151 4.85718 20.0959C4.81146 20.0766 4.77001 20.0485 4.73524 20.0131C4.70047 19.9777 4.67307 19.9358 4.65462 19.8897C4.63618 19.8436 4.62705 19.7944 4.62777 19.7448C4.63103 19.7012 4.63889 19.6582 4.65121 19.6163L5.41762 16.844Z" stroke="black" stroke-width="2" stroke-miterlimit="10" stroke-linecap="round"/>
</g>
<path d="M1 1L23 23" stroke="black" stroke-width="2" stroke-linecap="round" stroke-linejoin="round"/>
<defs>
<clipPath id="clip0_311_4129">
<rect width="20" height="20" fill="white" transform="translate(2 2)"/>
</clipPath>
</defs>
</svg>
