<svg width="29" height="27" viewBox="0 0 29 27" fill="none" xmlns="http://www.w3.org/2000/svg">
<path d="M23.7787 19.4773C23.5978 19.6589 23.4591 19.8783 23.3726 20.1197C23.2861 20.3611 23.2539 20.6186 23.2784 20.8738C23.4009 22.0551 
23.6332 23.2225 23.9723 24.3608C21.5401 23.7976 20.0547 23.1456 19.3799 22.8038C18.9972 22.61 18.5565 22.5641 18.1421 22.6748C16.954 22.9916
15.7295 23.151 14.5 23.149C7.53304 23.149 2.29565 18.2551 2.29565 12.6882C2.29565 7.12303 7.53304 2.22736 14.5 2.22736C21.4669 2.22736 26.7043 
7.12303 26.7043 12.6882C26.7043 15.2476 25.6286 17.6222 23.7787 19.4773ZM24.6383 26.2856C25.0513 26.3674 25.4658 26.4424 25.8814 26.5105C26.2301 
26.5663 26.4951 26.2036 26.3573 25.8793C26.2025 25.5142 26.0606 25.1438 25.9319 24.7687L25.9267 24.7513C25.4943 23.496 25.1421 22.0524 25.0131
20.7082C27.1524 18.5637 28.4478 15.7567 28.4478 12.6882C28.4478 5.94793 22.2026 0.483887 14.5 0.483887C6.7973 0.483887 0.552177 5.94793 0.552177 
12.6882C0.552177 19.4285 6.7973 24.8925 14.5 24.8925C15.8814 24.8944 17.2571 24.715 18.5919 24.359C19.4985 24.8175 21.4495 25.6527 24.6383 26.2856Z" 
 fill="black"/>
</svg>
