<svg width="20" height="20" viewBox="0 0 20 20" fill="none" xmlns="http://www.w3.org/2000/svg">
<path d="M20 5.625C20 3.89844 18.1354 2.5 15.8333 2.5C13.5312 2.5 11.6667 3.89844 11.6667 5.625C11.6667 7.04688 12.9323 8.24609 14.6615 8.625C14.6302 9.25391 14.4427 9.73828 14.0885 10.0664C13.2865 10.8164 11.5208 10.9414 9.65104 11.0703C8.18229 11.1719 6.66146 11.2812 5.41667 11.7305V6.10547C7.10937 5.70703 8.33333 4.52344 8.33333 3.125C8.33333 1.39844 6.46875 0 4.16667 0C1.86458 0 0 1.39844 0 3.125C0 4.52344 1.22396 5.70703 2.91667 6.10547V13.8906C1.22396 14.293 0 15.4766 0 16.875C0 18.6016 1.86458 20 4.16667 20C6.46875 20 8.33333 18.6016 8.33333 16.875C8.33333 15.5469 7.22917 14.4102 5.66667 13.9609C5.82813 13.7578 6.07292 13.5781 6.44271 13.4375C7.28646 13.1172 8.54687 13.0313 9.88542 12.9375C12.0833 12.7852 14.5729 12.6094 16.0417 11.2422C16.7708 10.5625 17.1406 9.6875 17.1667 8.58984C18.8125 8.16797 20 7 20 5.625ZM4.16667 2.5C4.625 2.5 5 2.78125 5 3.125C5 3.46875 4.625 3.75 4.16667 3.75C3.70833 3.75 3.33333 3.46875 3.33333 3.125C3.33333 2.78125 3.70833 2.5 4.16667 2.5ZM4.16667 17.5C3.70833 17.5 3.33333 17.2188 3.33333 16.875C3.33333 16.5312 3.70833 16.25 4.16667 16.25C4.625 16.25 5 16.5312 5 16.875C5 17.2188 4.625 17.5 4.16667 17.5ZM15.8333 5C16.2917 5 16.6667 5.28125 16.6667 5.625C16.6667 5.96875 16.2917 6.25 15.8333 6.25C15.375 6.25 15 5.96875 15 5.625C15 5.28125 15.375 5 15.8333 5Z" fill="white"/>
</svg>
