<svg width="20" height="20" viewBox="0 0 20 20" fill="none" xmlns="http://www.w3.org/2000/svg">
<path d="M4.375 4.37537L5.15625 16.8754C5.19336 17.5976 5.71875 18.1254 6.40625 18.1254H13.5937C14.284 18.1254 14.7996 17.5976 14.8437 16.8754L15.625 4.37537" stroke="black" stroke-width="1.5" stroke-linecap="round" stroke-linejoin="round"/>
<path d="M3.125 4.37537H16.875" stroke="black" stroke-width="1.5" stroke-miterlimit="10" stroke-linecap="round"/>
<path d="M7.5 4.37525V2.81275C7.49964 2.68953 7.52365 2.56746 7.57063 2.45356C7.61762 2.33965 7.68666 2.23616 7.77379 2.14903C7.86091 2.0619 7.96441 1.99286 8.07831 1.94588C8.19222 1.89889 8.31429 1.87489 8.4375 1.87525H11.5625C11.6857 1.87489 11.8078 1.89889 11.9217 1.94588C12.0356 1.99286 12.1391 2.0619 12.2262 2.14903C12.3133 2.23616 12.3824 2.33965 12.4294 2.45356C12.4764 2.56746 12.5004 2.68953 12.5 2.81275V4.37525" stroke="black" stroke-width="1.5" stroke-linecap="round" stroke-linejoin="round"/>
<path d="M10 6.87561V15.6256" stroke="black" stroke-width="1.5" stroke-linecap="round" stroke-linejoin="round"/>
<path d="M7.1875 6.87561L7.5 15.6256" stroke="black" stroke-width="1.5" stroke-linecap="round" stroke-linejoin="round"/>
<path d="M12.8125 6.87561L12.5 15.6256" stroke="black" stroke-width="1.5" stroke-linecap="round" stroke-linejoin="round"/>
</svg>
