<svg width="20" height="20" viewBox="0 0 20 20" fill="none" xmlns="http://www.w3.org/2000/svg">
<path d="M17.1215 3H2.97862C2.32771 3 1.80005 3.52766 1.80005 4.17857V13.6071C1.80005 14.258 2.32771 14.7857 2.97862 14.7857H17.1215C17.7724 14.7857 18.3 14.258 18.3 13.6071V4.17857C18.3 3.52766 17.7724 3 17.1215 3Z" stroke="black" stroke-linejoin="round"/>
<path d="M11.8179 17.1425L11.5233 14.7854H8.57687L8.28223 17.1425H11.8179Z" fill="black"/>
<path d="M14.175 17.1423H5.92505" stroke="black" stroke-width="1.5" stroke-linecap="round" stroke-linejoin="round"/>
<path d="M1.80005 11.8387V13.6066C1.80092 13.9189 1.92537 14.2182 2.14621 14.439C2.36705 14.6598 2.66631 14.7843 2.97862 14.7852H17.1215C17.4338 14.7843 17.7331 14.6598 17.9539 14.439C18.1747 14.2182 18.2992 13.9189 18.3 13.6066V11.8387H1.80005ZM10.05 14.1959C9.9335 14.1959 9.81957 14.1613 9.72266 14.0966C9.62575 14.0318 9.55022 13.9398 9.50562 13.8321C9.46102 13.7244 9.44935 13.6059 9.47209 13.4916C9.49482 13.3773 9.55095 13.2723 9.63336 13.1899C9.71577 13.1075 9.82078 13.0514 9.93509 13.0286C10.0494 13.0059 10.1679 13.0176 10.2756 13.0622C10.3832 13.1068 10.4753 13.1823 10.54 13.2792C10.6048 13.3761 10.6393 13.4901 10.6393 13.6066C10.6393 13.7629 10.5772 13.9128 10.4667 14.0233C10.3562 14.1338 10.2063 14.1959 10.05 14.1959Z" fill="black"/>
</svg>
