<svg width="20" height="20" viewBox="0 0 20 20" fill="none" xmlns="http://www.w3.org/2000/svg">
<path d="M15.8984 4.99951H7.22656C5.99687 4.99951 5 5.99638 5 7.22607V15.8979C5 17.1276 5.99687 18.1245 7.22656 18.1245H15.8984C17.1281 18.1245 18.125 17.1276 18.125 15.8979V7.22607C18.125 5.99638 17.1281 4.99951 15.8984 4.99951Z" stroke="black" stroke-width="1.5" stroke-linejoin="round"/>
<path d="M14.9805 4.99927L15 4.06177C14.9983 3.48211 14.7674 2.92667 14.3575 2.51679C13.9476 2.10691 13.3922 1.87592 12.8125 1.87427H4.375C3.71256 1.87623 3.07781 2.14025 2.6094 2.60866C2.14098 3.07708 1.87696 3.71183 1.875 4.37427V12.8118C1.87665 13.3914 2.10765 13.9469 2.51753 14.3567C2.9274 14.7666 3.48285 14.9976 4.0625 14.9993H5" stroke="black" stroke-width="1.5" stroke-linecap="round" stroke-linejoin="round"/>
<path d="M11.5625 8.43652V14.6865" stroke="black" stroke-width="1.5" stroke-linecap="round" stroke-linejoin="round"/>
<path d="M14.6875 11.5618H8.4375" stroke="black" stroke-width="1.5" stroke-linecap="round" stroke-linejoin="round"/>
</svg>
