<svg width="20" height="20" viewBox="0 0 20 20" fill="none" xmlns="http://www.w3.org/2000/svg">
<path d="M6.875 6.87488V5.31238C6.875 4.89798 7.03962 4.50055 7.33265 4.20752C7.62567 3.9145 8.0231 3.74988 8.4375 3.74988H16.5625C16.9769 3.74988 17.3743 3.9145 17.6674 4.20752C17.9604 4.50055 18.125 4.89798 18.125 5.31238V14.6874C18.125 15.1018 17.9604 15.4992 17.6674 15.7922C17.3743 16.0853 16.9769 16.2499 16.5625 16.2499H8.4375C8.0231 16.2499 7.62567 16.0853 7.33265 15.7922C7.03962 15.4992 6.875 15.1018 6.875 14.6874V13.1249" stroke="black" stroke-width="1.5" stroke-linecap="round" stroke-linejoin="round"/>
<path d="M10.625 13.125L13.75 10L10.625 6.875" stroke="black" stroke-width="1.5" stroke-linecap="round" stroke-linejoin="round"/>
<path d="M1.875 9.99988H13.125" stroke="black" stroke-width="1.5" stroke-linecap="round" stroke-linejoin="round"/>
</svg>
