<svg width="20" height="20" viewBox="0 0 24 25" fill="none" xmlns="http://www.w3.org/2000/svg">
<g clip-path="url(#clip0)">
<path d="M21.5534 3.75377C21.5534 3.29911 21.3728 2.86307 21.0513 2.54158C20.7298 2.22009 20.2937 2.03948 19.8391 2.03948H16.4105V0.325195H14.6962V2.03948H7.83908V0.325195H6.12479V2.03948H2.69622C2.24156 2.03948 1.80553 2.22009 1.48404 2.54158C1.16255 2.86307 0.981934 3.29911 0.981934 3.75377V20.8966C0.981934 21.3513 1.16255 21.7873 1.48404 22.1088C1.80553 22.4303 2.24156 22.6109 2.69622 22.6109H6.12479V20.8966H2.69622V3.75377H6.12479V5.46805H7.83908V3.75377H14.6962V5.46805H16.4105V3.75377H19.8391V8.89662H21.5534V3.75377Z" fill="white"/>
<path d="M15.5534 11.4678L17.7383 15.7003L22.4106 16.3783L18.982 19.6732L19.8391 24.3249L15.5534 22.1289L11.2677 24.3249L12.1249 19.6732L8.69629 16.3783L13.4963 15.7003L15.5534 11.4678Z" fill="white"/>
</g>
<defs>
<clipPath id="clip0">
<rect width="23" height="24" fill="white" transform="translate(0.196289 0.325195)"/>
</clipPath>
</defs>
</svg>
