<svg width="20" height="20" viewBox="0 0 20 20" fill="none" xmlns="http://www.w3.org/2000/svg">
<path d="M15 8.74902V15.9365C15 16.1417 14.9596 16.3449 14.8811 16.5345C14.8025 16.724 14.6874 16.8963 14.5423 17.0414C14.3973 17.1865 14.225 17.3016 14.0354 17.3801C13.8459 17.4586 13.6427 17.499 13.4375 17.499H4.0625C3.6481 17.499 3.25067 17.3344 2.95765 17.0414C2.66462 16.7483 2.5 16.3509 2.5 15.9365V6.56152C2.5 6.14712 2.66462 5.74969 2.95765 5.45667C3.25067 5.16364 3.6481 4.99902 4.0625 4.99902H10.6047" stroke="black" stroke-width="1.5" stroke-linecap="round" stroke-linejoin="round"/>
<path d="M13.125 2.49976H17.5V6.87476" stroke="black" stroke-width="1.5" stroke-linecap="round" stroke-linejoin="round"/>
<path d="M8.75 11.2485L17.1875 2.81104" stroke="black" stroke-width="1.5" stroke-linecap="round" stroke-linejoin="round"/>
</svg>
