<svg width="20" height="20" viewBox="0 0 20 20" fill="none" xmlns="http://www.w3.org/2000/svg">
<path d="M7.1875 5.19995H17.9688" stroke="black" stroke-width="1.5" stroke-linecap="round" stroke-linejoin="round"/>
<path d="M7.1875 10.2H17.9688" stroke="black" stroke-width="1.5" stroke-linecap="round" stroke-linejoin="round"/>
<path d="M7.1875 15.2H17.9688" stroke="black" stroke-width="1.5" stroke-linecap="round" stroke-linejoin="round"/>
<path d="M4.51551 6.56213C4.48919 6.56223 4.46352 6.55418 4.44214 6.53912L3.4373 5.82379L2.43247 6.53912C2.411 6.5544 2.38514 6.56259 2.35862 6.5625C2.3321 6.5624 2.3063 6.55403 2.28494 6.53859C2.26359 6.52315 2.24779 6.50144 2.23983 6.4766C2.23187 6.45176 2.23216 6.42507 2.24066 6.40041L2.63256 5.26059L1.61686 4.57664C1.59486 4.56184 1.57826 4.54052 1.56947 4.5158C1.56069 4.49108 1.56019 4.46424 1.56805 4.43922C1.5759 4.41419 1.5917 4.39229 1.61313 4.37671C1.63457 4.36113 1.66051 4.35269 1.68718 4.35262H2.94024L3.31839 3.20989C3.32654 3.18522 3.34243 3.16372 3.36379 3.14847C3.38516 3.13321 3.41089 3.125 3.4373 3.125C3.46372 3.125 3.48945 3.13321 3.51082 3.14847C3.53218 3.16372 3.54807 3.18522 3.55622 3.20989L3.93437 4.35301H5.18743C5.21413 4.35299 5.24013 4.36137 5.26163 4.37692C5.28313 4.39247 5.29899 4.41437 5.3069 4.43942C5.3148 4.46446 5.31433 4.49133 5.30556 4.51609C5.29678 4.54086 5.28017 4.56221 5.25814 4.57703L4.24205 5.26059L4.63372 6.4001C4.64006 6.41855 4.64185 6.43822 4.63893 6.45748C4.636 6.47674 4.62845 6.49504 4.61691 6.51087C4.60536 6.5267 4.59014 6.5396 4.57251 6.54851C4.55488 6.55743 4.53534 6.5621 4.51551 6.56213Z" fill="black"/>
<path d="M4.51551 11.5621C4.48919 11.5622 4.46352 11.5542 4.44214 11.5391L3.4373 10.8238L2.43247 11.5391C2.411 11.5544 2.38514 11.5626 2.35862 11.5625C2.3321 11.5624 2.3063 11.554 2.28494 11.5386C2.26359 11.5231 2.24779 11.5014 2.23983 11.4766C2.23187 11.4518 2.23216 11.4251 2.24066 11.4004L2.63256 10.2606L1.61686 9.57664C1.59486 9.56184 1.57826 9.54052 1.56947 9.5158C1.56069 9.49108 1.56019 9.46424 1.56805 9.43922C1.5759 9.41419 1.5917 9.39229 1.61313 9.37671C1.63457 9.36113 1.66051 9.35269 1.68718 9.35262H2.94024L3.31839 8.20989C3.32654 8.18522 3.34243 8.16372 3.36379 8.14847C3.38516 8.13321 3.41089 8.125 3.4373 8.125C3.46372 8.125 3.48945 8.13321 3.51082 8.14847C3.53218 8.16372 3.54807 8.18522 3.55622 8.20989L3.93437 9.35301H5.18743C5.21413 9.35299 5.24013 9.36137 5.26163 9.37692C5.28313 9.39247 5.29899 9.41437 5.3069 9.43942C5.3148 9.46446 5.31433 9.49133 5.30556 9.51609C5.29678 9.54086 5.28017 9.56221 5.25814 9.57703L4.24205 10.2606L4.63372 11.4001C4.64006 11.4185 4.64185 11.4382 4.63893 11.4575C4.636 11.4767 4.62845 11.495 4.61691 11.5109C4.60536 11.5267 4.59014 11.5396 4.57251 11.5485C4.55488 11.5574 4.53534 11.5621 4.51551 11.5621Z" fill="black"/>
<path d="M4.51551 16.5621C4.48919 16.5622 4.46352 16.5542 4.44214 16.5391L3.4373 15.8238L2.43247 16.5391C2.411 16.5544 2.38514 16.5626 2.35862 16.5625C2.3321 16.5624 2.3063 16.554 2.28494 16.5386C2.26359 16.5231 2.24779 16.5014 2.23983 16.4766C2.23187 16.4518 2.23216 16.4251 2.24066 16.4004L2.63256 15.2606L1.61686 14.5766C1.59486 14.5618 1.57826 14.5405 1.56947 14.5158C1.56069 14.4911 1.56019 14.4642 1.56805 14.4392C1.5759 14.4142 1.5917 14.3923 1.61313 14.3767C1.63457 14.3611 1.66051 14.3527 1.68718 14.3526H2.94024L3.31839 13.2099C3.32654 13.1852 3.34243 13.1637 3.36379 13.1485C3.38516 13.1332 3.41089 13.125 3.4373 13.125C3.46372 13.125 3.48945 13.1332 3.51082 13.1485C3.53218 13.1637 3.54807 13.1852 3.55622 13.2099L3.93437 14.353H5.18743C5.21413 14.353 5.24013 14.3614 5.26163 14.3769C5.28313 14.3925 5.29899 14.4144 5.3069 14.4394C5.3148 14.4645 5.31433 14.4913 5.30556 14.5161C5.29678 14.5409 5.28017 14.5622 5.25814 14.577L4.24205 15.2606L4.63372 16.4001C4.64006 16.4185 4.64185 16.4382 4.63893 16.4575C4.636 16.4767 4.62845 16.495 4.61691 16.5109C4.60536 16.5267 4.59014 16.5396 4.57251 16.5485C4.55488 16.5574 4.53534 16.5621 4.51551 16.5621Z" fill="black"/>
</svg>
