<svg width="114" height="86" viewBox="0 0 114 86" fill="none" xmlns="http://www.w3.org/2000/svg">
<mask id="mask0" mask-type="alpha" maskUnits="userSpaceOnUse" x="0" y="0" width="114" height="86">
<rect width="114" height="86" fill="#C4C4C4"/>
</mask>
<g mask="url(#mask0)">
<path d="M92.8376 47.12C90.0375 45.0101 90.5277 56.704 75.073 58.5005C67.9841 59.3244 61.9725 58.0457 56.8898 56.3492C62.451 52.7103 66.1255 46.4599 66.1255 39.3495C66.1255 28.1113 56.9587 19 45.6488 19C35.777 19 27.5427 25.9402 25.6053 35.1766C18.2417 33.6385 12.2773 32.268 12.2773 38.5463C12.2773 44.3824 21.0237 50.1952 30.3246 53.7017C20.6422 57.998 13.8894 67.6442 13.8894 78.8626C13.8894 94.0766 26.3855 104.829 41.6118 106.411C63.2321 108.657 88.8803 104.977 98.5654 85.6497C105.493 71.8261 102.381 54.3078 92.8376 47.12Z" fill="url(#paint0_linear)"/>
<ellipse rx="5.49021" ry="5.49956" transform="matrix(0.998739 0.0501978 -0.0492734 0.998785 37.3715 37.5108)" fill="black"/>
<mask id="mask1" mask-type="alpha" maskUnits="userSpaceOnUse" x="1" y="28" width="30" height="69">
<path d="M9.2036 52.0284C7.91851 54.5183 7.04113 57.0672 6.4894 59.6229L14.0377 95.1443C14.6855 96.3657 14.8732 96.7484 14.2318 96.0577L14.0377 95.1443C11.6712 90.6825 3.16349 75.029 6.4894 59.6229L1 33.7904L20.7962 28.3207C31.1555 36.2836 31.2347 40.0044 30.3094 53.6989C18.302 56.7956 13.49 43.7235 9.2036 52.0284Z" fill="#C4C4C4"/>
</mask>
<g mask="url(#mask1)">
<path d="M92.8448 47.1248C90.0448 45.0149 90.535 56.7088 75.0803 58.5053C67.9913 59.3293 61.9798 58.0506 56.8971 56.354C62.4583 52.7151 66.1328 46.4647 66.1328 39.3544C66.1328 28.1161 56.966 19.0048 45.6561 19.0048C35.7843 19.0048 27.5499 25.945 25.6125 35.1814C18.249 33.6434 12.2846 32.2728 12.2846 38.5511C12.2846 44.3873 21.0309 50.2 30.3319 53.7066C20.6495 58.0029 13.8967 67.649 13.8967 78.8675C13.8967 94.0814 26.3928 104.834 41.6191 106.416C63.2394 108.661 88.8876 104.982 98.5727 85.6545C105.5 71.8309 102.389 54.3126 92.8448 47.1248Z" fill="#FF8A00"/>
</g>
<circle cx="39.1419" cy="36.1205" r="1.55668" fill="white"/>
</g>
<defs>
<linearGradient id="paint0_linear" x1="57.296" y1="19" x2="57.296" y2="106.995" gradientUnits="userSpaceOnUse">
<stop stop-color="#FFC000"/>
<stop offset="1" stop-color="#FFD600"/>
</linearGradient>
</defs>
</svg>
