<svg width="20" height="20" viewBox="0 0 20 20" fill="none" xmlns="http://www.w3.org/2000/svg">
<path fill-rule="evenodd" clip-rule="evenodd" d="M3.25 15.375C2.62868 15.375 2.125 14.8713 2.125 14.25V5.25C2.125 4.62868 2.62868 4.125 3.25 4.125H16.75C17.3713 4.125 17.875 4.62868 17.875 5.25V14.25C17.875 14.8713 17.3713 15.375 16.75 15.375H3.25ZM1 14.25C1 15.4926 2.00736 16.5 3.25 16.5H16.75C17.9926 16.5 19 15.4926 19 14.25V5.25C19 4.00736 17.9926 3 16.75 3H3.25C2.00736 3 1 4.00736 1 5.25V14.25ZM8.95776 11.6918C8.75383 11.936 8.46555 12.1261 8.09293 12.262C7.72031 12.3955 7.30741 12.4622 6.85422 12.4622C6.37838 12.4622 5.96044 12.359 5.60041 12.1525C5.24289 11.9436 4.96595 11.6414 4.76956 11.2462C4.5757 10.8509 4.47625 10.3864 4.47122 9.85261V9.47873C4.47122 8.92987 4.56311 8.45529 4.74691 8.05497C4.93322 7.65214 5.20009 7.34498 5.54753 7.13349C5.89749 6.91949 6.30662 6.81249 6.77491 6.81249C7.427 6.81249 7.93683 6.96858 8.30442 7.28078C8.672 7.59046 8.88978 8.04238 8.95776 8.63656H7.85501C7.80465 8.32185 7.69261 8.09148 7.51889 7.94545C7.34769 7.79943 7.11103 7.72641 6.8089 7.72641C6.42369 7.72641 6.13038 7.87118 5.92897 8.16072C5.72755 8.45025 5.62558 8.88078 5.62306 9.4523V9.80351C5.62306 10.3801 5.73258 10.8156 5.95162 11.1102C6.17066 11.4048 6.49167 11.5521 6.91465 11.5521C7.34014 11.5521 7.64352 11.4614 7.82479 11.2801V10.3322H6.7938V9.49761H8.95776V11.6918ZM11.084 12.3867H9.95099V6.88802H11.084V12.3867ZM13.2706 10.1396H15.4459V9.2257H13.2706V7.80572H15.7178V6.88802H12.1376V12.3867H13.2706V10.1396Z" fill="black"/>
</svg>
