<svg width="20" height="20" viewBox="0 0 20 20" fill="none" xmlns="http://www.w3.org/2000/svg">
<path d="M12.2738 18.8398L10.0562 14.3577L8.30269 12.1159C8.04364 11.6776 7.90698 11.1778 7.90698 10.6687V5.62415H8.51909C8.72544 5.62409 8.92978 5.66469 9.12044 5.74363C9.3111 5.82256 9.48434 5.93828 9.63027 6.08417C9.77621 6.23006 9.89197 6.40328 9.97095 6.59392C10.0499 6.78456 10.0906 6.98889 10.0906 7.19524V14.3577" stroke="black" stroke-width="1.5" stroke-linecap="round" stroke-linejoin="round"/>
<path d="M4.99609 11.4464V8.53547C4.99609 8.53547 6.45156 5.62415 7.90703 5.62415" stroke="black" stroke-width="1.5" stroke-linecap="round" stroke-linejoin="round"/>
<path d="M14.457 10.7187L11.875 9.02258" stroke="black" stroke-width="1.5" stroke-linecap="round" stroke-linejoin="round"/>
<path d="M6.66138 18.6841L8.75005 15.6232" stroke="black" stroke-width="1.5" stroke-linecap="round" stroke-linejoin="round"/>
<path d="M10.0905 4.16863C10.8943 4.16863 11.5459 3.51699 11.5459 2.71316C11.5459 1.90933 10.8943 1.25769 10.0905 1.25769C9.28665 1.25769 8.63501 1.90933 8.63501 2.71316C8.63501 3.51699 9.28665 4.16863 10.0905 4.16863Z" stroke="black" stroke-width="1.5" stroke-linecap="round" stroke-linejoin="round"/>
</svg>
