<svg width="25" height="25" viewBox="0 0 21 21" fill="none" xmlns="http://www.w3.org/2000/svg">
<path d="M19.5085 8.7959H1.93143C1.13313 8.7959 0.47998 9.44905 0.47998 10.2474C0.47998 11.0457 1.13313 11.6988 1.93143 11.6988H19.5085C20.3068 11.6988 20.96 11.0457 20.96 10.2474C20.96 9.44905 20.3213 8.7959 19.5085 8.7959Z" fill="black"/>
<path d="M1.93143 2.90291H19.5085C20.3068 2.90291 20.96 2.24975 20.96 1.45145C20.96 0.653154 20.3068 0 19.5085 0H1.93143C1.13313 0 0.47998 0.653154 0.47998 1.45145C0.47998 2.24975 1.13313 2.90291 1.93143 2.90291Z" fill="black"/>
<path d="M19.5085 17.5771H1.93143C1.13313 17.5771 0.47998 18.2303 0.47998 19.0286C0.47998 19.8269 1.13313 20.4801 1.93143 20.4801H19.5085C20.3068 20.4801 20.96 19.8269 20.96 19.0286C20.96 18.2303 20.3213 17.5771 19.5085 17.5771Z" fill="black"/>
</svg>