<?xml version="1.0" encoding="UTF-8" standalone="no"?>
<!-- Generator: Adobe Illustrator 25.2.3, SVG Export Plug-In . SVG Version: 6.00 Build 0)  -->

<svg
   version="1.1"
   id="Layer_1"
   x="0px"
   y="0px"
   viewBox="0 0 1.0250957 0.78155531"
   xml:space="preserve"
   sodipodi:docname="HandRaised.svg"
   width="20"
   height="20"
   inkscape:version="1.1 (c4e8f9e, 2021-05-24)"
   xmlns:inkscape="http://www.inkscape.org/namespaces/inkscape"
   xmlns:sodipodi="http://sodipodi.sourceforge.net/DTD/sodipodi-0.dtd"
   xmlns="http://www.w3.org/2000/svg"
   xmlns:svg="http://www.w3.org/2000/svg"><defs
   id="defs880" /><sodipodi:namedview
   id="namedview878"
   pagecolor="#505050"
   bordercolor="#eeeeee"
   borderopacity="1"
   inkscape:pageshadow="0"
   inkscape:pageopacity="0"
   inkscape:pagecheckerboard="0"
   showgrid="false"
   height="20px"
   fit-margin-top="0"
   fit-margin-left="0"
   fit-margin-right="0"
   fit-margin-bottom="0"
   inkscape:zoom="25.603719"
   inkscape:cx="7.2840982"
   inkscape:cy="9.4322237"
   inkscape:window-width="1792"
   inkscape:window-height="993"
   inkscape:window-x="0"
   inkscape:window-y="25"
   inkscape:window-maximized="1"
   inkscape:current-layer="g1059" />
<style
   type="text/css"
   id="style869">
	.st0{fill:#FFD3B6;}
	.st1{fill:#FFD469;}
	.st2{fill:#FFB636;}
</style>
<path
   class="st0"
   d="M 220.8,196.5839"
   id="path871" />


<style
   type="text/css"
   id="style1042">
	.st0{fill:#FFD3B6;}
	.st1{fill:#FFD469;}
	.st2{fill:#FFB636;}
</style><g
   id="g1059"
   transform="matrix(0.05125478,0,0,0.05125478,-14.216659,-12.842867)"><path
     class="st0"
     d="M 288.37219,256.00697"
     id="path1044"
     style="stroke-width:0.0389037" /><path
     class="st1"
     d="m 294.69016,257.6448 c -0.42405,-0.37736 -1.36163,-0.89866 -3.28736,0.95315 -0.35792,0.34235 -0.57189,0.46685 -0.84422,0.76252 v -9.1346 c 0,-0.59133 -0.46684,-1.07375 -1.06207,-1.07375 -0.59523,0 -1.07763,0.48242 -1.07763,1.07375 v 5.40762 c 0,0.004 0,0.007 0,0.0117 0,0.50575 -0.6536,0.54855 -0.76641,0.13228 v -6.46581 c 0,-0.59134 -0.46684,-1.07374 -1.06206,-1.07374 -0.59524,0 -1.07764,0.47852 -1.07764,1.07374 v 6.48526 c -0.0816,0.39682 -0.66526,0.38125 -0.70805,-0.0467 v -5.66439 c 0,-0.59134 -0.46685,-1.06985 -1.06208,-1.06985 -0.59522,0 -1.07762,0.47851 -1.07762,1.06985 v 5.57491 c -0.004,0.007 -0.004,0.0195 -0.004,0.0389 0,0.4863 -0.62634,0.52909 -0.73917,0.13617 v -3.99152 c 0,-0.59134 -0.46684,-1.06986 -1.06207,-1.06986 -0.59522,0 -1.07763,0.47852 -1.07763,1.06986 v 9.39136 c 0,1.90629 1.12042,3.55191 2.73882,4.31442 v 1.52504 c 0,0.59132 0.4824,1.07373 1.07374,1.07373 h 4.29497 c 0.59134,0 1.07375,-0.48241 1.07375,-1.07373 v -1.08153 c 0.71193,-0.0816 1.3344,-0.45907 1.739,-1.00761 0.007,-0.007 0.0117,-0.0156 0.0155,-0.0233 0.0117,-0.0155 0.0233,-0.031 0.0311,-0.0467 0.035,-0.0389 0.0778,-0.10892 0.12838,-0.21009 0.0272,-0.0467 0.0506,-0.0933 0.0739,-0.14393 0.49407,-0.99982 1.62229,-3.70751 3.64527,-5.4582 0.41627,-0.41626 0.51742,-1.08152 0.0933,-1.45888 z"
     id="path1046"
     style="stroke-width:0.0389037" /><path
     class="st2"
     d="m 288.72621,266.013 c -0.0194,0 -0.0389,0 -0.0583,0 v 0 0 H 285.4 l 0.007,-0.007 h -0.87143 c -0.72362,0 -1.41221,-0.16339 -2.0269,-0.45127 v 1.36162 c 0.19452,0.10118 0.38126,0.16729 0.54076,0.16729 h 5.37261 c 0.15561,0 0.33847,-0.0506 0.52908,-0.13227 v -0.94925 c -0.0739,0.004 -0.14782,0.007 -0.22562,0.0117 z"
     id="path1048"
     style="stroke-width:0.0389037" /></g></svg>
