<svg width="20" height="20" viewBox="0 0 20 20" fill="none" xmlns="http://www.w3.org/2000/svg">
<path d="M10 2C8.41775 2 6.87103 2.46919 5.55544 3.34824C4.23985 4.22729 3.21447 5.47672 2.60897 6.93853C2.00347 8.40034 1.84504 10.0089 2.15372 11.5607C2.4624 13.1126 3.22433 14.538 4.34315 15.6569C5.46197 16.7757 6.88743 17.5376 8.43928 17.8463C9.99113 18.155 11.5997 17.9965 13.0615 17.391C14.5233 16.7855 15.7727 15.7602 16.6518 14.4446C17.5308 13.129 18 11.5822 18 10C18 7.87827 17.1571 5.84344 15.6569 4.34315C14.1566 2.84285 12.1217 2 10 2Z" stroke="black" stroke-miterlimit="10"/>
<path d="M7.45435 7.55991C7.45435 7.55991 7.49253 6.76446 8.34389 6.07946C8.84889 5.67264 9.45434 5.55491 9.9998 5.54673C10.4966 5.54037 10.9403 5.62264 11.2057 5.749C11.6603 5.96537 12.5453 6.49355 12.5453 7.61673C12.5453 8.79855 11.7725 9.33537 10.8921 9.92582C10.0116 10.5163 9.77253 11.1572 9.77253 11.8195" stroke="black" stroke-miterlimit="10" stroke-linecap="round"/>
<path d="M9.85455 14.8441C10.2883 14.8441 10.64 14.4924 10.64 14.0586C10.64 13.6249 10.2883 13.2732 9.85455 13.2732C9.42075 13.2732 9.06909 13.6249 9.06909 14.0586C9.06909 14.4924 9.42075 14.8441 9.85455 14.8441Z" fill="black"/>
</svg>
