<svg width="20" height="20" viewBox="0 0 20 20" fill="none" xmlns="http://www.w3.org/2000/svg">
<path d="M16.8749 17.5004C16.7928 17.5005 16.7115 17.4844 16.6357 17.453C16.5599 17.4215 16.491 17.3754 16.4331 17.3172L2.68312 3.5672C2.57086 3.44904 2.5092 3.29169 2.51128 3.12872C2.51337 2.96574 2.57904 2.81003 2.69429 2.69478C2.80954 2.57953 2.96525 2.51386 3.12823 2.51177C3.29121 2.50968 3.44855 2.57134 3.56671 2.68361L17.3167 16.4336C17.4041 16.521 17.4635 16.6323 17.4876 16.7535C17.5117 16.8747 17.4993 17.0004 17.4521 17.1145C17.4048 17.2287 17.3247 17.3263 17.222 17.395C17.1193 17.4637 16.9985 17.5003 16.8749 17.5004Z" fill="black"/>
<path d="M9.98676 15.0002C8.36606 15.0002 6.80317 14.5205 5.34145 13.5744C4.01059 12.7151 2.81255 11.4842 1.87661 10.0197V10.0166C2.65551 8.9006 3.50864 7.95685 4.42505 7.19591C4.43334 7.18898 4.4401 7.18041 4.44491 7.17073C4.44971 7.16105 4.45246 7.15048 4.45297 7.13969C4.45349 7.1289 4.45176 7.11811 4.44789 7.10802C4.44403 7.09793 4.43811 7.08876 4.43051 7.08107L3.65239 6.30412C3.63856 6.29017 3.61999 6.28195 3.60038 6.28108C3.58076 6.28021 3.56154 6.28676 3.54653 6.29943C2.57309 7.11974 1.66958 8.12599 0.848093 9.30411C0.706759 9.50697 0.628921 9.74726 0.62447 9.99445C0.620018 10.2416 0.689155 10.4846 0.823093 10.6924C1.85473 12.3068 3.18247 13.6666 4.66216 14.624C6.32817 15.7033 8.12114 16.2502 9.98676 16.2502C10.9938 16.2471 11.9937 16.0811 12.9477 15.7588C12.9603 15.7545 12.9716 15.7471 12.9805 15.7373C12.9894 15.7274 12.9957 15.7155 12.9987 15.7025C13.0017 15.6896 13.0014 15.6761 12.9977 15.6633C12.994 15.6505 12.9872 15.6389 12.9778 15.6295L12.1348 14.7865C12.1154 14.7676 12.0914 14.754 12.0652 14.7472C12.0389 14.7404 12.0114 14.7404 11.9852 14.7475C11.3324 14.9156 10.6609 15.0005 9.98676 15.0002Z" fill="black"/>
<path d="M19.1733 9.31994C18.1398 7.72151 16.7987 6.3637 15.2956 5.39299C13.6327 4.31799 11.7968 3.74963 9.98663 3.74963C8.99029 3.7514 8.00135 3.92082 7.06124 4.25081C7.04871 4.25516 7.0375 4.26264 7.02866 4.27253C7.01983 4.28242 7.01365 4.29439 7.01072 4.30733C7.00779 4.32026 7.0082 4.33373 7.01191 4.34646C7.01563 4.35919 7.02252 4.37077 7.03194 4.3801L7.87374 5.2219C7.89334 5.24116 7.91767 5.25492 7.94428 5.26178C7.97089 5.26863 7.99883 5.26835 8.0253 5.26096C8.66474 5.08798 9.32421 5.00012 9.98663 4.99963C11.5761 4.99963 13.1343 5.48518 14.6175 6.44495C15.9733 7.31994 17.1855 8.54963 18.1237 9.99963C18.1244 10.0005 18.1248 10.0016 18.1248 10.0028C18.1248 10.0039 18.1244 10.005 18.1237 10.0059C17.4427 11.0781 16.5975 12.0368 15.6191 12.8469C15.6107 12.8538 15.6038 12.8624 15.5989 12.8721C15.5941 12.8818 15.5913 12.8924 15.5907 12.9032C15.5902 12.9141 15.5919 12.9249 15.5957 12.935C15.5996 12.9452 15.6056 12.9544 15.6132 12.9621L16.3905 13.7391C16.4043 13.753 16.4228 13.7612 16.4423 13.7621C16.4618 13.7631 16.481 13.7567 16.496 13.7442C17.5405 12.8647 18.4447 11.8309 19.1773 10.6785C19.3067 10.4755 19.3752 10.2395 19.3745 9.99867C19.3738 9.75783 19.304 9.52226 19.1733 9.31994Z" fill="black"/>
<path d="M9.99979 6.24939C9.7189 6.24924 9.43888 6.28069 9.16502 6.34314C9.15119 6.34601 9.1384 6.35258 9.128 6.36215C9.11761 6.37172 9.11 6.38392 9.10599 6.39747C9.10199 6.41102 9.10173 6.4254 9.10524 6.43908C9.10876 6.45276 9.11592 6.46524 9.12596 6.47517L13.524 10.872C13.5339 10.8821 13.5464 10.8892 13.5601 10.8928C13.5738 10.8963 13.5882 10.896 13.6017 10.892C13.6153 10.888 13.6275 10.8804 13.637 10.87C13.6466 10.8596 13.6532 10.8468 13.656 10.833C13.7813 10.2838 13.7811 9.71342 13.6557 9.16427C13.5302 8.61512 13.2827 8.10129 12.9314 7.66093C12.5802 7.22057 12.1342 6.865 11.6267 6.62064C11.1191 6.37627 10.5631 6.24938 9.99979 6.24939Z" fill="black"/>
<path d="M6.47584 9.12779C6.4659 9.11775 6.45343 9.11059 6.43975 9.10707C6.42606 9.10356 6.41168 9.10382 6.39814 9.10782C6.38459 9.11183 6.37238 9.11944 6.36282 9.12983C6.35325 9.14023 6.34668 9.15302 6.34381 9.16686C6.20215 9.78574 6.21993 10.4305 6.39551 11.0406C6.57108 11.6507 6.89868 12.2063 7.34762 12.6552C7.79655 13.1042 8.35212 13.4318 8.96225 13.6073C9.57239 13.7829 10.2171 13.8007 10.836 13.659C10.8498 13.6562 10.8626 13.6496 10.873 13.64C10.8834 13.6305 10.891 13.6183 10.895 13.6047C10.899 13.5912 10.8993 13.5768 10.8958 13.5631C10.8923 13.5494 10.8851 13.5369 10.8751 13.527L6.47584 9.12779Z" fill="black"/>
</svg>
