<?xml version="1.0" standalone="no"?>
<!DOCTYPE svg PUBLIC "-//W3C//DTD SVG 20010904//EN"
 "http://www.w3.org/TR/2001/REC-SVG-20010904/DTD/svg10.dtd">
<svg version="1.0" xmlns="http://www.w3.org/2000/svg"
 width="618.000000pt" height="266.000000pt" viewBox="0 0 618.000000 266.000000"
 preserveAspectRatio="xMidYMid meet">

<g transform="translate(0.000000,266.000000) scale(0.100000,-0.100000)"
fill="#000000" stroke="none">
<path d="M0 1330 l0 -1330 3090 0 3090 0 0 1330 0 1330 -3090 0 -3090 0 0
-1330z m1170 1112 c69 -34 106 -91 116 -174 l7 -58 -55 0 -55 0 -7 59 c-10 85
-51 145 -121 177 -30 14 -55 28 -55 31 0 14 121 -10 170 -35z m3124 17 c21 -6
58 -29 82 -51 68 -63 74 -95 74 -393 0 -329 -14 -376 -123 -429 -56 -27 -185
-48 -173 -27 4 6 15 11 25 11 37 0 108 57 132 106 23 47 24 58 27 317 4 320
-2 350 -73 416 -25 23 -59 44 -75 48 -17 3 -33 10 -37 16 -7 12 80 3 141 -14z
m-2606 -186 l-3 -188 -52 -3 -53 -3 0 190 0 191 55 0 55 0 -2 -187z m392 -258
l0 -445 -55 0 -55 0 0 445 0 445 55 0 55 0 0 -445z m630 440 c0 -4 160 -720
185 -828 l13 -58 -56 3 -56 3 -98 435 c-53 239 -98 438 -98 443 0 4 25 7 55 7
30 0 55 -2 55 -5z m814 -11 c65 -23 112 -71 131 -139 13 -45 16 -100 13 -312
-3 -255 -3 -259 -29 -308 -39 -76 -92 -105 -217 -119 -54 -5 -65 7 -15 17 47
9 96 50 122 102 26 49 26 53 29 308 3 212 0 267 -13 312 -20 69 -68 119 -133
139 l-47 15 56 0 c30 1 77 -6 103 -15z m1286 4 c0 -7 11 -83 24 -168 l24 -155
-26 -177 c-15 -98 -30 -178 -34 -178 -5 0 -8 13 -8 29 0 16 -20 167 -45 335
-25 169 -45 311 -45 316 0 6 25 10 55 10 37 0 55 -4 55 -12z m369 -50 c45
-256 46 -280 19 -463 -14 -93 -27 -163 -30 -155 -4 8 -27 152 -53 320 -26 168
-49 317 -52 333 -5 27 -5 27 50 27 l55 0 11 -62z m327 30 c-7 -41 -126 -843
-126 -852 0 -3 -25 -6 -55 -6 -30 0 -55 3 -55 6 0 9 119 811 126 852 6 32 7
32 61 32 l55 0 -6 -32z m-4533 -85 c4 -3 -2 -12 -13 -20 -23 -17 -40 -70 -33
-109 8 -44 50 -82 143 -129 122 -62 163 -95 194 -156 21 -43 26 -67 26 -129 0
-89 -24 -146 -80 -191 -35 -28 -130 -59 -183 -59 -34 0 -27 16 11 25 41 9 97
59 121 108 32 66 29 176 -5 246 -31 61 -72 94 -194 156 -111 56 -142 88 -142
148 -1 51 21 93 55 107 26 10 91 13 100 3z m3131 1 c14 -5 12 -11 -9 -36 l-25
-30 0 -259 c0 -214 3 -265 15 -289 9 -17 20 -30 25 -30 6 0 10 -4 10 -10 0
-13 -59 -13 -99 1 -57 20 -61 39 -61 328 l0 259 25 31 c30 34 81 50 119 35z
m-814 -334 l0 -320 -55 0 -55 0 0 320 0 320 55 0 55 0 0 -320z m-766 155 l25
-130 -17 -80 -18 -80 -56 -3 -55 -3 33 158 c18 87 38 184 44 216 6 32 13 57
15 55 2 -2 15 -61 29 -133z m2490 -132 l26 -162 -20 -128 c-30 -190 -22 -173
-85 -173 -52 0 -55 1 -50 23 6 27 95 590 95 602 0 33 12 -23 34 -162z m-3324
-268 l0 -195 -55 0 -55 0 0 195 0 195 55 0 55 0 0 -195z m-777 19 c3 -32 13
-54 33 -75 l28 -29 -52 0 c-71 0 -112 35 -119 103 l-6 47 55 0 55 0 6 -46z
m1567 -61 c0 -16 -7 -51 -25 -130 -5 -21 -12 -23 -61 -23 -48 0 -55 2 -50 18
2 9 10 44 16 77 7 33 14 63 17 68 2 4 26 7 54 7 40 0 49 -3 49 -17z m-861
-312 c44 -24 51 -64 51 -291 0 -236 -6 -267 -60 -295 -40 -21 -109 -21 -147
-2 -54 29 -58 48 -58 301 0 206 2 234 18 257 37 54 125 68 196 30z m3397 1
c47 -25 54 -65 54 -292 0 -175 -3 -218 -16 -246 -42 -89 -202 -88 -240 1 -20
49 -20 441 0 490 28 65 125 88 202 47z m-4135 -245 c21 -142 39 -263 42 -270
2 -7 10 29 17 78 67 471 63 450 90 450 24 0 25 -1 56 -225 45 -309 45 -312 49
-308 2 2 20 122 41 267 27 185 42 265 51 268 8 3 16 3 19 0 3 -2 -14 -141 -38
-308 l-43 -304 -27 -3 c-19 -2 -28 2 -31 15 -3 10 -20 122 -37 248 -18 127
-35 237 -37 245 -3 8 -18 -73 -34 -180 -50 -344 -47 -330 -75 -330 -14 0 -27
6 -29 13 -6 16 -85 564 -85 589 0 13 6 18 17 16 15 -3 23 -43 54 -261z m1140
253 c57 -16 80 -49 86 -123 6 -75 -8 -129 -42 -155 -23 -18 -23 -19 -3 -31 35
-22 48 -73 48 -191 0 -101 -2 -111 -17 -108 -16 3 -19 19 -23 127 -6 150 -14
161 -116 161 l-63 0 -3 -142 c-3 -127 -5 -143 -20 -146 -17 -3 -18 17 -18 307
l0 311 68 0 c37 0 83 -5 103 -10z m307 -283 l2 -287 96 0 c86 0 95 -2 92 -17
-3 -16 -17 -18 -116 -18 l-113 0 1 303 c0 166 0 305 0 308 0 3 8 4 18 2 16 -3
17 -26 20 -291z m557 269 c48 -32 55 -66 55 -286 0 -220 -7 -254 -56 -287 -22
-14 -48 -18 -118 -18 l-91 0 -3 295 c-1 162 0 301 3 309 8 21 173 11 210 -13z
m705 4 c0 -19 -7 -20 -100 -20 l-100 0 0 -120 0 -120 86 0 c76 0 85 -2 82 -17
-3 -15 -16 -18 -86 -21 l-82 -3 0 -129 0 -130 100 0 c93 0 100 -1 100 -20 0
-19 -7 -20 -120 -20 l-120 0 0 310 0 310 120 0 c113 0 120 -1 120 -20z m343 9
c26 -7 44 -21 57 -42 18 -29 20 -52 20 -257 0 -205 -2 -228 -20 -257 -23 -39
-67 -53 -167 -53 l-73 0 0 310 0 310 73 0 c39 0 89 -5 110 -11z m297 -299 c0
-303 0 -310 -20 -310 -20 0 -20 7 -20 310 0 303 0 310 20 310 20 0 20 -7 20
-310z m430 290 c0 -18 -7 -20 -60 -20 l-60 0 0 -291 c0 -271 -1 -290 -17 -287
-17 3 -18 26 -21 291 l-2 287 -55 0 c-53 0 -72 10 -60 30 4 6 62 10 141 10
127 0 134 -1 134 -20z m762 10 c47 -13 75 -49 84 -106 10 -70 -4 -134 -35
-163 l-28 -26 23 -18 c32 -24 44 -75 44 -195 0 -93 -2 -103 -17 -100 -16 3
-19 19 -23 118 -7 159 -15 170 -121 170 l-58 0 -3 -142 c-3 -127 -5 -143 -20
-146 -17 -3 -18 17 -18 307 l0 311 68 0 c37 0 84 -5 104 -10z m-2227 -940 c18
-15 21 -100 4 -117 -9 -9 -8 -16 5 -28 20 -20 21 -94 2 -120 -10 -14 -27 -19
-67 -20 l-54 0 -3 140 c-1 76 0 145 3 153 7 18 86 12 110 -8z m89 -52 c10 -29
22 -56 26 -61 3 -4 17 22 29 58 13 36 27 68 32 71 15 9 9 -19 -21 -96 -23 -57
-30 -91 -30 -142 0 -39 -4 -68 -10 -68 -6 0 -10 31 -10 73 0 54 -6 89 -24 133
-13 32 -27 70 -31 84 -16 50 20 3 39 -52z m439 40 c9 -11 17 -34 17 -50 0 -25
-4 -29 -22 -26 -17 2 -24 11 -26 31 -2 19 -9 27 -23 27 -18 0 -19 -8 -19 -105
0 -97 1 -105 19 -105 15 0 21 8 23 33 2 24 8 33 26 35 19 3 22 -1 22 -33 0
-41 -36 -85 -70 -85 -11 0 -32 11 -45 25 -23 22 -25 31 -25 125 0 56 5 110 11
121 22 42 79 45 112 7z m549 -1 c4 -7 8 -22 8 -34 0 -30 -35 -31 -43 -2 -4 13
-12 20 -24 17 -32 -6 -25 -35 21 -87 37 -42 46 -59 46 -89 0 -45 -16 -69 -50
-77 -37 -8 -73 15 -81 53 -6 29 -4 32 17 32 18 0 24 -6 24 -21 0 -15 5 -20 22
-17 37 5 32 33 -16 87 -37 42 -46 59 -46 89 0 43 15 68 45 74 24 5 67 -9 77
-25z m-692 3 c0 -17 -7 -20 -40 -20 l-40 0 0 -105 0 -105 40 0 c33 0 40 -3 40
-20 0 -18 -7 -20 -65 -20 l-65 0 0 145 0 145 65 0 c58 0 65 -2 65 -20z m230
-105 l0 -125 40 0 c33 0 40 -3 40 -20 0 -18 -7 -20 -65 -20 l-65 0 0 145 0
145 25 0 25 0 0 -125z m150 -20 l0 -145 -25 0 -25 0 0 145 0 145 25 0 25 0 0
-145z m144 129 c22 -21 29 -57 22 -99 -7 -36 -30 -55 -65 -55 -19 0 -21 -6
-21 -60 0 -57 -1 -60 -25 -60 l-25 0 0 145 0 145 49 0 c32 0 55 -6 65 -16z
m336 -3 c0 -16 -8 -20 -41 -23 l-41 -3 0 -100 0 -100 39 -5 c26 -3 39 -11 41
-22 3 -16 -5 -18 -62 -18 l-66 0 0 145 0 145 65 0 c58 0 65 -2 65 -19z m202 2
c21 -19 25 -92 6 -111 -8 -8 -8 -15 -1 -24 6 -7 13 -41 15 -76 3 -59 2 -62
-19 -62 -20 0 -23 5 -23 44 0 57 -8 76 -31 76 -17 0 -19 -8 -19 -60 0 -56 -2
-60 -22 -60 -23 0 -23 0 -20 145 l3 145 46 0 c29 0 53 -6 65 -17z m178 -2 c0
-16 -8 -20 -42 -23 -40 -3 -42 -4 -42 -38 0 -32 3 -35 32 -38 23 -2 32 -8 32
-22 0 -14 -8 -20 -32 -22 -30 -3 -31 -5 -31 -43 0 -39 1 -40 36 -43 29 -3 37
-7 37 -23 0 -17 -7 -19 -60 -19 l-60 0 0 145 0 145 65 0 c58 0 65 -2 65 -19z
m134 -98 c10 -65 20 -130 23 -145 5 -25 2 -28 -20 -28 -21 0 -26 5 -29 28 -2
21 -8 27 -28 27 -20 0 -26 -6 -28 -27 -2 -20 -9 -28 -23 -28 -24 0 -24 6 1
155 11 66 20 123 20 128 0 4 15 7 33 7 l34 0 17 -117z m96 -8 l0 -125 35 0
c28 0 35 -4 35 -20 0 -18 -7 -20 -60 -20 l-60 0 0 145 0 145 25 0 25 0 0 -125z
m132 -20 c3 -145 3 -145 -19 -145 -23 0 -23 1 -23 145 0 137 1 145 19 145 19
0 20 -9 23 -145z m158 125 c0 -13 -7 -20 -20 -20 -19 0 -20 -7 -20 -125 l0
-125 -25 0 -25 0 0 125 0 125 -25 0 c-18 0 -25 5 -25 20 0 18 7 20 70 20 63 0
70 -2 70 -20z m71 -22 c18 -63 24 -64 38 -8 11 42 17 50 36 50 l24 0 -30 -87
c-19 -57 -29 -107 -29 -145 0 -51 -2 -58 -20 -58 -18 0 -20 7 -20 58 0 38 -10
88 -29 145 l-30 87 24 0 c20 0 26 -8 36 -42z m-1851 -92 c0 -8 -5 -18 -11 -22
-14 -8 -33 11 -25 25 10 16 36 13 36 -3z m855 -6 c0 -8 -8 -16 -17 -18 -13 -2
-18 3 -18 18 0 15 5 20 18 18 9 -2 17 -10 17 -18z"/>
<path d="M1490 1388 c-47 -25 -50 -46 -48 -280 3 -211 4 -218 26 -240 35 -35
106 -32 138 5 24 28 24 30 24 247 0 213 -1 220 -22 245 -27 31 -82 41 -118 23z"/>
<path d="M4890 1388 c-47 -25 -50 -46 -48 -280 3 -211 4 -218 26 -240 32 -32
102 -32 134 0 23 22 23 27 23 252 0 218 -1 230 -21 250 -26 26 -81 35 -114 18z"/>
<path d="M1890 1264 l0 -126 65 4 c85 5 106 25 113 101 6 69 -11 121 -44 136
-14 6 -49 11 -79 11 l-55 0 0 -126z"/>
<path d="M2710 1120 l0 -270 60 0 c70 0 104 13 119 47 7 15 11 98 11 223 0
125 -4 208 -11 223 -15 34 -49 47 -119 47 l-60 0 0 -270z"/>
<path d="M3790 1120 l0 -270 65 0 c57 0 69 3 90 25 l25 24 0 221 0 221 -25 24
c-21 22 -33 25 -90 25 l-65 0 0 -270z"/>
<path d="M5290 1264 l0 -126 65 4 c94 6 110 24 110 124 0 71 -2 77 -28 100
-23 20 -39 24 -88 24 l-59 0 0 -126z"/>
<path d="M3109 475 c0 -3 -1 -29 -1 -57 -1 -50 1 -53 26 -56 38 -5 56 14 56
59 0 28 -5 41 -19 49 -20 10 -60 14 -62 5z"/>
<path d="M3107 278 c1 -59 3 -63 27 -66 45 -6 66 14 66 61 0 52 -13 67 -59 67
l-36 0 2 -62z"/>
<path d="M4040 405 c0 -39 3 -46 18 -43 13 2 17 13 17 43 0 30 -4 41 -17 43
-15 3 -18 -4 -18 -43z"/>
<path d="M4570 410 c0 -34 3 -40 20 -40 25 0 34 21 26 55 -4 16 -13 25 -26 25
-17 0 -20 -7 -20 -40z"/>
<path d="M4897 410 c-3 -8 -8 -36 -11 -61 -5 -41 -3 -48 14 -52 16 -4 20 0 19
16 -1 46 -16 111 -22 97z"/>
</g>
</svg>
