<svg width="144" height="100" viewBox="0 0 144 100" fill="none" xmlns="http://www.w3.org/2000/svg">
<path fill-rule="evenodd" clip-rule="evenodd" d="M144 99.7409H0V58.1143H144V99.7409ZM41.8791 87.2435H39.5592V78.9506C39.5592 74.6221 36.5992 72.6399 33.3592 72.6399C30.5192 72.6399 28.4793 74.1366 27.4791 76.5638C26.5992 73.8939 24.1992 72.6399 21.5992 72.6399C19.0792 72.6399 17.1992 73.8129 16.1192 75.7547V73.0039H8.5592V76.9683H10.9592V87.2844H8.5592V91.2484H19.5192V87.2844H16.0792V80.9328C16.0792 78.3843 17.0792 76.6043 19.5591 76.6043C21.5992 76.6043 22.6392 77.8178 22.6392 80.9733V91.2484H30.1992V87.2844H27.7992V80.9328C27.7992 78.3843 28.7992 76.6043 31.2792 76.6043C33.3192 76.6043 34.3592 77.8178 34.3592 80.9733V91.2079H41.8791V87.2435ZM53.8017 72.6399C47.3217 72.6399 44.1216 77.0493 44.1216 82.3891C44.1216 88.2144 47.9616 91.653 53.5217 91.653C59.2817 91.653 63.4416 87.9716 63.4416 82.1464C63.4416 77.0493 60.2817 72.6399 53.8017 72.6399ZM49.4411 82.0222C49.4411 85.1771 50.8811 87.6044 53.6811 87.6044C56.3611 87.6044 58.1211 85.4607 58.1211 81.9409C58.1211 78.2596 56.161 76.601 53.7211 76.601C51.0811 76.601 49.4411 78.5832 49.4411 82.0222ZM79.5983 84.4519L83.6783 84.8564L82.5583 91.2477H66.8383L66.3183 88.4972L76.2379 76.9676H70.5983L69.7983 79.7997L66.0783 79.3952L66.7183 73.0032H82.5183L82.9183 75.754L72.9183 87.2837H78.7584L79.5983 84.4519ZM92.8807 91.2494H87.4807V84.6959H92.8807V91.2494ZM87.4807 79.5566H92.8807V73.0032H87.4807V79.5566ZM101.279 91.2066L109.079 63.4152H103.999L96.1993 91.2066H101.279ZM119.561 63.4152L111.76 91.2066H106.68L114.48 63.4152H119.561ZM136.761 88.1335C137.001 88.1335 137.24 88.0934 137.521 88.0121L137.641 90.8034C136.68 91.3297 135.521 91.653 134.401 91.653C132 91.653 130.681 90.2371 130.441 88.0121C129.401 89.8729 127.561 91.653 124.64 91.653C122.04 91.653 119.081 90.2371 119.081 86.4345C119.081 81.9441 123.36 80.8924 127.481 80.8924C128.481 80.8924 129.521 80.9328 130.441 81.0541V80.4474C130.441 78.5865 130.401 76.3615 127.481 76.3615C126.401 76.3615 125.561 76.4425 124.721 76.8875L124.121 78.9506L120.001 78.5056L120.641 74.2984C123.801 73.0039 125.401 72.6399 128.361 72.6399C132.241 72.6399 135.521 74.6625 135.521 78.8293V86.7176C135.521 87.7694 135.921 88.1335 136.761 88.1335Z" fill="black"/>
<path fill-rule="evenodd" clip-rule="evenodd" d="M126.48 87.8914C124.92 87.8914 124.36 86.9606 124.36 85.7874C124.36 83.8053 125.96 83.2793 127.8 83.2793C128.64 83.2793 129.56 83.4007 130.4 83.522C130.28 86.5561 128.32 87.8914 126.48 87.8914Z" fill="black"/>
<path d="M43.8091 46.7906H30.1816V41.3486H33.4654V32.5401C33.4654 30.3708 33.0822 28.8186 32.316 27.8834C31.5863 26.9484 30.5282 26.4809 29.1418 26.4809C27.5364 26.4809 26.2777 26.9858 25.3655 27.9957C24.4899 29.0056 24.0155 30.3333 23.9425 31.9792V41.3486H27.2263V46.7906H13.5988V41.3486H16.8825V13.6892H13.5988V8.19092H23.9425V25.3588C25.5844 22.4414 28.2297 20.9827 31.8782 20.9827C34.2133 20.9827 36.2383 21.6933 37.953 23.1146C39.6679 24.5359 40.5253 26.7427 40.5253 29.735V41.3486H43.8091V46.7906ZM75.7736 46.7906H65.1563V42.9194C63.5144 45.8369 60.8691 47.2956 57.2206 47.2956C54.8855 47.2956 52.8605 46.5849 51.1458 45.1636C49.4309 43.7422 48.5735 41.5355 48.5735 38.5433V26.9298H45.2897V21.4876H55.6335V35.7381C55.6335 37.9449 55.9801 39.5158 56.6733 40.4508C57.403 41.3486 58.4611 41.7974 59.8476 41.7974C61.526 41.7974 62.8212 41.2363 63.7333 40.1142C64.682 38.9921 65.1563 37.5521 65.1563 35.7942V26.9298H61.1611V21.4876H72.2163V41.3486H75.7736V46.7906ZM105.544 33.55C105.544 37.2903 104.577 40.5256 102.643 43.2561C100.746 45.9864 97.9367 47.3517 94.2151 47.3517C90.4571 47.3517 87.8119 45.893 86.2795 42.9755C86.2065 43.6114 86.1152 44.2472 86.0058 44.8831C85.9328 45.5189 85.8416 46.1547 85.7321 46.7906H78.6722C78.9275 45.4815 79.1465 44.1724 79.3289 42.8633C79.5113 41.5543 79.6025 40.2638 79.6025 38.9921V13.6892H76.3188V8.19092H86.6626V26.3126C87.3193 24.8539 88.3044 23.6008 89.6179 22.5536C90.9678 21.5063 92.7556 20.9827 94.9813 20.9827C98.0826 20.9827 100.618 22.0861 102.589 24.2928C104.559 26.4996 105.544 29.5853 105.544 33.55ZM98.2103 34.1671C98.2103 31.7359 97.6995 29.8845 96.6779 28.6128C95.6563 27.3412 94.3063 26.7053 92.628 26.7053C90.7307 26.7053 89.253 27.4159 88.195 28.8372C87.1733 30.2586 86.6626 31.9043 86.6626 33.7744V34.3915C86.6626 36.4487 87.1551 38.188 88.1402 39.6093C89.1618 40.9932 90.603 41.6851 92.4638 41.6851C94.0691 41.6851 95.4192 41.0867 96.5137 39.8897C97.6448 38.6555 98.2103 36.748 98.2103 34.1671ZM130.488 39.0482C130.488 41.8534 129.393 43.948 127.204 45.3319C125.052 46.6784 122.242 47.3517 118.777 47.3517C116.988 47.3517 115.182 47.1646 113.358 46.7906C111.57 46.3792 109.855 45.7433 108.214 44.8831L109.199 37.8139L114.672 38.4311V41.573C115.328 41.7974 116.022 41.9469 116.751 42.0218C117.481 42.0592 118.029 42.0778 118.394 42.0778C119.743 42.0778 120.911 41.8534 121.896 41.4046C122.881 40.9558 123.373 40.2825 123.373 39.3849C123.373 38.3002 122.625 37.5895 121.13 37.2528C119.634 36.9163 117.901 36.5796 115.93 36.243C113.96 35.9064 112.227 35.2144 110.731 34.1671C109.235 33.1199 108.487 31.3432 108.487 28.8372C108.487 25.7328 109.655 23.657 111.99 22.6098C114.362 21.525 116.806 20.9827 119.324 20.9827C122.608 20.9827 125.69 21.7494 128.572 23.283L129.175 29.735L123.702 30.3521L123.264 26.8175C122.06 26.4061 120.765 26.2003 119.378 26.2003C118.467 26.2003 117.682 26.4061 117.026 26.8175C116.404 27.1915 116.095 27.79 116.095 28.6128C116.095 29.6975 116.806 30.4269 118.229 30.8009C119.688 31.1375 121.366 31.4742 123.264 31.8108C125.198 32.1474 126.877 32.8394 128.299 33.8867C129.759 34.8965 130.488 36.617 130.488 39.0482Z" fill="black"/>
</svg>
