<svg width="20" height="20" viewBox="0 0 20 20" fill="none" xmlns="http://www.w3.org/2000/svg">
<path d="M3.125 8.28088V17.4996C3.125 17.6654 3.19085 17.8244 3.30806 17.9416C3.42527 18.0588 3.58424 18.1246 3.75 18.1246H7.5V12.8121C7.5 12.5635 7.59877 12.325 7.77459 12.1492C7.9504 11.9734 8.18886 11.8746 8.4375 11.8746H11.5625C11.8111 11.8746 12.0496 11.9734 12.2254 12.1492C12.4012 12.325 12.5 12.5635 12.5 12.8121V18.1246H16.25C16.4158 18.1246 16.5747 18.0588 16.6919 17.9416C16.8091 17.8244 16.875 17.6654 16.875 17.4996V8.28088" stroke="black" stroke-width="1.5" stroke-linecap="round" stroke-linejoin="round"/>
<path d="M18.75 10.0007L10.4254 2.03191C10.2301 1.82566 9.77344 1.82332 9.57461 2.03191L1.25 10.0007" stroke="black" stroke-width="1.5" stroke-linecap="round" stroke-linejoin="round"/>
<path d="M15.625 6.99207V2.49988H13.75V5.19519" stroke="black" stroke-width="1.5" stroke-linecap="round" stroke-linejoin="round"/>
</svg>
