<svg width="20" height="20" viewBox="0 0 20 20" fill="none" xmlns="http://www.w3.org/2000/svg">
<path d="M16.2502 3.12549H3.75024C2.71471 3.12549 1.87524 3.96495 1.87524 5.00049V15.0005C1.87524 16.036 2.71471 16.8755 3.75024 16.8755H16.2502C17.2858 16.8755 18.1252 16.036 18.1252 15.0005V5.00049C18.1252 3.96495 17.2858 3.12549 16.2502 3.12549Z" stroke="black" stroke-width="1.5" stroke-linejoin="round"/>
<path d="M13.125 8.12488C13.8154 8.12488 14.375 7.56523 14.375 6.87488C14.375 6.18452 13.8154 5.62488 13.125 5.62488C12.4346 5.62488 11.875 6.18452 11.875 6.87488C11.875 7.56523 12.4346 8.12488 13.125 8.12488Z" stroke="black" stroke-width="1.5" stroke-miterlimit="10"/>
<path d="M11.8752 13.1162L8.33384 9.58147C8.10849 9.35617 7.8056 9.22544 7.48708 9.216C7.16856 9.20656 6.85846 9.31913 6.62017 9.53069L1.87524 13.7494" stroke="black" stroke-width="1.5" stroke-linecap="round" stroke-linejoin="round"/>
<path d="M8.75 16.8752L13.568 12.0572C13.7883 11.8364 14.0832 11.706 14.3948 11.6915C14.7064 11.6771 15.0121 11.7796 15.252 11.9791L18.125 14.3752" stroke="black" stroke-width="1.5" stroke-linecap="round" stroke-linejoin="round"/>
</svg>
