<svg width="20" height="20" viewBox="0 0 20 20" fill="none" xmlns="http://www.w3.org/2000/svg">
<path d="M9.6875 2.50195C5.71836 2.50195 2.5 5.72031 2.5 9.68945C2.5 13.6586 5.71836 16.877 9.6875 16.877C13.6566 16.877 16.875 13.6586 16.875 9.68945C16.875 5.72031 13.6566 2.50195 9.6875 2.50195Z" stroke="black" stroke-width="1.5" stroke-miterlimit="10"/>
<path d="M8.59375 8.59424H9.84375V13.1255" stroke="black" stroke-width="1.5" stroke-linecap="round" stroke-linejoin="round"/>
<path d="M8.12476 13.2812H11.5623" stroke="black" stroke-width="1.5" stroke-miterlimit="10" stroke-linecap="round"/>
<path d="M9.68726 5.07935C9.48638 5.07935 9.29002 5.13891 9.12301 5.25051C8.95599 5.36211 8.82581 5.52073 8.74894 5.70631C8.67207 5.89189 8.65196 6.0961 8.69115 6.29311C8.73033 6.49012 8.82706 6.67109 8.9691 6.81313C9.11114 6.95516 9.29211 7.05189 9.48912 7.09108C9.68613 7.13027 9.89034 7.11016 10.0759 7.03329C10.2615 6.95642 10.4201 6.82624 10.5317 6.65922C10.6433 6.4922 10.7029 6.29584 10.7029 6.09497C10.7029 5.82561 10.5959 5.56728 10.4054 5.37682C10.2149 5.18635 9.95662 5.07935 9.68726 5.07935Z" fill="black"/>
</svg>
