<svg width="20" height="20" viewBox="0 0 20 20" fill="none" xmlns="http://www.w3.org/2000/svg">
<path d="M13.5 6.87488V5.31238C13.5 4.89798 13.3354 4.50055 13.0424 4.20752C12.7493 3.9145 12.3519 3.74988 11.9375 3.74988H4.4375C4.0231 3.74988 3.62567 3.9145 3.33265 4.20752C3.03962 4.50055 2.875 4.89798 2.875 5.31238V14.6874C2.875 15.1018 3.03962 15.4992 3.33265 15.7922C3.62567 16.0853 4.0231 16.2499 4.4375 16.2499H11.9375C12.3519 16.2499 12.7493 16.0853 13.0424 15.7922C13.3354 15.4992 13.5 15.1018 13.5 14.6874V13.1249" stroke="black" stroke-width="1.5" stroke-linecap="round" stroke-linejoin="round"/>
<path d="M16 6.875L19.125 10L16 13.125" stroke="black" stroke-width="1.5" stroke-linecap="round" stroke-linejoin="round"/>
<path d="M8.46094 9.99988H19.125" stroke="black" stroke-width="1.5" stroke-linecap="round" stroke-linejoin="round"/>
</svg>
