<svg width="20" height="20" viewBox="0 0 20 20" fill="none" xmlns="http://www.w3.org/2000/svg">
<path d="M11.25 18.1249H8.75C8.58424 18.1249 8.42527 18.1907 8.30806 18.3079C8.19085 18.4251 8.125 18.5841 8.125 18.7499C8.125 18.9156 8.19085 19.0746 8.30806 19.1918C8.42527 19.309 8.58424 19.3749 8.75 19.3749H11.25C11.4158 19.3749 11.5747 19.309 11.6919 19.1918C11.8092 19.0746 11.875 18.9156 11.875 18.7499C11.875 18.5841 11.8092 18.4251 11.6919 18.3079C11.5747 18.1907 11.4158 18.1249 11.25 18.1249Z" fill="black"/>
<path d="M11.875 16.2501H8.125C7.95924 16.2501 7.80027 16.316 7.68306 16.4332C7.56585 16.5504 7.5 16.7094 7.5 16.8751C7.5 17.0409 7.56585 17.1999 7.68306 17.3171C7.80027 17.4343 7.95924 17.5001 8.125 17.5001H11.875C12.0408 17.5001 12.1997 17.4343 12.3169 17.3171C12.4342 17.1999 12.5 17.0409 12.5 16.8751C12.5 16.7094 12.4342 16.5504 12.3169 16.4332C12.1997 16.316 12.0408 16.2501 11.875 16.2501Z" fill="black"/>
<path d="M14.4305 2.44897C13.2559 1.2728 11.6824 0.62514 10 0.62514C9.1787 0.623182 8.3651 0.783507 7.60593 1.09691C6.84676 1.4103 6.15699 1.8706 5.57623 2.45136C4.99548 3.03211 4.53518 3.72188 4.22178 4.48105C3.90838 5.24022 3.74806 6.05383 3.75002 6.87514C3.75002 8.69623 4.44806 10.3997 5.66408 11.5486L5.83439 11.7083C6.53791 12.3662 7.50002 13.2673 7.50002 14.0626V15.0001C7.50002 15.1659 7.56586 15.3249 7.68307 15.4421C7.80028 15.5593 7.95926 15.6251 8.12502 15.6251H9.06252C9.1454 15.6251 9.22488 15.5922 9.28349 15.5336C9.34209 15.475 9.37502 15.3955 9.37502 15.3126V10.7353C9.37504 10.6721 9.35589 10.6104 9.32012 10.5583C9.28434 10.5062 9.23361 10.4662 9.17462 10.4435C8.81372 10.2963 8.47087 10.1082 8.15275 9.88295C8.08126 9.8373 8.01982 9.77758 7.97215 9.70742C7.92448 9.63726 7.8916 9.55813 7.8755 9.47485C7.85939 9.39157 7.86041 9.30589 7.87848 9.22302C7.89656 9.14014 7.93131 9.06182 7.98062 8.99281C8.02994 8.9238 8.09279 8.86555 8.16534 8.8216C8.23789 8.77766 8.31862 8.74895 8.40263 8.73721C8.48663 8.72547 8.57214 8.73095 8.65396 8.75332C8.73578 8.77569 8.81219 8.81448 8.87853 8.86733C9.16759 9.07201 9.72423 9.37514 10 9.37514C10.2758 9.37514 10.8324 9.07123 11.1223 8.86733C11.2572 8.78248 11.4195 8.75241 11.5759 8.78327C11.7323 8.81413 11.871 8.90358 11.9636 9.03332C12.0562 9.16307 12.0958 9.3233 12.0742 9.48124C12.0525 9.63917 11.9714 9.78288 11.8473 9.88295C11.5291 10.1078 11.1863 10.2955 10.8254 10.4423C10.7664 10.465 10.7157 10.505 10.6799 10.5571C10.6441 10.6092 10.625 10.6709 10.625 10.7341V15.3126C10.625 15.3955 10.6579 15.475 10.7165 15.5336C10.7751 15.5922 10.8546 15.6251 10.9375 15.6251H11.875C12.0408 15.6251 12.1997 15.5593 12.317 15.4421C12.4342 15.3249 12.5 15.1659 12.5 15.0001V14.0626C12.5 13.2861 13.4516 12.3857 14.1465 11.7279L14.3383 11.5458C15.5891 10.3517 16.25 8.7349 16.25 6.87514C16.2542 6.05375 16.0955 5.23968 15.7832 4.47997C15.4709 3.72026 15.0111 3.02996 14.4305 2.44897V2.44897Z" fill="black"/>
</svg>
