<svg width="20" height="20" viewBox="0 0 20 20" fill="none" xmlns="http://www.w3.org/2000/svg">
<path d="M11.875 15.0006V14.0631C11.875 12.9303 13.1071 11.8588 13.9063 11.0944C15.0328 10.0174 15.625 8.57055 15.625 6.87563C15.625 3.75063 13.1356 1.25063 10 1.25063C9.26076 1.24857 8.52838 1.39266 7.84499 1.67461C7.1616 1.95656 6.54069 2.37082 6.01795 2.89356C5.49521 3.4163 5.08095 4.03721 4.799 4.7206C4.51705 5.40399 4.37296 6.13637 4.37502 6.87563C4.37502 8.51001 4.9926 10.0549 6.09377 11.0944C6.88869 11.8448 8.12502 12.9186 8.12502 14.0631V15.0006" stroke="black" stroke-width="1.5" stroke-linecap="round" stroke-linejoin="round"/>
<path d="M8.75 18.7495H11.25" stroke="black" stroke-width="1.5" stroke-linecap="round" stroke-linejoin="round"/>
<path d="M8.125 16.8755H11.875" stroke="black" stroke-width="1.5" stroke-linecap="round" stroke-linejoin="round"/>
<path d="M10 15V10" stroke="black" stroke-width="1.5" stroke-linecap="round" stroke-linejoin="round"/>
<path d="M11.4844 9.37451C11.4844 9.37451 10.6441 9.99951 10 9.99951C9.35586 9.99951 8.51562 9.37451 8.51562 9.37451" stroke="black" stroke-width="1.5" stroke-linecap="round" stroke-linejoin="round"/>
</svg>
