<svg width="20" height="20" viewBox="0 0 20 20" fill="none" xmlns="http://www.w3.org/2000/svg">
<path fill-rule="evenodd" clip-rule="evenodd" d="M4.85142 11.038C4.3064 11.583 4.0002 12.3222 4.0002 13.093C4.0002 13.8638 4.3064 14.603 4.85142 15.148C5.39645 15.6931 6.13567 15.9993 6.90645 15.9993C7.67724 15.9993 8.41645 15.6931 8.96148 15.148L10.7292 13.3803C11.0588 13.0508 11.593 13.0508 11.9225 13.3803C12.252 13.7098 12.252 14.244 11.9225 14.5735L10.1547 16.3413C9.29323 17.2028 8.12479 17.6868 6.90645 17.6868C5.68812 17.6868 4.51968 17.2028 3.65818 16.3413C2.79669 15.4798 2.3127 14.3114 2.31271 13.093C2.3127 11.8747 2.79669 10.7062 3.65818 9.84475L5.42595 8.07698C5.75545 7.74748 6.28969 7.74748 6.61919 8.07698C6.9487 8.40649 6.9487 8.94072 6.61919 9.27022L4.85142 11.038ZM8.0776 6.61857C7.7481 6.28907 7.7481 5.75483 8.0776 5.42533L9.84537 3.65756C10.7069 2.79607 11.8753 2.31208 13.0936 2.31208C14.312 2.31208 15.4804 2.79607 16.3419 3.65756C17.2034 4.51906 17.6874 5.68749 17.6874 6.90583C17.6874 8.12417 17.2034 9.29261 16.3419 10.1541L14.5741 11.9219C14.2446 12.2514 13.7104 12.2514 13.3809 11.9219C13.0514 11.5924 13.0514 11.0581 13.3809 10.7286L15.1487 8.96086C15.6937 8.41583 15.9999 7.67662 15.9999 6.90583C15.9999 6.13505 15.6937 5.39583 15.1487 4.8508C14.6036 4.30578 13.8644 3.99958 13.0936 3.99958C12.3229 3.99958 11.5836 4.30578 11.0386 4.8508L9.27084 6.61857C8.94134 6.94808 8.40711 6.94808 8.0776 6.61857ZM6.84241 11.9631C6.5129 12.2926 6.5129 12.8269 6.84241 13.1564C7.17191 13.4859 7.70615 13.4859 8.03565 13.1564L13.2124 7.97958C13.5419 7.65008 13.5419 7.11584 13.2124 6.78634C12.8829 6.45683 12.3487 6.45683 12.0192 6.78634L6.84241 11.9631Z" fill="black"/>
</svg>
