<svg width="20" height="20" viewBox="0 0 20 20" fill="none" xmlns="http://www.w3.org/2000/svg">
<g clip-path="url(#clip0)">
<path d="M 19.640625 1.414062 C 19.863281 1.589844 20 1.878906 20 2.1875 L 20 15.3125 C 20 15.703125 19.785156 16.050781 19.460938 16.1875 L 13.628906 18.6875 C 13.449219 18.765625 13.25 18.769531 13.070312 18.699219 L 6.683594 16.308594 L 1.128906 18.691406 C 0.871094 18.800781 0.582031 18.761719 0.359375 18.585938 C 0.132812 18.410156 0 18.121094 0 17.8125 L 0 4.6875 C 0 4.296875 0.210938 3.949219 0.539062 3.8125 L 6.371094 1.3125 C 6.550781 1.234375 6.75 1.230469 6.929688 1.300781 L 13.316406 3.691406 L 18.871094 1.308594 C 19.128906 1.199219 19.417969 1.238281 19.640625 1.414062 Z M 1.667969 5.332031 L 1.667969 16.453125 L 5.832031 14.667969 L 5.832031 3.546875 Z M 12.5 16.511719 L 12.5 5.363281 L 7.5 3.488281 L 7.5 14.636719 Z M 14.167969 16.453125 L 18.332031 14.667969 L 18.332031 3.546875 L 14.167969 5.332031 Z M 14.167969 16.453125" stroke="black" stroke-width="0.25" stroke-miterlimit="10" fill="black"/>
</g>
<defs>
<clipPath id="clip0">
<rect width="20" height="20" fill="white"/>
</clipPath>
</defs>
</svg>

