<svg width="20" height="20" viewBox="0 0 20 20" fill="none" xmlns="http://www.w3.org/2000/svg">
<path d="M10 12.25C11.1046 12.25 12 11.3546 12 10.25C12 9.14543 11.1046 8.25 10 8.25C8.89543 8.25 8 9.14543 8 10.25C8 11.3546 8.89543 12.25 10 12.25Z" fill="black"/>
<path d="M10 18.4996C11.1046 18.4996 12 17.6042 12 16.4996C12 15.3951 11.1046 14.4996 10 14.4996C8.89543 14.4996 8 15.3951 8 16.4996C8 17.6042 8.89543 18.4996 10 18.4996Z" fill="black"/>
<path d="M10 6C11.1046 6 12 5.10457 12 4C12 2.89543 11.1046 2 10 2C8.89543 2 8 2.89543 8 4C8 5.10457 8.89543 6 10 6Z" fill="black"/>
</svg>
