<svg width="20" height="20" viewBox="0 0 20 20" fill="none" xmlns="http://www.w3.org/2000/svg">
<path d="M17.5 13.3361V6.66583C17.4997 6.44751 17.4423 6.23307 17.3334 6.04385C17.2245 5.85463 17.0679 5.69723 16.8793 5.58732L10.9418 2.13185C10.6557 1.9653 10.3306 1.87756 9.99961 1.87756C9.66859 1.87756 9.34349 1.9653 9.05742 2.13185L3.1207 5.58732C2.93207 5.69723 2.77551 5.85463 2.66661 6.04385C2.55771 6.23307 2.50027 6.44751 2.5 6.66583V13.3361C2.50013 13.5546 2.55751 13.7692 2.66641 13.9586C2.77532 14.1479 2.93195 14.3055 3.1207 14.4154L9.0582 17.8709C9.34435 18.0372 9.66942 18.1248 10.0004 18.1248C10.3314 18.1248 10.6564 18.0372 10.9426 17.8709L16.8801 14.4154C17.0687 14.3054 17.2252 14.1478 17.3339 13.9584C17.4427 13.7691 17.4999 13.5545 17.5 13.3361Z" stroke="black" stroke-width="1.5" stroke-linecap="round" stroke-linejoin="round"/>
<path d="M2.69531 6.01636L10 10.3132L17.3047 6.01636" stroke="black" stroke-width="1.5" stroke-linecap="round" stroke-linejoin="round"/>
<path d="M10 18.1254V10.3129" stroke="black" stroke-width="1.5" stroke-linecap="round" stroke-linejoin="round"/>
</svg>
