<svg width="20" height="20" viewBox="0 0 20 20" fill="none" xmlns="http://www.w3.org/2000/svg">
<path fill-rule="evenodd" clip-rule="evenodd" d="M9.15184 1.79111C9.37183 1.66593 9.62184 1.59998 9.8764 1.59998C10.131 1.59998 10.381 1.66593 10.601 1.79113L14.0247 3.73874C14.1879 3.83166 14.3233 3.96473 14.4175 4.1247C14.5116 4.28467 14.5613 4.46596 14.5616 4.65054V8.41052C14.5615 8.4485 14.5594 8.48634 14.5553 8.52389C14.7253 8.55202 14.8893 8.60986 15.0395 8.69528L18.4632 10.6429C18.6263 10.7358 18.7617 10.8689 18.8559 11.0289C18.9501 11.1888 18.9998 11.3701 19 11.5547V15.3147C19 15.4993 18.9505 15.6807 18.8564 15.8408C18.7623 16.0009 18.627 16.1341 18.4639 16.2271L18.4635 16.2274L15.0399 18.1749L15.0397 18.175C14.8312 18.2934 14.5959 18.3587 14.3554 18.3653C14.3422 18.3667 14.3288 18.3674 14.3153 18.3674C14.3017 18.3674 14.2883 18.3667 14.2751 18.3653C14.0346 18.3587 13.7994 18.2934 13.591 18.175L13.5908 18.1749L10.1672 16.2274L10.167 16.2273C10.1075 16.1934 10.0517 16.1541 10.0002 16.1102C9.94879 16.154 9.89308 16.1933 9.83369 16.2271L9.8333 16.2274L6.4097 18.1749L6.40952 18.175C6.20107 18.2934 5.96575 18.3587 5.72516 18.3653C5.71199 18.3667 5.69862 18.3674 5.68506 18.3674C5.67148 18.3674 5.65808 18.3667 5.6449 18.3653C5.4044 18.3587 5.16917 18.2934 4.96079 18.175L4.96062 18.1749L1.53701 16.2274L1.53685 16.2273C1.3736 16.1343 1.23813 16.0011 1.14393 15.841C1.04974 15.6809 1.00011 15.4995 1 15.3148V11.5547C1.00023 11.3701 1.04991 11.1888 1.1441 11.0289C1.23829 10.8689 1.3737 10.7358 1.53685 10.6429L4.96012 8.69528L4.96015 8.69526C5.0388 8.65051 5.12128 8.61333 5.20644 8.58402C5.19669 8.52693 5.19172 8.46895 5.19169 8.41065V4.65054C5.19192 4.46596 5.2416 4.28467 5.33579 4.1247C5.42998 3.96473 5.56539 3.83166 5.72854 3.73874L9.15181 1.79113L9.15184 1.79111ZM9.51618 10.4627L6.4093 8.69528C6.26127 8.61104 6.09965 8.55363 5.9322 8.52507C5.91919 8.4883 5.91246 8.44953 5.91243 8.41031V4.83662L9.51618 6.9087V10.4627ZM13.7811 8.60438C13.7156 8.62995 13.6518 8.6603 13.5903 8.69526L13.5903 8.69528L10.2369 10.6031V6.90891L13.8408 4.83677V8.41036V8.41044C13.8407 8.47195 13.8242 8.53238 13.7929 8.58572C13.7892 8.59207 13.7852 8.59829 13.7811 8.60438ZM5.575 9.21719C5.48638 9.23055 5.40075 9.26004 5.3227 9.30446L5.32267 9.30448L2.09662 11.1399L5.68501 13.2031L9.09877 11.2403L5.7287 9.3232L5.72854 9.32311C5.67411 9.29211 5.62276 9.25664 5.575 9.21719ZM10.7789 11.1698L14.3152 13.2031L17.9035 11.14L14.6769 9.30449L14.6768 9.30446C14.5669 9.24192 14.442 9.20897 14.3149 9.20897C14.2664 9.20897 14.2184 9.21375 14.1713 9.22312C14.1257 9.26014 14.0769 9.29356 14.0254 9.32298L14.025 9.3232L10.7789 11.1698ZM9.87638 2.30449C9.74921 2.30449 9.62432 2.33744 9.51442 2.39997L9.51439 2.39999L6.28835 4.2354L9.87674 6.29865L13.465 4.23548L10.2384 2.4L10.2383 2.39997C10.1284 2.33744 10.0035 2.30449 9.87638 2.30449ZM9.63017 15.3148V11.7521L6.04544 13.8133V17.5673L6.0471 17.5663L6.04728 17.5662L9.47032 15.619L9.47064 15.6188C9.52487 15.5878 9.56987 15.5435 9.60117 15.4902C9.6156 15.4656 9.62688 15.4396 9.63486 15.4126C9.63176 15.3802 9.63019 15.3475 9.63017 15.3148ZM10.3989 15.4901C10.3845 15.4656 10.3732 15.4396 10.3652 15.4127C10.3683 15.3802 10.3699 15.3475 10.3699 15.3147V11.752L13.9549 13.8133V17.5672L13.9533 17.5663L13.9531 17.5662L10.5299 15.6189L10.5297 15.6188C10.4754 15.5878 10.4303 15.5434 10.3989 15.4901ZM5.32468 13.8133L1.7207 11.7411V15.3148C1.72076 15.3763 1.7373 15.4368 1.76868 15.4901C1.80005 15.5434 1.84515 15.5878 1.89949 15.6188L1.89965 15.6189L5.32292 17.5662L5.3231 17.5663L5.32468 17.5672V13.8133ZM14.6756 17.5673L14.6773 17.5663L14.6775 17.5662L18.1005 15.619L18.1008 15.6188C18.1551 15.5878 18.2001 15.5435 18.2314 15.4902C18.2627 15.4369 18.2792 15.3764 18.2793 15.3149V15.3148V11.7413L14.6756 13.8133V17.5673Z" fill="black"/>
</svg>
