<svg width="32" height="32" viewBox="0 0 32 32" fill="none" xmlns="http://www.w3.org/2000/svg">
<path d="M2.6665 13.3337C2.6665 12.6264 2.94746 11.9481 3.44755 11.448C3.94765 10.9479 4.62593 10.667 5.33317 10.667H26.6665C27.3737 10.667 28.052 10.9479 28.5521 11.448C29.0522 11.9481 29.3332 12.6264 29.3332 13.3337V22.667C29.3332 23.3742 29.0522 24.0525 28.5521 24.5526C28.052 25.0527 27.3737 25.3337 26.6665 25.3337H21.5092C21.0487 25.3337 20.596 25.2144 20.1953 24.9875C19.7946 24.7607 19.4594 24.4339 19.2225 24.039L17.1425 20.5723C17.024 20.3752 16.8564 20.2121 16.6562 20.0988C16.456 19.9856 16.2299 19.9261 15.9998 19.9261C15.7698 19.9261 15.5437 19.9856 15.3435 20.0988C15.1432 20.2121 14.9757 20.3752 14.8572 20.5723L12.7772 24.039C12.5402 24.4339 12.2051 24.7607 11.8044 24.9875C11.4037 25.2144 10.951 25.3337 10.4905 25.3337H5.33317C4.62593 25.3337 3.94765 25.0527 3.44755 24.5526C2.94746 24.0525 2.6665 23.3742 2.6665 22.667V13.3337Z"  stroke="black" stroke-width="1.5" stroke-miterlimit="10"/>
<path d="M5.084 9.04166C5.57092 8.31138 6.23054 7.71256 7.00436 7.29832C7.77818 6.88408 8.64228 6.66723 9.52 6.66699H22.4773C23.3553 6.66701 24.2196 6.88376 24.9937 7.29801C25.7678 7.71226 26.4276 8.31119 26.9147 9.04166L28 10.667H4L5.084 9.04166V9.04166Z"  stroke="black" stroke-width="1.5" stroke-miterlimit="10"/>
</svg>
