<svg width="33" height="32" viewBox="0 0 33 32" fill="none" xmlns="http://www.w3.org/2000/svg">
<path d="M9.34687 6.58441C9.47083 6.70824 9.56918 6.85529 9.63628 7.01715C9.70338 7.17902 9.73792 7.35252 9.73792 7.52774C9.73792 7.70296 9.70338 7.87646 9.63628 8.03833C9.56918 8.20019 9.47083 8.34724 9.34687 8.47107C7.34612 10.4722 6.22213 13.186 6.22213 16.0157C6.22213 18.8455 7.34612 21.5593 9.34687 23.5604C9.47066 23.6843 9.56884 23.8313 9.6358 23.9932C9.70276 24.155 9.7372 24.3284 9.73714 24.5035C9.73707 24.6787 9.70252 24.8521 9.63544 25.0139C9.56836 25.1756 9.47008 25.3226 9.3462 25.4464C9.22232 25.5702 9.07527 25.6684 8.91345 25.7353C8.75162 25.8023 8.57819 25.8367 8.40306 25.8367C8.22793 25.8366 8.05453 25.8021 7.89275 25.735C7.73097 25.6679 7.58399 25.5696 7.4602 25.4457C2.2522 20.2377 2.2522 11.7924 7.4602 6.58441C7.58403 6.46044 7.73108 6.36209 7.89295 6.29499C8.05481 6.2279 8.22831 6.19336 8.40353 6.19336C8.57875 6.19336 8.75226 6.2279 8.91412 6.29499C9.07598 6.36209 9.22304 6.46044 9.34687 6.58441ZM26.3215 6.58441C31.5295 11.7937 31.5295 20.2377 26.3215 25.4457C26.0701 25.6886 25.7333 25.823 25.3837 25.82C25.0341 25.8169 24.6997 25.6767 24.4524 25.4295C24.2052 25.1823 24.065 24.8479 24.062 24.4983C24.0589 24.1487 24.1933 23.8119 24.4362 23.5604C26.437 21.5593 27.5609 18.8455 27.5609 16.0157C27.5609 13.186 26.437 10.4722 24.4362 8.47107C24.186 8.22106 24.0454 7.88191 24.0453 7.52821C24.0451 7.17452 24.1855 6.83526 24.4355 6.58507C24.6855 6.33489 25.0247 6.19426 25.3784 6.19414C25.7321 6.19401 26.0713 6.3344 26.3215 6.58441ZM13.3029 10.4164C13.5528 10.6664 13.6932 11.0055 13.6932 11.3591C13.6932 11.7126 13.5528 12.0517 13.3029 12.3017C12.8175 12.7871 12.4324 13.3633 12.1697 13.9975C11.907 14.6316 11.7718 15.3113 11.7718 15.9977C11.7718 16.6842 11.907 17.3639 12.1697 17.998C12.4324 18.6322 12.8175 19.2084 13.3029 19.6937C13.4302 19.8167 13.5318 19.9639 13.6017 20.1265C13.6715 20.2892 13.7083 20.4642 13.7099 20.6412C13.7114 20.8182 13.6777 20.9938 13.6106 21.1577C13.5436 21.3215 13.4446 21.4704 13.3194 21.5956C13.1942 21.7208 13.0453 21.8198 12.8815 21.8868C12.7176 21.9539 12.542 21.9876 12.365 21.9861C12.188 21.9845 12.013 21.9478 11.8503 21.8779C11.6877 21.808 11.5405 21.7064 11.4175 21.5791C9.9373 20.0988 9.10573 18.0911 9.10573 15.9977C9.10573 13.9043 9.9373 11.8967 11.4175 10.4164C11.6676 10.1664 12.0066 10.026 12.3602 10.026C12.7138 10.026 13.0528 10.1664 13.3029 10.4164ZM22.5815 10.4164C24.0618 11.8967 24.8933 13.9043 24.8933 15.9977C24.8933 18.0911 24.0618 20.0988 22.5815 21.5791C22.4577 21.703 22.3108 21.8012 22.149 21.8683C21.9872 21.9354 21.8138 21.9699 21.6387 21.97C21.4635 21.9701 21.2901 21.9356 21.1283 21.8687C20.9665 21.8017 20.8194 21.7035 20.6955 21.5797C20.5717 21.4559 20.4734 21.309 20.4063 21.1472C20.3392 20.9854 20.3047 20.812 20.3046 20.6369C20.3045 20.4617 20.339 20.2883 20.4059 20.1265C20.4729 19.9647 20.5711 19.8176 20.6949 19.6937C21.1803 19.2084 21.5653 18.6322 21.828 17.998C22.0907 17.3639 22.2259 16.6842 22.2259 15.9977C22.2259 15.3113 22.0907 14.6316 21.828 13.9975C21.5653 13.3633 21.1803 12.7871 20.6949 12.3017C20.4449 12.0516 20.3045 11.7123 20.3046 11.3586C20.3047 11.0049 20.4453 10.6658 20.6955 10.4157C20.9457 10.1657 21.285 10.0253 21.6387 10.0255C21.9924 10.0256 22.3315 10.1662 22.5815 10.4164ZM16.9989 14.1097C17.2615 14.1097 17.5216 14.1615 17.7642 14.262C18.0069 14.3625 18.2274 14.5098 18.4131 14.6955C18.5988 14.8812 18.7461 15.1017 18.8466 15.3444C18.9471 15.587 18.9989 15.8471 18.9989 16.1097C18.9989 16.3724 18.9471 16.6325 18.8466 16.8751C18.7461 17.1178 18.5988 17.3382 18.4131 17.524C18.2274 17.7097 18.0069 17.857 17.7642 17.9575C17.5216 18.058 17.2615 18.1097 16.9989 18.1097C16.4684 18.1097 15.9597 17.899 15.5847 17.524C15.2096 17.1489 14.9989 16.6402 14.9989 16.1097C14.9989 15.5793 15.2096 15.0706 15.5847 14.6955C15.9597 14.3205 16.4684 14.1097 16.9989 14.1097Z"  stroke="black" stroke-width="1.5" stroke-miterlimit="10"/>
</svg>
