<svg width="20" height="20" viewBox="0 0 20 20" fill="none" xmlns="http://www.w3.org/2000/svg">
<path d="M15.7031 6.56262C15.5886 8.15129 14.4101 9.37512 13.1249 9.37512C11.8398 9.37512 10.6593 8.15168 10.5468 6.56262C10.4296 4.90989 11.5769 3.75012 13.1249 3.75012C14.673 3.75012 15.8202 4.93997 15.7031 6.56262Z" stroke="black" stroke-width="1.5" stroke-linecap="round" stroke-linejoin="round"/>
<path d="M13.1251 11.875C10.5794 11.875 8.13134 13.1395 7.51806 15.602C7.43681 15.9277 7.6411 16.25 7.97587 16.25H18.2747C18.6095 16.25 18.8126 15.9277 18.7325 15.602C18.1192 13.1 15.6712 11.875 13.1251 11.875Z" stroke="black" stroke-width="1.5" stroke-miterlimit="10"/>
<path d="M7.81238 7.26352C7.72098 8.53227 6.76863 9.53149 5.74207 9.53149C4.71551 9.53149 3.7616 8.53266 3.67176 7.26352C3.5784 5.9436 4.50535 5.00024 5.74207 5.00024C6.97879 5.00024 7.90574 5.96782 7.81238 7.26352Z" stroke="black" stroke-width="1.5" stroke-linecap="round" stroke-linejoin="round"/>
<path d="M8.04677 11.9535C7.34169 11.6304 6.56513 11.5062 5.74208 11.5062C3.71083 11.5062 1.7538 12.516 1.26357 14.4828C1.19911 14.7429 1.36239 15.0004 1.62958 15.0004H6.01552" stroke="black" stroke-width="1.5" stroke-miterlimit="10" stroke-linecap="round"/>
</svg>
