<svg width="20" height="20" viewBox="0 0 20 20" fill="none" xmlns="http://www.w3.org/2000/svg">
<g clip-path="url(#clip0)">
<path d="M13.125 0.624634H6.875C5.83947 0.624634 5 1.4641 5 2.49963V17.4996C5 18.5352 5.83947 19.3746 6.875 19.3746H13.125C14.1605 19.3746 15 18.5352 15 17.4996V2.49963C15 1.4641 14.1605 0.624634 13.125 0.624634Z" stroke="black" stroke-width="1.5" stroke-linecap="round" stroke-linejoin="round"/>
<path d="M6.875 0.624634H7.8125C7.89538 0.624634 7.97487 0.657558 8.03347 0.716163C8.09208 0.774768 8.125 0.854254 8.125 0.937134C8.125 1.10289 8.19085 1.26187 8.30806 1.37908C8.42527 1.49629 8.58424 1.56213 8.75 1.56213H11.25C11.4158 1.56213 11.5747 1.49629 11.6919 1.37908C11.8092 1.26187 11.875 1.10289 11.875 0.937134C11.875 0.854254 11.9079 0.774768 11.9665 0.716163C12.0251 0.657558 12.1046 0.624634 12.1875 0.624634H13.125" stroke="black" stroke-width="1.5" stroke-linecap="round" stroke-linejoin="round"/>
</g>
<defs>
<clipPath id="clip0">
<rect width="20" height="20" fill="white"/>
</clipPath>
</defs>
</svg>
