<svg width="22" height="22" viewBox="0 0 22 22" fill="none" xmlns="http://www.w3.org/2000/svg">
<path fill-rule="evenodd" clip-rule="evenodd" d="M10.4633 12.6677C10.4421 12.6959 10.4187 12.723 10.393 12.7486L5.31228 17.8294C5.01939 18.1223 4.54451 18.1223 4.25162 17.8294C3.95873 17.5365 3.95873 17.0616 4.25162 16.7687L9.33237 11.688C9.35804 11.6623 9.3851 11.6389 9.41331 11.6177L9.02708 11.2315L6.4907 8.69511C6.27014 8.47455 6.15986 8.18967 6.15986 7.8956C6.15986 7.62909 6.25176 7.3534 6.44475 7.14203C7.35454 6.13116 8.67787 5.57058 10.038 5.62572L10.2309 5.62572C11.7381 5.62572 12.9695 4.40348 12.9695 2.88716L12.9695 2.2163C12.9695 1.91304 13.089 1.62816 13.3003 1.41679C13.7414 0.975682 14.4674 0.975682 14.9085 1.41679L20.5878 7.09609C20.7992 7.30745 20.9187 7.59233 20.9187 7.8956C20.9187 8.5205 20.404 9.03513 19.7883 9.03513L19.1175 9.03513C17.6012 9.03513 16.3789 10.2666 16.3789 11.7737L16.3789 11.9759L16.3789 11.9851C16.3789 13.3084 15.8459 14.5766 14.9085 15.5139C14.4674 15.955 13.7414 15.955 13.3003 15.5139L10.764 12.9684L10.4633 12.6677ZM9.97719 7.12449L10.0076 7.12572H10.038H10.2309C12.4943 7.12572 14.3564 5.34527 14.4645 3.09411L18.9105 7.54009C16.6594 7.64818 14.8789 9.51035 14.8789 11.7737V11.9759L14.8789 11.9851C14.8789 12.7842 14.5989 13.56 14.0918 14.1831L11.8265 11.9096L11.8246 11.9077L10.0877 10.1708L7.81241 7.8955C8.40491 7.3737 9.18393 7.09233 9.97719 7.12449Z" fill="black"/>
</svg>
