<svg width="15" height="15" viewBox="0 0 15 15" fill="none" xmlns="http://www.w3.org/2000/svg">
<path d="M7.27083 3.27604C9.84333 3.27604 11.9375 5.37021 11.9375 7.94271C11.9375 10.5152 9.84333 12.6094 7.27083 12.6094C4.69833 12.6094 2.60417 10.5152 2.60417 7.94271C2.60417 5.37021 4.69833 3.27604 7.27083 3.27604ZM7.27083 2.10938C4.04908 2.10938 1.4375 4.72096 1.4375 7.94271C1.4375 11.1645 4.04908 13.776 7.27083 13.776C10.4926 13.776 13.1042 11.1645 13.1042 7.94271C13.1042 4.72096 10.4926 2.10938 7.27083 2.10938ZM10.1875 7.35938H7.85417V5.02604H6.6875V7.35938H4.35417V8.52604H6.6875V10.8594H7.85417V8.52604H10.1875V7.35938Z" fill="white"/>
</svg>
