<svg width="24" height="25" viewBox="0 0 24 25" fill="none" xmlns="http://www.w3.org/2000/svg">
<path d="M11.9844 1.24219C6.15927 1.24219 2.28125 5.23952 2.28125 11.5228C2.28125 19.953 11.9844 22.8047 11.9844 22.8047C11.9844 22.8047 21.6875 19.953 21.6875 11.5228C21.6875 5.23952 17.8088 1.24219 11.9844 1.24219ZM16.3483 19.5689C14.514 20.914 12.6485 21.6295 11.9844 21.8592C10.516 21.3507 3.17969 18.4595 3.17969 11.5228C3.17969 5.8235 6.6358 2.14062 11.9844 2.14062C17.333 2.14062 20.7891 5.8235 20.7891 11.5228C20.7891 14.7001 19.2948 17.4072 16.3483 19.5689Z" fill="black"/>
<path d="M15.6868 16.8574C15.5751 16.8574 15.4489 16.9207 15.2193 17.035C14.6705 17.3099 13.6484 17.8209 11.9835 17.8209C10.3199 17.8209 9.29713 17.3099 8.74837 17.035C8.51945 16.9207 8.3933 16.8574 8.28154 16.8574C8.16151 16.8574 8.04004 16.9397 8.04004 17.1244C8.04004 18.0319 9.95694 18.89 11.9835 18.89C14.0114 18.89 15.9276 18.0319 15.9276 17.1244C15.9276 16.9401 15.8068 16.8574 15.6868 16.8574Z" fill="black"/>
<path d="M9.85851 14.0761C10.4454 13.4985 10.4651 12.5095 10.013 11.508L10.0188 11.513C9.79849 10.9276 9.42151 10.4176 8.99529 9.97056C8.56416 9.52167 8.0697 9.13823 7.5276 8.83242C6.98849 8.52749 6.40736 8.30371 5.80296 8.1683C5.20424 8.03353 4.58576 7.98789 3.97949 8.07091C4.53365 8.27791 5.06588 8.46694 5.58302 8.68149C5.27863 8.74905 5.0091 8.88346 4.79599 9.09333C3.90402 9.97128 4.31515 11.7973 5.71348 13.1737C7.11109 14.5486 8.96762 14.9529 9.85851 14.0761ZM7.02555 10.8543C6.3104 10.4061 5.92012 9.74524 6.15587 9.37867C6.39377 9.01175 7.16715 9.07788 7.88338 9.52566C8.6007 9.9738 8.98954 10.6347 8.75235 11.0013C8.5166 11.3685 7.74359 11.3024 7.02555 10.8543Z" fill="black"/>
<path d="M18.3846 8.68043C18.9021 8.46589 19.4343 8.27721 19.9881 8.06985C19.3815 7.9872 18.7648 8.03212 18.1653 8.16725C17.5652 8.30273 16.9798 8.52375 16.4407 8.83101C15.8987 9.13652 15.4045 9.51986 14.9737 9.96879C14.5464 10.4166 14.1702 10.9265 13.9495 11.5116L13.9549 11.5069C13.5028 12.5081 13.5222 13.4975 14.1091 14.075C15.0003 14.9526 16.8568 14.5483 18.2545 13.1723C19.6528 11.7966 20.0632 9.97023 19.1727 9.09192C18.9588 8.8824 18.6889 8.74764 18.3846 8.68043ZM16.9409 10.8532C16.2243 11.301 15.451 11.3671 15.2134 10.9995C14.9777 10.6329 15.3665 9.97239 16.0831 9.52461C16.8004 9.07646 17.5731 9.01034 17.8113 9.37798C18.0471 9.74454 17.6575 10.4047 16.9409 10.8532Z" fill="black"/>
</svg>
