<svg width="20" height="20" viewBox="0 0 20 20" fill="none" xmlns="http://www.w3.org/2000/svg">
<path d="M7.1875 10C7.70527 10 8.125 9.58027 8.125 9.0625C8.125 8.54473 7.70527 8.125 7.1875 8.125C6.66973 8.125 6.25 8.54473 6.25 9.0625C6.25 9.58027 6.66973 10 7.1875 10Z" fill="black"/>
<path d="M10.0021 15.0011C8.22789 15.0011 6.7357 13.8476 6.26343 12.2734C6.25023 12.2266 6.24814 12.1773 6.25735 12.1295C6.26656 12.0817 6.28681 12.0367 6.31648 11.9981C6.34615 11.9595 6.38442 11.9284 6.42824 11.9072C6.47207 11.8861 6.52024 11.8754 6.5689 11.8761H13.4318C13.4805 11.8754 13.5286 11.8861 13.5725 11.9072C13.6163 11.9284 13.6545 11.9595 13.6842 11.9981C13.7139 12.0367 13.7341 12.0817 13.7433 12.1295C13.7526 12.1773 13.7505 12.2266 13.7373 12.2734C13.2689 13.8476 11.7763 15.0011 10.0021 15.0011Z" fill="black"/>
<path d="M12.8125 10C13.3303 10 13.75 9.58027 13.75 9.0625C13.75 8.54473 13.3303 8.125 12.8125 8.125C12.2947 8.125 11.875 8.54473 11.875 9.0625C11.875 9.58027 12.2947 10 12.8125 10Z" fill="black"/>
<path d="M10 18.125C14.4873 18.125 18.125 14.4873 18.125 10C18.125 5.51269 14.4873 1.875 10 1.875C5.51269 1.875 1.875 5.51269 1.875 10C1.875 14.4873 5.51269 18.125 10 18.125Z" stroke="black" stroke-width="1.5" stroke-miterlimit="10"/>
</svg>
