
<svg width="20" height="20" viewBox="0 0 20 20" fill="none" xmlns="http://www.w3.org/2000/svg">
    <path d="M 17.0667 1.0667 h -3.2 V 0 h 3.2 C 18.2449 0 19.2 0.9551 19.2 2.1333 v 3.2 h -1.0667 v -3.2 c 0 -0.5891 -0.4775 -1.0667 -1.0666 -1.0667 Z M 5.3333 0 v 1.0667 h -3.2 c -0.5891 0 -1.0667 0.4776 -1.0667 1.0667 v 3.2 H 0 v -3.2 C 0 0.9551 0.9551 0 2.1333 0 h 3.2 Z M 0 13.8667 h 1.0667 v 3.2 c 0 0.5891 0.4776 1.0666 1.0667 1.0666 h 3.2 V 19.2 h -3.2 C 0.9551 19.2 0 18.2449 0 17.0667 v -3.2 Z M 13.8667 19.2 v -1.0667 h 3.2 c 0.5891 0 1.0666 -0.4775 1.0666 -1.0666 v -3.2 H 19.2 v 3.2 c 0 1.1782 -0.9551 2.1333 -2.1333 2.1333 h -3.2 Z M 12.8 9.6 c 0 1.7673 -1.4327 3.2 -3.2 3.2 c -1.7673 0 -3.2 -1.4327 -3.2 -3.2 c 0 -1.7673 1.4327 -3.2 3.2 -3.2 c 1.7673 0 3.2 1.4327 3.2 3.2 Z m 1.0667 0 c 0 2.3564 -1.9103 4.2667 -4.2667 4.2667 c -2.3564 0 -4.2667 -1.9103 -4.2667 -4.2667 c 0 -2.3564 1.9103 -4.2667 4.2667 -4.2667 c 2.3564 0 4.2667 1.9103 4.2667 4.2667 Z" stroke="black" stroke-width="1.5" stroke-miterlimit="10" stroke-linecap="round"/>
</svg>