<svg width="20" height="20" viewBox="0 0 20 20" fill="none" xmlns="http://www.w3.org/2000/svg">
<path d="M8.63633 2.50061C7.42268 2.50061 6.23628 2.8605 5.22717 3.53477C4.21806 4.20904 3.43155 5.1674 2.9671 6.28867C2.50266 7.40993 2.38114 8.64374 2.61791 9.83407C2.85468 11.0244 3.43911 12.1178 4.29729 12.976C5.15547 13.8342 6.24886 14.4186 7.43919 14.6554C8.62952 14.8921 9.86333 14.7706 10.9846 14.3062C12.1059 13.8417 13.0642 13.0552 13.7385 12.0461C14.4128 11.037 14.7727 9.85059 14.7727 8.63694C14.7726 7.00951 14.126 5.44877 12.9753 4.29801C11.8245 3.14725 10.2638 2.50071 8.63633 2.50061V2.50061Z" stroke="black" stroke-width="1.5" stroke-miterlimit="10"/>
<path d="M13.2144 13.2145L17.4999 17.5" stroke="black" stroke-width="1.5" stroke-miterlimit="10" stroke-linecap="round"/>
</svg>
