<svg width="20" height="20" viewBox="0 0 20 20" fill="none" xmlns="http://www.w3.org/2000/svg">
<path d="M18.6168 8.87095L18.6105 8.86821L1.92773 1.94868C1.78741 1.88995 1.63472 1.86692 1.48332 1.88164C1.33192 1.89637 1.18653 1.94839 1.06016 2.03306C0.926639 2.12054 0.816966 2.23985 0.741006 2.38025C0.665046 2.52065 0.625182 2.67773 0.625 2.83735V7.26274C0.625074 7.48097 0.701273 7.69233 0.840463 7.86039C0.979653 8.02846 1.17311 8.14271 1.3875 8.18345L10.4863 9.86587C10.5221 9.87265 10.5543 9.89169 10.5776 9.91972C10.6008 9.94774 10.6135 9.98299 10.6135 10.0194C10.6135 10.0558 10.6008 10.091 10.5776 10.119C10.5543 10.1471 10.5221 10.1661 10.4863 10.1729L1.38789 11.8553C1.17356 11.8959 0.980114 12.01 0.840862 12.178C0.70161 12.3459 0.625273 12.5571 0.625 12.7752V17.2014C0.624896 17.3538 0.662638 17.5039 0.734839 17.6382C0.80704 17.7724 0.91144 17.8866 1.03867 17.9706C1.19172 18.0722 1.37133 18.1266 1.55508 18.1268C1.68282 18.1267 1.80925 18.1011 1.92695 18.0514L18.6094 11.1713L18.6168 11.1678C18.8414 11.0713 19.0327 10.9111 19.1671 10.707C19.3016 10.5029 19.3732 10.2638 19.3732 10.0194C19.3732 9.77497 19.3016 9.53591 19.1671 9.33179C19.0327 9.12767 18.8414 8.96745 18.6168 8.87095Z" fill="black"/>
</svg>
