<svg width="20" height="20" viewBox="0 0 20 20" fill="none" xmlns="http://www.w3.org/2000/svg">
<path d="M17.8406 9.46383L16.8218 9.29977C16.7561 9.28869 16.6956 9.25686 16.6492 9.20892C16.6028 9.16099 16.5729 9.09947 16.564 9.03336C16.5445 8.90836 16.525 8.78297 16.4976 8.66188C16.4844 8.59686 16.492 8.52933 16.5194 8.46889C16.5467 8.40844 16.5924 8.35815 16.65 8.32516L17.5519 7.82438C17.6202 7.78947 17.6734 7.73081 17.7014 7.65945C17.7295 7.58809 17.7305 7.50893 17.7043 7.43688L17.548 7.00719C17.5219 6.93493 17.4698 6.87495 17.402 6.83887C17.3342 6.80278 17.2554 6.79316 17.1808 6.81188L16.1695 7.00719C16.1038 7.01991 16.0357 7.01118 15.9752 6.98228C15.9148 6.95337 15.8653 6.90582 15.834 6.84664C15.7754 6.73727 15.7129 6.62776 15.6465 6.51813C15.6114 6.46112 15.5952 6.39452 15.6001 6.32777C15.605 6.26103 15.6308 6.19752 15.6738 6.14625L16.3492 5.36734C16.4016 5.31161 16.4317 5.2386 16.4339 5.16215C16.436 5.08569 16.4101 5.0111 16.3609 4.9525L16.0683 4.60094C16.0196 4.54181 15.9505 4.503 15.8747 4.49209C15.7988 4.48119 15.7216 4.49896 15.6582 4.54195L14.7718 5.07438C14.7149 5.10814 14.6486 5.12293 14.5827 5.11661C14.5168 5.11029 14.4546 5.08319 14.405 5.03922C14.3113 4.9568 14.2136 4.87477 14.116 4.79625C14.064 4.75498 14.0266 4.69825 14.009 4.63427C13.9915 4.5703 13.9947 4.50239 14.0183 4.44039L14.3855 3.47359C14.4168 3.40345 14.4211 3.32426 14.3977 3.25113C14.3743 3.17801 14.3247 3.11606 14.2586 3.07711L13.8601 2.84625C13.7936 2.80849 13.7156 2.79642 13.6408 2.81233C13.566 2.82824 13.4996 2.87102 13.4543 2.93258L12.8043 3.74664C12.768 3.79787 12.7154 3.83538 12.6552 3.8531C12.595 3.87082 12.5305 3.86772 12.4722 3.8443C12.4722 3.8443 12.2535 3.75445 12.0894 3.69938C12.0265 3.67841 11.9719 3.63796 11.9335 3.58388C11.8951 3.52981 11.8748 3.46492 11.8758 3.39859L11.8914 2.36539C11.896 2.28854 11.8723 2.21267 11.8248 2.15208C11.7773 2.09149 11.7093 2.05037 11.6336 2.03649L11.1808 1.95836C11.105 1.94523 11.0271 1.96027 10.9616 2.00063C10.8961 2.04099 10.8477 2.1039 10.8254 2.1775L10.4894 3.15602C10.4679 3.21909 10.4267 3.27362 10.372 3.31164C10.3172 3.34966 10.2518 3.36918 10.1851 3.36734H9.80232C9.73578 3.36875 9.67051 3.34906 9.61585 3.3111C9.56118 3.27314 9.51994 3.21885 9.49802 3.15602L9.16208 2.1775C9.13976 2.1039 9.09131 2.04099 9.02584 2.00063C8.96036 1.96027 8.8824 1.94523 8.80661 1.95836L8.35388 2.03649C8.27815 2.05037 8.21013 2.09149 8.16264 2.15208C8.11514 2.21267 8.09146 2.28854 8.09607 2.36539L8.11169 3.39859C8.11264 3.46508 8.09235 3.53013 8.05378 3.5843C8.01521 3.63846 7.96037 3.67891 7.89724 3.69977C7.80739 3.73492 7.61208 3.80953 7.51833 3.84469C7.40896 3.88375 7.28005 3.8525 7.17458 3.73102L6.52966 2.93649C6.48406 2.87519 6.41759 2.83272 6.34281 2.8171C6.26803 2.80148 6.19012 2.8138 6.1238 2.85172L5.72536 3.08258C5.65902 3.12078 5.60915 3.18218 5.58536 3.25494C5.56156 3.3277 5.56551 3.4067 5.59646 3.47672L5.96364 4.44352C5.98688 4.50556 5.98995 4.57336 5.97242 4.63725C5.95488 4.70115 5.91764 4.75788 5.86599 4.79938C5.76833 4.8775 5.67068 4.95992 5.57693 5.04234C5.5274 5.08632 5.46519 5.11342 5.39926 5.11974C5.33333 5.12605 5.2671 5.11126 5.21013 5.0775L4.33669 4.53688C4.27292 4.49491 4.19599 4.47774 4.12043 4.48861C4.04487 4.49948 3.9759 4.53763 3.92654 4.59586L3.63396 4.94742C3.58481 5.00602 3.55885 5.08062 3.56101 5.15707C3.56317 5.23353 3.59329 5.30653 3.64568 5.36227L4.32107 6.14117C4.36498 6.19199 4.39136 6.2556 4.39628 6.32258C4.40121 6.38957 4.38442 6.45635 4.34841 6.51305C4.282 6.61721 4.2195 6.72672 4.16091 6.84156C4.12905 6.90029 4.07945 6.94743 4.01918 6.97627C3.95892 7.0051 3.89108 7.01415 3.82536 7.00211L2.81404 6.8068C2.73953 6.78862 2.66094 6.79848 2.59323 6.8345C2.52553 6.87051 2.47342 6.93017 2.44685 7.00211L2.2906 7.4318C2.26438 7.50385 2.26539 7.58301 2.29345 7.65437C2.32151 7.72574 2.37467 7.78439 2.44294 7.8193L3.34372 8.32047C3.40188 8.35282 3.44809 8.40302 3.47552 8.46366C3.50296 8.52429 3.51016 8.59214 3.49607 8.65719C3.47263 8.78219 3.44919 8.90367 3.42966 9.02867C3.42028 9.0946 3.3903 9.15587 3.34399 9.20372C3.29768 9.25157 3.23743 9.28354 3.17185 9.29508L2.1531 9.45914C2.07729 9.46848 2.00742 9.50496 1.95644 9.56184C1.90545 9.61872 1.87679 9.69214 1.87576 9.76852V10.2263C1.87481 10.3033 1.90279 10.3778 1.95415 10.4351C2.00551 10.4923 2.07651 10.5283 2.1531 10.5357L3.17185 10.6998C3.23763 10.7108 3.29814 10.7427 3.34453 10.7906C3.39092 10.8385 3.42075 10.9001 3.42966 10.9662C3.44919 11.0912 3.46872 11.2166 3.49607 11.3377C3.50929 11.4027 3.50168 11.4702 3.47433 11.5306C3.44699 11.5911 3.40128 11.6414 3.34372 11.6744L2.44177 12.1759C2.3735 12.2108 2.32033 12.2695 2.29228 12.3409C2.26422 12.4122 2.26321 12.4914 2.28943 12.5634L2.44568 12.9931C2.47182 13.0654 2.52384 13.1254 2.59168 13.1614C2.65952 13.1975 2.73834 13.2071 2.81286 13.1884L3.82419 12.9931C3.88994 12.9804 3.95804 12.9891 4.01845 13.018C4.07887 13.0469 4.1284 13.0945 4.15974 13.1537C4.21833 13.263 4.28083 13.3726 4.34724 13.4822C4.3823 13.5392 4.39852 13.6058 4.39362 13.6725C4.38871 13.7393 4.36292 13.8028 4.3199 13.8541L3.6445 14.6337C3.59212 14.6895 3.562 14.7625 3.55984 14.8389C3.55768 14.9154 3.58363 14.99 3.63279 15.0486L3.92536 15.4002C3.97412 15.4593 4.04318 15.4981 4.11903 15.509C4.19488 15.5199 4.27208 15.5021 4.33552 15.4591L5.22185 14.9267C5.27882 14.893 5.34505 14.8782 5.41098 14.8845C5.47691 14.8908 5.53912 14.9179 5.58864 14.9619C5.68239 15.0443 5.78005 15.1263 5.87771 15.2048C5.92965 15.2461 5.96711 15.3028 5.98467 15.3668C6.00223 15.4308 5.99897 15.4987 5.97536 15.5607L5.60818 16.5275C5.57743 16.5977 5.57357 16.6768 5.59734 16.7497C5.62111 16.8226 5.67085 16.8842 5.73708 16.9228L6.13552 17.1537C6.20202 17.1914 6.28005 17.2035 6.35485 17.1876C6.42964 17.1717 6.49601 17.1289 6.54138 17.0673L7.19724 16.2611C7.27927 16.1595 7.41208 16.1166 7.51755 16.1595C7.65036 16.2142 7.74021 16.2455 7.90427 16.3005C7.96741 16.3214 8.02224 16.3619 8.06081 16.416C8.09938 16.4702 8.11967 16.5352 8.11872 16.6017L8.1031 17.6349C8.0985 17.7118 8.12217 17.7876 8.16967 17.8482C8.21716 17.9088 8.28519 17.9499 8.36091 17.9638L8.81364 18.042C8.88943 18.0551 8.9674 18.04 9.03287 17.9997C9.09834 17.9593 9.1468 17.8964 9.16911 17.8228L9.50505 16.8462C9.5266 16.7832 9.56776 16.7286 9.6225 16.6906C9.67725 16.6526 9.74272 16.6331 9.80935 16.6349H10.1922C10.2587 16.6335 10.324 16.6532 10.3786 16.6912C10.4333 16.7291 10.4745 16.7834 10.4965 16.8462L10.8324 17.8228C10.8547 17.8964 10.9032 17.9593 10.9686 17.9997C11.0341 18.04 11.1121 18.0551 11.1879 18.042L11.6406 17.9638C11.7163 17.9499 11.7843 17.9088 11.8318 17.8482C11.8793 17.7876 11.903 17.7118 11.8984 17.6349L11.8828 16.6017C11.8818 16.5352 11.9021 16.4702 11.9407 16.416C11.9793 16.3619 12.0341 16.3214 12.0972 16.3005C12.2613 16.2455 12.3707 16.2025 12.4722 16.1634C12.5738 16.1244 12.6988 16.1244 12.7965 16.2455L13.4605 17.0634C13.5061 17.1252 13.5728 17.168 13.648 17.1837C13.7231 17.1994 13.8014 17.1869 13.8679 17.1486L14.2664 16.9177C14.3331 16.8796 14.3832 16.818 14.407 16.7449C14.4308 16.6719 14.4267 16.5926 14.3953 16.5224L14.0281 15.5556C14.0049 15.4935 14.0018 15.4257 14.0194 15.3617C14.0369 15.2978 14.0741 15.241 14.1258 15.1994C14.2234 15.1212 14.3211 15.0392 14.4148 14.9568C14.4643 14.9128 14.5266 14.8857 14.5925 14.8794C14.6584 14.8731 14.7246 14.8879 14.7816 14.9216L15.6648 15.4556C15.7286 15.4976 15.8055 15.5148 15.8811 15.5039C15.9566 15.493 16.0256 15.4549 16.075 15.3966L16.3675 15.0451C16.4167 14.9865 16.4427 14.9119 16.4405 14.8354C16.4383 14.759 16.4082 14.686 16.3558 14.6302L15.6804 13.8513C15.6365 13.8005 15.6101 13.7369 15.6052 13.6699C15.6003 13.6029 15.6171 13.5361 15.6531 13.4795C15.7195 13.374 15.782 13.2645 15.8406 13.1509C15.8725 13.0922 15.9221 13.0451 15.9823 13.0162C16.0426 12.9874 16.1104 12.9784 16.1761 12.9904L17.1875 13.1857C17.262 13.2039 17.3406 13.194 17.4083 13.158C17.476 13.122 17.5281 13.0623 17.5547 12.9904L17.7109 12.5607C17.7371 12.4886 17.7361 12.4095 17.7081 12.3381C17.68 12.2668 17.6268 12.2081 17.5586 12.1732L16.6566 11.6724C16.5985 11.6401 16.5522 11.5899 16.5248 11.5292C16.4974 11.4686 16.4902 11.4007 16.5043 11.3357C16.5277 11.2107 16.5511 11.0892 16.5707 10.9642C16.58 10.8983 16.61 10.837 16.6563 10.7892C16.7027 10.7413 16.7629 10.7093 16.8285 10.6978L17.8472 10.5337C17.923 10.5244 17.9929 10.4879 18.0439 10.431C18.0949 10.3742 18.1235 10.3008 18.1246 10.2244V9.76578C18.1203 9.69009 18.0895 9.61831 18.0376 9.56309C17.9856 9.50786 17.9159 9.47271 17.8406 9.46383ZM10.0008 4.37516C11.2484 4.37462 12.4607 4.78943 13.4466 5.55415C14.4324 6.31887 15.1356 7.38999 15.4453 8.59859C15.4683 8.69076 15.47 8.78697 15.4503 8.8799C15.4306 8.97283 15.39 9.06005 15.3315 9.13491C15.273 9.20978 15.1982 9.27033 15.1128 9.31196C15.0274 9.35359 14.9336 9.3752 14.8386 9.37516H10.7277C10.6173 9.37517 10.5089 9.34593 10.4134 9.29043C10.318 9.23492 10.2389 9.15512 10.1843 9.05914L8.14919 5.47672C8.1018 5.39343 8.0742 5.30037 8.06851 5.20471C8.06283 5.10905 8.07921 5.01337 8.1164 4.92506C8.15359 4.83675 8.21059 4.75817 8.28299 4.6954C8.3554 4.63262 8.44126 4.58734 8.53396 4.56305C9.01274 4.43743 9.50576 4.37428 10.0008 4.37516ZM4.37575 10.0002C4.37505 9.24699 4.52561 8.50134 4.81851 7.80746C5.1114 7.11357 5.54066 6.48557 6.08083 5.9607C6.14904 5.89318 6.23189 5.84227 6.32294 5.81192C6.414 5.78158 6.51082 5.77261 6.6059 5.78572C6.70098 5.79883 6.79177 5.83366 6.87121 5.88751C6.95066 5.94136 7.01664 6.01279 7.06404 6.09625L9.10466 9.68766C9.15858 9.78206 9.18694 9.8889 9.18694 9.99762C9.18694 10.1063 9.15858 10.2132 9.10466 10.3076L7.04724 13.8896C6.99948 13.9728 6.93319 14.0439 6.85353 14.0974C6.77386 14.1509 6.68295 14.1853 6.58784 14.198C6.49273 14.2107 6.39597 14.2013 6.30507 14.1706C6.21417 14.1399 6.13156 14.0886 6.06364 14.0209C5.52874 13.4968 5.1039 12.8712 4.81405 12.1808C4.5242 11.4904 4.37519 10.749 4.37575 10.0002ZM10.0008 15.6252C9.49716 15.6264 8.99558 15.5614 8.50896 15.4318C8.41629 15.4072 8.33053 15.3615 8.25831 15.2985C8.1861 15.2354 8.12937 15.1565 8.09251 15.068C8.05566 14.9795 8.03966 14.8837 8.04576 14.788C8.05186 14.6923 8.0799 14.5993 8.12771 14.5162L10.1816 10.94C10.2365 10.8449 10.3156 10.7659 10.4108 10.711C10.506 10.6561 10.6139 10.6273 10.7238 10.6275H14.8406C14.9356 10.6275 15.0293 10.6492 15.1146 10.6908C15.2 10.7325 15.2747 10.793 15.3332 10.8679C15.3916 10.9428 15.4322 11.0299 15.4519 11.1229C15.4716 11.2158 15.4699 11.3119 15.4468 11.4041C15.1365 12.6124 14.4328 13.6831 13.4468 14.4474C12.4607 15.2117 11.2483 15.626 10.0008 15.6252Z" fill="black"/>
</svg>
