<svg width="23" height="23" viewBox="0 0 23 23" fill="none" xmlns="http://www.w3.org/2000/svg">
<path d="M9.34375 1.4375V4.3125L7.90625 5.03125L5.75 2.875L2.875 5.75L5.03125 7.90625L4.3125 9.34375H1.4375V13.6562H4.3125L5.03125 15.0938L2.875 17.25L5.75 20.125L7.90625 17.9688L9.34375 18.6875V21.5625H13.6562V18.6875L15.0938 17.9688L17.25 20.125L20.125 17.25L17.9688 15.0938L18.6875 13.6562H21.5625V9.34375H18.6875L17.9688 7.90625L20.125 5.75L17.25 2.875L15.0938 5.03125L13.6562 4.3125V1.4375H9.34375Z" stroke="black" stroke-linecap="round" stroke-linejoin="round"/>
<path d="M11.5 14.375C13.0878 14.375 14.375 13.0878 14.375 11.5C14.375 9.91218 13.0878 8.625 11.5 8.625C9.91218 8.625 8.625 9.91218 8.625 11.5C8.625 13.0878 9.91218 14.375 11.5 14.375Z" stroke="black"/>
</svg>
