<svg width="23" height="21" viewBox="0 0 23 21" fill="none" xmlns="http://www.w3.org/2000/svg">
<path d="M21.2944 10.4997V13.7646C21.2944 14.0532 21.1797 14.33 20.9757 14.5341C20.7716 14.7382 20.4948 14.8528 20.2061 14.8528H2.7936C2.50497 14.8528 2.22817 14.7382 2.02407 14.5341C1.81998 14.33 1.70532 14.0532 1.70532 13.7646V2.88174C1.70532 2.59311 1.81998 2.3163 2.02407 2.11221C2.22817 1.90812 2.50497 1.79346 2.7936 1.79346H12.5881" stroke="white" stroke-width="2" stroke-linecap="round" stroke-linejoin="round"/>
<path d="M6.05835 19.2061H16.9412" stroke="white" stroke-width="2" stroke-linecap="round" stroke-linejoin="round"/>
<path d="M8.23511 14.853V19.2062" stroke="white" stroke-width="2" stroke-linecap="round" stroke-linejoin="round"/>
<path d="M14.7654 14.853V19.2062" stroke="white" stroke-width="2" stroke-linecap="round" stroke-linejoin="round"/>
<path d="M16.9419 1.7937H21.295V6.14683" stroke="white" stroke-width="2" stroke-linecap="round" stroke-linejoin="round"/>
<path d="M15.8533 7.23511L21.2947 1.7937" stroke="white" stroke-width="2" stroke-linecap="round" stroke-linejoin="round"/>
</svg>
