<svg width="20" height="20" viewBox="0 0 20 20" fill="none" xmlns="http://www.w3.org/2000/svg">
<path d="M9.98676 4.37512C6.94223 4.37512 3.81918 6.13723 1.36058 9.66145C1.29041 9.76315 1.25195 9.88337 1.25007 10.0069C1.24819 10.1305 1.28298 10.2518 1.35004 10.3556C3.2391 13.3126 6.32035 15.6251 9.98676 15.6251C13.6133 15.6251 16.7578 13.3056 18.6504 10.3419C18.7159 10.2402 18.7507 10.1217 18.7507 10.0007C18.7507 9.8797 18.7159 9.76125 18.6504 9.6595C16.7536 6.72981 13.586 4.37512 9.98676 4.37512Z" stroke="black" stroke-width="1.5" stroke-linecap="round" stroke-linejoin="round"/>
<path d="M10 13.1249C11.7259 13.1249 13.125 11.7258 13.125 9.99988C13.125 8.27399 11.7259 6.87488 10 6.87488C8.27411 6.87488 6.875 8.27399 6.875 9.99988C6.875 11.7258 8.27411 13.1249 10 13.1249Z" stroke="black" stroke-width="1.5" stroke-miterlimit="10"/>
</svg>
