<svg width="18" height="18" viewBox="0 0 17 18" fill="none" xmlns="http://www.w3.org/2000/svg">
<path d="M3 4H16V14H3V4Z" fill="white"/>
<path d="M8.24613 8.5509C7.73314 8.5509 7.32812 9.0009 7.32812 9.5499C7.32812 10.0989 7.74214 10.5489 8.24613 10.5489C8.75913 10.5489 9.16412 10.0989 9.16412 9.5499C9.17312 9.0009 8.75913 8.5509 8.24613 8.5509ZM11.5311 8.5509C11.0181 8.5509 10.6131 9.0009 10.6131 9.5499C10.6131 10.0989 11.0271 10.5489 11.5311 10.5489C12.0441 10.5489 12.4491 10.0989 12.4491 9.5499C12.4491 9.0009 12.0441 8.5509 11.5311 8.5509Z" fill="#7289DA"/>
<path d="M15.905 1H3.845C2.828 1 2 1.828 2 2.854V15.022C2 16.048 2.828 16.876 3.845 16.876H14.051L13.574 15.211L14.726 16.282L15.815 17.29L17.75 19V2.854C17.75 1.828 16.922 1 15.905 1ZM12.431 12.754C12.431 12.754 12.107 12.367 11.837 12.025C13.016 11.692 13.466 10.954 13.466 10.954C13.097 11.197 12.746 11.368 12.431 11.485C11.981 11.674 11.549 11.8 11.126 11.872C10.262 12.034 9.47 11.989 8.795 11.863C8.282 11.764 7.841 11.62 7.472 11.476C7.265 11.395 7.04 11.296 6.815 11.17C6.788 11.152 6.761 11.143 6.734 11.125C6.716 11.116 6.707 11.107 6.698 11.098C6.536 11.008 6.446 10.945 6.446 10.945C6.446 10.945 6.878 11.665 8.021 12.007C7.751 12.349 7.418 12.754 7.418 12.754C5.429 12.691 4.673 11.386 4.673 11.386C4.673 8.488 5.969 6.139 5.969 6.139C7.265 5.167 8.498 5.194 8.498 5.194L8.588 5.302C6.968 5.77 6.221 6.481 6.221 6.481C6.221 6.481 6.419 6.373 6.752 6.22C7.715 5.797 8.48 5.68 8.795 5.653C8.849 5.644 8.894 5.635 8.948 5.635C9.497 5.563 10.118 5.545 10.766 5.617C11.621 5.716 12.539 5.968 13.475 6.481C13.475 6.481 12.764 5.806 11.234 5.338L11.36 5.194C11.36 5.194 12.593 5.167 13.889 6.139C13.889 6.139 15.185 8.488 15.185 11.386C15.185 11.386 14.42 12.691 12.431 12.754Z" fill="#7289DA"/>
</svg>
