<svg width="18" height="18" viewBox="0 0 18 18" fill="none" xmlns="http://www.w3.org/2000/svg">
<g clip-path="url(#clip0)">
<path d="M17.4512 15.5051C17.4512 16.4168 16.7053 17.1626 15.7937 17.1626H2.53394C1.62233 17.1626 0.876465 16.4168 0.876465 15.5051V2.24536C0.876465 1.33375 1.62233 0.587891 2.53394 0.587891H15.7937C16.7053 0.587891 17.4512 1.33375 17.4512 2.24536V15.5051Z" fill="#1AB7EA"/>
<path d="M14.8268 6.09901C14.7716 7.25924 13.9566 8.86147 12.382 10.8919C10.7522 13.0052 9.37095 14.0687 8.25216 14.0687C7.54773 14.0687 6.96762 13.4195 6.48419 12.135C6.16651 10.9471 5.83501 9.77308 5.51733 8.58522C5.15821 7.30068 4.77147 6.6515 4.3571 6.6515C4.27423 6.6515 3.95654 6.84487 3.41787 7.21781L2.85156 6.48576C3.44549 5.96089 4.02561 5.44983 4.60572 4.92497C5.39302 4.24817 5.98695 3.88905 6.3875 3.84761C7.31293 3.76474 7.89304 4.4001 8.11404 5.7537C8.34885 7.23162 8.51459 8.14323 8.59747 8.50235C8.8599 9.71783 9.16377 10.3394 9.48145 10.3394C9.73007 10.3394 10.103 9.93883 10.6141 9.15153C11.1113 8.36423 11.3875 7.75649 11.4152 7.34212C11.4842 6.66532 11.2218 6.32001 10.6141 6.32001C10.324 6.32001 10.0339 6.38907 9.73007 6.51338C10.324 4.57966 11.4428 3.65424 13.1003 3.70949C14.3157 3.73711 14.8959 4.53822 14.8268 6.09901Z" fill="white"/>
</g>
<defs>
<clipPath id="clip0">
<rect width="16.5747" height="16.5747" fill="white" transform="translate(0.876465 0.587891)"/>
</clipPath>
</defs>
</svg>