<svg width="20" height="14" viewBox="0 0 20 14" fill="none" xmlns="http://www.w3.org/2000/svg">
<path d="M18.9217 2.40873C18.7088 1.61354 18.0855 0.986564 17.2949 0.772474C15.8505 0.374878 10.073 0.374878 10.073 0.374878C10.073 0.374878 4.29552 0.374878 2.85115 0.757182C2.07575 0.971272 1.43719 1.61354 1.22434 2.40873C0.844238 3.86149 0.844238 6.87404 0.844238 6.87404C0.844238 6.87404 0.844238 9.90188 1.22434 11.3393C1.43719 12.1345 2.06055 12.7615 2.85115 12.9756C4.31073 13.3732 10.073 13.3732 10.073 13.3732C10.073 13.3732 15.8505 13.3732 17.2949 12.9909C18.0855 12.7768 18.7088 12.1498 18.9217 11.3546C19.3018 9.90188 19.3018 6.88933 19.3018 6.88933C19.3018 6.88933 19.317 3.86149 18.9217 2.40873Z" fill="#FF0000"/>
<path d="M13.0373 6.87533L8.23291 4.09216V9.6585L13.0373 6.87533Z" fill="white"/>
</svg>