<svg width="18" height="18" viewBox="0 0 17 18" fill="none" xmlns="http://www.w3.org/2000/svg">
<path d="M6.26748 7.51892C5.78729 7.51892 5.4082 7.94013 5.4082 8.45401C5.4082 8.96789 5.79572 9.38911 6.26748 9.38911C6.74766 9.38911 7.12675 8.96789 7.12675 8.45401C7.13517 7.94013 6.74766 7.51892 6.26748 7.51892ZM9.34233 7.51892C8.86215 7.51892 8.48305 7.94013 8.48305 8.45401C8.48305 8.96789 8.87057 9.38911 9.34233 9.38911C9.82251 9.38911 10.2016 8.96789 10.2016 8.45401C10.2016 7.94013 9.82251 7.51892 9.34233 7.51892Z" fill="#7289DA"/>
<path d="M13.4364 0.450989H2.14787C1.19593 0.450989 0.420898 1.22602 0.420898 2.18639V13.576C0.420898 14.5363 1.19593 15.3114 2.14787 15.3114H11.701L11.2545 13.7529L12.3328 14.7554L13.3521 15.6989L15.1633 17.2995V2.18639C15.1633 1.22602 14.3883 0.450989 13.4364 0.450989ZM10.1846 11.4531C10.1846 11.4531 9.88134 11.0908 9.62861 10.7707C10.7322 10.459 11.1534 9.76822 11.1534 9.76822C10.808 9.99567 10.4795 10.1557 10.1846 10.2652C9.7634 10.4422 9.35903 10.5601 8.96309 10.6275C8.15437 10.7791 7.41303 10.737 6.78121 10.6191C6.30103 10.5264 5.88824 10.3916 5.54285 10.2568C5.34909 10.181 5.13848 10.0883 4.92788 9.9704C4.9026 9.95355 4.87733 9.94513 4.85206 9.92828C4.83521 9.91985 4.82678 9.91143 4.81836 9.903C4.66672 9.81876 4.58248 9.75979 4.58248 9.75979C4.58248 9.75979 4.98685 10.4337 6.05673 10.7539C5.804 11.074 5.4923 11.4531 5.4923 11.4531C3.63054 11.3941 2.9229 10.1726 2.9229 10.1726C2.9229 7.45997 4.136 5.26124 4.136 5.26124C5.34909 4.35142 6.50321 4.37669 6.50321 4.37669L6.58745 4.47778C5.07109 4.91584 4.37188 5.58136 4.37188 5.58136C4.37188 5.58136 4.55721 5.48027 4.86891 5.33706C5.7703 4.94112 6.48636 4.8316 6.78121 4.80633C6.83176 4.7979 6.87388 4.78948 6.92442 4.78948C7.4383 4.72209 8.01958 4.70524 8.62612 4.77263C9.42643 4.8653 10.2857 5.10118 11.1618 5.58136C11.1618 5.58136 10.4963 4.94954 9.06419 4.51148L9.18213 4.37669C9.18213 4.37669 10.3362 4.35142 11.5493 5.26124C11.5493 5.26124 12.7624 7.45997 12.7624 10.1726C12.7624 10.1726 12.0464 11.3941 10.1846 11.4531Z" fill="#7289DA"/>
</svg>