<svg width="17" height="17" viewBox="0 0 20 20" fill="none" xmlns="http://www.w3.org/2000/svg">
<path d="M17.5 20H2.5C1.12 20 0 18.88 0 17.5V2.5C0 1.12 1.12 0 2.5 0H17.5C18.88 0 20 1.12 20 2.5V17.5C20 18.88 18.88 20 17.5 20Z" fill="#1D9BF0"/>
<path d="M7.68013 15.0799C12.3951 15.0799 14.9751 11.1699 14.9751 7.78492C14.9751 7.67492 14.9751 7.56492 14.9701 7.45492C15.4701 7.09492 15.9051 6.63992 16.2501 6.12492C15.7901 6.32992 15.2951 6.46492 14.7751 6.52992C15.3051 6.21492 15.7101 5.70992 15.9051 5.10992C15.4101 5.40492 14.8601 5.61492 14.2751 5.72992C13.8051 5.22992 13.1401 4.91992 12.4051 4.91992C10.9901 4.91992 9.84013 6.06992 9.84013 7.48492C9.84013 7.68492 9.86513 7.87992 9.90513 8.06992C7.77513 7.96492 5.88513 6.93992 4.62013 5.38992C4.40013 5.76992 4.27513 6.20992 4.27513 6.67992C4.27513 7.56992 4.73013 8.35492 5.41513 8.81492C4.99513 8.79992 4.60013 8.68492 4.25513 8.49492C4.25513 8.50492 4.25513 8.51492 4.25513 8.52992C4.25513 9.76992 5.14013 10.8099 6.31013 11.0449C6.09513 11.1049 5.87013 11.1349 5.63513 11.1349C5.47013 11.1349 5.31013 11.1199 5.15513 11.0899C5.48013 12.1099 6.43013 12.8499 7.55013 12.8699C6.67013 13.5599 5.56513 13.9699 4.36513 13.9699C4.16013 13.9699 3.95513 13.9599 3.75513 13.9349C4.88513 14.6549 6.23513 15.0799 7.68013 15.0799Z" fill="white"/>
</svg>