<svg width="20" height="20" viewBox="0 0 20 20" fill="none" xmlns="http://www.w3.org/2000/svg">
<path d="M15.3907 18.7495C15.2591 18.75 15.1308 18.709 15.0239 18.6323L10.0001 14.9901L4.97624 18.6323C4.86891 18.7102 4.7396 18.7519 4.60701 18.7514C4.47442 18.7509 4.34542 18.7083 4.23866 18.6296C4.1319 18.551 4.05291 18.4405 4.0131 18.314C3.9733 18.1875 3.97476 18.0517 4.01725 17.9261L5.97663 12.1225L0.898504 8.64012C0.788508 8.56477 0.70549 8.45623 0.661579 8.33034C0.617668 8.20445 0.615165 8.06782 0.654436 7.9404C0.693707 7.81299 0.772694 7.70147 0.879856 7.62215C0.987018 7.54282 1.11674 7.49985 1.25007 7.4995H7.51491L9.40553 1.68114C9.44626 1.55552 9.52573 1.44603 9.63254 1.36838C9.73935 1.29073 9.86801 1.2489 10.0001 1.2489C10.1321 1.2489 10.2608 1.29073 10.3676 1.36838C10.4744 1.44603 10.5539 1.55552 10.5946 1.68114L12.4852 7.50145H18.7501C18.8836 7.50138 19.0136 7.54406 19.121 7.62324C19.2285 7.70241 19.3078 7.81392 19.3474 7.94143C19.3869 8.06894 19.3845 8.20575 19.3407 8.33183C19.2968 8.45791 19.2137 8.56663 19.1036 8.64207L14.0235 12.1225L15.9817 17.9245C16.0134 18.0184 16.0224 18.1186 16.0077 18.2166C15.9931 18.3147 15.9554 18.4079 15.8976 18.4885C15.8399 18.5691 15.7638 18.6348 15.6757 18.6802C15.5875 18.7256 15.4898 18.7493 15.3907 18.7495Z" fill="black"/>
</svg>
