<svg width="24" height="24" viewBox="0 0 24 24" fill="none" xmlns="http://www.w3.org/2000/svg">
<path d="M20.8581 9.52654C20.8305 9.98559 20.7103 10.4345 20.5047 10.8467C20.299 11.2588 20.012 11.6259 19.6606 11.9262L16.9653
14.2163L17.4659 14.7961L20.17 12.4979C20.599 12.1303 20.949 11.6809 21.1993 11.1765C21.4496 10.6721 21.595 10.1229 21.627 9.56166C21.6372 8.88015 
21.4961 8.20474 21.2137 7.58332C20.9312 6.9619 20.5143 6.40969 19.9925 5.96582L19.4746 6.5288C19.9155 6.89512 20.2684 7.35427 20.5078 7.87284C20.7471
8.39141 20.8668 8.95635 20.8581 9.52654Z" fill="black"  />
<path d="M23.2124 19.9185L19.362 17.2467C19.2941 17.2 19.2128 17.1761 19.1302 17.1787C19.0475 17.1814 18.9679 17.2103 18.9031 17.2612C18.8383 17.3122 18.7918 17.3824 18.7704 17.4616C18.7491 17.5408 18.754 17.6247 18.7845 17.7009C19.0724 18.4053 19.306 19.1303 19.4833 19.8697C18.6478 19.982 17.8431 20.258 17.1161 20.6815C16.6683 20.9033 16.1608 21.1548 15.5336 21.4033C11.5242 22.9937 7.61454 22.8693 3.91279 21.0346C3.11153 20.6376 2.16626 20.0128 2.21246 19.291C2.28138 18.2063 4.48419 17.0185 5.98314 16.4639L11.5739 21.2827C11.6439 21.343 11.7336 21.3763 11.8265 21.3763C11.9193 21.3763 12.009 21.343 12.0791 21.2827L20.9411 13.6429C21.5537 13.1053 22.0442 12.4449 22.3801 11.7054C22.716 10.9659 22.8897 10.1642 22.8897 9.35315C22.8897 8.54213 22.716 7.74036 22.3801 7.00086C22.0442 6.26135 21.5537 5.60098 20.9411 5.06341C20.9176 5.04204 20.8918 5.02524 20.8683 5.00387C21.0281 3.55945 20.6592 2.10618 19.8287 0.908788C19.7823 0.851257 19.72 0.808287 19.6494 0.785067C19.5789 0.761847 19.5031 0.759371 19.4311 0.777936C19.3592 0.796502 19.2942 0.835316 19.244 0.889691C19.1938 0.944067 19.1606 1.01168 19.1483 1.08436C18.9558 2.22521 17.9736 2.94927 17.1435 3.36912C16.2028 3.24768 15.247 3.31546 14.3333 3.5684C13.4197 3.82134 12.5668 4.25425 11.8257 4.84127C11.0851 4.25485 10.2329 3.82227 9.32002 3.56935C8.40712 3.31642 7.4522 3.24833 6.51218 3.36912C5.68204 2.94927 4.69865 2.22407 4.50652 1.08436C4.49426 1.01168 4.46103 0.944067 4.41086 0.889691C4.36068 0.835316 4.2957 0.796502 4.22376 0.777936C4.15181 0.759371 4.07599 0.761847 4.00543 0.785067C3.93488 0.808287 3.87261 0.851257 3.82616 0.908788C2.9957 2.10618 2.62676 3.55945 2.78655 5.00387C2.76307 5.02448 2.73727 5.04204 2.71378 5.06341C2.10062 5.6015 1.60981 6.26261 1.27387 7.00293C0.937926 7.74325 0.764519 8.54589 0.765138 9.35767C0.765757 10.1694 0.940388 10.9718 1.27746 11.7116C1.61453 12.4515 2.10635 13.1118 2.72033 13.649L5.3305 15.899C4.10993 16.3952 1.5502 17.6265 1.44662 19.2426C1.38771 20.1586 2.10119 20.9895 3.57126 21.7178C5.56887 22.7321 7.77932 23.266 10.0237 23.2762C12.0129 23.2595 13.9804 22.8645 15.8193 22.1124C16.4739 21.8518 16.9987 21.5926 17.4596 21.3643C18.0809 21.0035 18.7633 20.7578 19.4733 20.6391C19.2951 21.3617 19.0647 22.0705 18.7837 22.7602C18.7532 22.8364 18.7483 22.9203 18.7697 22.9995C18.791 23.0787 18.8375 23.1489 18.9023 23.1999C18.9671 23.2508 19.0467 23.2798 19.1294 23.2824C19.212 23.285 19.2933 23.2611 19.3613 23.2144L23.2116 20.5426C23.2623 20.5074 23.3037 20.4606 23.3323 20.4062C23.3608 20.3518 23.3758 20.2913 23.3758 20.23C23.3758 20.1686 23.3608 20.1082 23.3323 20.0538C23.3037 19.9994 23.2623 19.9526 23.2116 19.9174L23.2124 19.9185ZM19.6246 2.08094C19.9581 2.8239 20.1277 3.62887 20.1221 4.44203C19.5485 4.06774 18.9213 3.78119 18.2616 3.59202C18.8369 3.20997 19.3057 2.69024 19.6246 2.08094ZM4.02676 2.08094C4.34589 2.69022 4.81481 3.20993 5.39018 3.59202C4.7304 3.78127 4.10309 4.06781 3.52929 4.44203C3.52361 3.62886 3.69321 2.82387 4.02676 2.08094ZM3.22896 13.0788C2.69549 12.6128 2.2682 12.0395 1.97552 11.3971C1.68283 10.7548 1.53146 10.058 1.53146 9.35315C1.53146 8.6483 1.68283 7.95152 1.97552 7.30915C2.2682 6.66678 2.69549 6.09354 3.22896 5.62754C4.37487 4.61255 5.8611 4.05709 7.39777 4.06951C8.9343 4.05718 10.4204 4.61263 11.5662 5.62754C11.6371 5.6917 11.7297 5.72726 11.8257 5.72726C11.9217 5.72726 12.0143 5.6917 12.0852 5.62754C13.2377 4.62359 14.7194 4.06989 16.2536 4.06989C17.7879 4.06989 19.2696 4.62359 20.4221 5.62754C20.955 6.093 21.382 6.66549 21.6747 7.30702C21.9674 7.94855 22.1191 8.64445 22.1197 9.34855C22.1204 10.0526 21.97 10.7488 21.6785 11.3909C21.387 12.033 20.9611 12.6062 20.429 13.0727L11.8257 20.4888L3.22896 13.0788ZM19.918 21.8979C20.1178 21.3613 20.245 20.8008 20.2965 20.2311C20.245 19.6614 20.1178 19.101 19.918 18.5643L22.3203 20.2311L19.918 21.8979Z" fill="black"  />
<path d="M10.3627 6.71946L10.9787 6.26144C10.9267 6.19312 9.67537 4.58203 6.82031 4.58203V5.3454C9.27108 5.3454 10.3203 6.66488 10.3627 6.71946Z" fill="black"  />
<path d="M11.2071 9.19201L5.81658 6.90191C5.74876 6.87312 5.67401 6.86425 5.60124 6.87636C5.52848 6.88848 5.46075 6.92106 5.40613 6.97024C4.60256 7.69353 4.50977 8.78514 4.50977 9.54278C4.50915 10.4538 4.87366 11.3278 5.52311 11.9725C6.17255 12.6171 7.05373 12.9796 7.97279 12.9802C8.89186 12.9808 9.77353 12.6195 10.4238 11.9757C11.0741 11.3319 11.4398 10.4584 11.4404 9.54736C11.4413 9.4719 11.4197 9.39787 11.3781 9.33462C11.3366 9.27137 11.2771 9.22174 11.2071 9.19201ZM7.97511 12.2146C7.26053 12.2138 6.57545 11.932 6.07017 11.4311C5.56488 10.9302 5.28066 10.2511 5.27984 9.54278C5.27984 8.68705 5.42885 8.10803 5.75844 7.70765L10.6557 9.78858C10.5883 10.4491 10.2776 11.0617 9.78301 11.5093C9.28844 11.9569 8.64475 12.208 7.97511 12.2146Z" fill="black"  />
<path d="M15.6758 12.9779C16.5946 12.9769 17.4754 12.6147 18.1251 11.9707C18.7747 11.3267 19.1401 10.4535 19.1412 9.54278C19.1412 8.78514 19.0484 7.69353 18.2448 6.97024C18.1902 6.92106 18.1224 6.88848 18.0497 6.87636C17.9769 6.86425 17.9022 6.87312 17.8343 6.90191L12.4438 9.19201C12.3738 9.22174 12.3143 9.27137 12.2728 9.33462C12.2313 9.39787 12.2096 9.4719 12.2105 9.54736C12.2199 10.4551 12.5882 11.3229 13.2362 11.9644C13.8841 12.6059 14.7601 12.9698 15.6758 12.9779ZM17.8925 7.70765C18.2221 8.10803 18.3711 8.68705 18.3711 9.54278C18.3632 10.2247 18.0926 10.8779 17.6146 11.3685C17.1366 11.859 16.4875 12.1498 15.8002 12.1812C15.1129 12.2126 14.4395 11.9823 13.918 11.5375C13.3965 11.0926 13.0663 10.4669 12.9952 9.78859L17.8925 7.70765Z" fill="black"  />
<path d="M4.12554 7.25391H3.35547V8.01727H4.12554V7.25391Z" fill="black"  />
<path d="M2.96978 8.78027H2.19971V9.54364H2.96978V8.78027Z" fill="black"  />
<path d="M16.5593 14.6164L16.1743 14.998L16.7188 15.5378L17.1038 15.1562L16.5593 14.6164Z"   fill="black"/>
</svg>
