<svg width="20" height="20" viewBox="0 0 20 20" fill="none" xmlns="http://www.w3.org/2000/svg">
<path d="M16.25 8.64319V16.2506C16.25 16.7479 16.0525 17.2248 15.7008 17.5764C15.3492 17.9281 14.8723 18.1256 14.375 18.1256H5.625C5.12772 18.1256 4.65081 17.9281 4.29917 17.5764C3.94754 17.2248 3.75 16.7479 3.75 16.2506V3.75061C3.75 3.25333 3.94754 2.77642 4.29917 2.42479C4.65081 2.07315 5.12772 1.87561 5.625 1.87561H9.48242C9.81383 1.87566 10.1316 2.00731 10.366 2.24163L15.884 7.75959C16.1183 7.99396 16.2499 8.31178 16.25 8.64319Z" stroke="black" stroke-width="1.5" stroke-linejoin="round"/>
<path d="M10 2.18823V6.87573C10 7.20725 10.1317 7.52519 10.3661 7.75961C10.6005 7.99404 10.9185 8.12573 11.25 8.12573H15.9375" stroke="black" stroke-width="1.5" stroke-linecap="round" stroke-linejoin="round"/>
<path d="M6.875 11.2505H13.125" stroke="black" stroke-width="1.5" stroke-linecap="round" stroke-linejoin="round"/>
<path d="M6.875 14.3757H13.125" stroke="black" stroke-width="1.5" stroke-linecap="round" stroke-linejoin="round"/>
</svg>
