<?xml version="1.0" encoding="UTF-8"?>
<svg xmlns="http://www.w3.org/2000/svg" xmlns:xlink="http://www.w3.org/1999/xlink" width="20px" height="20px" viewBox="0 0 20 20" version="1.1">
<g id="surface1">
<path stroke="black" stroke-width="1.0" d="M 14.167969 16.667969 L 2.082031 16.667969 C 0.933594 16.664062 0 15.734375 0 14.582031 L 0 2.082031 C 0 0.933594 0.933594 0 2.082031 0 L 8.75 0 C 8.929688 0 9.085938 0.113281 9.144531 0.28125 L 14.5625 16.113281 C 14.605469 16.242188 14.582031 16.382812 14.503906 16.492188 C 14.425781 16.601562 14.300781 16.664062 14.167969 16.667969 Z M 2.082031 0.832031 C 1.394531 0.832031 0.832031 1.394531 0.832031 2.082031 L 0.832031 14.582031 C 0.832031 15.273438 1.394531 15.832031 2.082031 15.832031 L 13.582031 15.832031 L 8.453125 0.832031 Z M 2.082031 0.832031 "/>
<path stroke="black" stroke-width="1.0" d="M 17.917969 20 L 11.25 20 C 11.078125 20 10.921875 19.890625 10.859375 19.730469 L 9.609375 16.398438 C 9.527344 16.179688 9.636719 15.941406 9.851562 15.859375 C 10.070312 15.777344 10.308594 15.886719 10.390625 16.101562 L 11.539062 19.167969 L 17.917969 19.167969 C 18.605469 19.167969 19.167969 18.605469 19.167969 17.917969 L 19.167969 5.417969 C 19.167969 4.726562 18.605469 4.167969 17.917969 4.167969 L 10 4.167969 C 9.769531 4.167969 9.582031 3.980469 9.582031 3.75 C 9.582031 3.519531 9.769531 3.332031 10 3.332031 L 17.917969 3.332031 C 19.066406 3.332031 20 4.269531 20 5.417969 L 20 17.917969 C 20 19.066406 19.066406 20 17.917969 20 Z M 17.917969 20 "/>
<path stroke="black" stroke-width="1.0" d="M 11.25 20 C 11.085938 20 10.9375 19.90625 10.871094 19.753906 C 10.800781 19.605469 10.828125 19.429688 10.9375 19.308594 L 13.851562 15.976562 C 14.003906 15.800781 14.269531 15.785156 14.441406 15.9375 C 14.613281 16.085938 14.632812 16.351562 14.480469 16.523438 L 11.5625 19.859375 C 11.484375 19.949219 11.371094 20 11.25 20 Z M 7.917969 11.667969 C 7.742188 11.667969 7.582031 11.554688 7.523438 11.390625 L 5.832031 6.65625 L 4.140625 11.390625 C 4.066406 11.605469 3.828125 11.71875 3.609375 11.640625 C 3.394531 11.566406 3.28125 11.328125 3.359375 11.109375 L 5.441406 5.277344 C 5.558594 4.945312 6.109375 4.945312 6.226562 5.277344 L 8.308594 11.109375 C 8.355469 11.238281 8.335938 11.378906 8.257812 11.488281 C 8.179688 11.601562 8.050781 11.667969 7.917969 11.667969 Z M 7.917969 11.667969 "/>
<path stroke="black" stroke-width="1.0" d="M 6.667969 9.167969 L 5 9.167969 C 4.769531 9.167969 4.582031 8.980469 4.582031 8.75 C 4.582031 8.519531 4.769531 8.332031 5 8.332031 L 6.667969 8.332031 C 6.898438 8.332031 7.082031 8.519531 7.082031 8.75 C 7.082031 8.980469 6.898438 9.167969 6.667969 9.167969 Z M 17.917969 9.167969 L 12.082031 9.167969 C 11.851562 9.167969 11.667969 8.980469 11.667969 8.75 C 11.667969 8.519531 11.851562 8.332031 12.082031 8.332031 L 17.917969 8.332031 C 18.148438 8.332031 18.332031 8.519531 18.332031 8.75 C 18.332031 8.980469 18.148438 9.167969 17.917969 9.167969 Z M 17.917969 9.167969 "/>
<path stroke="black" stroke-width="1.0" d="M 14.582031 9.167969 C 14.351562 9.167969 14.167969 8.980469 14.167969 8.75 L 14.167969 7.917969 C 14.167969 7.6875 14.351562 7.5 14.582031 7.5 C 14.8125 7.5 15 7.6875 15 7.917969 L 15 8.75 C 15 8.980469 14.8125 9.167969 14.582031 9.167969 Z M 13.332031 14.167969 C 13.152344 14.167969 12.988281 14.050781 12.933594 13.878906 C 12.878906 13.703125 12.941406 13.515625 13.089844 13.410156 C 14.914062 12.113281 16.25 9.472656 16.25 8.75 C 16.25 8.519531 16.4375 8.335938 16.667969 8.335938 C 16.898438 8.335938 17.082031 8.519531 17.082031 8.75 C 17.082031 9.847656 15.476562 12.738281 13.574219 14.089844 C 13.503906 14.140625 13.417969 14.167969 13.332031 14.167969 Z M 13.332031 14.167969 "/>
<path stroke="black" stroke-width="1.0" d="M 16.667969 15 C 16.5625 15 16.460938 14.960938 16.386719 14.890625 C 16.082031 14.613281 13.421875 12.15625 12.949219 10.988281 C 12.871094 10.777344 12.972656 10.542969 13.183594 10.460938 C 13.390625 10.375 13.628906 10.472656 13.71875 10.675781 C 14.058594 11.515625 16.164062 13.558594 16.949219 14.277344 C 17.074219 14.390625 17.117188 14.574219 17.054688 14.734375 C 16.992188 14.894531 16.839844 15 16.667969 15 Z M 16.667969 15 "/>
</g>
</svg>
