<svg width="20" height="18" viewBox="0 0 20 18" fill="none" xmlns="http://www.w3.org/2000/svg">
<path d="M17.9525 4.85456C17.9647 5.04445 17.9647 5.23435 17.9647 5.42599C17.9647 11.2654 13.8371 18 6.28966 18V17.9965C4.06013 18 1.8769 17.3122 0 16.0153C0.324193 16.0573 0.65001 16.0783 0.97664 16.0792C2.82429 16.081 4.61913 15.4133 6.07272 14.1838C4.31688 14.1479 2.77717 12.9149 2.23928 11.1149C2.85436 11.2426 3.48812 11.2164 4.09181 11.0387C2.17753 10.6222 0.800325 8.81079 0.800325 6.7071C0.800325 6.68785 0.800325 6.66948 0.800325 6.6511C1.37071 6.99326 2.00934 7.18315 2.6626 7.20415C0.859638 5.90641 0.30388 3.32317 1.39265 1.30349C3.47593 4.06437 6.54967 5.74277 9.84928 5.92041C9.51859 4.38552 9.97034 2.77713 11.0364 1.69815C12.689 0.0250014 15.2882 0.110759 16.8418 1.88979C17.7607 1.69465 18.6415 1.33149 19.4475 0.816948C19.1412 1.83992 18.5001 2.70887 17.6437 3.26104C18.457 3.15778 19.2517 2.92326 20 2.56536C19.4491 3.45444 18.7552 4.22888 17.9525 4.85456Z" fill="white"/>
</svg>
