<svg width="20" height="20" viewBox="0 0 20 20" fill="none" xmlns="http://www.w3.org/2000/svg">
<g clip-path="url(#clip0)">
<path d="M 13.570312 5 C 13.570312 3.273438 11.972656 1.875 10 1.875 C 8.027344 1.875 6.429688 3.273438 6.429688 5 C 6.429688 6.726562 8.027344 8.125 10 8.125 C 11.972656 8.125 13.570312 6.726562 13.570312 5 Z M 4.285156 5 C 4.285156 2.238281 6.84375 0 10 0 C 13.15625 0 15.714844 2.238281 15.714844 5 C 15.714844 7.761719 13.15625 10 10 10 C 6.84375 10 4.285156 7.761719 4.285156 5 Z M 2.199219 18.125 L 17.800781 18.125 C 17.402344 15.652344 14.972656 13.75 12.039062 13.75 L 7.960938 13.75 C 5.027344 13.75 2.597656 15.652344 2.199219 18.125 Z M 0 18.839844 C 0 14.992188 3.5625 11.875 7.960938 11.875 L 12.039062 11.875 C 16.4375 11.875 20 14.992188 20 18.839844 C 20 19.480469 19.40625 20 18.675781 20 L 1.324219 20 C 0.59375 20 0 19.480469 0 18.839844 Z M 0 18.839844" stroke="black" stroke-width="0.25" stroke-miterlimit="10" fill="black"/>
</g>
<defs>
<clipPath id="clip0">
<rect width="20" height="20" fill="white"/>
</clipPath>
</defs>
</svg>
