<svg width="20" height="20" viewBox="0 0 24 24" fill="none" xmlns="http://www.w3.org/2000/svg">
<g clip-path="url(#clip0_906_343)">
<path d="M1 1L23 23" stroke="black" stroke-width="2" stroke-linecap="round" stroke-linejoin="round"/>
<path fill-rule="evenodd" clip-rule="evenodd" d="M3.65755 6.48598C2.58444 8.10961 2 10.0247 2 12V14V18V19C2 19.7957 2.31607 20.5587 2.87868 21.1213C3.44129 21.6839 4.20435 22 5 22H6C6.79565 22 7.55871 21.6839 8.12132 21.1213C8.68393 20.5587 9 19.7957 9 19V16C9 15.2044 8.68393 14.4413 8.12132 13.8787C7.55871 13.3161 6.79565 13 6 13H4V12C4 10.5588 4.38889 9.15769 5.10854 7.93697L3.65755 6.48598ZM16.3337 13.5053C16.8234 13.1782 17.4025 13 18 13H20V12C20 9.87827 19.1571 7.84344 17.6569 6.34315C16.1566 4.84285 14.1217 4 12 4C10.5588 4 9.15769 4.38889 7.93697 5.10854L6.48598 3.65755C8.10961 2.58444 10.0247 2 12 2C14.6522 2 17.1957 3.05357 19.0711 4.92893C20.9464 6.8043 22 9.34784 22 12V14V18V19C22 19.0558 21.9984 19.1115 21.9954 19.1669L16.3337 13.5053ZM15 17.8284V19C15 19.7957 15.3161 20.5587 15.8787 21.1213C16.4413 21.6839 17.2043 22 18 22H19C19.0558 22 19.1115 21.9984 19.1669 21.9954L15 17.8284Z" fill="black"/>
</g>
<defs>
<clipPath id="clip0_906_343">
<rect width="24" height="24" fill="white"/>
</clipPath>
</defs>
</svg>
