<svg width="23" height="17" viewBox="0 0 23 17" fill="none" xmlns="http://www.w3.org/2000/svg">
<path d="M21.25 17C21.25 17 22.6667 17 22.6667 15.5833C22.6667 14.1667 21.25 9.91667 15.5833 9.91667C9.91667 9.91667 8.5 14.1667 8.5 15.5833C8.5 17 9.91667 17 9.91667 17H21.25ZM9.94783 
15.5833C9.93737 15.5819 9.92697 15.58 9.91667 15.5777C9.91808 15.2037 10.1532 14.1185 10.9933 13.141C11.7753 12.2244 13.1495 11.3333 15.5833 11.3333C18.0157 11.3333 19.3899 12.2258 20.1733
 13.141C21.0134 14.1185 21.2472 15.2051 21.25 15.5777L21.2387 15.5805C21.2321 15.5816 21.2255 15.5826 21.2188 15.5833H9.94783ZM15.5833 7.08333C16.3348 7.08333 17.0554 6.78482 17.5868 6.25347C18.1182
  5.72212 18.4167 5.00145 18.4167 4.25C18.4167 3.49855 18.1182 2.77788 17.5868 2.24653C17.0554 1.71518 16.3348 1.41667 15.5833 1.41667C14.8319 1.41667 14.1112 1.71518 13.5799 2.24653C13.0485 2.77788 
  12.75 3.49855 12.75 4.25C12.75 5.00145 13.0485 5.72212 13.5799 6.25347C14.1112 6.78482 14.8319 7.08333 15.5833 7.08333ZM19.8333 4.25C19.8333 4.80812 19.7234 5.36077 19.5098 5.8764C19.2962 6.39204 
  18.9832 6.86055 18.5885 7.2552C18.1939 7.64985 17.7254 7.96291 17.2097 8.17649C16.6941 8.39007 16.1415 8.5 15.5833 8.5C15.0252 8.5 14.4726 8.39007 13.9569 8.17649C13.4413 7.96291 12.9728 7.64985
   12.5781 7.2552C12.1835 6.86055 11.8704 6.39204 11.6568 5.8764C11.4433 5.36077 11.3333 4.80812 11.3333 4.25C11.3333 3.12283 11.7811 2.04183 12.5781 1.2448C13.3752 0.447767 14.4562 0 15.5833 
   0C16.7105 0 17.7915 0.447767 18.5885 1.2448C19.3856 2.04183 19.8333 3.12283 19.8333 4.25ZM9.826 10.3133C9.25931 10.1349 8.67515 10.0176 8.0835 9.96342C7.75105 9.9318 7.41728 9.9162 7.08333
    9.91667C1.41667 9.91667 0 14.1667 0 15.5833C0 16.5282 0.47175 17 1.41667 17H7.38933C7.17932 16.5577 7.07458 16.0728 7.08333 15.5833C7.08333 14.1525 7.61742 12.6905 8.6275 11.4693C8.97175 
    11.0528 9.37267 10.6632 9.826 10.3133ZM6.97 11.3333C6.13155 12.5931 5.67862 14.0701 5.66667 15.5833H1.41667C1.41667 15.215 1.649 14.1242 2.49333 13.141C3.26542 12.24 4.607 11.3617 6.97 
    11.3348V11.3333ZM2.125 4.95833C2.125 3.83116 2.57277 2.75016 3.3698 1.95313C4.16683 1.1561 5.24783 0.708333 6.375 0.708333C7.50217 0.708333 8.58317 1.1561 9.3802 1.95313C10.1772 2.75016 
    10.625 3.83116 10.625 4.95833C10.625 6.0855 10.1772 7.16651 9.3802 7.96354C8.58317 8.76057 7.50217 9.20833 6.375 9.20833C5.24783 9.20833 4.16683 8.76057 3.3698 7.96354C2.57277 7.16651
     2.125 6.0855 2.125 4.95833ZM6.375 2.125C5.62355 2.125 4.90288 2.42351 4.37153 2.95486C3.84018 3.48622 3.54167 4.20689 3.54167 4.95833C3.54167 5.70978 3.84018 6.43045 4.37153 6.9618C4.90288 
     7.49316 5.62355 7.79167 6.375 7.79167C7.12645 7.79167 7.84712 7.49316 8.37847 6.9618C8.90982 6.43045 9.20833 5.70978 9.20833 4.95833C9.20833 4.20689 8.90982 3.48622 8.37847 2.95486C7.84712 
     2.42351 7.12645 2.125 6.375 2.125Z" fill="white"/>
</svg>
