<svg width="20" height="20" viewBox="0 0 20 20" fill="none" xmlns="http://www.w3.org/2000/svg">
<path d="M14.6402 12.0614L17.8711 14.3356C17.9662 14.3779 18.0705 14.3958 18.1743 14.3876C18.2781 14.3794 18.3782 14.3454 18.4655 14.2886C18.5529 14.2319 18.6246 14.1542 18.6743 14.0627C18.724 13.9712 18.75 13.8687 18.75 13.7645V6.23486C18.75 6.13072 18.724 6.02823 18.6743 5.93671C18.6246 5.84518 18.5529 5.76752 18.4655 5.71078C18.3782 5.65404 18.2781 5.62002 18.1743 5.61181C18.0705 5.6036 17.9662 5.62146 17.8711 5.66376L14.6402 7.93798C14.5583 7.99565 14.4914 8.07217 14.4453 8.16109C14.3991 8.25001 14.375 8.34873 14.375 8.44892V11.5505C14.375 11.6507 14.3991 11.7494 14.4453 11.8383C14.4914 11.9272 14.5583 12.0037 14.6402 12.0614Z" stroke="black" stroke-width="1.5" stroke-linecap="round" stroke-linejoin="round"/>
<path d="M10.4687 14.9985H3.28125C2.743 14.997 2.22725 14.7825 1.84665 14.4019C1.46605 14.0213 1.25155 13.5055 1.25 12.9673V7.02979C1.25155 6.49154 1.46605 5.97578 1.84665 5.59518C2.22725 5.21458 2.743 5.00008 3.28125 4.99854H10.4875C11.0207 5.00018 11.5317 5.21274 11.9087 5.5898C12.2858 5.96686 12.4983 6.47779 12.5 7.01104V12.9673C12.4985 13.5055 12.2839 14.0213 11.9034 14.4019C11.5228 14.7825 11.007 14.997 10.4687 14.9985Z" stroke="black" stroke-width="1.5" stroke-miterlimit="10"/>
</svg>
