<svg width="20" height="20" viewBox="0 0 20 20" fill="none" xmlns="http://www.w3.org/2000/svg">
<path d="M4.92187 7.50114H2.1875C2.10462 7.50114 2.02513 7.53406 1.96653 7.59267C1.90792 7.65127 1.875 7.73076 1.875 7.81364V12.1886C1.875 12.2715 1.90792 12.351 1.96653 12.4096C2.02513 12.4682 2.10462 12.5011 2.1875 12.5011H4.9082C5.05226 12.5 5.19225 12.5489 5.3043 12.6394L8.87734 15.5648C8.92386 15.599 8.97894 15.6197 9.03647 15.6245C9.09401 15.6293 9.15176 15.6181 9.2033 15.592C9.25485 15.566 9.29818 15.5262 9.32849 15.4771C9.35879 15.428 9.37489 15.3714 9.375 15.3136V4.68864C9.37489 4.6309 9.35879 4.57432 9.32849 4.52518C9.29818 4.47603 9.25485 4.43624 9.2033 4.41023C9.15176 4.38421 9.09401 4.37299 9.03647 4.37779C8.97894 4.3826 8.92386 4.40326 8.87734 4.43747L5.3043 7.36286C5.19742 7.45313 5.06177 7.50218 4.92187 7.50114Z" stroke="black" stroke-width="1.5" stroke-linecap="round" stroke-linejoin="round"/>
<path d="M12.5 12.4995C12.8805 11.7425 13.125 10.9042 13.125 9.99951C13.125 9.08232 12.8906 8.26436 12.5 7.49951" stroke="black" stroke-width="1.5" stroke-linecap="round" stroke-linejoin="round"/>
<path d="M14.3748 14.3744C15.1357 13.0494 15.6248 11.872 15.6248 9.99939C15.6248 8.12673 15.156 6.96267 14.3748 5.62439" stroke="black" stroke-width="1.5" stroke-linecap="round" stroke-linejoin="round"/>
<path d="M16.25 16.2484C17.4219 14.4515 18.125 12.6769 18.125 9.99841C18.125 7.3199 17.4219 5.58435 16.25 3.74841" stroke="black" stroke-width="1.5" stroke-linecap="round" stroke-linejoin="round"/>
</svg>
