<svg width="20" height="20" viewBox="0 0 20 20" fill="none" xmlns="http://www.w3.org/2000/svg">
<path d="M9.28296 7.49816H6.56226C6.47938 7.49816 6.39989 7.53108 6.34128 7.58969C6.28268 7.64829 6.24976 7.72778 6.24976 7.81066V12.1857C6.24976 12.2685 6.28268 12.348 6.34128 12.4066C6.39989 12.4652 6.47938 12.4982 6.56226 12.4982H9.28296C9.42741 12.4982 9.56737 12.5483 9.67905 12.64L13.2521 15.5696C13.2987 15.6039 13.3539 15.6246 13.4115 15.6293C13.4692 15.6341 13.527 15.6228 13.5786 15.5966C13.6302 15.5705 13.6735 15.5305 13.7037 15.4812C13.7339 15.4319 13.7499 15.3751 13.7498 15.3173V4.67902C13.7497 4.62125 13.7337 4.56462 13.7034 4.51542C13.6731 4.46621 13.6298 4.42637 13.5782 4.40031C13.5267 4.37424 13.4689 4.36298 13.4113 4.36778C13.3538 4.37257 13.2986 4.39323 13.2521 4.42746L9.67905 7.35715C9.56727 7.44848 9.42731 7.49831 9.28296 7.49816Z" stroke="black" stroke-width="1.5" stroke-linecap="round" stroke-linejoin="round"/>
</svg>
