<svg width="20" height="20" viewBox="0 0 20 20" fill="none" xmlns="http://www.w3.org/2000/svg">
<path d="M16.25 16.8757L2.5 3.12573" stroke="black" stroke-width="1.5" stroke-miterlimit="10" stroke-linecap="round"/>
<path d="M8.75002 5.34856V6.66887C8.75009 6.71019 8.76652 6.74979 8.79572 6.77903L9.73322 7.71653C9.75505 7.73838 9.78287 7.75327 9.81315 7.75932C9.84344 7.76538 9.87485 7.76231 9.9034 7.75053C9.93195 7.73874 9.95636 7.71875 9.97356 7.6931C9.99076 7.66744 9.99996 7.63726 10 7.60637V4.70989C10.0018 4.53697 9.95667 4.3668 9.86954 4.21743C9.78241 4.06806 9.65647 3.94505 9.5051 3.86145C9.34909 3.77748 9.17241 3.73961 8.99569 3.75226C8.81897 3.76492 8.6495 3.82758 8.50705 3.93293C8.49813 3.93914 8.48952 3.94579 8.48127 3.95286L7.23361 4.97434C7.21676 4.98818 7.20299 5.00539 7.19318 5.02487C7.18338 5.04436 7.17777 5.06567 7.1767 5.08745C7.17563 5.10924 7.17914 5.131 7.18699 5.15135C7.19484 5.17169 7.20686 5.19017 7.22228 5.20559L7.8883 5.872C7.91575 5.89945 7.95244 5.91569 7.99122 5.91757C8.03 5.91945 8.06809 5.90682 8.09806 5.88215L8.75002 5.34856Z" fill="black"/>
<path d="M8.75 14.6517L5.70039 12.1548C5.4765 11.973 5.19662 11.8742 4.9082 11.8751H2.5V8.12512H4.48125C4.51214 8.12507 4.54232 8.11586 4.56797 8.09867C4.59363 8.08147 4.61362 8.05705 4.62541 8.0285C4.63719 7.99995 4.64026 7.96855 4.6342 7.93826C4.62815 7.90797 4.61326 7.88015 4.59141 7.85832L3.65391 6.92083C3.62467 6.89163 3.58507 6.87519 3.54375 6.87512H2.1875C1.93886 6.87512 1.7004 6.97389 1.52459 7.14971C1.34877 7.32552 1.25 7.56398 1.25 7.81262V12.1876C1.25 12.4363 1.34877 12.6747 1.52459 12.8505C1.7004 13.0263 1.93886 13.1251 2.1875 13.1251H4.9125L8.48125 16.047C8.4895 16.0541 8.49811 16.0607 8.50703 16.0669C8.65125 16.1737 8.82315 16.2367 9.00221 16.2484C9.18126 16.2601 9.3599 16.22 9.5168 16.1329C9.66511 16.0485 9.78812 15.9259 9.87309 15.7779C9.95805 15.6298 10.0019 15.4618 10 15.2911V13.3314C9.99993 13.2901 9.98349 13.2504 9.9543 13.2212L9.0168 12.2837C8.99497 12.2619 8.96715 12.247 8.93686 12.2409C8.90657 12.2349 8.87517 12.2379 8.84662 12.2497C8.81807 12.2615 8.79365 12.2815 8.77645 12.3071C8.75926 12.3328 8.75005 12.363 8.75 12.3939V14.6517Z" fill="black"/>
<path d="M13.75 10.0005C13.75 9.04112 13.523 8.13019 13.0566 7.21652C12.9795 7.07199 12.8488 6.9635 12.6925 6.91438C12.5363 6.86527 12.367 6.87945 12.2211 6.95389C12.0752 7.02832 11.9643 7.15706 11.9124 7.3124C11.8604 7.46773 11.8716 7.63725 11.9433 7.78448C12.3179 8.51847 12.5 9.24347 12.5 10.0005C12.5 10.1047 12.4959 10.2105 12.4879 10.3181C12.4845 10.3629 12.4909 10.4079 12.5065 10.45C12.5222 10.4922 12.5467 10.5304 12.5785 10.5622L13.3464 11.3306C13.3663 11.3506 13.3912 11.3648 13.4186 11.3718C13.4459 11.3787 13.4746 11.3782 13.5016 11.3702C13.5286 11.3622 13.553 11.347 13.5721 11.3263C13.5912 11.3055 13.6043 11.28 13.6101 11.2525C13.7025 10.8415 13.7494 10.4217 13.75 10.0005Z" fill="black"/>
<path d="M16.2498 10.001C16.2498 8.00137 15.7388 6.72403 14.9146 5.31114C14.83 5.17027 14.6933 5.06842 14.5341 5.02762C14.3749 4.98683 14.206 5.01037 14.064 5.09317C13.9221 5.17596 13.8184 5.31134 13.7756 5.46999C13.7327 5.62864 13.754 5.79779 13.8349 5.94082C14.5728 7.20567 14.9998 8.27559 14.9998 10.001C14.9998 10.9318 14.8713 11.676 14.6338 12.3701C14.6147 12.4255 14.6115 12.485 14.6246 12.5421C14.6378 12.5991 14.6666 12.6513 14.708 12.6928L15.3631 13.3475C15.3812 13.3656 15.4034 13.3791 15.428 13.3866C15.4525 13.3941 15.4785 13.3955 15.5036 13.3906C15.5288 13.3857 15.5524 13.3746 15.5723 13.3585C15.5922 13.3423 15.6078 13.3215 15.6177 13.2979C16.0189 12.34 16.2498 11.3256 16.2498 10.001Z" fill="black"/>
<path d="M18.7499 10.0003C18.7499 7.09956 17.9612 5.26949 16.7768 3.41402C16.6876 3.27416 16.5465 3.17546 16.3846 3.13964C16.2226 3.10382 16.053 3.1338 15.9132 3.223C15.7733 3.3122 15.6746 3.45331 15.6388 3.61528C15.603 3.77725 15.6329 3.94681 15.7221 4.08667C16.7897 5.75738 17.4999 7.40269 17.4999 10.0003C17.4999 11.8539 17.1522 13.2082 16.5784 14.4144C16.5644 14.4435 16.5598 14.4762 16.5652 14.508C16.5706 14.5399 16.5857 14.5692 16.6085 14.5921L17.3046 15.289C17.322 15.3065 17.3433 15.3197 17.3667 15.3274C17.3902 15.3351 17.4151 15.3371 17.4395 15.3333C17.4639 15.3295 17.4871 15.3199 17.5071 15.3054C17.5271 15.291 17.5433 15.2719 17.5546 15.25C18.3936 13.6027 18.7499 11.9925 18.7499 10.0003Z" fill="black"/>
</svg>
