<svg width="24" height="25" viewBox="0 0 24 25" fill="none" xmlns="http://www.w3.org/2000/svg">
<g clip-path="url(#clip0)">
<path d="M1.66016 11.078C1.66016 10.5007 1.87951 9.94709 2.26996 9.53889C2.66041 9.13069 3.18998 8.90137 3.74216 8.90137H20.3982C20.9504 8.90137 21.4799 9.13069 21.8704 9.53889C22.2608 9.94709 22.4802 10.5007 22.4802 11.078V18.6962C22.4802 19.2735 22.2608 19.8272 21.8704 20.2354C21.4799 20.6436 20.9504 20.8729 20.3982 20.8729H16.3716C16.012 20.8729 15.6586 20.7756 15.3458 20.5904C15.0329 20.4052 14.7712 20.1384 14.5863 19.8161L12.9623 16.9865C12.8698 16.8256 12.739 16.6924 12.5826 16.6C12.4263 16.5076 12.2498 16.459 12.0702 16.459C11.8906 16.459 11.714 16.5076 11.5577 16.6C11.4014 16.6924 11.2706 16.8256 11.178 16.9865L9.55407 19.8161C9.36909 20.1384 9.10742 20.4052 8.79456 20.5904C8.48169 20.7756 8.12828 20.8729 7.76875 20.8729H3.74216C3.18998 20.8729 2.66041 20.6436 2.26996 20.2354C1.87951 19.8272 1.66016 19.2735 1.66016 18.6962V11.078Z" stroke="white" stroke-width="2" stroke-linecap="round" stroke-linejoin="round"/>
<path d="M3.54751 6.54383C3.92767 5.48433 4.44267 4.61556 5.04683 4.01457C5.65099 3.41359 6.32563 3.09897 7.01092 3.09863H17.1274C17.8128 3.09865 18.4877 3.41312 19.092 4.01412C19.6964 4.61512 20.2116 5.48406 20.5918 6.54383L21.4392 8.90188H2.70117L3.54751 6.54383V6.54383Z" stroke="white" stroke-width="2" stroke-linecap="round" stroke-linejoin="round"/>
</g>
<defs>
<clipPath id="clip0">
<rect width="23" height="24" fill="white" transform="translate(0.570312 0.325195)"/>
</clipPath>
</defs>
</svg>
