<svg width="20" height="20" viewBox="0 0 20 20" fill="none" xmlns="http://www.w3.org/2000/svg">
<path d="M7.8375 5.21279L5.21265 7.83765L8.26508 10.8901L10.8899 8.26522L7.8375 5.21279Z" fill="black"/>
<path d="M11.7738 9.1488L9.14917 11.7738L16.0937 18.75L18.7499 16.0937L11.7738 9.1488Z" fill="black"/>
<path d="M4.375 6.87463H1.25V8.12463H4.375V6.87463Z" fill="black"/>
<path d="M3.52548 2.64187L2.6416 3.52576L4.85131 5.73546L5.73519 4.85158L3.52548 2.64187Z" fill="black"/>
<path d="M8.125 1.25037H6.875V4.37537H8.125V1.25037Z" fill="black"/>
<path d="M11.48 2.64259L9.27026 4.85229L10.1541 5.73618L12.3639 3.52647L11.48 2.64259Z" fill="black"/>
<path d="M4.85107 9.27064L2.64136 11.4803L3.52524 12.3642L5.73495 10.1545L4.85107 9.27064Z" fill="black"/>
</svg>
