<svg width="20" height="20" viewBox="0 0 20 20" fill="none" xmlns="http://www.w3.org/2000/svg">
<path d="M3.34255 17.43H16.6574C16.8736 17.43 17.0862 17.3739 17.2743 17.2671C17.4623 17.1603 17.6195 17.0066 17.7304 16.821C17.8412 16.6353 17.9021 16.424 17.9069 16.2078C17.9117 15.9916 17.8603 15.7779 17.7578 15.5875L11.1008 3.22419C10.6285 2.34763 9.37145 2.34763 8.89919 3.22419L2.24216 15.5875C2.13964 15.7779 2.08828 15.9916 2.09308 16.2078C2.09789 16.424 2.1587 16.6353 2.26958 16.821C2.38046 17.0066 2.53762 17.1603 2.72568 17.2671C2.91375 17.3739 3.12629 17.43 3.34255 17.43V17.43Z" stroke="black" stroke-width="1.5" stroke-linecap="round" stroke-linejoin="round"/>
<path d="M9.77554 7.63221L9.99976 12.3978L10.2236 7.63417C10.225 7.60371 10.2201 7.5733 10.2094 7.54478C10.1986 7.51626 10.1821 7.49024 10.1609 7.4683C10.1398 7.44636 10.1144 7.42897 10.0862 7.4172C10.0581 7.40542 10.0279 7.39949 9.99742 7.39979V7.39979C9.96747 7.40008 9.93788 7.40637 9.9104 7.41829C9.88292 7.43021 9.85811 7.44751 9.83743 7.46917C9.81674 7.49084 9.80061 7.51643 9.78998 7.54443C9.77936 7.57243 9.77444 7.60228 9.77554 7.63221V7.63221Z" stroke="black" stroke-width="1.5" stroke-linecap="round" stroke-linejoin="round"/>
<path d="M10 15.5167C9.84548 15.5167 9.69444 15.4709 9.56596 15.3851C9.43749 15.2992 9.33735 15.1772 9.27822 15.0344C9.21909 14.8917 9.20362 14.7346 9.23376 14.5831C9.26391 14.4315 9.33831 14.2923 9.44757 14.183C9.55683 14.0738 9.69604 13.9994 9.84759 13.9692C9.99913 13.9391 10.1562 13.9546 10.299 14.0137C10.4417 14.0728 10.5637 14.173 10.6496 14.3014C10.7354 14.4299 10.7812 14.581 10.7812 14.7355C10.7812 14.9427 10.6989 15.1414 10.5524 15.2879C10.4059 15.4344 10.2072 15.5167 10 15.5167Z" fill="black"/>
</svg>
