<svg width="20" height="20" viewBox="0 0 20 20" fill="none" xmlns="http://www.w3.org/2000/svg">
<path d="M17.5 10C17.5 5.85937 14.1406 2.5 10 2.5C5.85937 2.5 2.5 5.85937 2.5 10C2.5 14.1406 5.85937 17.5 10 17.5C14.1406 17.5 17.5 14.1406 17.5 10Z" stroke="black" stroke-width="1.5" stroke-miterlimit="10"/>
<path d="M9.77562 6.4867L9.99984 11.2504L10.2237 6.4867C10.2251 6.45625 10.2202 6.42584 10.2094 6.39732C10.1987 6.3688 10.1822 6.34278 10.161 6.32084C10.1399 6.2989 10.1144 6.28151 10.0863 6.26973C10.0582 6.25795 10.028 6.25203 9.9975 6.25233V6.25233C9.96738 6.25261 9.93762 6.25896 9.91001 6.271C9.88239 6.28304 9.85749 6.30052 9.83678 6.32239C9.81607 6.34427 9.79998 6.37009 9.78948 6.39832C9.77897 6.42655 9.77426 6.45661 9.77562 6.4867V6.4867Z" stroke="black" stroke-width="1.5" stroke-linecap="round" stroke-linejoin="round"/>
<path d="M10 14.3713C9.84548 14.3713 9.69444 14.3255 9.56596 14.2397C9.43749 14.1538 9.33735 14.0318 9.27822 13.8891C9.21909 13.7463 9.20362 13.5892 9.23376 13.4377C9.26391 13.2861 9.33831 13.1469 9.44757 13.0377C9.55683 12.9284 9.69604 12.854 9.84759 12.8238C9.99913 12.7937 10.1562 12.8092 10.299 12.8683C10.4417 12.9274 10.5637 13.0276 10.6496 13.156C10.7354 13.2845 10.7812 13.4356 10.7812 13.5901C10.7812 13.7973 10.6989 13.996 10.5524 14.1425C10.4059 14.289 10.2072 14.3713 10 14.3713Z" fill="black"/>
</svg>
