<svg width="24" height="23" viewBox="0 0 24 23" fill="none" xmlns="http://www.w3.org/2000/svg">
<g clip-path="url(#clip0)">
<path d="M21.9909 0.822021H2.27665C1.84093 0.822021 1.42307 0.995108 1.11497 1.3032C0.806875 1.6113 0.633789 2.02917 0.633789 2.46488V15.6077C0.633789 16.0434 0.806875 16.4613 1.11497 16.7694C1.42307 17.0775 1.84093 17.2506 2.27665 17.2506H8.84807V20.5363H5.56236V22.1792H18.7052V20.5363H15.4195V17.2506H21.9909C22.4266 17.2506 22.8445 17.0775 23.1526 16.7694C23.4607 16.4613 23.6338 16.0434 23.6338 15.6077V2.46488C23.6338 2.02917 23.4607 1.6113 23.1526 1.3032C22.8445 0.995108 22.4266 0.822021 21.9909 0.822021ZM13.7766 20.5363H10.4909V17.2506H13.7766V20.5363ZM21.9909 15.6077H2.27665V2.46488H21.9909V15.6077Z" fill="white"/>
</g>
<defs>
<clipPath id="clip0">
<rect width="23" height="23" fill="white" transform="translate(0.633789 0.000488281)"/>
</clipPath>
</defs>
</svg>
