<svg width="20" height="20" viewBox="0 0 24 25" fill="none" xmlns="http://www.w3.org/2000/svg">
<g clip-path="url(#clip0)">
<path d="M21.89 9.02689C21.468 9.22012 21.0219 9.3556 20.5636 9.42967C21.2965 11.5161 21.2988 13.7896 20.5703 15.8776C19.8418 17.9655 18.4256 19.7441 16.5538 20.9217C14.6821 22.0993 12.4658 22.6062 10.2682 22.3593C8.07064 22.1123 6.02214 21.1262 4.45844 19.5625C2.89475 17.9988 1.90861 15.9503 1.66166 13.7527C1.41471 11.5552 1.92159 9.33888 3.09924 7.46713C4.27688 5.59538 6.05542 4.17918 8.14337 3.45065C10.2313 2.72212 12.5048 2.72447 14.5913 3.45731C14.6653 2.99907 14.8007 2.5529 14.9941 2.13089C12.6095 1.30637 10.0158 1.31475 7.63658 2.15467C5.25738 2.99459 3.23328 4.61642 1.89485 6.75527C0.55643 8.89412 -0.017221 11.4236 0.267592 13.9306C0.552405 16.4375 1.67885 18.7739 3.46296 20.558C5.24706 22.3421 7.58339 23.4685 10.0904 23.7533C12.5973 24.0382 15.1268 23.4645 17.2657 22.1261C19.4045 20.7877 21.0263 18.7636 21.8663 16.3844C22.7062 14.0052 22.7146 11.4115 21.89 9.02689Z" fill="white"/>
<path d="M12.9523 4.13857C14.1734 5.45057 15.0951 7.01203 15.6538 8.71506H11.9106V4.02051H10.8689V8.72201H7.1258C7.68558 7.01589 8.60974 5.45193 9.83419 4.13857C9.22916 4.24808 8.63774 4.42271 8.07026 4.65941C7.17542 5.89182 6.49242 7.26486 6.04938 8.72201H3.70905C3.52472 9.08753 3.3669 9.46583 3.23682 9.85398H5.75771C5.56207 10.7671 5.46199 11.698 5.45909 12.6318C5.46101 13.6532 5.57748 14.6712 5.80632 15.6666H3.34793C3.4916 16.0559 3.66335 16.4342 3.86183 16.7986H6.10494C6.5301 18.129 7.16039 19.3849 7.97304 20.5209C8.55498 20.7705 9.16291 20.9545 9.78558 21.0695C8.65217 19.8332 7.78051 18.3804 7.22302 16.7986H10.8759V21.2015H11.9176V16.7986H15.5566C14.9972 18.3811 14.1231 19.8339 12.987 21.0695C13.6126 20.9505 14.2229 20.7619 14.8065 20.507C15.6179 19.3753 16.2481 18.1242 16.6746 16.7986H18.8969C19.0945 16.4409 19.2662 16.0696 19.4108 15.6874H16.9455C17.1743 14.692 17.2908 13.6741 17.2927 12.6527C17.2898 11.7189 17.1897 10.7879 16.9941 9.87481H19.4941C19.4525 9.75675 19.4108 9.64564 19.3622 9.53453C18.5075 9.48097 17.6795 9.2161 16.9524 8.76368H16.7024C16.7024 8.68728 16.6469 8.61784 16.626 8.54145C16.0052 8.08859 15.4925 7.50363 15.1251 6.82873C14.7576 6.15383 14.5444 5.4058 14.501 4.63858C14.0017 4.42343 13.4832 4.25602 12.9523 4.13857ZM10.8689 15.6597H6.88274C6.39381 13.7484 6.37238 11.7475 6.82023 9.8262H10.8689V15.6597ZM16.251 12.6318C16.2476 13.6552 16.1193 14.6743 15.8691 15.6666H11.9106V9.85398H15.9593C16.1588 10.7663 16.2567 11.6979 16.251 12.6318Z" fill="white"/>
<path d="M19.7238 7.7698C21.6415 7.7698 23.1961 6.2152 23.1961 4.2975C23.1961 2.3798 21.6415 0.825195 19.7238 0.825195C17.8061 0.825195 16.2515 2.3798 16.2515 4.2975C16.2515 6.2152 17.8061 7.7698 19.7238 7.7698Z" fill="white"/>
</g>
<defs>
<clipPath id="clip0">
<rect width="23" height="24" fill="white" transform="translate(0.196289 0.325195)"/>
</clipPath>
</defs>
</svg>
