{"accessors":[{"bufferView":0,"componentType":5126,"count":384,"type":"VEC3","max":[0.47052082419395447,0.47052082419395447,0.47052082419395447],"min":[-0.47052082419395447,-0.47052082419395447,-0.47052082419395447]},{"bufferView":1,"componentType":5126,"count":384,"type":"VEC3","max":[0.99266362190246582,0.987006425857544,1.0],"min":[-0.99266362190246582,-0.98700630664825439,-1.0]},{"bufferView":2,"componentType":5126,"count":384,"type":"VEC4","max":[1.0,1.0,0.987902820110321,1.0],"min":[-1.0,-1.0,-0.95196151733398438,-1.0]},{"bufferView":3,"componentType":5126,"count":384,"type":"VEC2","max":[0.99672305583953857,-0.5052105188369751],"min":[0.038782119750976563,-0.99697029590606689]},{"bufferView":4,"componentType":5123,"count":1464,"type":"SCALAR","max":[383.0],"min":[0.0]}],"asset":{"version":"2.0"},"buffers":[{"uri":"DodecAvatar_Head.bin","byteLength":21360}],"bufferViews":[{"buffer":0,"byteLength":4608},{"buffer":0,"byteOffset":4608,"byteLength":4608},{"buffer":0,"byteOffset":9216,"byteLength":6144},{"buffer":0,"byteOffset":15360,"byteLength":3072},{"buffer":0,"byteOffset":18432,"byteLength":2928}],"images":[{"uri":"AvatarDodeca_Texture.png","name":"AvatarDodeca_Texture"}],"materials":[{"pbrMetallicRoughness":{"baseColorTexture":{"index":0},"metallicFactor":0.0},"name":"AvatarDodeca_Texture"}],"meshes":[{"primitives":[{"attributes":{"POSITION":0,"NORMAL":1,"TANGENT":2,"TEXCOORD_0":3},"indices":4,"material":0}],"name":"DodecAvatar_Head"}],"nodes":[{"mesh":0,"name":"DodecAvatar_Head"}],"samplers":[{}],"scene":0,"scenes":[{"nodes":[0],"name":"DodecAvatar_Head"}],"textures":[{"sampler":0,"source":0,"name":"AvatarDodeca_Texture"}]}