<svg width="24" height="24" viewBox="0 0 24 24" fill="none"
  xmlns="http://www.w3.org/2000/svg">
  <path d="M10.5445 10.166C10.0129 10.166 9.59326 10.6323 9.59326 11.2012C9.59326 11.77 10.0222 12.2363 10.5445 12.2363C11.076 12.2363 11.4957 11.77 11.4957 11.2012C11.505 10.6323 11.076 10.166 10.5445 10.166ZM13.9483 10.166C13.4167 10.166 12.9971 10.6323 12.9971 11.2012C12.9971 11.77 13.4261 12.2363 13.9483 12.2363C14.4799 12.2363 14.8995 11.77 14.8995 11.2012C14.8995 10.6323 14.4799 10.166 13.9483 10.166Z" fill="black"/>
  <path d="M18.4803 2.3418H5.98401C4.93022 2.3418 4.07227 3.19975 4.07227 4.26286V16.871C4.07227 17.9341 4.93022 18.7921 5.98401 18.7921H16.5592L16.0649 17.0669L17.2586 18.1766L18.387 19.2211L20.392 20.9929V4.26286C20.392 3.19975 19.5341 2.3418 18.4803 2.3418ZM14.8806 14.521C14.8806 14.521 14.5449 14.12 14.2651 13.7656C15.4868 13.4206 15.953 12.6559 15.953 12.6559C15.5707 12.9077 15.207 13.0849 14.8806 13.2061C14.4143 13.4019 13.9667 13.5325 13.5284 13.6071C12.6331 13.7749 11.8125 13.7283 11.1131 13.5978C10.5815 13.4952 10.1246 13.346 9.74221 13.1968C9.52772 13.1128 9.29458 13.0102 9.06145 12.8797C9.03347 12.861 9.00549 12.8517 8.97751 12.8331C8.95886 12.8237 8.94954 12.8144 8.94021 12.8051C8.77235 12.7118 8.6791 12.6466 8.6791 12.6466C8.6791 12.6466 9.12672 13.3926 10.3111 13.747C10.0313 14.1013 9.68626 14.521 9.68626 14.521C7.62531 14.4557 6.84196 13.1035 6.84196 13.1035C6.84196 10.1007 8.18484 7.6667 8.18484 7.6667C9.52772 6.65954 10.8053 6.68751 10.8053 6.68751L10.8986 6.79942C9.21998 7.28435 8.44596 8.02107 8.44596 8.02107C8.44596 8.02107 8.65112 7.90916 8.99617 7.75063C9.994 7.31233 10.7867 7.19109 11.1131 7.16312C11.169 7.15379 11.2157 7.14446 11.2716 7.14446C11.8405 7.06986 12.4839 7.05121 13.1554 7.12581C14.0413 7.2284 14.9925 7.48951 15.9624 8.02107C15.9624 8.02107 15.2256 7.32165 13.6403 6.83672L13.7709 6.68751C13.7709 6.68751 15.0485 6.65954 16.3913 7.6667C16.3913 7.6667 17.7342 10.1007 17.7342 13.1035C17.7342 13.1035 16.9416 14.4557 14.8806 14.521V14.521Z" fill="black"/>
</svg>
