{"accessors":[{"bufferView":0,"componentType":5126,"count":540,"type":"VEC3","max":[0.21502137184143066,0.31034931540489197,0.30054089426994324],"min":[-0.21345257759094238,-0.28918552398681641,-0.6024399995803833]},{"bufferView":1,"componentType":5126,"count":540,"type":"VEC3","max":[0.99698549509048462,0.97377252578735352,0.63385242223739624],"min":[-0.99751198291778564,-0.9912988543510437,-0.99289071559906006]},{"bufferView":2,"componentType":5126,"count":540,"type":"VEC4","max":[0.999259889125824,0.98216503858566284,0.98798274993896484,-1.0],"min":[-0.99856418371200562,-0.99964511394500732,-0.99477094411849976,-1.0]},{"bufferView":3,"componentType":5126,"count":540,"type":"VEC2","max":[0.49392947554588318,-0.12775179743766785],"min":[0.00923137180507183,-0.49687236547470093]},{"bufferView":4,"componentType":5123,"count":2328,"type":"SCALAR","max":[539.0],"min":[0.0]}],"asset":{"version":"2.0"},"buffers":[{"uri":"Avatar_HandL.bin","byteLength":30576}],"bufferViews":[{"buffer":0,"byteLength":6480},{"buffer":0,"byteOffset":6480,"byteLength":6480},{"buffer":0,"byteOffset":12960,"byteLength":8640},{"buffer":0,"byteOffset":21600,"byteLength":4320},{"buffer":0,"byteOffset":25920,"byteLength":4656}],"images":[{"uri":"AvatarDodeca_Texture.png","name":"AvatarDodeca_Texture"}],"materials":[{"pbrMetallicRoughness":{"baseColorTexture":{"index":0},"metallicFactor":0.0},"name":"AvatarDodeca_Texture"}],"meshes":[{"primitives":[{"attributes":{"POSITION":0,"NORMAL":1,"TANGENT":2,"TEXCOORD_0":3},"indices":4,"material":0}],"name":"Avatar_HandL"}],"nodes":[{"mesh":0,"name":"Avatar_HandL"}],"samplers":[{}],"scene":0,"scenes":[{"nodes":[0],"name":"Avatar_HandL"}],"textures":[{"sampler":0,"source":0,"name":"AvatarDodeca_Texture"}]}