<?xml version="1.0" encoding="utf-8"?>
<svg viewBox="0 0 1728 299" xmlns="http://www.w3.org/2000/svg">
  <rect width="1972.046" height="299" fill="#12141D" style="" x="-120.402"/>
  <rect width="1540.661" height="299" fill="#12141D" style="" x="95.291"/>
  <path fill-rule="evenodd" clip-rule="evenodd" d="M1345 136C1345 130.477 1340.52 126 1335 126C1329.48 126 1325 130.477 1325 136C1325 140.991 1328.66 145.128 1333.44 145.878V138.891H1330.9V136H1333.44V133.797C1333.44 131.291 1334.93 129.907 1337.22 129.907C1338.31 129.907 1339.45 130.102 1339.45 130.102V132.562H1338.19C1336.95 132.562 1336.56 133.333 1336.56 134.124V136H1339.34L1338.89 138.89H1336.56V145.878C1341.34 145.128 1345 140.991 1345 136Z" fill="white" fill-opacity="0.8"/>
  <path fill-rule="evenodd" clip-rule="evenodd" d="M1383.31 126C1385.74 126 1386.1 126.013 1387.12 126.06C1388.19 126.109 1388.91 126.278 1389.55 126.525C1390.22 126.776 1390.82 127.169 1391.32 127.678C1391.83 128.178 1392.22 128.783 1392.48 129.45C1392.72 130.086 1392.89 130.813 1392.94 131.877C1392.99 132.944 1393 133.284 1393 136V136.08C1393 138.723 1392.99 139.067 1392.94 140.123C1392.89 141.187 1392.72 141.914 1392.48 142.55C1392.22 143.217 1391.83 143.822 1391.32 144.322C1390.82 144.831 1390.22 145.224 1389.55 145.475C1388.91 145.722 1388.19 145.891 1387.12 145.94C1386.06 145.988 1385.72 146 1383 146H1382.92C1380.28 146 1379.93 145.988 1378.88 145.94C1377.81 145.891 1377.09 145.722 1376.45 145.475C1375.78 145.224 1375.18 144.831 1374.68 144.322C1374.17 143.822 1373.78 143.217 1373.53 142.55C1373.28 141.914 1373.11 141.187 1373.06 140.123C1373.01 139.099 1373 138.744 1373 136.315V135.685C1373 133.255 1373.01 132.901 1373.06 131.877C1373.11 130.813 1373.28 130.086 1373.53 129.45C1373.78 128.783 1374.17 128.178 1374.68 127.678C1375.18 127.169 1375.78 126.776 1376.45 126.525C1377.09 126.278 1377.81 126.109 1378.88 126.06C1379.9 126.013 1380.26 126 1382.69 126H1383.31ZM1383.23 127.802H1382.77C1380.31 127.802 1379.98 127.813 1378.96 127.86C1377.98 127.905 1377.46 128.067 1377.1 128.204C1376.64 128.386 1376.3 128.602 1375.95 128.952C1375.6 129.302 1375.39 129.635 1375.2 130.102C1375.07 130.455 1374.9 130.984 1374.86 131.959C1374.81 132.982 1374.8 133.31 1374.8 135.766V136.234C1374.8 138.69 1374.81 139.018 1374.86 140.041C1374.9 141.016 1375.07 141.545 1375.2 141.898C1375.39 142.364 1375.6 142.698 1375.95 143.048C1376.3 143.398 1376.64 143.614 1377.1 143.796C1377.46 143.933 1377.98 144.096 1378.96 144.14C1380.01 144.188 1380.33 144.198 1383 144.198H1383.08C1385.68 144.198 1386 144.188 1387.04 144.14C1388.02 144.095 1388.55 143.933 1388.9 143.796C1389.36 143.614 1389.7 143.398 1390.05 143.048C1390.4 142.698 1390.61 142.365 1390.8 141.898C1390.93 141.545 1391.1 141.016 1391.14 140.041C1391.19 138.986 1391.2 138.671 1391.2 136V135.92C1391.2 133.323 1391.19 133.003 1391.14 131.96C1391.09 130.984 1390.93 130.455 1390.8 130.102C1390.64 129.668 1390.38 129.275 1390.05 128.952C1389.73 128.62 1389.33 128.364 1388.9 128.204C1388.55 128.067 1388.02 127.904 1387.04 127.86C1386.02 127.813 1385.69 127.802 1383.23 127.802ZM1383 130.865C1383.67 130.865 1384.34 130.998 1384.97 131.256C1385.59 131.514 1386.15 131.892 1386.63 132.369C1387.11 132.846 1387.49 133.412 1387.74 134.035C1388 134.658 1388.14 135.326 1388.14 136C1388.14 136.674 1388 137.342 1387.74 137.965C1387.49 138.588 1387.11 139.154 1386.63 139.631C1386.15 140.108 1385.59 140.486 1384.97 140.744C1384.34 141.002 1383.67 141.135 1383 141.135C1381.64 141.135 1380.33 140.594 1379.37 139.631C1378.41 138.668 1377.86 137.362 1377.86 136C1377.86 134.638 1378.41 133.332 1379.37 132.369C1380.33 131.406 1381.64 130.865 1383 130.865ZM1383 132.667C1382.12 132.667 1381.27 133.018 1380.64 133.643C1380.02 134.268 1379.67 135.116 1379.67 136C1379.67 136.884 1380.02 137.732 1380.64 138.357C1381.27 138.982 1382.12 139.333 1383 139.333C1383.88 139.333 1384.73 138.982 1385.36 138.357C1385.98 137.732 1386.33 136.884 1386.33 136C1386.33 135.116 1385.98 134.268 1385.36 133.643C1384.73 133.018 1383.88 132.667 1383 132.667ZM1388.34 129.462C1388.66 129.462 1388.96 129.588 1389.19 129.813C1389.41 130.039 1389.54 130.344 1389.54 130.662C1389.54 130.98 1389.41 131.285 1389.19 131.511C1388.96 131.736 1388.66 131.862 1388.34 131.862C1388.02 131.862 1387.71 131.736 1387.49 131.511C1387.26 131.285 1387.14 130.98 1387.14 130.662C1387.14 130.344 1387.26 130.039 1387.49 129.813C1387.71 129.588 1388.02 129.462 1388.34 129.462Z" fill="white" fill-opacity="0.8"/>
  <path d="M1427.29 144.253C1434.84 144.253 1438.97 138 1438.97 132.578C1438.97 132.4 1438.96 132.223 1438.95 132.048C1439.76 131.467 1440.45 130.747 1441 129.922C1440.25 130.254 1439.46 130.472 1438.64 130.568C1439.5 130.055 1440.14 129.249 1440.45 128.298C1439.64 128.776 1438.76 129.113 1437.84 129.294C1437.22 128.636 1436.41 128.2 1435.51 128.054C1434.62 127.908 1433.71 128.06 1432.91 128.486C1432.11 128.912 1431.48 129.589 1431.11 130.412C1430.74 131.235 1430.64 132.158 1430.85 133.037C1429.22 132.956 1427.62 132.532 1426.16 131.793C1424.71 131.055 1423.42 130.018 1422.39 128.75C1421.87 129.654 1421.71 130.723 1421.94 131.74C1422.18 132.758 1422.79 133.647 1423.66 134.227C1423.01 134.209 1422.37 134.033 1421.8 133.715V133.767C1421.8 134.715 1422.13 135.633 1422.73 136.366C1423.33 137.099 1424.16 137.602 1425.09 137.789C1424.49 137.954 1423.85 137.978 1423.24 137.859C1423.5 138.675 1424.01 139.388 1424.7 139.899C1425.39 140.41 1426.22 140.693 1427.07 140.709C1426.22 141.378 1425.25 141.872 1424.21 142.164C1423.16 142.456 1422.07 142.539 1421 142.409C1422.88 143.614 1425.06 144.252 1427.29 144.249" fill="white" fill-opacity="0.8"/>
  <path fill-rule="evenodd" clip-rule="evenodd" d="M1479 126C1473.48 126 1469 130.484 1469 136.017C1469 140.442 1471.86 144.197 1475.84 145.521C1476.34 145.613 1476.52 145.304 1476.52 145.038C1476.52 144.801 1476.51 144.17 1476.51 143.335C1473.73 143.94 1473.14 141.992 1473.14 141.992C1472.68 140.834 1472.03 140.526 1472.03 140.526C1471.12 139.906 1472.1 139.918 1472.1 139.918C1473.1 139.988 1473.63 140.95 1473.63 140.95C1474.52 142.48 1475.97 142.038 1476.54 141.782C1476.63 141.135 1476.89 140.694 1477.18 140.444C1474.96 140.191 1472.62 139.331 1472.62 135.493C1472.62 134.4 1473.01 133.505 1473.65 132.805C1473.55 132.552 1473.2 131.533 1473.75 130.155C1473.75 130.155 1474.59 129.885 1476.5 131.181C1477.31 130.959 1478.15 130.845 1479 130.844C1479.85 130.848 1480.7 130.959 1481.5 131.181C1483.41 129.885 1484.25 130.154 1484.25 130.154C1484.8 131.533 1484.45 132.552 1484.35 132.805C1484.99 133.505 1485.38 134.4 1485.38 135.493C1485.38 139.341 1483.04 140.188 1480.81 140.436C1481.17 140.745 1481.49 141.356 1481.49 142.291C1481.49 143.629 1481.48 144.71 1481.48 145.038C1481.48 145.306 1481.66 145.618 1482.17 145.52C1484.16 144.852 1485.89 143.575 1487.12 141.87C1488.34 140.165 1489 138.117 1489 136.017C1489 130.484 1484.52 126 1479 126Z" fill="white" fill-opacity="0.8"/>
  <path fill-rule="evenodd" clip-rule="evenodd" d="M1527 126C1521.48 126 1517 130.48 1517 136C1517 141.52 1521.48 146 1527 146C1532.51 146 1537 141.52 1537 136C1537 130.48 1532.51 126 1527 126ZM1533.6 130.61C1534.84 132.109 1535.52 133.984 1535.53 135.924C1535.25 135.87 1532.43 135.295 1529.59 135.653C1529.53 135.512 1529.47 135.36 1529.41 135.208C1529.23 134.791 1529.04 134.379 1528.84 133.972C1531.99 132.692 1533.42 130.848 1533.6 130.61ZM1527 127.475C1529.17 127.475 1531.15 128.288 1532.66 129.623C1532.51 129.839 1531.22 131.564 1528.18 132.703C1526.78 130.133 1525.23 128.028 1524.99 127.703C1525.65 127.549 1526.32 127.473 1527 127.475ZM1523.37 128.278C1524.51 129.864 1525.57 131.512 1526.53 133.213C1522.54 134.276 1519.02 134.253 1518.64 134.253C1518.91 132.96 1519.48 131.748 1520.3 130.712C1521.12 129.675 1522.17 128.842 1523.37 128.278ZM1518.45 136.01V135.75C1518.82 135.76 1522.96 135.815 1527.23 134.535C1527.48 135.012 1527.7 135.5 1527.92 135.988C1527.81 136.021 1527.69 136.053 1527.59 136.086C1523.18 137.506 1520.84 141.389 1520.64 141.715C1519.23 140.149 1518.45 138.117 1518.45 136.01ZM1527 144.547C1525.1 144.55 1523.26 143.916 1521.76 142.747C1521.91 142.432 1523.65 139.091 1528.46 137.41C1528.49 137.4 1528.5 137.4 1528.52 137.388C1529.33 139.483 1529.94 141.652 1530.34 143.863C1529.29 144.317 1528.15 144.55 1527 144.547ZM1531.76 143.082C1531.67 142.562 1531.22 140.067 1530.1 136.998C1532.78 136.575 1535.12 137.269 1535.42 137.367C1535.23 138.52 1534.81 139.623 1534.19 140.607C1533.56 141.59 1532.73 142.433 1531.76 143.082Z" fill="white" fill-opacity="0.8"/>
  <path d="M335.806 63.9232C331.517 63.9232 326.815 67.2962 323.629 72.4122C320.442 67.2962 315.741 63.9232 311.452 63.9232C307.366 63.9232 303 67.2886 303 76.735C303 86.1814 307.366 89.5462 311.452 89.5468C315.742 89.5468 320.442 86.1744 323.629 81.0596C326.815 86.1744 331.516 89.5468 335.805 89.5468C339.892 89.5468 344.258 86.1814 344.258 76.735C344.258 67.2886 339.892 63.9232 335.806 63.9232ZM311.452 84.4227C308.333 84.4227 306.75 81.8364 306.75 76.735C306.75 71.6353 308.333 69.0479 311.452 69.0479C314.902 69.0479 318.907 72.2084 321.367 76.735C318.908 81.2617 314.903 84.4227 311.452 84.4227ZM335.805 84.4227C332.355 84.4227 328.35 81.2617 325.891 76.735C328.35 72.2084 332.356 69.0479 335.806 69.0479C338.926 69.0479 340.508 71.6348 340.508 76.735C340.507 81.8364 338.925 84.4227 335.805 84.4227Z" fill="#DA3832"/>
  <path fill-rule="evenodd" clip-rule="evenodd" d="M352.696 60H348.505V64.2502H344.26L344.26 68.446H348.505V72.6963H352.696V68.446H356.942V64.2502H352.696V60Z" fill="#DA3832"/>
  <path d="M215.115 149L215.079 133.88L207.663 146.336H205.035L197.655 134.204V149H192.183V123.8H197.007L206.439 139.46L215.727 123.8H220.515L220.587 149H215.115ZM245.142 139.388C245.142 139.46 245.106 139.964 245.034 140.9H230.382C230.646 142.1 231.27 143.048 232.254 143.744C233.238 144.44 234.462 144.788 235.926 144.788C236.934 144.788 237.822 144.644 238.59 144.356C239.382 144.044 240.114 143.564 240.786 142.916L243.774 146.156C241.95 148.244 239.286 149.288 235.782 149.288C233.598 149.288 231.666 148.868 229.986 148.028C228.306 147.164 227.01 145.976 226.098 144.464C225.186 142.952 224.73 141.236 224.73 139.316C224.73 137.42 225.174 135.716 226.062 134.204C226.974 132.668 228.21 131.48 229.77 130.64C231.354 129.776 233.118 129.344 235.062 129.344C236.958 129.344 238.674 129.752 240.21 130.568C241.746 131.384 242.946 132.56 243.81 134.096C244.698 135.608 245.142 137.372 245.142 139.388ZM235.098 133.592C233.826 133.592 232.758 133.952 231.894 134.672C231.03 135.392 230.502 136.376 230.31 137.624H239.85C239.658 136.4 239.13 135.428 238.266 134.708C237.402 133.964 236.346 133.592 235.098 133.592ZM261.373 148.064C260.821 148.472 260.137 148.784 259.321 149C258.529 149.192 257.689 149.288 256.801 149.288C254.497 149.288 252.709 148.7 251.437 147.524C250.189 146.348 249.565 144.62 249.565 142.34V134.384H246.577V130.064H249.565V125.348H255.181V130.064H260.005V134.384H255.181V142.268C255.181 143.084 255.385 143.72 255.793 144.176C256.225 144.608 256.825 144.824 257.593 144.824C258.481 144.824 259.237 144.584 259.861 144.104L261.373 148.064ZM272.338 129.344C275.338 129.344 277.642 130.064 279.25 131.504C280.858 132.92 281.662 135.068 281.662 137.948V149H276.406V146.588C275.35 148.388 273.382 149.288 270.502 149.288C269.014 149.288 267.718 149.036 266.614 148.532C265.534 148.028 264.706 147.332 264.13 146.444C263.554 145.556 263.266 144.548 263.266 143.42C263.266 141.62 263.938 140.204 265.282 139.172C266.65 138.14 268.75 137.624 271.582 137.624H276.046C276.046 136.4 275.674 135.464 274.93 134.816C274.186 134.144 273.07 133.808 271.582 133.808C270.55 133.808 269.53 133.976 268.522 134.312C267.538 134.624 266.698 135.056 266.002 135.608L263.986 131.684C265.042 130.94 266.302 130.364 267.766 129.956C269.254 129.548 270.778 129.344 272.338 129.344ZM271.906 145.508C272.866 145.508 273.718 145.292 274.462 144.86C275.206 144.404 275.734 143.744 276.046 142.88V140.9H272.194C269.89 140.9 268.738 141.656 268.738 143.168C268.738 143.888 269.014 144.464 269.566 144.896C270.142 145.304 270.922 145.508 271.906 145.508ZM305.617 129.632L297.445 149H291.649L283.513 129.632H289.309L294.673 142.808L300.217 129.632H305.617ZM326.353 139.388C326.353 139.46 326.317 139.964 326.245 140.9H311.593C311.857 142.1 312.481 143.048 313.465 143.744C314.449 144.44 315.673 144.788 317.137 144.788C318.145 144.788 319.033 144.644 319.801 144.356C320.593 144.044 321.325 143.564 321.997 142.916L324.985 146.156C323.161 148.244 320.497 149.288 316.993 149.288C314.809 149.288 312.877 148.868 311.197 148.028C309.517 147.164 308.221 145.976 307.309 144.464C306.397 142.952 305.941 141.236 305.941 139.316C305.941 137.42 306.385 135.716 307.273 134.204C308.185 132.668 309.421 131.48 310.981 130.64C312.565 129.776 314.329 129.344 316.273 129.344C318.169 129.344 319.885 129.752 321.421 130.568C322.957 131.384 324.157 132.56 325.021 134.096C325.909 135.608 326.353 137.372 326.353 139.388ZM316.309 133.592C315.037 133.592 313.969 133.952 313.105 134.672C312.241 135.392 311.713 136.376 311.521 137.624H321.061C320.869 136.4 320.341 135.428 319.477 134.708C318.613 133.964 317.557 133.592 316.309 133.592ZM335.456 132.188C336.128 131.252 337.028 130.544 338.156 130.064C339.308 129.584 340.628 129.344 342.116 129.344V134.528C341.492 134.48 341.072 134.456 340.856 134.456C339.248 134.456 337.988 134.912 337.076 135.824C336.164 136.712 335.708 138.056 335.708 139.856V149H330.092V129.632H335.456V132.188ZM352.042 149.288C350.434 149.288 348.862 149.096 347.326 148.712C345.79 148.304 344.566 147.8 343.654 147.2L345.526 143.168C346.39 143.72 347.434 144.176 348.658 144.536C349.882 144.872 351.082 145.04 352.258 145.04C354.634 145.04 355.822 144.452 355.822 143.276C355.822 142.724 355.498 142.328 354.85 142.088C354.202 141.848 353.206 141.644 351.862 141.476C350.278 141.236 348.97 140.96 347.938 140.648C346.906 140.336 346.006 139.784 345.238 138.992C344.494 138.2 344.122 137.072 344.122 135.608C344.122 134.384 344.47 133.304 345.166 132.368C345.886 131.408 346.918 130.664 348.262 130.136C349.63 129.608 351.238 129.344 353.086 129.344C354.454 129.344 355.81 129.5 357.154 129.812C358.522 130.1 359.65 130.508 360.538 131.036L358.666 135.032C356.962 134.072 355.102 133.592 353.086 133.592C351.886 133.592 350.986 133.76 350.386 134.096C349.786 134.432 349.486 134.864 349.486 135.392C349.486 135.992 349.81 136.412 350.458 136.652C351.106 136.892 352.138 137.12 353.554 137.336C355.138 137.6 356.434 137.888 357.442 138.2C358.45 138.488 359.326 139.028 360.07 139.82C360.814 140.612 361.186 141.716 361.186 143.132C361.186 144.332 360.826 145.4 360.106 146.336C359.386 147.272 358.33 148.004 356.938 148.532C355.57 149.036 353.938 149.288 352.042 149.288ZM383.623 139.388C383.623 139.46 383.587 139.964 383.515 140.9H368.863C369.127 142.1 369.751 143.048 370.735 143.744C371.719 144.44 372.943 144.788 374.407 144.788C375.415 144.788 376.303 144.644 377.071 144.356C377.863 144.044 378.595 143.564 379.267 142.916L382.255 146.156C380.431 148.244 377.767 149.288 374.263 149.288C372.079 149.288 370.147 148.868 368.467 148.028C366.787 147.164 365.491 145.976 364.579 144.464C363.667 142.952 363.211 141.236 363.211 139.316C363.211 137.42 363.655 135.716 364.543 134.204C365.455 132.668 366.691 131.48 368.251 130.64C369.835 129.776 371.599 129.344 373.543 129.344C375.439 129.344 377.155 129.752 378.691 130.568C380.227 131.384 381.427 132.56 382.291 134.096C383.179 135.608 383.623 137.372 383.623 139.388ZM373.579 133.592C372.307 133.592 371.239 133.952 370.375 134.672C369.511 135.392 368.983 136.376 368.791 137.624H378.331C378.139 136.4 377.611 135.428 376.747 134.708C375.883 133.964 374.827 133.592 373.579 133.592ZM398.666 123.8C400.898 123.8 402.83 124.172 404.462 124.916C406.118 125.66 407.39 126.716 408.278 128.084C409.166 129.452 409.61 131.072 409.61 132.944C409.61 134.792 409.166 136.412 408.278 137.804C407.39 139.172 406.118 140.228 404.462 140.972C402.83 141.692 400.898 142.052 398.666 142.052H393.59V149H387.758V123.8H398.666ZM398.342 137.3C400.094 137.3 401.426 136.928 402.338 136.184C403.25 135.416 403.706 134.336 403.706 132.944C403.706 131.528 403.25 130.448 402.338 129.704C401.426 128.936 400.094 128.552 398.342 128.552H393.59V137.3H398.342ZM413.729 122.288H419.345V149H413.729V122.288ZM444.069 129.632V149H438.741V146.696C437.997 147.536 437.109 148.184 436.077 148.64C435.045 149.072 433.929 149.288 432.729 149.288C430.185 149.288 428.169 148.556 426.681 147.092C425.193 145.628 424.449 143.456 424.449 140.576V129.632H430.065V139.748C430.065 142.868 431.373 144.428 433.989 144.428C435.333 144.428 436.413 143.996 437.229 143.132C438.045 142.244 438.453 140.936 438.453 139.208V129.632H444.069ZM455.788 149.288C454.18 149.288 452.608 149.096 451.072 148.712C449.536 148.304 448.312 147.8 447.4 147.2L449.272 143.168C450.136 143.72 451.18 144.176 452.404 144.536C453.628 144.872 454.828 145.04 456.004 145.04C458.38 145.04 459.568 144.452 459.568 143.276C459.568 142.724 459.244 142.328 458.596 142.088C457.948 141.848 456.952 141.644 455.608 141.476C454.024 141.236 452.716 140.96 451.684 140.648C450.652 140.336 449.752 139.784 448.984 138.992C448.24 138.2 447.868 137.072 447.868 135.608C447.868 134.384 448.216 133.304 448.912 132.368C449.632 131.408 450.664 130.664 452.008 130.136C453.376 129.608 454.984 129.344 456.832 129.344C458.2 129.344 459.556 129.5 460.9 129.812C462.268 130.1 463.396 130.508 464.284 131.036L462.412 135.032C460.708 134.072 458.848 133.592 456.832 133.592C455.632 133.592 454.732 133.76 454.132 134.096C453.532 134.432 453.232 134.864 453.232 135.392C453.232 135.992 453.556 136.412 454.204 136.652C454.852 136.892 455.884 137.12 457.3 137.336C458.884 137.6 460.18 137.888 461.188 138.2C462.196 138.488 463.072 139.028 463.816 139.82C464.56 140.612 464.932 141.716 464.932 143.132C464.932 144.332 464.572 145.4 463.852 146.336C463.132 147.272 462.076 148.004 460.684 148.532C459.316 149.036 457.684 149.288 455.788 149.288Z" fill="white"/>
  <path d="M194.739 182.2C196.009 182.2 197.007 182.503 197.735 183.11C198.463 183.717 198.827 184.552 198.827 185.616C198.827 186.68 198.463 187.515 197.735 188.122C197.007 188.729 196.009 189.032 194.739 189.032H192.317V192H190.917V182.2H194.739ZM194.697 187.814C195.584 187.814 196.261 187.627 196.727 187.254C197.194 186.871 197.427 186.325 197.427 185.616C197.427 184.907 197.194 184.365 196.727 183.992C196.261 183.609 195.584 183.418 194.697 183.418H192.317V187.814H194.697ZM203.839 192.084C203.101 192.084 202.439 191.921 201.851 191.594C201.263 191.267 200.801 190.819 200.465 190.25C200.138 189.671 199.975 189.018 199.975 188.29C199.975 187.562 200.138 186.913 200.465 186.344C200.801 185.765 201.263 185.317 201.851 185C202.439 184.673 203.101 184.51 203.839 184.51C204.576 184.51 205.234 184.673 205.813 185C206.401 185.317 206.858 185.765 207.185 186.344C207.521 186.913 207.689 187.562 207.689 188.29C207.689 189.018 207.521 189.671 207.185 190.25C206.858 190.819 206.401 191.267 205.813 191.594C205.234 191.921 204.576 192.084 203.839 192.084ZM203.839 190.908C204.315 190.908 204.739 190.801 205.113 190.586C205.495 190.362 205.794 190.054 206.009 189.662C206.223 189.261 206.331 188.803 206.331 188.29C206.331 187.777 206.223 187.324 206.009 186.932C205.794 186.531 205.495 186.223 205.113 186.008C204.739 185.793 204.315 185.686 203.839 185.686C203.363 185.686 202.933 185.793 202.551 186.008C202.177 186.223 201.879 186.531 201.655 186.932C201.44 187.324 201.333 187.777 201.333 188.29C201.333 188.803 201.44 189.261 201.655 189.662C201.879 190.054 202.177 190.362 202.551 190.586C202.933 190.801 203.363 190.908 203.839 190.908ZM220.57 184.58L217.798 192H216.51L214.368 186.372L212.198 192H210.91L208.152 184.58H209.426L211.582 190.488L213.822 184.58H214.956L217.154 190.516L219.366 184.58H220.57ZM228.435 188.332C228.435 188.435 228.426 188.57 228.407 188.738H222.387C222.471 189.391 222.756 189.919 223.241 190.32C223.736 190.712 224.347 190.908 225.075 190.908C225.962 190.908 226.676 190.609 227.217 190.012L227.959 190.88C227.623 191.272 227.203 191.571 226.699 191.776C226.204 191.981 225.649 192.084 225.033 192.084C224.249 192.084 223.554 191.925 222.947 191.608C222.34 191.281 221.869 190.829 221.533 190.25C221.206 189.671 221.043 189.018 221.043 188.29C221.043 187.571 221.202 186.923 221.519 186.344C221.846 185.765 222.289 185.317 222.849 185C223.418 184.673 224.058 184.51 224.767 184.51C225.476 184.51 226.106 184.673 226.657 185C227.217 185.317 227.651 185.765 227.959 186.344C228.276 186.923 228.435 187.585 228.435 188.332ZM224.767 185.644C224.123 185.644 223.582 185.84 223.143 186.232C222.714 186.624 222.462 187.137 222.387 187.772H227.147C227.072 187.147 226.816 186.638 226.377 186.246C225.948 185.845 225.411 185.644 224.767 185.644ZM231.589 185.826C231.823 185.397 232.168 185.07 232.625 184.846C233.083 184.622 233.638 184.51 234.291 184.51V185.812C234.217 185.803 234.114 185.798 233.983 185.798C233.255 185.798 232.681 186.017 232.261 186.456C231.851 186.885 231.645 187.501 231.645 188.304V192H230.301V184.58H231.589V185.826ZM242.585 188.332C242.585 188.435 242.576 188.57 242.557 188.738H236.537C236.621 189.391 236.906 189.919 237.391 190.32C237.886 190.712 238.497 190.908 239.225 190.908C240.112 190.908 240.826 190.609 241.367 190.012L242.109 190.88C241.773 191.272 241.353 191.571 240.849 191.776C240.355 191.981 239.799 192.084 239.183 192.084C238.399 192.084 237.704 191.925 237.097 191.608C236.491 191.281 236.019 190.829 235.683 190.25C235.357 189.671 235.193 189.018 235.193 188.29C235.193 187.571 235.352 186.923 235.669 186.344C235.996 185.765 236.439 185.317 236.999 185C237.569 184.673 238.208 184.51 238.917 184.51C239.627 184.51 240.257 184.673 240.807 185C241.367 185.317 241.801 185.765 242.109 186.344C242.427 186.923 242.585 187.585 242.585 188.332ZM238.917 185.644C238.273 185.644 237.732 185.84 237.293 186.232C236.864 186.624 236.612 187.137 236.537 187.772H241.297C241.223 187.147 240.966 186.638 240.527 186.246C240.098 185.845 239.561 185.644 238.917 185.644ZM251.452 181.612V192H250.164V190.824C249.865 191.235 249.487 191.547 249.03 191.762C248.572 191.977 248.068 192.084 247.518 192.084C246.799 192.084 246.155 191.925 245.586 191.608C245.016 191.291 244.568 190.847 244.242 190.278C243.924 189.699 243.766 189.037 243.766 188.29C243.766 187.543 243.924 186.885 244.242 186.316C244.568 185.747 245.016 185.303 245.586 184.986C246.155 184.669 246.799 184.51 247.518 184.51C248.05 184.51 248.54 184.613 248.988 184.818C249.436 185.014 249.809 185.308 250.108 185.7V181.612H251.452ZM247.63 190.908C248.096 190.908 248.521 190.801 248.904 190.586C249.286 190.362 249.585 190.054 249.8 189.662C250.014 189.261 250.122 188.803 250.122 188.29C250.122 187.777 250.014 187.324 249.8 186.932C249.585 186.531 249.286 186.223 248.904 186.008C248.521 185.793 248.096 185.686 247.63 185.686C247.154 185.686 246.724 185.793 246.342 186.008C245.968 186.223 245.67 186.531 245.446 186.932C245.231 187.324 245.124 187.777 245.124 188.29C245.124 188.803 245.231 189.261 245.446 189.662C245.67 190.054 245.968 190.362 246.342 190.586C246.724 190.801 247.154 190.908 247.63 190.908ZM261.688 184.51C262.407 184.51 263.051 184.669 263.62 184.986C264.19 185.303 264.633 185.747 264.95 186.316C265.277 186.885 265.44 187.543 265.44 188.29C265.44 189.037 265.277 189.699 264.95 190.278C264.633 190.847 264.19 191.291 263.62 191.608C263.051 191.925 262.407 192.084 261.688 192.084C261.138 192.084 260.634 191.977 260.176 191.762C259.719 191.547 259.341 191.235 259.042 190.824V192H257.754V181.612H259.098V185.7C259.397 185.308 259.77 185.014 260.218 184.818C260.666 184.613 261.156 184.51 261.688 184.51ZM261.576 190.908C262.052 190.908 262.477 190.801 262.85 190.586C263.233 190.362 263.532 190.054 263.746 189.662C263.97 189.261 264.082 188.803 264.082 188.29C264.082 187.777 263.97 187.324 263.746 186.932C263.532 186.531 263.233 186.223 262.85 186.008C262.477 185.793 262.052 185.686 261.576 185.686C261.11 185.686 260.685 185.793 260.302 186.008C259.92 186.223 259.621 186.531 259.406 186.932C259.192 187.324 259.084 187.777 259.084 188.29C259.084 188.803 259.192 189.261 259.406 189.662C259.621 190.054 259.92 190.362 260.302 190.586C260.685 190.801 261.11 190.908 261.576 190.908ZM273.658 184.58L270.06 192.742C269.743 193.498 269.37 194.03 268.94 194.338C268.52 194.646 268.012 194.8 267.414 194.8C267.05 194.8 266.696 194.739 266.35 194.618C266.014 194.506 265.734 194.338 265.51 194.114L266.084 193.106C266.467 193.47 266.91 193.652 267.414 193.652C267.741 193.652 268.012 193.563 268.226 193.386C268.45 193.218 268.651 192.924 268.828 192.504L269.066 191.986L265.79 184.58H267.19L269.78 190.516L272.342 184.58H273.658ZM287.548 182.2V192H285.686L280.8 186.05V192H278.56V182.2H280.436L285.308 188.15V182.2H287.548ZM292.135 184.02V186.61H296.671V188.43H292.135V192H289.867V182.2H297.273V184.02H292.135ZM300.907 184.048H297.771V182.2H306.311V184.048H303.175V192H300.907V184.048ZM311.599 181.612H312.845V194.716H311.599V181.612ZM326.43 186.904C326.99 187.081 327.429 187.38 327.746 187.8C328.064 188.211 328.222 188.719 328.222 189.326C328.222 190.185 327.886 190.847 327.214 191.314C326.552 191.771 325.581 192 324.302 192H319.234V182.2H324.022C325.217 182.2 326.132 182.429 326.766 182.886C327.41 183.343 327.732 183.964 327.732 184.748C327.732 185.224 327.616 185.649 327.382 186.022C327.158 186.395 326.841 186.689 326.43 186.904ZM321.488 183.908V186.218H323.742C324.302 186.218 324.727 186.12 325.016 185.924C325.306 185.728 325.45 185.439 325.45 185.056C325.45 184.673 325.306 184.389 325.016 184.202C324.727 184.006 324.302 183.908 323.742 183.908H321.488ZM324.134 190.292C324.732 190.292 325.18 190.194 325.478 189.998C325.786 189.802 325.94 189.499 325.94 189.088C325.94 188.276 325.338 187.87 324.134 187.87H321.488V190.292H324.134ZM336.183 192L334.293 189.27H334.181H332.207V192H329.939V182.2H334.181C335.049 182.2 335.801 182.345 336.435 182.634C337.079 182.923 337.574 183.334 337.919 183.866C338.265 184.398 338.437 185.028 338.437 185.756C338.437 186.484 338.26 187.114 337.905 187.646C337.56 188.169 337.065 188.57 336.421 188.85L338.619 192H336.183ZM336.141 185.756C336.141 185.205 335.964 184.785 335.609 184.496C335.255 184.197 334.737 184.048 334.055 184.048H332.207V187.464H334.055C334.737 187.464 335.255 187.315 335.609 187.016C335.964 186.717 336.141 186.297 336.141 185.756ZM346.688 189.9H342.138L341.27 192H338.946L343.314 182.2H345.554L349.936 192H347.556L346.688 189.9ZM345.974 188.178L344.42 184.426L342.866 188.178H345.974ZM359.941 182.2V192H358.079L353.193 186.05V192H350.953V182.2H352.829L357.701 188.15V182.2H359.941ZM362.26 182.2H366.712C367.776 182.2 368.714 182.405 369.526 182.816C370.347 183.217 370.982 183.787 371.43 184.524C371.887 185.261 372.116 186.12 372.116 187.1C372.116 188.08 371.887 188.939 371.43 189.676C370.982 190.413 370.347 190.987 369.526 191.398C368.714 191.799 367.776 192 366.712 192H362.26V182.2ZM366.6 190.138C367.58 190.138 368.359 189.867 368.938 189.326C369.526 188.775 369.82 188.033 369.82 187.1C369.82 186.167 369.526 185.429 368.938 184.888C368.359 184.337 367.58 184.062 366.6 184.062H364.528V190.138H366.6ZM377.046 192.168C376.271 192.168 375.52 192.065 374.792 191.86C374.073 191.645 373.495 191.37 373.056 191.034L373.826 189.326C374.246 189.634 374.745 189.881 375.324 190.068C375.903 190.255 376.481 190.348 377.06 190.348C377.704 190.348 378.18 190.255 378.488 190.068C378.796 189.872 378.95 189.615 378.95 189.298C378.95 189.065 378.857 188.873 378.67 188.724C378.493 188.565 378.259 188.439 377.97 188.346C377.69 188.253 377.307 188.15 376.822 188.038C376.075 187.861 375.464 187.683 374.988 187.506C374.512 187.329 374.101 187.044 373.756 186.652C373.42 186.26 373.252 185.737 373.252 185.084C373.252 184.515 373.406 184.001 373.714 183.544C374.022 183.077 374.484 182.709 375.1 182.438C375.725 182.167 376.486 182.032 377.382 182.032C378.007 182.032 378.619 182.107 379.216 182.256C379.813 182.405 380.336 182.62 380.784 182.9L380.084 184.622C379.179 184.109 378.273 183.852 377.368 183.852C376.733 183.852 376.262 183.955 375.954 184.16C375.655 184.365 375.506 184.636 375.506 184.972C375.506 185.308 375.679 185.56 376.024 185.728C376.379 185.887 376.915 186.045 377.634 186.204C378.381 186.381 378.992 186.559 379.468 186.736C379.944 186.913 380.35 187.193 380.686 187.576C381.031 187.959 381.204 188.477 381.204 189.13C381.204 189.69 381.045 190.203 380.728 190.67C380.42 191.127 379.953 191.491 379.328 191.762C378.703 192.033 377.942 192.168 377.046 192.168ZM386.719 182.2H388.987V192H386.719V182.2ZM400.3 182.2V192H398.438L393.552 186.05V192H391.312V182.2H393.188L398.06 188.15V182.2H400.3ZM407.309 192.168C406.31 192.168 405.405 191.953 404.593 191.524C403.79 191.085 403.156 190.483 402.689 189.718C402.232 188.943 402.003 188.071 402.003 187.1C402.003 186.129 402.232 185.261 402.689 184.496C403.156 183.721 403.79 183.119 404.593 182.69C405.405 182.251 406.315 182.032 407.323 182.032C408.172 182.032 408.938 182.181 409.619 182.48C410.31 182.779 410.888 183.208 411.355 183.768L409.899 185.112C409.236 184.347 408.415 183.964 407.435 183.964C406.828 183.964 406.287 184.099 405.811 184.37C405.335 184.631 404.962 185 404.691 185.476C404.43 185.952 404.299 186.493 404.299 187.1C404.299 187.707 404.43 188.248 404.691 188.724C404.962 189.2 405.335 189.573 405.811 189.844C406.287 190.105 406.828 190.236 407.435 190.236C408.415 190.236 409.236 189.849 409.899 189.074L411.355 190.418C410.888 190.987 410.31 191.421 409.619 191.72C408.928 192.019 408.158 192.168 407.309 192.168ZM413.723 192.112C413.34 192.112 413.018 191.981 412.757 191.72C412.495 191.459 412.365 191.132 412.365 190.74C412.365 190.339 412.495 190.017 412.757 189.774C413.018 189.522 413.34 189.396 413.723 189.396C414.105 189.396 414.427 189.522 414.689 189.774C414.95 190.017 415.081 190.339 415.081 190.74C415.081 191.132 414.95 191.459 414.689 191.72C414.427 191.981 414.105 192.112 413.723 192.112Z" fill="white"/>
  <path opacity="0.65" d="M194.683 236.042C193.769 236.042 192.933 235.823 192.177 235.384C191.431 234.945 190.838 234.348 190.399 233.592C189.97 232.836 189.755 232.005 189.755 231.1C189.755 230.195 189.97 229.364 190.399 228.608C190.838 227.852 191.435 227.255 192.191 226.816C192.947 226.377 193.787 226.158 194.711 226.158C195.635 226.158 196.471 226.373 197.217 226.802C197.973 227.231 198.566 227.824 198.995 228.58C199.425 229.327 199.639 230.157 199.639 231.072C199.639 231.987 199.42 232.827 198.981 233.592C198.543 234.348 197.945 234.945 197.189 235.384C196.433 235.823 195.598 236.042 194.683 236.042ZM194.683 235.524C195.505 235.524 196.251 235.328 196.923 234.936C197.595 234.535 198.127 233.998 198.519 233.326C198.911 232.645 199.107 231.893 199.107 231.072C199.107 230.251 198.916 229.509 198.533 228.846C198.151 228.174 197.623 227.647 196.951 227.264C196.289 226.872 195.542 226.676 194.711 226.676C193.881 226.676 193.125 226.872 192.443 227.264C191.771 227.656 191.239 228.193 190.847 228.874C190.465 229.546 190.273 230.288 190.273 231.1C190.273 231.912 190.465 232.659 190.847 233.34C191.239 234.012 191.771 234.544 192.443 234.936C193.115 235.328 193.862 235.524 194.683 235.524ZM194.809 234.012C194.259 234.012 193.759 233.891 193.311 233.648C192.873 233.396 192.527 233.051 192.275 232.612C192.023 232.164 191.897 231.66 191.897 231.1C191.897 230.54 192.023 230.041 192.275 229.602C192.527 229.154 192.873 228.809 193.311 228.566C193.759 228.314 194.259 228.188 194.809 228.188C195.285 228.188 195.715 228.286 196.097 228.482C196.489 228.669 196.802 228.93 197.035 229.266L196.433 229.714C196.237 229.443 195.999 229.243 195.719 229.112C195.439 228.981 195.131 228.916 194.795 228.916C194.189 228.916 193.685 229.117 193.283 229.518C192.891 229.919 192.695 230.447 192.695 231.1C192.695 231.753 192.891 232.281 193.283 232.682C193.685 233.083 194.189 233.284 194.795 233.284C195.131 233.284 195.439 233.219 195.719 233.088C195.999 232.957 196.237 232.757 196.433 232.486L197.035 232.92C196.802 233.265 196.489 233.536 196.097 233.732C195.715 233.919 195.285 234.012 194.809 234.012ZM211.432 235.104V236H204.558V235.286L208.632 231.296C209.145 230.792 209.49 230.358 209.668 229.994C209.854 229.621 209.948 229.247 209.948 228.874C209.948 228.295 209.747 227.847 209.346 227.53C208.954 227.203 208.389 227.04 207.652 227.04C206.504 227.04 205.612 227.404 204.978 228.132L204.264 227.516C204.646 227.068 205.132 226.723 205.72 226.48C206.317 226.237 206.989 226.116 207.736 226.116C208.734 226.116 209.523 226.354 210.102 226.83C210.69 227.297 210.984 227.941 210.984 228.762C210.984 229.266 210.872 229.751 210.648 230.218C210.424 230.685 209.999 231.221 209.374 231.828L206.042 235.104H211.432ZM216.548 236.084C215.792 236.084 215.115 235.883 214.518 235.482C213.93 235.081 213.468 234.507 213.132 233.76C212.805 233.004 212.642 232.117 212.642 231.1C212.642 230.083 212.805 229.201 213.132 228.454C213.468 227.698 213.93 227.119 214.518 226.718C215.115 226.317 215.792 226.116 216.548 226.116C217.304 226.116 217.976 226.317 218.564 226.718C219.161 227.119 219.628 227.698 219.964 228.454C220.3 229.201 220.468 230.083 220.468 231.1C220.468 232.117 220.3 233.004 219.964 233.76C219.628 234.507 219.161 235.081 218.564 235.482C217.976 235.883 217.304 236.084 216.548 236.084ZM216.548 235.16C217.117 235.16 217.617 235.001 218.046 234.684C218.485 234.367 218.825 233.905 219.068 233.298C219.311 232.691 219.432 231.959 219.432 231.1C219.432 230.241 219.311 229.509 219.068 228.902C218.825 228.295 218.485 227.833 218.046 227.516C217.617 227.199 217.117 227.04 216.548 227.04C215.979 227.04 215.475 227.199 215.036 227.516C214.607 227.833 214.271 228.295 214.028 228.902C213.785 229.509 213.664 230.241 213.664 231.1C213.664 231.959 213.785 232.691 214.028 233.298C214.271 233.905 214.607 234.367 215.036 234.684C215.475 235.001 215.979 235.16 216.548 235.16ZM228.576 235.104V236H221.702V235.286L225.776 231.296C226.29 230.792 226.635 230.358 226.812 229.994C226.999 229.621 227.092 229.247 227.092 228.874C227.092 228.295 226.892 227.847 226.49 227.53C226.098 227.203 225.534 227.04 224.796 227.04C223.648 227.04 222.757 227.404 222.122 228.132L221.408 227.516C221.791 227.068 222.276 226.723 222.864 226.48C223.462 226.237 224.134 226.116 224.88 226.116C225.879 226.116 226.668 226.354 227.246 226.83C227.834 227.297 228.128 227.941 228.128 228.762C228.128 229.266 228.016 229.751 227.792 230.218C227.568 230.685 227.144 231.221 226.518 231.828L223.186 235.104H228.576ZM236.533 235.104V236H229.659V235.286L233.733 231.296C234.247 230.792 234.592 230.358 234.769 229.994C234.956 229.621 235.049 229.247 235.049 228.874C235.049 228.295 234.849 227.847 234.447 227.53C234.055 227.203 233.491 227.04 232.753 227.04C231.605 227.04 230.714 227.404 230.079 228.132L229.365 227.516C229.748 227.068 230.233 226.723 230.821 226.48C231.419 226.237 232.091 226.116 232.837 226.116C233.836 226.116 234.625 226.354 235.203 226.83C235.791 227.297 236.085 227.941 236.085 228.762C236.085 229.266 235.973 229.751 235.749 230.218C235.525 230.685 235.101 231.221 234.475 231.828L231.143 235.104H236.533ZM252.508 226.2V236H251.514V228.16L247.664 234.754H247.174L243.324 228.202V236H242.33V226.2H243.184L247.44 233.466L251.654 226.2H252.508ZM261.903 232.626H255.743C255.799 233.391 256.093 234.012 256.625 234.488C257.157 234.955 257.829 235.188 258.641 235.188C259.099 235.188 259.519 235.109 259.901 234.95C260.284 234.782 260.615 234.539 260.895 234.222L261.455 234.866C261.129 235.258 260.718 235.557 260.223 235.762C259.738 235.967 259.201 236.07 258.613 236.07C257.857 236.07 257.185 235.911 256.597 235.594C256.019 235.267 255.566 234.819 255.239 234.25C254.913 233.681 254.749 233.037 254.749 232.318C254.749 231.599 254.903 230.955 255.211 230.386C255.529 229.817 255.958 229.373 256.499 229.056C257.05 228.739 257.666 228.58 258.347 228.58C259.029 228.58 259.64 228.739 260.181 229.056C260.723 229.373 261.147 229.817 261.455 230.386C261.763 230.946 261.917 231.59 261.917 232.318L261.903 232.626ZM258.347 229.434C257.638 229.434 257.041 229.663 256.555 230.12C256.079 230.568 255.809 231.156 255.743 231.884H260.965C260.9 231.156 260.625 230.568 260.139 230.12C259.663 229.663 259.066 229.434 258.347 229.434ZM267.819 235.552C267.632 235.72 267.399 235.851 267.119 235.944C266.848 236.028 266.563 236.07 266.265 236.07C265.574 236.07 265.042 235.883 264.669 235.51C264.295 235.137 264.109 234.609 264.109 233.928V229.476H262.793V228.636H264.109V227.026H265.103V228.636H267.343V229.476H265.103V233.872C265.103 234.311 265.21 234.647 265.425 234.88C265.649 235.104 265.966 235.216 266.377 235.216C266.582 235.216 266.778 235.183 266.965 235.118C267.161 235.053 267.329 234.959 267.469 234.838L267.819 235.552ZM272.204 228.58C273.166 228.58 273.903 228.823 274.416 229.308C274.93 229.784 275.186 230.493 275.186 231.436V236H274.234V234.852C274.01 235.235 273.679 235.533 273.24 235.748C272.811 235.963 272.298 236.07 271.7 236.07C270.879 236.07 270.226 235.874 269.74 235.482C269.255 235.09 269.012 234.572 269.012 233.928C269.012 233.303 269.236 232.799 269.684 232.416C270.142 232.033 270.865 231.842 271.854 231.842H274.192V231.394C274.192 230.759 274.015 230.279 273.66 229.952C273.306 229.616 272.788 229.448 272.106 229.448C271.64 229.448 271.192 229.527 270.762 229.686C270.333 229.835 269.964 230.045 269.656 230.316L269.208 229.574C269.582 229.257 270.03 229.014 270.552 228.846C271.075 228.669 271.626 228.58 272.204 228.58ZM271.854 235.286C272.414 235.286 272.895 235.16 273.296 234.908C273.698 234.647 273.996 234.273 274.192 233.788V232.584H271.882C270.622 232.584 269.992 233.023 269.992 233.9C269.992 234.329 270.156 234.67 270.482 234.922C270.809 235.165 271.266 235.286 271.854 235.286ZM283.937 228.636L280.661 236H279.639L276.377 228.636H277.413L280.171 234.908L282.957 228.636H283.937ZM291.544 232.626H285.384C285.44 233.391 285.734 234.012 286.266 234.488C286.798 234.955 287.47 235.188 288.282 235.188C288.739 235.188 289.159 235.109 289.542 234.95C289.925 234.782 290.256 234.539 290.536 234.222L291.096 234.866C290.769 235.258 290.359 235.557 289.864 235.762C289.379 235.967 288.842 236.07 288.254 236.07C287.498 236.07 286.826 235.911 286.238 235.594C285.659 235.267 285.207 234.819 284.88 234.25C284.553 233.681 284.39 233.037 284.39 232.318C284.39 231.599 284.544 230.955 284.852 230.386C285.169 229.817 285.599 229.373 286.14 229.056C286.691 228.739 287.307 228.58 287.988 228.58C288.669 228.58 289.281 228.739 289.822 229.056C290.363 229.373 290.788 229.817 291.096 230.386C291.404 230.946 291.558 231.59 291.558 232.318L291.544 232.626ZM287.988 229.434C287.279 229.434 286.681 229.663 286.196 230.12C285.72 230.568 285.449 231.156 285.384 231.884H290.606C290.541 231.156 290.265 230.568 289.78 230.12C289.304 229.663 288.707 229.434 287.988 229.434ZM294.533 230.078C294.767 229.583 295.112 229.21 295.569 228.958C296.036 228.706 296.61 228.58 297.291 228.58V229.546L297.053 229.532C296.279 229.532 295.672 229.77 295.233 230.246C294.795 230.722 294.575 231.389 294.575 232.248V236H293.581V228.636H294.533V230.078ZM301.12 236.07C300.522 236.07 299.948 235.986 299.398 235.818C298.856 235.641 298.432 235.421 298.124 235.16L298.572 234.376C298.88 234.619 299.267 234.819 299.734 234.978C300.2 235.127 300.686 235.202 301.19 235.202C301.862 235.202 302.356 235.099 302.674 234.894C303 234.679 303.164 234.381 303.164 233.998C303.164 233.727 303.075 233.517 302.898 233.368C302.72 233.209 302.496 233.093 302.226 233.018C301.955 232.934 301.596 232.855 301.148 232.78C300.55 232.668 300.07 232.556 299.706 232.444C299.342 232.323 299.029 232.122 298.768 231.842C298.516 231.562 298.39 231.175 298.39 230.68C298.39 230.064 298.646 229.56 299.16 229.168C299.673 228.776 300.387 228.58 301.302 228.58C301.778 228.58 302.254 228.645 302.73 228.776C303.206 228.897 303.598 229.061 303.906 229.266L303.472 230.064C302.865 229.644 302.142 229.434 301.302 229.434C300.667 229.434 300.186 229.546 299.86 229.77C299.542 229.994 299.384 230.288 299.384 230.652C299.384 230.932 299.472 231.156 299.65 231.324C299.836 231.492 300.065 231.618 300.336 231.702C300.606 231.777 300.98 231.856 301.456 231.94C302.044 232.052 302.515 232.164 302.87 232.276C303.224 232.388 303.528 232.579 303.78 232.85C304.032 233.121 304.158 233.494 304.158 233.97C304.158 234.614 303.887 235.127 303.346 235.51C302.814 235.883 302.072 236.07 301.12 236.07ZM312.407 232.626H306.247C306.303 233.391 306.597 234.012 307.129 234.488C307.661 234.955 308.333 235.188 309.145 235.188C309.603 235.188 310.023 235.109 310.405 234.95C310.788 234.782 311.119 234.539 311.399 234.222L311.959 234.866C311.633 235.258 311.222 235.557 310.727 235.762C310.242 235.967 309.705 236.07 309.117 236.07C308.361 236.07 307.689 235.911 307.101 235.594C306.523 235.267 306.07 234.819 305.743 234.25C305.417 233.681 305.253 233.037 305.253 232.318C305.253 231.599 305.407 230.955 305.715 230.386C306.033 229.817 306.462 229.373 307.003 229.056C307.554 228.739 308.17 228.58 308.851 228.58C309.533 228.58 310.144 228.739 310.685 229.056C311.227 229.373 311.651 229.817 311.959 230.386C312.267 230.946 312.421 231.59 312.421 232.318L312.407 232.626ZM308.851 229.434C308.142 229.434 307.545 229.663 307.059 230.12C306.583 230.568 306.313 231.156 306.247 231.884H311.469C311.404 231.156 311.129 230.568 310.643 230.12C310.167 229.663 309.57 229.434 308.851 229.434ZM318.323 226.2C319.573 226.2 320.553 226.499 321.263 227.096C321.972 227.693 322.327 228.515 322.327 229.56C322.327 230.605 321.972 231.427 321.263 232.024C320.553 232.612 319.573 232.906 318.323 232.906H315.691V236H314.655V226.2H318.323ZM318.295 231.996C319.265 231.996 320.007 231.786 320.521 231.366C321.034 230.937 321.291 230.335 321.291 229.56C321.291 228.767 321.034 228.16 320.521 227.74C320.007 227.311 319.265 227.096 318.295 227.096H315.691V231.996H318.295ZM324.493 225.612H325.487V236H324.493V225.612ZM334.889 228.636V236H333.937V234.656C333.676 235.104 333.317 235.454 332.859 235.706C332.402 235.949 331.879 236.07 331.291 236.07C330.33 236.07 329.569 235.804 329.009 235.272C328.459 234.731 328.183 233.942 328.183 232.906V228.636H329.177V232.808C329.177 233.583 329.369 234.171 329.751 234.572C330.134 234.973 330.68 235.174 331.389 235.174C332.164 235.174 332.775 234.941 333.223 234.474C333.671 233.998 333.895 233.34 333.895 232.5V228.636H334.889ZM339.647 236.07C339.05 236.07 338.476 235.986 337.925 235.818C337.384 235.641 336.959 235.421 336.651 235.16L337.099 234.376C337.407 234.619 337.794 234.819 338.261 234.978C338.728 235.127 339.213 235.202 339.717 235.202C340.389 235.202 340.884 235.099 341.201 234.894C341.528 234.679 341.691 234.381 341.691 233.998C341.691 233.727 341.602 233.517 341.425 233.368C341.248 233.209 341.024 233.093 340.753 233.018C340.482 232.934 340.123 232.855 339.675 232.78C339.078 232.668 338.597 232.556 338.233 232.444C337.869 232.323 337.556 232.122 337.295 231.842C337.043 231.562 336.917 231.175 336.917 230.68C336.917 230.064 337.174 229.56 337.687 229.168C338.2 228.776 338.914 228.58 339.829 228.58C340.305 228.58 340.781 228.645 341.257 228.776C341.733 228.897 342.125 229.061 342.433 229.266L341.999 230.064C341.392 229.644 340.669 229.434 339.829 229.434C339.194 229.434 338.714 229.546 338.387 229.77C338.07 229.994 337.911 230.288 337.911 230.652C337.911 230.932 338 231.156 338.177 231.324C338.364 231.492 338.592 231.618 338.863 231.702C339.134 231.777 339.507 231.856 339.983 231.94C340.571 232.052 341.042 232.164 341.397 232.276C341.752 232.388 342.055 232.579 342.307 232.85C342.559 233.121 342.685 233.494 342.685 233.97C342.685 234.614 342.414 235.127 341.873 235.51C341.341 235.883 340.599 236.07 339.647 236.07ZM348.397 225.612H349.321V238.716H348.397V225.612ZM362.336 233.382H356.876L355.7 236H354.622L359.102 226.2H360.124L364.604 236H363.512L362.336 233.382ZM361.958 232.542L359.606 227.278L357.254 232.542H361.958ZM366.015 225.612H367.009V236H366.015V225.612ZM369.775 225.612H370.769V236H369.775V225.612ZM384.101 236L381.861 232.85C381.609 232.878 381.347 232.892 381.077 232.892H378.445V236H377.409V226.2H381.077C382.327 226.2 383.307 226.499 384.017 227.096C384.726 227.693 385.081 228.515 385.081 229.56C385.081 230.325 384.885 230.974 384.493 231.506C384.11 232.029 383.559 232.407 382.841 232.64L385.235 236H384.101ZM381.049 232.01C382.019 232.01 382.761 231.795 383.275 231.366C383.788 230.937 384.044 230.335 384.044 229.56C384.044 228.767 383.788 228.16 383.275 227.74C382.761 227.311 382.019 227.096 381.049 227.096H378.445V232.01H381.049ZM387.316 228.636H388.31V236H387.316V228.636ZM387.82 227.026C387.614 227.026 387.442 226.956 387.302 226.816C387.162 226.676 387.092 226.508 387.092 226.312C387.092 226.125 387.162 225.962 387.302 225.822C387.442 225.682 387.614 225.612 387.82 225.612C388.025 225.612 388.198 225.682 388.338 225.822C388.478 225.953 388.548 226.111 388.548 226.298C388.548 226.503 388.478 226.676 388.338 226.816C388.198 226.956 388.025 227.026 387.82 227.026ZM397.893 228.636V235.104C397.893 236.355 397.585 237.279 396.969 237.876C396.363 238.483 395.443 238.786 394.211 238.786C393.53 238.786 392.881 238.683 392.265 238.478C391.659 238.282 391.164 238.007 390.781 237.652L391.285 236.896C391.64 237.213 392.069 237.461 392.573 237.638C393.087 237.815 393.623 237.904 394.183 237.904C395.117 237.904 395.803 237.685 396.241 237.246C396.68 236.817 396.899 236.145 396.899 235.23V234.292C396.591 234.759 396.185 235.113 395.681 235.356C395.187 235.599 394.636 235.72 394.029 235.72C393.339 235.72 392.709 235.571 392.139 235.272C391.579 234.964 391.136 234.539 390.809 233.998C390.492 233.447 390.333 232.827 390.333 232.136C390.333 231.445 390.492 230.829 390.809 230.288C391.136 229.747 391.579 229.327 392.139 229.028C392.699 228.729 393.329 228.58 394.029 228.58C394.655 228.58 395.219 228.706 395.723 228.958C396.227 229.21 396.633 229.574 396.941 230.05V228.636H397.893ZM394.127 234.838C394.659 234.838 395.14 234.726 395.569 234.502C395.999 234.269 396.33 233.947 396.563 233.536C396.806 233.125 396.927 232.659 396.927 232.136C396.927 231.613 396.806 231.151 396.563 230.75C396.33 230.339 395.999 230.022 395.569 229.798C395.149 229.565 394.669 229.448 394.127 229.448C393.595 229.448 393.115 229.56 392.685 229.784C392.265 230.008 391.934 230.325 391.691 230.736C391.458 231.147 391.341 231.613 391.341 232.136C391.341 232.659 391.458 233.125 391.691 233.536C391.934 233.947 392.265 234.269 392.685 234.502C393.115 234.726 393.595 234.838 394.127 234.838ZM404.425 228.58C405.349 228.58 406.082 228.851 406.623 229.392C407.174 229.924 407.449 230.703 407.449 231.73V236H406.455V231.828C406.455 231.063 406.264 230.479 405.881 230.078C405.498 229.677 404.952 229.476 404.243 229.476C403.45 229.476 402.82 229.714 402.353 230.19C401.896 230.657 401.667 231.305 401.667 232.136V236H400.673V225.612H401.667V229.924C401.938 229.495 402.311 229.163 402.787 228.93C403.263 228.697 403.809 228.58 404.425 228.58ZM414.026 235.552C413.839 235.72 413.606 235.851 413.326 235.944C413.055 236.028 412.77 236.07 412.472 236.07C411.781 236.07 411.249 235.883 410.876 235.51C410.502 235.137 410.316 234.609 410.316 233.928V229.476H409V228.636H410.316V227.026H411.31V228.636H413.55V229.476H411.31V233.872C411.31 234.311 411.417 234.647 411.632 234.88C411.856 235.104 412.173 235.216 412.584 235.216C412.789 235.216 412.985 235.183 413.172 235.118C413.368 235.053 413.536 234.959 413.676 234.838L414.026 235.552ZM417.809 236.07C417.212 236.07 416.638 235.986 416.087 235.818C415.546 235.641 415.121 235.421 414.813 235.16L415.261 234.376C415.569 234.619 415.957 234.819 416.423 234.978C416.89 235.127 417.375 235.202 417.879 235.202C418.551 235.202 419.046 235.099 419.363 234.894C419.69 234.679 419.853 234.381 419.853 233.998C419.853 233.727 419.765 233.517 419.587 233.368C419.41 233.209 419.186 233.093 418.915 233.018C418.645 232.934 418.285 232.855 417.837 232.78C417.24 232.668 416.759 232.556 416.395 232.444C416.031 232.323 415.719 232.122 415.457 231.842C415.205 231.562 415.079 231.175 415.079 230.68C415.079 230.064 415.336 229.56 415.849 229.168C416.363 228.776 417.077 228.58 417.991 228.58C418.467 228.58 418.943 228.645 419.419 228.776C419.895 228.897 420.287 229.061 420.595 229.266L420.161 230.064C419.555 229.644 418.831 229.434 417.991 229.434C417.357 229.434 416.876 229.546 416.549 229.77C416.232 229.994 416.073 230.288 416.073 230.652C416.073 230.932 416.162 231.156 416.339 231.324C416.526 231.492 416.755 231.618 417.025 231.702C417.296 231.777 417.669 231.856 418.145 231.94C418.733 232.052 419.205 232.164 419.559 232.276C419.914 232.388 420.217 232.579 420.469 232.85C420.721 233.121 420.847 233.494 420.847 233.97C420.847 234.614 420.577 235.127 420.035 235.51C419.503 235.883 418.761 236.07 417.809 236.07ZM433.251 236L431.011 232.85C430.759 232.878 430.498 232.892 430.227 232.892H427.595V236H426.559V226.2H430.227C431.478 226.2 432.458 226.499 433.167 227.096C433.876 227.693 434.231 228.515 434.231 229.56C434.231 230.325 434.035 230.974 433.643 231.506C433.26 232.029 432.71 232.407 431.991 232.64L434.385 236H433.251ZM430.199 232.01C431.17 232.01 431.912 231.795 432.425 231.366C432.938 230.937 433.195 230.335 433.195 229.56C433.195 228.767 432.938 228.16 432.425 227.74C431.912 227.311 431.17 227.096 430.199 227.096H427.595V232.01H430.199ZM442.878 232.626H436.718C436.774 233.391 437.068 234.012 437.6 234.488C438.132 234.955 438.804 235.188 439.616 235.188C440.073 235.188 440.493 235.109 440.876 234.95C441.259 234.782 441.59 234.539 441.87 234.222L442.43 234.866C442.103 235.258 441.693 235.557 441.198 235.762C440.713 235.967 440.176 236.07 439.588 236.07C438.832 236.07 438.16 235.911 437.572 235.594C436.993 235.267 436.541 234.819 436.214 234.25C435.887 233.681 435.724 233.037 435.724 232.318C435.724 231.599 435.878 230.955 436.186 230.386C436.503 229.817 436.933 229.373 437.474 229.056C438.025 228.739 438.641 228.58 439.322 228.58C440.003 228.58 440.615 228.739 441.156 229.056C441.697 229.373 442.122 229.817 442.43 230.386C442.738 230.946 442.892 231.59 442.892 232.318L442.878 232.626ZM439.322 229.434C438.613 229.434 438.015 229.663 437.53 230.12C437.054 230.568 436.783 231.156 436.718 231.884H441.94C441.875 231.156 441.599 230.568 441.114 230.12C440.638 229.663 440.041 229.434 439.322 229.434ZM446.889 236.07C446.292 236.07 445.718 235.986 445.167 235.818C444.626 235.641 444.201 235.421 443.893 235.16L444.341 234.376C444.649 234.619 445.037 234.819 445.503 234.978C445.97 235.127 446.455 235.202 446.959 235.202C447.631 235.202 448.126 235.099 448.443 234.894C448.77 234.679 448.933 234.381 448.933 233.998C448.933 233.727 448.845 233.517 448.667 233.368C448.49 233.209 448.266 233.093 447.995 233.018C447.725 232.934 447.365 232.855 446.917 232.78C446.32 232.668 445.839 232.556 445.475 232.444C445.111 232.323 444.799 232.122 444.537 231.842C444.285 231.562 444.159 231.175 444.159 230.68C444.159 230.064 444.416 229.56 444.929 229.168C445.443 228.776 446.157 228.58 447.071 228.58C447.547 228.58 448.023 228.645 448.499 228.776C448.975 228.897 449.367 229.061 449.675 229.266L449.241 230.064C448.635 229.644 447.911 229.434 447.071 229.434C446.437 229.434 445.956 229.546 445.629 229.77C445.312 229.994 445.153 230.288 445.153 230.652C445.153 230.932 445.242 231.156 445.419 231.324C445.606 231.492 445.835 231.618 446.105 231.702C446.376 231.777 446.749 231.856 447.225 231.94C447.813 232.052 448.285 232.164 448.639 232.276C448.994 232.388 449.297 232.579 449.549 232.85C449.801 233.121 449.927 233.494 449.927 233.97C449.927 234.614 449.657 235.127 449.115 235.51C448.583 235.883 447.841 236.07 446.889 236.07ZM458.177 232.626H452.017C452.073 233.391 452.367 234.012 452.899 234.488C453.431 234.955 454.103 235.188 454.915 235.188C455.372 235.188 455.792 235.109 456.175 234.95C456.558 234.782 456.889 234.539 457.169 234.222L457.729 234.866C457.402 235.258 456.992 235.557 456.497 235.762C456.012 235.967 455.475 236.07 454.887 236.07C454.131 236.07 453.459 235.911 452.871 235.594C452.292 235.267 451.84 234.819 451.513 234.25C451.186 233.681 451.023 233.037 451.023 232.318C451.023 231.599 451.177 230.955 451.485 230.386C451.802 229.817 452.232 229.373 452.773 229.056C453.324 228.739 453.94 228.58 454.621 228.58C455.302 228.58 455.914 228.739 456.455 229.056C456.996 229.373 457.421 229.817 457.729 230.386C458.037 230.946 458.191 231.59 458.191 232.318L458.177 232.626ZM454.621 229.434C453.912 229.434 453.314 229.663 452.829 230.12C452.353 230.568 452.082 231.156 452.017 231.884H457.239C457.174 231.156 456.898 230.568 456.413 230.12C455.937 229.663 455.34 229.434 454.621 229.434ZM461.166 230.078C461.399 229.583 461.745 229.21 462.202 228.958C462.669 228.706 463.243 228.58 463.924 228.58V229.546L463.686 229.532C462.911 229.532 462.305 229.77 461.866 230.246C461.427 230.722 461.208 231.389 461.208 232.248V236H460.214V228.636H461.166V230.078ZM472.226 228.636L468.95 236H467.928L464.666 228.636H465.702L468.46 234.908L471.246 228.636H472.226ZM479.833 232.626H473.673C473.729 233.391 474.023 234.012 474.555 234.488C475.087 234.955 475.759 235.188 476.571 235.188C477.028 235.188 477.448 235.109 477.831 234.95C478.214 234.782 478.545 234.539 478.825 234.222L479.385 234.866C479.058 235.258 478.648 235.557 478.153 235.762C477.668 235.967 477.131 236.07 476.543 236.07C475.787 236.07 475.115 235.911 474.527 235.594C473.948 235.267 473.496 234.819 473.169 234.25C472.842 233.681 472.679 233.037 472.679 232.318C472.679 231.599 472.833 230.955 473.141 230.386C473.458 229.817 473.888 229.373 474.429 229.056C474.98 228.739 475.596 228.58 476.277 228.58C476.958 228.58 477.57 228.739 478.111 229.056C478.652 229.373 479.077 229.817 479.385 230.386C479.693 230.946 479.847 231.59 479.847 232.318L479.833 232.626ZM476.277 229.434C475.568 229.434 474.97 229.663 474.485 230.12C474.009 230.568 473.738 231.156 473.673 231.884H478.895C478.83 231.156 478.554 230.568 478.069 230.12C477.593 229.663 476.996 229.434 476.277 229.434ZM488.59 225.612V236H487.638V234.544C487.34 235.039 486.943 235.417 486.448 235.678C485.963 235.939 485.412 236.07 484.796 236.07C484.106 236.07 483.48 235.911 482.92 235.594C482.36 235.277 481.922 234.833 481.604 234.264C481.287 233.695 481.128 233.046 481.128 232.318C481.128 231.59 481.287 230.941 481.604 230.372C481.922 229.803 482.36 229.364 482.92 229.056C483.48 228.739 484.106 228.58 484.796 228.58C485.394 228.58 485.93 228.706 486.406 228.958C486.892 229.201 487.288 229.56 487.596 230.036V225.612H488.59ZM484.88 235.188C485.394 235.188 485.856 235.071 486.266 234.838C486.686 234.595 487.013 234.255 487.246 233.816C487.489 233.377 487.61 232.878 487.61 232.318C487.61 231.758 487.489 231.259 487.246 230.82C487.013 230.381 486.686 230.045 486.266 229.812C485.856 229.569 485.394 229.448 484.88 229.448C484.358 229.448 483.886 229.569 483.466 229.812C483.056 230.045 482.729 230.381 482.486 230.82C482.253 231.259 482.136 231.758 482.136 232.318C482.136 232.878 482.253 233.377 482.486 233.816C482.729 234.255 483.056 234.595 483.466 234.838C483.886 235.071 484.358 235.188 484.88 235.188Z" fill="white" fill-opacity="0.8"/>
</svg>