{"accessors":[{"bufferView":0,"componentType":5126,"count":1411,"type":"VEC3","max":[19.999996185302734,3.1086244689504383E-15,20.000003814697266],"min":[-20.000003814697266,-1.3123339414596558,-19.999996185302734]},{"bufferView":1,"componentType":5126,"count":1411,"type":"VEC3","max":[0.26660636067390442,1.0,0.33901205658912659],"min":[-0.20681542158126831,0.932644248008728,-0.23218832910060883]},{"bufferView":2,"componentType":5126,"count":1411,"type":"VEC4","max":[-0.96324127912521362,0.26863479614257813,0.00802996288985014,1.0],"min":[-1.0,-0.21762958168983459,-0.0092367539182305336,1.0]},{"bufferView":3,"componentType":5126,"count":1411,"type":"VEC2","max":[1.0,-0.5],"min":[0.5,-1.0]},{"bufferView":4,"componentType":5123,"count":7926,"type":"SCALAR","max":[1410.0],"min":[0.0]},{"bufferView":5,"componentType":5126,"count":648,"type":"VEC3","max":[2.9559423923492432,2.1683521270751953,3.1799838542938232],"min":[-3.5352246761322021,-0.44372734427452087,-3.1799838542938232]},{"bufferView":6,"componentType":5126,"count":648,"type":"VEC3","max":[0.999163031578064,0.99966990947723389,0.98909211158752441],"min":[-0.97800123691558838,-1.0,-0.99961471557617188]},{"bufferView":7,"componentType":5126,"count":648,"type":"VEC4","max":[1.0,0.879211962223053,1.0,1.0],"min":[-0.99995076656341553,-0.99060577154159546,-0.99919396638870239,-1.0]},{"bufferView":8,"componentType":5126,"count":648,"type":"VEC2","max":[0.43582868576049805,-0.0074357390403747559],"min":[0.0037140846252441406,-0.99294942617416382]},{"bufferView":9,"componentType":5123,"count":1086,"type":"SCALAR","max":[647.0],"min":[0.0]},{"bufferView":10,"componentType":5126,"count":648,"type":"VEC3","max":[2.9559423923492432,2.1683521270751953,3.1799838542938232],"min":[-3.5352246761322021,-0.44372734427452087,-3.1799838542938232]},{"bufferView":11,"componentType":5126,"count":648,"type":"VEC3","max":[0.999163031578064,0.99966990947723389,0.98909211158752441],"min":[-0.97800123691558838,-1.0,-0.99961471557617188]},{"bufferView":12,"componentType":5126,"count":648,"type":"VEC4","max":[1.0,0.879211962223053,1.0,1.0],"min":[-0.99995076656341553,-0.99060577154159546,-0.99919396638870239,-1.0]},{"bufferView":13,"componentType":5126,"count":648,"type":"VEC2","max":[0.43582868576049805,-0.0074357390403747559],"min":[0.0037140846252441406,-0.99294942617416382]},{"bufferView":14,"componentType":5123,"count":1086,"type":"SCALAR","max":[647.0],"min":[0.0]},{"bufferView":15,"componentType":5126,"count":546,"type":"VEC3","max":[2.9899981021881104,3.5676181316375732,2.8179035186767578],"min":[-3.8418266773223877,-0.040709495544433594,-3.4786128997802734]},{"bufferView":16,"componentType":5126,"count":546,"type":"VEC3","max":[0.96864801645278931,0.99882489442825317,0.99907445907592773],"min":[-0.98354208469390869,-0.74868243932724,-0.98847699165344238]},{"bufferView":17,"componentType":5126,"count":546,"type":"VEC4","max":[1.0,0.96006858348846436,0.99997138977050781,1.0],"min":[-0.99678885936737061,-0.99173903465271,-0.99109262228012085,1.0]},{"bufferView":18,"componentType":5126,"count":546,"type":"VEC2","max":[0.49659347534179688,-0.017128758132457733],"min":[0.25181496143341064,-0.997360348701477]},{"bufferView":19,"componentType":5123,"count":1014,"type":"SCALAR","max":[545.0],"min":[0.0]},{"bufferView":20,"componentType":5126,"count":546,"type":"VEC3","max":[2.9899981021881104,3.5676181316375732,2.8179035186767578],"min":[-3.8418266773223877,-0.040709495544433594,-3.4786128997802734]},{"bufferView":21,"componentType":5126,"count":546,"type":"VEC3","max":[0.96864801645278931,0.99882489442825317,0.99907445907592773],"min":[-0.98354208469390869,-0.74868243932724,-0.98847699165344238]},{"bufferView":22,"componentType":5126,"count":546,"type":"VEC4","max":[1.0,0.96006858348846436,0.99997138977050781,1.0],"min":[-0.99678885936737061,-0.99173903465271,-0.99109262228012085,1.0]},{"bufferView":23,"componentType":5126,"count":546,"type":"VEC2","max":[0.49721819162368774,-0.017128758132457733],"min":[0.25243967771530151,-0.997360348701477]},{"bufferView":24,"componentType":5123,"count":1014,"type":"SCALAR","max":[545.0],"min":[0.0]},{"bufferView":25,"componentType":5126,"count":546,"type":"VEC3","max":[2.9899981021881104,3.5676181316375732,2.8179035186767578],"min":[-3.8418266773223877,-0.040709495544433594,-3.4786128997802734]},{"bufferView":26,"componentType":5126,"count":546,"type":"VEC3","max":[0.96864801645278931,0.99882489442825317,0.99907445907592773],"min":[-0.98354208469390869,-0.74868243932724,-0.98847699165344238]},{"bufferView":27,"componentType":5126,"count":546,"type":"VEC4","max":[1.0,0.96006858348846436,0.99997138977050781,1.0],"min":[-0.99678885936737061,-0.99173903465271,-0.99109262228012085,1.0]},{"bufferView":28,"componentType":5126,"count":546,"type":"VEC2","max":[0.24725833535194397,-0.017128758132457733],"min":[0.0024798214435577393,-0.997360348701477]},{"bufferView":29,"componentType":5123,"count":1014,"type":"SCALAR","max":[545.0],"min":[0.0]},{"bufferView":30,"componentType":5126,"count":82,"type":"VEC3","max":[0.93866407871246338,1.0926105976104736,0.86003494262695313],"min":[-0.61562132835388184,0.0,-0.91247844696044922]},{"bufferView":31,"componentType":5126,"count":82,"type":"VEC3","max":[0.94896394014358521,0.99244141578674316,0.99672383069992065],"min":[-0.99999809265136719,0.0,-0.94705736637115479]},{"bufferView":32,"componentType":5126,"count":82,"type":"VEC4","max":[0.99672383069992065,0.26544073224067688,0.99382126331329346,1.0],"min":[-0.98112761974334717,-0.342925488948822,-0.99999809265136719,1.0]},{"bufferView":33,"componentType":5126,"count":82,"type":"VEC2","max":[0.46181493997573853,-0.0877450704574585],"min":[0.25926116108894348,-0.982083797454834]},{"bufferView":34,"componentType":5121,"count":144,"type":"SCALAR","max":[81.0],"min":[0.0]},{"bufferView":35,"componentType":5126,"count":82,"type":"VEC3","max":[2.3649082183837891,1.0926105976104736,1.9330106973648071],"min":[-2.1655979156494141,0.0,-2.0063893795013428]},{"bufferView":36,"componentType":5126,"count":82,"type":"VEC3","max":[0.98967838287353516,0.99887090921401978,0.92581111192703247],"min":[-0.98946976661682129,0.0,-0.99940323829650879]},{"bufferView":37,"componentType":5126,"count":82,"type":"VEC4","max":[0.975090742111206,0.36814635992050171,0.99176400899887085,1.0],"min":[-0.99951469898223877,-0.22390003502368927,-0.99675518274307251,1.0]},{"bufferView":38,"componentType":5126,"count":82,"type":"VEC2","max":[0.46181493997573853,-0.0877450704574585],"min":[0.25926116108894348,-0.982083797454834]},{"bufferView":39,"componentType":5121,"count":144,"type":"SCALAR","max":[81.0],"min":[0.0]},{"bufferView":40,"componentType":5126,"count":108,"type":"VEC3","max":[1.2821140289306641,1.4500410556793213,0.71328639984130859],"min":[-1.5092668533325195,0.0,-2.6325387954711914]},{"bufferView":41,"componentType":5126,"count":108,"type":"VEC3","max":[0.99886143207550049,0.99783533811569214,0.95127010345458984],"min":[-0.94242948293685913,-0.033464446663856506,-0.98947012424468994]},{"bufferView":42,"componentType":5126,"count":108,"type":"VEC4","max":[0.97160744667053223,0.94099634885787964,0.99991941452026367,1.0],"min":[-0.99569183588027954,-0.98788422346115112,-0.9930422306060791,1.0]},{"bufferView":43,"componentType":5126,"count":108,"type":"VEC2","max":[0.498996376991272,-0.16156533360481262],"min":[0.28047823905944824,-0.99637091159820557]},{"bufferView":44,"componentType":5121,"count":192,"type":"SCALAR","max":[107.0],"min":[0.0]},{"bufferView":45,"componentType":5126,"count":108,"type":"VEC3","max":[1.2821140289306641,1.4500410556793213,0.71328639984130859],"min":[-1.5092668533325195,0.0,-2.6325387954711914]},{"bufferView":46,"componentType":5126,"count":108,"type":"VEC3","max":[0.99886143207550049,0.99783533811569214,0.95127010345458984],"min":[-0.94242948293685913,-0.033464446663856506,-0.98947012424468994]},{"bufferView":47,"componentType":5126,"count":108,"type":"VEC4","max":[0.97160744667053223,0.94099634885787964,0.99991941452026367,1.0],"min":[-0.99569183588027954,-0.98788422346115112,-0.9930422306060791,1.0]},{"bufferView":48,"componentType":5126,"count":108,"type":"VEC2","max":[0.498996376991272,-0.16156533360481262],"min":[0.28047823905944824,-0.99637091159820557]},{"bufferView":49,"componentType":5121,"count":192,"type":"SCALAR","max":[107.0],"min":[0.0]},{"bufferView":50,"componentType":5126,"count":403,"type":"VEC3","max":[16.000001907348633,0.0,16.000003814697266],"min":[-16.000001907348633,-15.020404815673828,-16.000003814697266]},{"bufferView":51,"componentType":5126,"count":403,"type":"VEC3","max":[0.95499247312545776,0.74890261888504028,0.97037827968597412],"min":[-0.99407404661178589,-0.98670178651809692,-0.95499193668365479]},{"bufferView":52,"componentType":5126,"count":403,"type":"VEC4","max":[1.0,0.787509560585022,0.99889814853668213,1.0],"min":[-1.0,-0.95876884460449219,-1.0,1.0]},{"bufferView":53,"componentType":5126,"count":403,"type":"VEC2","max":[1.3963935375213623,-0.0097050070762634277],"min":[-0.39781582355499268,-1.0070931911468506]},{"bufferView":54,"componentType":5123,"count":702,"type":"SCALAR","max":[402.0],"min":[0.0]},{"bufferView":55,"componentType":5126,"count":378,"type":"VEC3","max":[123.10870361328125,-38.315250396728516,1326.8095703125],"min":[-1236.1318359375,-966.20843505859375,-1620.9500732421875]},{"bufferView":56,"componentType":5126,"count":378,"type":"VEC3","max":[0.999698281288147,1.0,0.84968304634094238],"min":[-0.0063941203989088535,-0.27718955278396606,-0.87069481611251831]},{"bufferView":57,"componentType":5126,"count":378,"type":"VEC4","max":[0.99994182586669922,0.98820680379867554,0.999813973903656,1.0],"min":[-0.85544717311859131,-0.99870669841766357,-0.99975448846817017,1.0]},{"bufferView":58,"componentType":5126,"count":378,"type":"VEC2","max":[0.24664026498794556,-0.0046227052807807922],"min":[0.0012694597244262695,-0.98859697580337524]},{"bufferView":59,"componentType":5123,"count":960,"type":"SCALAR","max":[377.0],"min":[0.0]},{"bufferView":60,"componentType":5126,"count":1717,"type":"VEC3","max":[19.446229934692383,12.104448318481445,19.578594207763672],"min":[-19.710948944091797,-12.104447364807129,-19.578592300415039]},{"bufferView":61,"componentType":5126,"count":1717,"type":"VEC3","max":[0.98982715606689453,1.0,0.9982561469078064],"min":[-0.99698609113693237,-1.0,-0.99995458126068115]},{"bufferView":62,"componentType":5126,"count":1717,"type":"VEC4","max":[1.0,0.87921351194381714,0.998589813709259,1.0],"min":[-0.99999558925628662,-0.990605890750885,-0.99973934888839722,-1.0]},{"bufferView":63,"componentType":5126,"count":1717,"type":"VEC2","max":[0.9969220757484436,-0.0074357390403747559],"min":[0.00886639952659607,-0.99692213535308838]},{"bufferView":64,"componentType":5123,"count":2928,"type":"SCALAR","max":[1716.0],"min":[0.0]}],"asset":{"version":"2.0"},"buffers":[{"uri":"RockIsland.bin","byteLength":382836}],"bufferViews":[{"buffer":0,"byteLength":16932},{"buffer":0,"byteOffset":16932,"byteLength":16932},{"buffer":0,"byteOffset":33864,"byteLength":22576},{"buffer":0,"byteOffset":56440,"byteLength":11288},{"buffer":0,"byteOffset":67728,"byteLength":15852},{"buffer":0,"byteOffset":83580,"byteLength":7776},{"buffer":0,"byteOffset":91356,"byteLength":7776},{"buffer":0,"byteOffset":99132,"byteLength":10368},{"buffer":0,"byteOffset":109500,"byteLength":5184},{"buffer":0,"byteOffset":114684,"byteLength":2172},{"buffer":0,"byteOffset":116856,"byteLength":7776},{"buffer":0,"byteOffset":124632,"byteLength":7776},{"buffer":0,"byteOffset":132408,"byteLength":10368},{"buffer":0,"byteOffset":142776,"byteLength":5184},{"buffer":0,"byteOffset":147960,"byteLength":2172},{"buffer":0,"byteOffset":150132,"byteLength":6552},{"buffer":0,"byteOffset":156684,"byteLength":6552},{"buffer":0,"byteOffset":163236,"byteLength":8736},{"buffer":0,"byteOffset":171972,"byteLength":4368},{"buffer":0,"byteOffset":176340,"byteLength":2028},{"buffer":0,"byteOffset":178368,"byteLength":6552},{"buffer":0,"byteOffset":184920,"byteLength":6552},{"buffer":0,"byteOffset":191472,"byteLength":8736},{"buffer":0,"byteOffset":200208,"byteLength":4368},{"buffer":0,"byteOffset":204576,"byteLength":2028},{"buffer":0,"byteOffset":206604,"byteLength":6552},{"buffer":0,"byteOffset":213156,"byteLength":6552},{"buffer":0,"byteOffset":219708,"byteLength":8736},{"buffer":0,"byteOffset":228444,"byteLength":4368},{"buffer":0,"byteOffset":232812,"byteLength":2028},{"buffer":0,"byteOffset":234840,"byteLength":984},{"buffer":0,"byteOffset":235824,"byteLength":984},{"buffer":0,"byteOffset":236808,"byteLength":1312},{"buffer":0,"byteOffset":238120,"byteLength":656},{"buffer":0,"byteOffset":238776,"byteLength":144},{"buffer":0,"byteOffset":238920,"byteLength":984},{"buffer":0,"byteOffset":239904,"byteLength":984},{"buffer":0,"byteOffset":240888,"byteLength":1312},{"buffer":0,"byteOffset":242200,"byteLength":656},{"buffer":0,"byteOffset":242856,"byteLength":144},{"buffer":0,"byteOffset":243000,"byteLength":1296},{"buffer":0,"byteOffset":244296,"byteLength":1296},{"buffer":0,"byteOffset":245592,"byteLength":1728},{"buffer":0,"byteOffset":247320,"byteLength":864},{"buffer":0,"byteOffset":248184,"byteLength":192},{"buffer":0,"byteOffset":248376,"byteLength":1296},{"buffer":0,"byteOffset":249672,"byteLength":1296},{"buffer":0,"byteOffset":250968,"byteLength":1728},{"buffer":0,"byteOffset":252696,"byteLength":864},{"buffer":0,"byteOffset":253560,"byteLength":192},{"buffer":0,"byteOffset":253752,"byteLength":4836},{"buffer":0,"byteOffset":258588,"byteLength":4836},{"buffer":0,"byteOffset":263424,"byteLength":6448},{"buffer":0,"byteOffset":269872,"byteLength":3224},{"buffer":0,"byteOffset":273096,"byteLength":1404},{"buffer":0,"byteOffset":274500,"byteLength":4536},{"buffer":0,"byteOffset":279036,"byteLength":4536},{"buffer":0,"byteOffset":283572,"byteLength":6048},{"buffer":0,"byteOffset":289620,"byteLength":3024},{"buffer":0,"byteOffset":292644,"byteLength":1920},{"buffer":0,"byteOffset":294564,"byteLength":20604},{"buffer":0,"byteOffset":315168,"byteLength":20604},{"buffer":0,"byteOffset":335772,"byteLength":27472},{"buffer":0,"byteOffset":363244,"byteLength":13736},{"buffer":0,"byteOffset":376980,"byteLength":5856}],"images":[{"uri":"LowPolyGradients.png","name":"LowPolyGradients"}],"materials":[{"pbrMetallicRoughness":{"baseColorTexture":{"index":0},"metallicFactor":0.0},"name":"LowPolyGradients"}],"meshes":[{"primitives":[{"attributes":{"POSITION":0,"NORMAL":1,"TANGENT":2,"TEXCOORD_0":3},"indices":4,"material":0}],"name":"RockIsland_Meshes"},{"primitives":[{"attributes":{"POSITION":5,"NORMAL":6,"TANGENT":7,"TEXCOORD_0":8},"indices":9,"material":0}],"name":"RockCollapse_00"},{"primitives":[{"attributes":{"POSITION":10,"NORMAL":11,"TANGENT":12,"TEXCOORD_0":13},"indices":14,"material":0}],"name":"RockCollapse_01"},{"primitives":[{"attributes":{"POSITION":15,"NORMAL":16,"TANGENT":17,"TEXCOORD_0":18},"indices":19,"material":0}],"name":"RockMed_00"},{"primitives":[{"attributes":{"POSITION":20,"NORMAL":21,"TANGENT":22,"TEXCOORD_0":23},"indices":24,"material":0}],"name":"RockMed_01"},{"primitives":[{"attributes":{"POSITION":25,"NORMAL":26,"TANGENT":27,"TEXCOORD_0":28},"indices":29,"material":0}],"name":"RockMed_02"},{"primitives":[{"attributes":{"POSITION":30,"NORMAL":31,"TANGENT":32,"TEXCOORD_0":33},"indices":34,"material":0}],"name":"RockSmall_00"},{"primitives":[{"attributes":{"POSITION":35,"NORMAL":36,"TANGENT":37,"TEXCOORD_0":38},"indices":39,"material":0}],"name":"RockSmall_01"},{"primitives":[{"attributes":{"POSITION":40,"NORMAL":41,"TANGENT":42,"TEXCOORD_0":43},"indices":44,"material":0}],"name":"RockSmallA_01"},{"primitives":[{"attributes":{"POSITION":45,"NORMAL":46,"TANGENT":47,"TEXCOORD_0":48},"indices":49,"material":0}],"name":"RockSmallA_02"},{"primitives":[{"attributes":{"POSITION":50,"NORMAL":51,"TANGENT":52,"TEXCOORD_0":53},"indices":54,"material":0}],"name":"RockUnderChunk"},{"primitives":[{"attributes":{"POSITION":55,"NORMAL":56,"TANGENT":57,"TEXCOORD_0":58},"indices":59,"material":0}],"name":"RockLandscape_background"},{"primitives":[{"attributes":{"POSITION":60,"NORMAL":61,"TANGENT":62,"TEXCOORD_0":63},"indices":64,"material":0}],"name":"RockIsland_Floater (1)"}],"nodes":[{"children":[1,2,3,4,5,6,7,8,9,10],"mesh":0,"name":"RockIsland_Meshes"},{"mesh":1,"scale":[1.4877162,1.4877162,1.4877162],"translation":[4.975782,-0.778213739,12.5263834],"name":"RockCollapse_00"},{"mesh":2,"rotation":[2.24125927E-17,0.8660254,2.24125927E-17,0.5],"scale":[2.08280277,2.08280277,2.08280277],"translation":[-12.5198393,-0.08149375,0.669323862],"name":"RockCollapse_01"},{"mesh":3,"scale":[0.419126272,0.419126272,0.419126272],"translation":[-2.89321947,-0.181781,8.143376],"name":"RockMed_00"},{"mesh":4,"rotation":[-8.00039162E-17,-0.923879564,-8.00039162E-17,0.382683456],"scale":[0.2933884,0.2933884,0.2933884],"translation":[5.78990173,-0.618600249,-2.91498733],"name":"RockMed_01"},{"mesh":5,"scale":[0.838252544,0.838252544,0.838252544],"translation":[9.599285,-0.566143334,-9.459988],"name":"RockMed_02"},{"mesh":6,"scale":[0.419126272,0.419126272,0.419126272],"translation":[-1.54470789,-0.181781,7.39793253],"name":"RockSmall_00"},{"mesh":7,"scale":[0.419126272,0.419126272,0.419126272],"translation":[0.2531415,-0.181781,-10.5903826],"name":"RockSmall_01"},{"mesh":8,"rotation":[-6.123234E-17,-1.0,-6.123234E-17,-5.05321539E-16],"scale":[0.419126272,0.419126272,0.419126272],"translation":[-3.29713774,-0.3228769,-5.73409271],"name":"RockSmallA_01"},{"mesh":9,"rotation":[-6.123234E-17,-1.0,-6.123234E-17,-5.05321539E-16],"scale":[1.54238474,0.7711924,1.54238474],"translation":[11.5860052,-0.1732521,2.40355229],"name":"RockSmallA_02"},{"mesh":10,"scale":[1.237053,1.237053,1.237053],"translation":[1.90734863E-06,-1.382638,2.861023E-06],"name":"RockUnderChunk"},{"mesh":11,"name":"RockLandscape_background"},{"mesh":12,"rotation":[0.0,0.8957491,0.0,0.44456014],"translation":[-106.7,47.2,-114.0],"name":"RockIsland_Floater (1)"},{"mesh":12,"rotation":[0.0,0.802093,0.0,-0.597199142],"translation":[195.6,129.0,336.0],"name":"RockIsland_Floater (4)"},{"mesh":12,"rotation":[0.0,0.8117935,0.0,0.5839446],"translation":[-26.0,10.4,129.0],"name":"RockIsland_Floater"},{"mesh":12,"rotation":[0.0,-0.394923657,0.0,0.918714],"translation":[-288.3,150.8,116.4],"name":"RockIsland_Floater (3)"},{"mesh":12,"rotation":[0.0,-0.4841211,0.0,0.875001],"translation":[102.9,29.8,-102.6],"name":"RockIsland_Floater (2)"}],"samplers":[{}],"scene":0,"scenes":[{"nodes":[0,11,12,13,14,15,16],"name":"RockIsland"}],"textures":[{"sampler":0,"source":0,"name":"LowPolyGradients"}]}